%TF.GenerationSoftware,KiCad,Pcbnew,(5.1.4)-1*%
%TF.CreationDate,2019-11-27T14:19:05+02:00*%
%TF.ProjectId,DIVA_promicro,44495641-5f70-4726-9f6d-6963726f2e6b,rev?*%
%TF.SameCoordinates,Original*%
%TF.FileFunction,Legend,Top*%
%TF.FilePolarity,Positive*%
%FSLAX46Y46*%
G04 Gerber Fmt 4.6, Leading zero omitted, Abs format (unit mm)*
G04 Created by KiCad (PCBNEW (5.1.4)-1) date 2019-11-27 14:19:05*
%MOMM*%
%LPD*%
G04 APERTURE LIST*
%ADD10C,0.250000*%
%ADD11C,0.300000*%
%ADD12C,0.010000*%
%ADD13C,0.120000*%
%ADD14C,0.150000*%
G04 APERTURE END LIST*
D10*
X143984523Y-84377380D02*
X143508333Y-84377380D01*
X143508333Y-83377380D01*
D11*
X126800000Y-118078571D02*
X127085714Y-118078571D01*
X127228571Y-118150000D01*
X127371428Y-118292857D01*
X127442857Y-118578571D01*
X127442857Y-119078571D01*
X127371428Y-119364285D01*
X127228571Y-119507142D01*
X127085714Y-119578571D01*
X126800000Y-119578571D01*
X126657142Y-119507142D01*
X126514285Y-119364285D01*
X126442857Y-119078571D01*
X126442857Y-118578571D01*
X126514285Y-118292857D01*
X126657142Y-118150000D01*
X126800000Y-118078571D01*
X128728571Y-118578571D02*
X128728571Y-119578571D01*
X128085714Y-118578571D02*
X128085714Y-119364285D01*
X128157142Y-119507142D01*
X128300000Y-119578571D01*
X128514285Y-119578571D01*
X128657142Y-119507142D01*
X128728571Y-119435714D01*
X129228571Y-118578571D02*
X129800000Y-118578571D01*
X129442857Y-118078571D02*
X129442857Y-119364285D01*
X129514285Y-119507142D01*
X129657142Y-119578571D01*
X129800000Y-119578571D01*
X121453571Y-118932142D02*
X122596428Y-118932142D01*
X125071428Y-118907142D02*
X123928571Y-118907142D01*
X124500000Y-119478571D02*
X124500000Y-118335714D01*
X111228571Y-46607142D02*
X112371428Y-46607142D01*
X115046428Y-46607142D02*
X113903571Y-46607142D01*
X114475000Y-47178571D02*
X114475000Y-46035714D01*
X106328571Y-40882142D02*
X107471428Y-40882142D01*
X140078571Y-40682142D02*
X141221428Y-40682142D01*
X107521428Y-38157142D02*
X106378571Y-38157142D01*
X106950000Y-38728571D02*
X106950000Y-37585714D01*
X141221428Y-38157142D02*
X140078571Y-38157142D01*
X140650000Y-38728571D02*
X140650000Y-37585714D01*
X156121428Y-40682142D02*
X154978571Y-40682142D01*
X155550000Y-41253571D02*
X155550000Y-40110714D01*
X156071428Y-38257142D02*
X154928571Y-38257142D01*
X155500000Y-38828571D02*
X155500000Y-37685714D01*
X155353571Y-50957142D02*
X156496428Y-50957142D01*
X156421428Y-48157142D02*
X155278571Y-48157142D01*
X155850000Y-48728571D02*
X155850000Y-47585714D01*
D10*
X104227619Y-51557142D02*
X104180000Y-51604761D01*
X104037142Y-51652380D01*
X103941904Y-51652380D01*
X103799047Y-51604761D01*
X103703809Y-51509523D01*
X103656190Y-51414285D01*
X103608571Y-51223809D01*
X103608571Y-51080952D01*
X103656190Y-50890476D01*
X103703809Y-50795238D01*
X103799047Y-50700000D01*
X103941904Y-50652380D01*
X104037142Y-50652380D01*
X104180000Y-50700000D01*
X104227619Y-50747619D01*
X104560952Y-50985714D02*
X104799047Y-51652380D01*
X105037142Y-50985714D02*
X104799047Y-51652380D01*
X104703809Y-51890476D01*
X104656190Y-51938095D01*
X104560952Y-51985714D01*
X105418095Y-50985714D02*
X105418095Y-51985714D01*
X105418095Y-51033333D02*
X105513333Y-50985714D01*
X105703809Y-50985714D01*
X105799047Y-51033333D01*
X105846666Y-51080952D01*
X105894285Y-51176190D01*
X105894285Y-51461904D01*
X105846666Y-51557142D01*
X105799047Y-51604761D01*
X105703809Y-51652380D01*
X105513333Y-51652380D01*
X105418095Y-51604761D01*
X106322857Y-51652380D02*
X106322857Y-50985714D01*
X106322857Y-51176190D02*
X106370476Y-51080952D01*
X106418095Y-51033333D01*
X106513333Y-50985714D01*
X106608571Y-50985714D01*
X107322857Y-51604761D02*
X107227619Y-51652380D01*
X107037142Y-51652380D01*
X106941904Y-51604761D01*
X106894285Y-51509523D01*
X106894285Y-51128571D01*
X106941904Y-51033333D01*
X107037142Y-50985714D01*
X107227619Y-50985714D01*
X107322857Y-51033333D01*
X107370476Y-51128571D01*
X107370476Y-51223809D01*
X106894285Y-51319047D01*
X107751428Y-51604761D02*
X107846666Y-51652380D01*
X108037142Y-51652380D01*
X108132380Y-51604761D01*
X108180000Y-51509523D01*
X108180000Y-51461904D01*
X108132380Y-51366666D01*
X108037142Y-51319047D01*
X107894285Y-51319047D01*
X107799047Y-51271428D01*
X107751428Y-51176190D01*
X107751428Y-51128571D01*
X107799047Y-51033333D01*
X107894285Y-50985714D01*
X108037142Y-50985714D01*
X108132380Y-51033333D01*
X108560952Y-51604761D02*
X108656190Y-51652380D01*
X108846666Y-51652380D01*
X108941904Y-51604761D01*
X108989523Y-51509523D01*
X108989523Y-51461904D01*
X108941904Y-51366666D01*
X108846666Y-51319047D01*
X108703809Y-51319047D01*
X108608571Y-51271428D01*
X108560952Y-51176190D01*
X108560952Y-51128571D01*
X108608571Y-51033333D01*
X108703809Y-50985714D01*
X108846666Y-50985714D01*
X108941904Y-51033333D01*
X104703809Y-53402380D02*
X104703809Y-52402380D01*
X105084761Y-52402380D01*
X105180000Y-52450000D01*
X105227619Y-52497619D01*
X105275238Y-52592857D01*
X105275238Y-52735714D01*
X105227619Y-52830952D01*
X105180000Y-52878571D01*
X105084761Y-52926190D01*
X104703809Y-52926190D01*
X105846666Y-53402380D02*
X105751428Y-53354761D01*
X105703809Y-53307142D01*
X105656190Y-53211904D01*
X105656190Y-52926190D01*
X105703809Y-52830952D01*
X105751428Y-52783333D01*
X105846666Y-52735714D01*
X105989523Y-52735714D01*
X106084761Y-52783333D01*
X106132380Y-52830952D01*
X106180000Y-52926190D01*
X106180000Y-53211904D01*
X106132380Y-53307142D01*
X106084761Y-53354761D01*
X105989523Y-53402380D01*
X105846666Y-53402380D01*
X106513333Y-52735714D02*
X106703809Y-53402380D01*
X106894285Y-52926190D01*
X107084761Y-53402380D01*
X107275238Y-52735714D01*
X108037142Y-53354761D02*
X107941904Y-53402380D01*
X107751428Y-53402380D01*
X107656190Y-53354761D01*
X107608571Y-53259523D01*
X107608571Y-52878571D01*
X107656190Y-52783333D01*
X107751428Y-52735714D01*
X107941904Y-52735714D01*
X108037142Y-52783333D01*
X108084761Y-52878571D01*
X108084761Y-52973809D01*
X107608571Y-53069047D01*
X108513333Y-53402380D02*
X108513333Y-52735714D01*
X108513333Y-52926190D02*
X108560952Y-52830952D01*
X108608571Y-52783333D01*
X108703809Y-52735714D01*
X108799047Y-52735714D01*
X149233333Y-32777380D02*
X148757142Y-32777380D01*
X148757142Y-31777380D01*
X149804761Y-33110714D02*
X149804761Y-31682142D01*
X151090476Y-32777380D02*
X150757142Y-32301190D01*
X150519047Y-32777380D02*
X150519047Y-31777380D01*
X150900000Y-31777380D01*
X150995238Y-31825000D01*
X151042857Y-31872619D01*
X151090476Y-31967857D01*
X151090476Y-32110714D01*
X151042857Y-32205952D01*
X150995238Y-32253571D01*
X150900000Y-32301190D01*
X150519047Y-32301190D01*
X149257142Y-34527380D02*
X148780952Y-34527380D01*
X148780952Y-33527380D01*
X149590476Y-34003571D02*
X149923809Y-34003571D01*
X150066666Y-34527380D02*
X149590476Y-34527380D01*
X149590476Y-33527380D01*
X150066666Y-33527380D01*
X150495238Y-34527380D02*
X150495238Y-33527380D01*
X150733333Y-33527380D01*
X150876190Y-33575000D01*
X150971428Y-33670238D01*
X151019047Y-33765476D01*
X151066666Y-33955952D01*
X151066666Y-34098809D01*
X151019047Y-34289285D01*
X150971428Y-34384523D01*
X150876190Y-34479761D01*
X150733333Y-34527380D01*
X150495238Y-34527380D01*
X108573095Y-31787380D02*
X109144523Y-31787380D01*
X108858809Y-32787380D02*
X108858809Y-31787380D01*
X109477857Y-32787380D02*
X109477857Y-32120714D01*
X109477857Y-32311190D02*
X109525476Y-32215952D01*
X109573095Y-32168333D01*
X109668333Y-32120714D01*
X109763571Y-32120714D01*
X110096904Y-32787380D02*
X110096904Y-32120714D01*
X110096904Y-31787380D02*
X110049285Y-31835000D01*
X110096904Y-31882619D01*
X110144523Y-31835000D01*
X110096904Y-31787380D01*
X110096904Y-31882619D01*
X111001666Y-32787380D02*
X111001666Y-32263571D01*
X110954047Y-32168333D01*
X110858809Y-32120714D01*
X110668333Y-32120714D01*
X110573095Y-32168333D01*
X111001666Y-32739761D02*
X110906428Y-32787380D01*
X110668333Y-32787380D01*
X110573095Y-32739761D01*
X110525476Y-32644523D01*
X110525476Y-32549285D01*
X110573095Y-32454047D01*
X110668333Y-32406428D01*
X110906428Y-32406428D01*
X111001666Y-32358809D01*
X111477857Y-32120714D02*
X111477857Y-32787380D01*
X111477857Y-32215952D02*
X111525476Y-32168333D01*
X111620714Y-32120714D01*
X111763571Y-32120714D01*
X111858809Y-32168333D01*
X111906428Y-32263571D01*
X111906428Y-32787380D01*
X112811190Y-32120714D02*
X112811190Y-32930238D01*
X112763571Y-33025476D01*
X112715952Y-33073095D01*
X112620714Y-33120714D01*
X112477857Y-33120714D01*
X112382619Y-33073095D01*
X112811190Y-32739761D02*
X112715952Y-32787380D01*
X112525476Y-32787380D01*
X112430238Y-32739761D01*
X112382619Y-32692142D01*
X112335000Y-32596904D01*
X112335000Y-32311190D01*
X112382619Y-32215952D01*
X112430238Y-32168333D01*
X112525476Y-32120714D01*
X112715952Y-32120714D01*
X112811190Y-32168333D01*
X113430238Y-32787380D02*
X113335000Y-32739761D01*
X113287380Y-32644523D01*
X113287380Y-31787380D01*
X114192142Y-32739761D02*
X114096904Y-32787380D01*
X113906428Y-32787380D01*
X113811190Y-32739761D01*
X113763571Y-32644523D01*
X113763571Y-32263571D01*
X113811190Y-32168333D01*
X113906428Y-32120714D01*
X114096904Y-32120714D01*
X114192142Y-32168333D01*
X114239761Y-32263571D01*
X114239761Y-32358809D01*
X113763571Y-32454047D01*
X111192142Y-34537380D02*
X110715952Y-34537380D01*
X110715952Y-33537380D01*
X111525476Y-34013571D02*
X111858809Y-34013571D01*
X112001666Y-34537380D02*
X111525476Y-34537380D01*
X111525476Y-33537380D01*
X112001666Y-33537380D01*
X112430238Y-34537380D02*
X112430238Y-33537380D01*
X112668333Y-33537380D01*
X112811190Y-33585000D01*
X112906428Y-33680238D01*
X112954047Y-33775476D01*
X113001666Y-33965952D01*
X113001666Y-34108809D01*
X112954047Y-34299285D01*
X112906428Y-34394523D01*
X112811190Y-34489761D01*
X112668333Y-34537380D01*
X112430238Y-34537380D01*
X116773095Y-32669761D02*
X116915952Y-32717380D01*
X117154047Y-32717380D01*
X117249285Y-32669761D01*
X117296904Y-32622142D01*
X117344523Y-32526904D01*
X117344523Y-32431666D01*
X117296904Y-32336428D01*
X117249285Y-32288809D01*
X117154047Y-32241190D01*
X116963571Y-32193571D01*
X116868333Y-32145952D01*
X116820714Y-32098333D01*
X116773095Y-32003095D01*
X116773095Y-31907857D01*
X116820714Y-31812619D01*
X116868333Y-31765000D01*
X116963571Y-31717380D01*
X117201666Y-31717380D01*
X117344523Y-31765000D01*
X118201666Y-32050714D02*
X118201666Y-33050714D01*
X118201666Y-32669761D02*
X118106428Y-32717380D01*
X117915952Y-32717380D01*
X117820714Y-32669761D01*
X117773095Y-32622142D01*
X117725476Y-32526904D01*
X117725476Y-32241190D01*
X117773095Y-32145952D01*
X117820714Y-32098333D01*
X117915952Y-32050714D01*
X118106428Y-32050714D01*
X118201666Y-32098333D01*
X119106428Y-32050714D02*
X119106428Y-32717380D01*
X118677857Y-32050714D02*
X118677857Y-32574523D01*
X118725476Y-32669761D01*
X118820714Y-32717380D01*
X118963571Y-32717380D01*
X119058809Y-32669761D01*
X119106428Y-32622142D01*
X120011190Y-32717380D02*
X120011190Y-32193571D01*
X119963571Y-32098333D01*
X119868333Y-32050714D01*
X119677857Y-32050714D01*
X119582619Y-32098333D01*
X120011190Y-32669761D02*
X119915952Y-32717380D01*
X119677857Y-32717380D01*
X119582619Y-32669761D01*
X119535000Y-32574523D01*
X119535000Y-32479285D01*
X119582619Y-32384047D01*
X119677857Y-32336428D01*
X119915952Y-32336428D01*
X120011190Y-32288809D01*
X120487380Y-32717380D02*
X120487380Y-32050714D01*
X120487380Y-32241190D02*
X120535000Y-32145952D01*
X120582619Y-32098333D01*
X120677857Y-32050714D01*
X120773095Y-32050714D01*
X121487380Y-32669761D02*
X121392142Y-32717380D01*
X121201666Y-32717380D01*
X121106428Y-32669761D01*
X121058809Y-32574523D01*
X121058809Y-32193571D01*
X121106428Y-32098333D01*
X121201666Y-32050714D01*
X121392142Y-32050714D01*
X121487380Y-32098333D01*
X121535000Y-32193571D01*
X121535000Y-32288809D01*
X121058809Y-32384047D01*
X118892142Y-34467380D02*
X118415952Y-34467380D01*
X118415952Y-33467380D01*
X119225476Y-33943571D02*
X119558809Y-33943571D01*
X119701666Y-34467380D02*
X119225476Y-34467380D01*
X119225476Y-33467380D01*
X119701666Y-33467380D01*
X120130238Y-34467380D02*
X120130238Y-33467380D01*
X120368333Y-33467380D01*
X120511190Y-33515000D01*
X120606428Y-33610238D01*
X120654047Y-33705476D01*
X120701666Y-33895952D01*
X120701666Y-34038809D01*
X120654047Y-34229285D01*
X120606428Y-34324523D01*
X120511190Y-34419761D01*
X120368333Y-34467380D01*
X120130238Y-34467380D01*
X125672142Y-32562142D02*
X125624523Y-32609761D01*
X125481666Y-32657380D01*
X125386428Y-32657380D01*
X125243571Y-32609761D01*
X125148333Y-32514523D01*
X125100714Y-32419285D01*
X125053095Y-32228809D01*
X125053095Y-32085952D01*
X125100714Y-31895476D01*
X125148333Y-31800238D01*
X125243571Y-31705000D01*
X125386428Y-31657380D01*
X125481666Y-31657380D01*
X125624523Y-31705000D01*
X125672142Y-31752619D01*
X126100714Y-32657380D02*
X126100714Y-31990714D01*
X126100714Y-32181190D02*
X126148333Y-32085952D01*
X126195952Y-32038333D01*
X126291190Y-31990714D01*
X126386428Y-31990714D01*
X126862619Y-32657380D02*
X126767380Y-32609761D01*
X126719761Y-32562142D01*
X126672142Y-32466904D01*
X126672142Y-32181190D01*
X126719761Y-32085952D01*
X126767380Y-32038333D01*
X126862619Y-31990714D01*
X127005476Y-31990714D01*
X127100714Y-32038333D01*
X127148333Y-32085952D01*
X127195952Y-32181190D01*
X127195952Y-32466904D01*
X127148333Y-32562142D01*
X127100714Y-32609761D01*
X127005476Y-32657380D01*
X126862619Y-32657380D01*
X127576904Y-32609761D02*
X127672142Y-32657380D01*
X127862619Y-32657380D01*
X127957857Y-32609761D01*
X128005476Y-32514523D01*
X128005476Y-32466904D01*
X127957857Y-32371666D01*
X127862619Y-32324047D01*
X127719761Y-32324047D01*
X127624523Y-32276428D01*
X127576904Y-32181190D01*
X127576904Y-32133571D01*
X127624523Y-32038333D01*
X127719761Y-31990714D01*
X127862619Y-31990714D01*
X127957857Y-32038333D01*
X128386428Y-32609761D02*
X128481666Y-32657380D01*
X128672142Y-32657380D01*
X128767380Y-32609761D01*
X128815000Y-32514523D01*
X128815000Y-32466904D01*
X128767380Y-32371666D01*
X128672142Y-32324047D01*
X128529285Y-32324047D01*
X128434047Y-32276428D01*
X128386428Y-32181190D01*
X128386428Y-32133571D01*
X128434047Y-32038333D01*
X128529285Y-31990714D01*
X128672142Y-31990714D01*
X128767380Y-32038333D01*
X126672142Y-34407380D02*
X126195952Y-34407380D01*
X126195952Y-33407380D01*
X127005476Y-33883571D02*
X127338809Y-33883571D01*
X127481666Y-34407380D02*
X127005476Y-34407380D01*
X127005476Y-33407380D01*
X127481666Y-33407380D01*
X127910238Y-34407380D02*
X127910238Y-33407380D01*
X128148333Y-33407380D01*
X128291190Y-33455000D01*
X128386428Y-33550238D01*
X128434047Y-33645476D01*
X128481666Y-33835952D01*
X128481666Y-33978809D01*
X128434047Y-34169285D01*
X128386428Y-34264523D01*
X128291190Y-34359761D01*
X128148333Y-34407380D01*
X127910238Y-34407380D01*
X133026904Y-32612142D02*
X132979285Y-32659761D01*
X132836428Y-32707380D01*
X132741190Y-32707380D01*
X132598333Y-32659761D01*
X132503095Y-32564523D01*
X132455476Y-32469285D01*
X132407857Y-32278809D01*
X132407857Y-32135952D01*
X132455476Y-31945476D01*
X132503095Y-31850238D01*
X132598333Y-31755000D01*
X132741190Y-31707380D01*
X132836428Y-31707380D01*
X132979285Y-31755000D01*
X133026904Y-31802619D01*
X133455476Y-32707380D02*
X133455476Y-32040714D01*
X133455476Y-31707380D02*
X133407857Y-31755000D01*
X133455476Y-31802619D01*
X133503095Y-31755000D01*
X133455476Y-31707380D01*
X133455476Y-31802619D01*
X133931666Y-32707380D02*
X133931666Y-32040714D01*
X133931666Y-32231190D02*
X133979285Y-32135952D01*
X134026904Y-32088333D01*
X134122142Y-32040714D01*
X134217380Y-32040714D01*
X134979285Y-32659761D02*
X134884047Y-32707380D01*
X134693571Y-32707380D01*
X134598333Y-32659761D01*
X134550714Y-32612142D01*
X134503095Y-32516904D01*
X134503095Y-32231190D01*
X134550714Y-32135952D01*
X134598333Y-32088333D01*
X134693571Y-32040714D01*
X134884047Y-32040714D01*
X134979285Y-32088333D01*
X135550714Y-32707380D02*
X135455476Y-32659761D01*
X135407857Y-32564523D01*
X135407857Y-31707380D01*
X136312619Y-32659761D02*
X136217380Y-32707380D01*
X136026904Y-32707380D01*
X135931666Y-32659761D01*
X135884047Y-32564523D01*
X135884047Y-32183571D01*
X135931666Y-32088333D01*
X136026904Y-32040714D01*
X136217380Y-32040714D01*
X136312619Y-32088333D01*
X136360238Y-32183571D01*
X136360238Y-32278809D01*
X135884047Y-32374047D01*
X134122142Y-34457380D02*
X133645952Y-34457380D01*
X133645952Y-33457380D01*
X134455476Y-33933571D02*
X134788809Y-33933571D01*
X134931666Y-34457380D02*
X134455476Y-34457380D01*
X134455476Y-33457380D01*
X134931666Y-33457380D01*
X135360238Y-34457380D02*
X135360238Y-33457380D01*
X135598333Y-33457380D01*
X135741190Y-33505000D01*
X135836428Y-33600238D01*
X135884047Y-33695476D01*
X135931666Y-33885952D01*
X135931666Y-34028809D01*
X135884047Y-34219285D01*
X135836428Y-34314523D01*
X135741190Y-34409761D01*
X135598333Y-34457380D01*
X135360238Y-34457380D01*
D12*
G36*
X112177853Y-118621403D02*
G01*
X112175517Y-118681856D01*
X112169801Y-118800681D01*
X112163112Y-118884752D01*
X112154259Y-118941648D01*
X112142048Y-118978947D01*
X112125288Y-119004229D01*
X112124719Y-119004863D01*
X112056397Y-119061222D01*
X111975627Y-119100190D01*
X111898444Y-119114868D01*
X111873986Y-119112758D01*
X111801689Y-119089685D01*
X111732784Y-119052726D01*
X111681085Y-119010474D01*
X111662050Y-118980919D01*
X111636631Y-118939472D01*
X111594534Y-118930311D01*
X111532244Y-118953700D01*
X111466194Y-118995543D01*
X111403074Y-119039990D01*
X111351416Y-119076323D01*
X111324804Y-119094994D01*
X111280493Y-119105801D01*
X111243589Y-119083312D01*
X111228002Y-119036064D01*
X111228000Y-119035593D01*
X111231299Y-119002674D01*
X111245278Y-118973550D01*
X111276068Y-118942352D01*
X111329796Y-118903212D01*
X111412591Y-118850261D01*
X111437940Y-118834554D01*
X111522391Y-118778579D01*
X111574744Y-118730940D01*
X111601230Y-118682004D01*
X111608083Y-118622141D01*
X111605268Y-118575971D01*
X111598417Y-118504250D01*
X111439667Y-118493667D01*
X111359167Y-118486352D01*
X111293864Y-118476858D01*
X111256513Y-118467095D01*
X111254459Y-118465959D01*
X111230903Y-118432560D01*
X111233255Y-118394046D01*
X111246691Y-118378781D01*
X111272693Y-118374839D01*
X111334321Y-118370579D01*
X111424873Y-118366309D01*
X111537647Y-118362335D01*
X111665938Y-118358966D01*
X111689998Y-118358451D01*
X111847771Y-118355950D01*
X111913155Y-118355939D01*
X111913155Y-118478400D01*
X111833858Y-118485934D01*
X111746584Y-118504250D01*
X111735962Y-118641834D01*
X111733545Y-118760864D01*
X111748648Y-118846921D01*
X111782931Y-118906283D01*
X111812454Y-118931083D01*
X111873440Y-118951905D01*
X111942635Y-118949169D01*
X112002965Y-118925695D01*
X112032962Y-118894659D01*
X112042975Y-118853969D01*
X112048848Y-118784961D01*
X112049488Y-118701545D01*
X112049094Y-118689409D01*
X112045067Y-118606419D01*
X112038297Y-118555304D01*
X112025145Y-118525616D01*
X112001976Y-118506905D01*
X111982025Y-118496731D01*
X111913155Y-118478400D01*
X111913155Y-118355939D01*
X111967681Y-118355929D01*
X112054136Y-118358555D01*
X112111543Y-118363998D01*
X112144310Y-118372425D01*
X112150731Y-118376081D01*
X112165405Y-118391271D01*
X112174864Y-118416128D01*
X112179699Y-118457923D01*
X112180499Y-118523924D01*
X112177853Y-118621403D01*
X112177853Y-118621403D01*
G37*
X112177853Y-118621403D02*
X112175517Y-118681856D01*
X112169801Y-118800681D01*
X112163112Y-118884752D01*
X112154259Y-118941648D01*
X112142048Y-118978947D01*
X112125288Y-119004229D01*
X112124719Y-119004863D01*
X112056397Y-119061222D01*
X111975627Y-119100190D01*
X111898444Y-119114868D01*
X111873986Y-119112758D01*
X111801689Y-119089685D01*
X111732784Y-119052726D01*
X111681085Y-119010474D01*
X111662050Y-118980919D01*
X111636631Y-118939472D01*
X111594534Y-118930311D01*
X111532244Y-118953700D01*
X111466194Y-118995543D01*
X111403074Y-119039990D01*
X111351416Y-119076323D01*
X111324804Y-119094994D01*
X111280493Y-119105801D01*
X111243589Y-119083312D01*
X111228002Y-119036064D01*
X111228000Y-119035593D01*
X111231299Y-119002674D01*
X111245278Y-118973550D01*
X111276068Y-118942352D01*
X111329796Y-118903212D01*
X111412591Y-118850261D01*
X111437940Y-118834554D01*
X111522391Y-118778579D01*
X111574744Y-118730940D01*
X111601230Y-118682004D01*
X111608083Y-118622141D01*
X111605268Y-118575971D01*
X111598417Y-118504250D01*
X111439667Y-118493667D01*
X111359167Y-118486352D01*
X111293864Y-118476858D01*
X111256513Y-118467095D01*
X111254459Y-118465959D01*
X111230903Y-118432560D01*
X111233255Y-118394046D01*
X111246691Y-118378781D01*
X111272693Y-118374839D01*
X111334321Y-118370579D01*
X111424873Y-118366309D01*
X111537647Y-118362335D01*
X111665938Y-118358966D01*
X111689998Y-118358451D01*
X111847771Y-118355950D01*
X111913155Y-118355939D01*
X111913155Y-118478400D01*
X111833858Y-118485934D01*
X111746584Y-118504250D01*
X111735962Y-118641834D01*
X111733545Y-118760864D01*
X111748648Y-118846921D01*
X111782931Y-118906283D01*
X111812454Y-118931083D01*
X111873440Y-118951905D01*
X111942635Y-118949169D01*
X112002965Y-118925695D01*
X112032962Y-118894659D01*
X112042975Y-118853969D01*
X112048848Y-118784961D01*
X112049488Y-118701545D01*
X112049094Y-118689409D01*
X112045067Y-118606419D01*
X112038297Y-118555304D01*
X112025145Y-118525616D01*
X112001976Y-118506905D01*
X111982025Y-118496731D01*
X111913155Y-118478400D01*
X111913155Y-118355939D01*
X111967681Y-118355929D01*
X112054136Y-118358555D01*
X112111543Y-118363998D01*
X112144310Y-118372425D01*
X112150731Y-118376081D01*
X112165405Y-118391271D01*
X112174864Y-118416128D01*
X112179699Y-118457923D01*
X112180499Y-118523924D01*
X112177853Y-118621403D01*
G36*
X112539309Y-118818365D02*
G01*
X112534685Y-118893660D01*
X112524139Y-118952714D01*
X112505347Y-119008564D01*
X112476159Y-119073879D01*
X112399954Y-119202985D01*
X112301277Y-119322430D01*
X112189713Y-119422657D01*
X112074846Y-119494105D01*
X112039978Y-119508948D01*
X111858489Y-119556483D01*
X111676562Y-119566404D01*
X111499603Y-119541137D01*
X111333017Y-119483104D01*
X111182211Y-119394728D01*
X111052590Y-119278431D01*
X110949560Y-119136638D01*
X110884647Y-118991084D01*
X110847301Y-118825386D01*
X110838374Y-118650857D01*
X110855335Y-118504250D01*
X110884628Y-118387352D01*
X110921174Y-118296339D01*
X110973172Y-118217036D01*
X111048822Y-118135269D01*
X111092689Y-118093965D01*
X111191619Y-118006683D01*
X111274005Y-117945537D01*
X111351946Y-117905492D01*
X111437541Y-117881513D01*
X111542890Y-117868564D01*
X111648090Y-117862820D01*
X111757151Y-117861978D01*
X111757151Y-117986235D01*
X111654786Y-117988835D01*
X111428615Y-117996576D01*
X111296881Y-118097943D01*
X111182326Y-118195188D01*
X111099720Y-118288721D01*
X111041033Y-118388748D01*
X111013181Y-118458370D01*
X110987882Y-118567614D01*
X110976374Y-118697493D01*
X110979479Y-118828348D01*
X110993756Y-118923681D01*
X111038916Y-119035402D01*
X111121929Y-119151370D01*
X111239298Y-119266778D01*
X111249952Y-119275747D01*
X111329191Y-119335257D01*
X111406255Y-119375547D01*
X111500972Y-119406424D01*
X111528569Y-119413532D01*
X111617079Y-119433789D01*
X111682073Y-119442315D01*
X111740485Y-119439866D01*
X111809251Y-119427198D01*
X111813535Y-119426250D01*
X111994964Y-119368242D01*
X112145658Y-119281365D01*
X112266563Y-119164827D01*
X112358629Y-119017834D01*
X112389986Y-118944000D01*
X112416563Y-118864529D01*
X112428811Y-118797366D01*
X112429146Y-118722237D01*
X112424035Y-118658620D01*
X112387804Y-118476007D01*
X112317477Y-118317166D01*
X112214283Y-118183896D01*
X112079454Y-118077992D01*
X111996227Y-118033866D01*
X111939949Y-118009997D01*
X111889394Y-117995164D01*
X111832487Y-117987774D01*
X111757151Y-117986235D01*
X111757151Y-117861978D01*
X111803212Y-117861621D01*
X111928299Y-117874048D01*
X112034324Y-117903213D01*
X112132259Y-117952228D01*
X112233077Y-118024206D01*
X112241847Y-118031253D01*
X112310608Y-118091992D01*
X112363846Y-118153993D01*
X112412125Y-118231234D01*
X112452769Y-118310299D01*
X112491855Y-118392022D01*
X112517143Y-118454066D01*
X112531634Y-118510268D01*
X112538331Y-118574463D01*
X112540238Y-118660490D01*
X112540334Y-118713793D01*
X112539309Y-118818365D01*
X112539309Y-118818365D01*
G37*
X112539309Y-118818365D02*
X112534685Y-118893660D01*
X112524139Y-118952714D01*
X112505347Y-119008564D01*
X112476159Y-119073879D01*
X112399954Y-119202985D01*
X112301277Y-119322430D01*
X112189713Y-119422657D01*
X112074846Y-119494105D01*
X112039978Y-119508948D01*
X111858489Y-119556483D01*
X111676562Y-119566404D01*
X111499603Y-119541137D01*
X111333017Y-119483104D01*
X111182211Y-119394728D01*
X111052590Y-119278431D01*
X110949560Y-119136638D01*
X110884647Y-118991084D01*
X110847301Y-118825386D01*
X110838374Y-118650857D01*
X110855335Y-118504250D01*
X110884628Y-118387352D01*
X110921174Y-118296339D01*
X110973172Y-118217036D01*
X111048822Y-118135269D01*
X111092689Y-118093965D01*
X111191619Y-118006683D01*
X111274005Y-117945537D01*
X111351946Y-117905492D01*
X111437541Y-117881513D01*
X111542890Y-117868564D01*
X111648090Y-117862820D01*
X111757151Y-117861978D01*
X111757151Y-117986235D01*
X111654786Y-117988835D01*
X111428615Y-117996576D01*
X111296881Y-118097943D01*
X111182326Y-118195188D01*
X111099720Y-118288721D01*
X111041033Y-118388748D01*
X111013181Y-118458370D01*
X110987882Y-118567614D01*
X110976374Y-118697493D01*
X110979479Y-118828348D01*
X110993756Y-118923681D01*
X111038916Y-119035402D01*
X111121929Y-119151370D01*
X111239298Y-119266778D01*
X111249952Y-119275747D01*
X111329191Y-119335257D01*
X111406255Y-119375547D01*
X111500972Y-119406424D01*
X111528569Y-119413532D01*
X111617079Y-119433789D01*
X111682073Y-119442315D01*
X111740485Y-119439866D01*
X111809251Y-119427198D01*
X111813535Y-119426250D01*
X111994964Y-119368242D01*
X112145658Y-119281365D01*
X112266563Y-119164827D01*
X112358629Y-119017834D01*
X112389986Y-118944000D01*
X112416563Y-118864529D01*
X112428811Y-118797366D01*
X112429146Y-118722237D01*
X112424035Y-118658620D01*
X112387804Y-118476007D01*
X112317477Y-118317166D01*
X112214283Y-118183896D01*
X112079454Y-118077992D01*
X111996227Y-118033866D01*
X111939949Y-118009997D01*
X111889394Y-117995164D01*
X111832487Y-117987774D01*
X111757151Y-117986235D01*
X111757151Y-117861978D01*
X111803212Y-117861621D01*
X111928299Y-117874048D01*
X112034324Y-117903213D01*
X112132259Y-117952228D01*
X112233077Y-118024206D01*
X112241847Y-118031253D01*
X112310608Y-118091992D01*
X112363846Y-118153993D01*
X112412125Y-118231234D01*
X112452769Y-118310299D01*
X112491855Y-118392022D01*
X112517143Y-118454066D01*
X112531634Y-118510268D01*
X112538331Y-118574463D01*
X112540238Y-118660490D01*
X112540334Y-118713793D01*
X112539309Y-118818365D01*
G36*
X110391015Y-102574686D02*
G01*
X110389892Y-102839296D01*
X110388270Y-103140985D01*
X110386473Y-103449381D01*
X110384171Y-103807658D01*
X110381717Y-104124852D01*
X110379088Y-104402212D01*
X110376262Y-104640986D01*
X110373215Y-104842426D01*
X110369926Y-105007780D01*
X110366371Y-105138298D01*
X110362527Y-105235228D01*
X110358372Y-105299822D01*
X110353882Y-105333327D01*
X110351974Y-105338323D01*
X110329622Y-105352656D01*
X110282524Y-105364905D01*
X110205678Y-105375881D01*
X110094083Y-105386392D01*
X110021500Y-105391885D01*
X109814494Y-105404902D01*
X109646299Y-105411278D01*
X109513873Y-105410723D01*
X109414175Y-105402949D01*
X109344162Y-105387664D01*
X109300792Y-105364581D01*
X109281022Y-105333407D01*
X109279152Y-105321197D01*
X109278848Y-105296477D01*
X109278443Y-105232777D01*
X109277950Y-105133450D01*
X109277381Y-105001847D01*
X109276750Y-104841323D01*
X109276069Y-104655229D01*
X109275350Y-104446918D01*
X109274607Y-104219743D01*
X109273851Y-103977058D01*
X109273097Y-103722214D01*
X109273089Y-103719334D01*
X109272120Y-103411568D01*
X109271022Y-103143329D01*
X109269661Y-102911812D01*
X109267905Y-102714208D01*
X109265623Y-102547713D01*
X109262682Y-102409520D01*
X109258949Y-102296822D01*
X109254292Y-102206814D01*
X109248579Y-102136689D01*
X109241677Y-102083641D01*
X109233455Y-102044863D01*
X109223780Y-102017549D01*
X109212519Y-101998893D01*
X109199541Y-101986089D01*
X109191096Y-101980187D01*
X109148389Y-101965831D01*
X109119091Y-101962824D01*
X109094508Y-101967144D01*
X109078803Y-101986604D01*
X109068134Y-102030306D01*
X109058861Y-102105375D01*
X109055739Y-102153665D01*
X109052321Y-102239787D01*
X109048707Y-102359242D01*
X109044999Y-102507532D01*
X109041295Y-102680157D01*
X109037697Y-102872618D01*
X109034305Y-103080416D01*
X109031219Y-103299052D01*
X109029937Y-103401482D01*
X109016084Y-104554714D01*
X108836167Y-104579673D01*
X108734835Y-104590694D01*
X108616205Y-104598772D01*
X108488115Y-104603915D01*
X108358404Y-104606130D01*
X108234910Y-104605424D01*
X108125472Y-104601803D01*
X108037928Y-104595277D01*
X107980116Y-104585851D01*
X107963042Y-104578869D01*
X107956281Y-104571788D01*
X107950399Y-104559658D01*
X107945340Y-104539706D01*
X107941045Y-104509156D01*
X107937459Y-104465236D01*
X107934522Y-104405171D01*
X107932178Y-104326187D01*
X107930369Y-104225510D01*
X107929038Y-104100366D01*
X107928127Y-103947981D01*
X107927579Y-103765580D01*
X107927337Y-103550391D01*
X107927343Y-103299638D01*
X107927539Y-103010548D01*
X107927672Y-102870333D01*
X107928035Y-102607121D01*
X107928579Y-102356042D01*
X107929284Y-102120330D01*
X107930132Y-101903219D01*
X107931104Y-101707943D01*
X107932181Y-101537738D01*
X107933344Y-101395835D01*
X107934574Y-101285471D01*
X107935853Y-101209878D01*
X107937161Y-101172291D01*
X107937606Y-101168750D01*
X107942358Y-101138494D01*
X107947269Y-101078182D01*
X107951371Y-101000076D01*
X107951810Y-100988834D01*
X107957750Y-100830084D01*
X109820417Y-100830084D01*
X109958000Y-100907826D01*
X110091528Y-100995803D01*
X110194490Y-101094728D01*
X110278650Y-101216002D01*
X110281899Y-101221667D01*
X110301341Y-101256254D01*
X110318474Y-101289376D01*
X110333427Y-101323786D01*
X110346330Y-101362236D01*
X110357311Y-101407481D01*
X110366501Y-101462272D01*
X110374028Y-101529364D01*
X110380021Y-101611509D01*
X110384610Y-101711461D01*
X110387924Y-101831973D01*
X110390092Y-101975799D01*
X110391244Y-102145690D01*
X110391508Y-102344402D01*
X110391015Y-102574686D01*
X110391015Y-102574686D01*
G37*
X110391015Y-102574686D02*
X110389892Y-102839296D01*
X110388270Y-103140985D01*
X110386473Y-103449381D01*
X110384171Y-103807658D01*
X110381717Y-104124852D01*
X110379088Y-104402212D01*
X110376262Y-104640986D01*
X110373215Y-104842426D01*
X110369926Y-105007780D01*
X110366371Y-105138298D01*
X110362527Y-105235228D01*
X110358372Y-105299822D01*
X110353882Y-105333327D01*
X110351974Y-105338323D01*
X110329622Y-105352656D01*
X110282524Y-105364905D01*
X110205678Y-105375881D01*
X110094083Y-105386392D01*
X110021500Y-105391885D01*
X109814494Y-105404902D01*
X109646299Y-105411278D01*
X109513873Y-105410723D01*
X109414175Y-105402949D01*
X109344162Y-105387664D01*
X109300792Y-105364581D01*
X109281022Y-105333407D01*
X109279152Y-105321197D01*
X109278848Y-105296477D01*
X109278443Y-105232777D01*
X109277950Y-105133450D01*
X109277381Y-105001847D01*
X109276750Y-104841323D01*
X109276069Y-104655229D01*
X109275350Y-104446918D01*
X109274607Y-104219743D01*
X109273851Y-103977058D01*
X109273097Y-103722214D01*
X109273089Y-103719334D01*
X109272120Y-103411568D01*
X109271022Y-103143329D01*
X109269661Y-102911812D01*
X109267905Y-102714208D01*
X109265623Y-102547713D01*
X109262682Y-102409520D01*
X109258949Y-102296822D01*
X109254292Y-102206814D01*
X109248579Y-102136689D01*
X109241677Y-102083641D01*
X109233455Y-102044863D01*
X109223780Y-102017549D01*
X109212519Y-101998893D01*
X109199541Y-101986089D01*
X109191096Y-101980187D01*
X109148389Y-101965831D01*
X109119091Y-101962824D01*
X109094508Y-101967144D01*
X109078803Y-101986604D01*
X109068134Y-102030306D01*
X109058861Y-102105375D01*
X109055739Y-102153665D01*
X109052321Y-102239787D01*
X109048707Y-102359242D01*
X109044999Y-102507532D01*
X109041295Y-102680157D01*
X109037697Y-102872618D01*
X109034305Y-103080416D01*
X109031219Y-103299052D01*
X109029937Y-103401482D01*
X109016084Y-104554714D01*
X108836167Y-104579673D01*
X108734835Y-104590694D01*
X108616205Y-104598772D01*
X108488115Y-104603915D01*
X108358404Y-104606130D01*
X108234910Y-104605424D01*
X108125472Y-104601803D01*
X108037928Y-104595277D01*
X107980116Y-104585851D01*
X107963042Y-104578869D01*
X107956281Y-104571788D01*
X107950399Y-104559658D01*
X107945340Y-104539706D01*
X107941045Y-104509156D01*
X107937459Y-104465236D01*
X107934522Y-104405171D01*
X107932178Y-104326187D01*
X107930369Y-104225510D01*
X107929038Y-104100366D01*
X107928127Y-103947981D01*
X107927579Y-103765580D01*
X107927337Y-103550391D01*
X107927343Y-103299638D01*
X107927539Y-103010548D01*
X107927672Y-102870333D01*
X107928035Y-102607121D01*
X107928579Y-102356042D01*
X107929284Y-102120330D01*
X107930132Y-101903219D01*
X107931104Y-101707943D01*
X107932181Y-101537738D01*
X107933344Y-101395835D01*
X107934574Y-101285471D01*
X107935853Y-101209878D01*
X107937161Y-101172291D01*
X107937606Y-101168750D01*
X107942358Y-101138494D01*
X107947269Y-101078182D01*
X107951371Y-101000076D01*
X107951810Y-100988834D01*
X107957750Y-100830084D01*
X109820417Y-100830084D01*
X109958000Y-100907826D01*
X110091528Y-100995803D01*
X110194490Y-101094728D01*
X110278650Y-101216002D01*
X110281899Y-101221667D01*
X110301341Y-101256254D01*
X110318474Y-101289376D01*
X110333427Y-101323786D01*
X110346330Y-101362236D01*
X110357311Y-101407481D01*
X110366501Y-101462272D01*
X110374028Y-101529364D01*
X110380021Y-101611509D01*
X110384610Y-101711461D01*
X110387924Y-101831973D01*
X110390092Y-101975799D01*
X110391244Y-102145690D01*
X110391508Y-102344402D01*
X110391015Y-102574686D01*
G36*
X107665332Y-102570792D02*
G01*
X107665021Y-102756250D01*
X107661417Y-104555417D01*
X107481500Y-104575150D01*
X107386904Y-104583151D01*
X107271596Y-104589275D01*
X107144341Y-104593455D01*
X107013904Y-104595627D01*
X106889050Y-104595726D01*
X106778544Y-104593687D01*
X106691150Y-104589445D01*
X106635633Y-104582934D01*
X106629542Y-104581472D01*
X106571334Y-104565194D01*
X106567451Y-103374972D01*
X106566702Y-103151072D01*
X106565950Y-102937309D01*
X106565213Y-102737904D01*
X106564508Y-102557075D01*
X106563852Y-102399043D01*
X106563263Y-102268027D01*
X106562758Y-102168246D01*
X106562354Y-102103921D01*
X106562160Y-102083499D01*
X106553688Y-102005812D01*
X106531668Y-101964011D01*
X106529000Y-101962115D01*
X106493734Y-101945069D01*
X106463666Y-101950392D01*
X106425955Y-101982603D01*
X106403965Y-102006094D01*
X106358955Y-102070897D01*
X106327532Y-102154621D01*
X106309084Y-102262057D01*
X106303003Y-102397993D01*
X106308678Y-102567218D01*
X106317412Y-102686013D01*
X106322984Y-102774395D01*
X106327571Y-102893247D01*
X106331204Y-103038151D01*
X106333918Y-103204687D01*
X106335745Y-103388435D01*
X106336719Y-103584977D01*
X106336873Y-103789891D01*
X106336240Y-103998760D01*
X106334853Y-104207164D01*
X106332746Y-104410683D01*
X106329952Y-104604898D01*
X106326503Y-104785389D01*
X106322434Y-104947737D01*
X106317777Y-105087523D01*
X106312566Y-105200327D01*
X106306833Y-105281730D01*
X106300612Y-105327312D01*
X106297509Y-105335125D01*
X106263254Y-105348777D01*
X106194233Y-105360881D01*
X106097988Y-105371229D01*
X105982064Y-105379611D01*
X105854006Y-105385820D01*
X105721358Y-105389645D01*
X105591664Y-105390878D01*
X105472470Y-105389310D01*
X105371319Y-105384732D01*
X105295756Y-105376935D01*
X105253325Y-105365710D01*
X105250808Y-105364116D01*
X105244287Y-105357507D01*
X105238548Y-105346066D01*
X105233529Y-105327160D01*
X105229170Y-105298159D01*
X105225409Y-105256433D01*
X105222187Y-105199350D01*
X105219440Y-105124280D01*
X105217110Y-105028592D01*
X105215135Y-104909655D01*
X105213453Y-104764839D01*
X105212005Y-104591512D01*
X105210729Y-104387044D01*
X105209563Y-104148805D01*
X105208448Y-103874163D01*
X105207322Y-103560487D01*
X105207027Y-103474176D01*
X105200696Y-101611620D01*
X105247378Y-101449771D01*
X105302823Y-101302225D01*
X105380534Y-101175926D01*
X105386599Y-101167975D01*
X105457340Y-101082529D01*
X105526276Y-101016123D01*
X105606065Y-100958650D01*
X105709364Y-100900005D01*
X105745834Y-100881179D01*
X105883417Y-100811191D01*
X106730084Y-100816223D01*
X106916403Y-100817578D01*
X107090251Y-100819319D01*
X107246899Y-100821361D01*
X107381618Y-100823624D01*
X107489680Y-100826023D01*
X107566355Y-100828476D01*
X107606915Y-100830901D01*
X107611456Y-100831646D01*
X107640860Y-100858310D01*
X107657393Y-100899560D01*
X107659054Y-100929084D01*
X107660558Y-100997735D01*
X107661892Y-101102308D01*
X107663041Y-101239595D01*
X107663993Y-101406391D01*
X107664734Y-101599490D01*
X107665252Y-101815685D01*
X107665533Y-102051772D01*
X107665564Y-102304543D01*
X107665332Y-102570792D01*
X107665332Y-102570792D01*
G37*
X107665332Y-102570792D02*
X107665021Y-102756250D01*
X107661417Y-104555417D01*
X107481500Y-104575150D01*
X107386904Y-104583151D01*
X107271596Y-104589275D01*
X107144341Y-104593455D01*
X107013904Y-104595627D01*
X106889050Y-104595726D01*
X106778544Y-104593687D01*
X106691150Y-104589445D01*
X106635633Y-104582934D01*
X106629542Y-104581472D01*
X106571334Y-104565194D01*
X106567451Y-103374972D01*
X106566702Y-103151072D01*
X106565950Y-102937309D01*
X106565213Y-102737904D01*
X106564508Y-102557075D01*
X106563852Y-102399043D01*
X106563263Y-102268027D01*
X106562758Y-102168246D01*
X106562354Y-102103921D01*
X106562160Y-102083499D01*
X106553688Y-102005812D01*
X106531668Y-101964011D01*
X106529000Y-101962115D01*
X106493734Y-101945069D01*
X106463666Y-101950392D01*
X106425955Y-101982603D01*
X106403965Y-102006094D01*
X106358955Y-102070897D01*
X106327532Y-102154621D01*
X106309084Y-102262057D01*
X106303003Y-102397993D01*
X106308678Y-102567218D01*
X106317412Y-102686013D01*
X106322984Y-102774395D01*
X106327571Y-102893247D01*
X106331204Y-103038151D01*
X106333918Y-103204687D01*
X106335745Y-103388435D01*
X106336719Y-103584977D01*
X106336873Y-103789891D01*
X106336240Y-103998760D01*
X106334853Y-104207164D01*
X106332746Y-104410683D01*
X106329952Y-104604898D01*
X106326503Y-104785389D01*
X106322434Y-104947737D01*
X106317777Y-105087523D01*
X106312566Y-105200327D01*
X106306833Y-105281730D01*
X106300612Y-105327312D01*
X106297509Y-105335125D01*
X106263254Y-105348777D01*
X106194233Y-105360881D01*
X106097988Y-105371229D01*
X105982064Y-105379611D01*
X105854006Y-105385820D01*
X105721358Y-105389645D01*
X105591664Y-105390878D01*
X105472470Y-105389310D01*
X105371319Y-105384732D01*
X105295756Y-105376935D01*
X105253325Y-105365710D01*
X105250808Y-105364116D01*
X105244287Y-105357507D01*
X105238548Y-105346066D01*
X105233529Y-105327160D01*
X105229170Y-105298159D01*
X105225409Y-105256433D01*
X105222187Y-105199350D01*
X105219440Y-105124280D01*
X105217110Y-105028592D01*
X105215135Y-104909655D01*
X105213453Y-104764839D01*
X105212005Y-104591512D01*
X105210729Y-104387044D01*
X105209563Y-104148805D01*
X105208448Y-103874163D01*
X105207322Y-103560487D01*
X105207027Y-103474176D01*
X105200696Y-101611620D01*
X105247378Y-101449771D01*
X105302823Y-101302225D01*
X105380534Y-101175926D01*
X105386599Y-101167975D01*
X105457340Y-101082529D01*
X105526276Y-101016123D01*
X105606065Y-100958650D01*
X105709364Y-100900005D01*
X105745834Y-100881179D01*
X105883417Y-100811191D01*
X106730084Y-100816223D01*
X106916403Y-100817578D01*
X107090251Y-100819319D01*
X107246899Y-100821361D01*
X107381618Y-100823624D01*
X107489680Y-100826023D01*
X107566355Y-100828476D01*
X107606915Y-100830901D01*
X107611456Y-100831646D01*
X107640860Y-100858310D01*
X107657393Y-100899560D01*
X107659054Y-100929084D01*
X107660558Y-100997735D01*
X107661892Y-101102308D01*
X107663041Y-101239595D01*
X107663993Y-101406391D01*
X107664734Y-101599490D01*
X107665252Y-101815685D01*
X107665533Y-102051772D01*
X107665564Y-102304543D01*
X107665332Y-102570792D01*
G36*
X111722656Y-96308717D02*
G01*
X111722276Y-96603548D01*
X111721696Y-96932788D01*
X111720797Y-97302780D01*
X111719586Y-97631455D01*
X111718052Y-97919829D01*
X111716178Y-98168919D01*
X111713953Y-98379740D01*
X111711362Y-98553308D01*
X111708391Y-98690638D01*
X111705027Y-98792747D01*
X111701255Y-98860650D01*
X111697063Y-98895364D01*
X111695110Y-98900357D01*
X111668281Y-98907208D01*
X111606574Y-98913810D01*
X111517443Y-98919956D01*
X111408344Y-98925434D01*
X111286732Y-98930037D01*
X111160061Y-98933555D01*
X111035787Y-98935778D01*
X110921365Y-98936497D01*
X110824250Y-98935503D01*
X110751896Y-98932586D01*
X110713207Y-98927926D01*
X110689934Y-98920912D01*
X110670373Y-98910272D01*
X110654279Y-98892626D01*
X110641403Y-98864592D01*
X110631501Y-98822792D01*
X110624324Y-98763843D01*
X110619628Y-98684365D01*
X110617165Y-98580979D01*
X110616688Y-98450304D01*
X110617952Y-98288959D01*
X110620710Y-98093563D01*
X110624715Y-97860737D01*
X110626846Y-97743526D01*
X110633016Y-97370023D01*
X110637459Y-97019140D01*
X110640189Y-96693080D01*
X110641217Y-96394044D01*
X110640557Y-96124234D01*
X110638221Y-95885852D01*
X110634221Y-95681100D01*
X110628570Y-95512180D01*
X110621281Y-95381293D01*
X110612958Y-95295000D01*
X110564086Y-95050407D01*
X110484142Y-94830065D01*
X110369877Y-94627551D01*
X110218045Y-94436442D01*
X110136257Y-94352118D01*
X110051756Y-94270929D01*
X109985929Y-94212766D01*
X109927930Y-94170311D01*
X109866915Y-94136247D01*
X109792038Y-94103257D01*
X109732112Y-94079435D01*
X109485115Y-94005606D01*
X109226261Y-93971909D01*
X108958047Y-93978648D01*
X108931797Y-93981445D01*
X108732614Y-94020853D01*
X108534213Y-94090950D01*
X108349686Y-94186089D01*
X108192378Y-94300401D01*
X108065712Y-94419413D01*
X107965543Y-94534791D01*
X107880323Y-94661469D01*
X107804954Y-94801314D01*
X107703750Y-95005081D01*
X107690208Y-95705666D01*
X107686270Y-95879629D01*
X107681444Y-96045052D01*
X107675988Y-96195857D01*
X107670161Y-96325968D01*
X107664223Y-96429307D01*
X107658433Y-96499798D01*
X107655350Y-96522667D01*
X107592767Y-96750414D01*
X107491146Y-96962261D01*
X107350067Y-97159065D01*
X107336726Y-97174574D01*
X107206762Y-97300169D01*
X107052619Y-97404012D01*
X106867015Y-97490756D01*
X106806429Y-97513319D01*
X106722093Y-97540833D01*
X106647896Y-97557789D01*
X106568255Y-97566450D01*
X106467583Y-97569081D01*
X106423167Y-97568988D01*
X106267829Y-97560235D01*
X106119020Y-97537523D01*
X105986572Y-97503174D01*
X105880315Y-97459509D01*
X105832938Y-97429585D01*
X105788843Y-97401426D01*
X105757390Y-97390500D01*
X105733204Y-97376238D01*
X105686761Y-97337562D01*
X105625081Y-97280633D01*
X105565267Y-97221840D01*
X105415066Y-97044283D01*
X105305754Y-96856075D01*
X105237165Y-96656882D01*
X105214528Y-96523166D01*
X105212228Y-96479855D01*
X105210134Y-96398308D01*
X105208248Y-96282623D01*
X105206574Y-96136897D01*
X105205117Y-95965226D01*
X105203879Y-95771709D01*
X105202865Y-95560441D01*
X105202079Y-95335521D01*
X105201524Y-95101045D01*
X105201204Y-94861111D01*
X105201123Y-94619816D01*
X105201285Y-94381257D01*
X105201694Y-94149531D01*
X105202353Y-93928736D01*
X105203266Y-93722968D01*
X105204437Y-93536325D01*
X105205871Y-93372903D01*
X105207570Y-93236801D01*
X105209538Y-93132115D01*
X105211317Y-93073555D01*
X105217210Y-92988121D01*
X105226581Y-92917535D01*
X105237707Y-92873644D01*
X105241350Y-92867180D01*
X105259126Y-92857860D01*
X105297861Y-92850736D01*
X105361795Y-92845583D01*
X105455167Y-92842172D01*
X105582218Y-92840276D01*
X105747187Y-92839668D01*
X105754299Y-92839667D01*
X105916238Y-92840083D01*
X106041151Y-92841549D01*
X106134337Y-92844387D01*
X106201096Y-92848922D01*
X106246730Y-92855478D01*
X106276538Y-92864378D01*
X106291272Y-92872487D01*
X106338129Y-92905307D01*
X106337863Y-94629868D01*
X106338060Y-94988376D01*
X106338772Y-95305055D01*
X106340006Y-95580404D01*
X106341768Y-95814924D01*
X106344064Y-96009116D01*
X106346901Y-96163481D01*
X106350284Y-96278518D01*
X106354220Y-96354728D01*
X106358716Y-96392611D01*
X106359960Y-96396214D01*
X106398718Y-96430665D01*
X106452261Y-96434058D01*
X106506859Y-96406625D01*
X106520428Y-96393493D01*
X106531648Y-96378582D01*
X106540741Y-96358154D01*
X106548038Y-96327628D01*
X106553871Y-96282420D01*
X106558570Y-96217951D01*
X106562466Y-96129639D01*
X106565890Y-96012901D01*
X106569172Y-95863157D01*
X106572643Y-95675824D01*
X106572772Y-95668534D01*
X106576233Y-95479572D01*
X106579517Y-95327302D01*
X106583065Y-95206088D01*
X106587316Y-95110293D01*
X106592713Y-95034282D01*
X106599695Y-94972418D01*
X106608704Y-94919065D01*
X106620178Y-94868586D01*
X106634559Y-94815345D01*
X106641300Y-94791752D01*
X106669582Y-94698592D01*
X106697782Y-94614286D01*
X106721464Y-94551775D01*
X106729820Y-94533511D01*
X106752108Y-94483707D01*
X106761819Y-94448729D01*
X106761834Y-94447989D01*
X106772175Y-94411885D01*
X106800143Y-94348297D01*
X106841154Y-94265778D01*
X106890626Y-94172885D01*
X106943975Y-94078171D01*
X106996619Y-93990190D01*
X107043973Y-93917499D01*
X107052569Y-93905321D01*
X107133982Y-93802176D01*
X107238394Y-93684669D01*
X107354977Y-93563890D01*
X107472902Y-93450928D01*
X107581341Y-93356876D01*
X107610230Y-93334138D01*
X107695798Y-93275528D01*
X107808337Y-93207949D01*
X107935471Y-93138045D01*
X108064822Y-93072459D01*
X108184011Y-93017832D01*
X108246396Y-92992744D01*
X108389418Y-92942529D01*
X108518122Y-92905247D01*
X108643422Y-92879173D01*
X108776233Y-92862579D01*
X108927469Y-92853741D01*
X109108045Y-92850932D01*
X109143084Y-92850931D01*
X109287564Y-92851595D01*
X109398964Y-92853629D01*
X109486536Y-92857928D01*
X109559531Y-92865387D01*
X109627200Y-92876901D01*
X109698794Y-92893365D01*
X109767500Y-92911343D01*
X109870614Y-92939853D01*
X109969249Y-92968509D01*
X110049579Y-92993228D01*
X110085000Y-93005097D01*
X110175986Y-93042750D01*
X110289636Y-93097310D01*
X110413473Y-93162074D01*
X110535021Y-93230341D01*
X110641805Y-93295407D01*
X110704298Y-93337784D01*
X110947175Y-93540279D01*
X111163241Y-93773776D01*
X111350187Y-94034758D01*
X111505710Y-94319706D01*
X111627501Y-94625104D01*
X111689206Y-94839917D01*
X111695413Y-94868080D01*
X111700860Y-94900361D01*
X111705587Y-94939492D01*
X111709638Y-94988205D01*
X111713055Y-95049234D01*
X111715881Y-95125310D01*
X111718157Y-95219167D01*
X111719926Y-95333537D01*
X111721231Y-95471152D01*
X111722114Y-95634745D01*
X111722618Y-95827048D01*
X111722784Y-96050795D01*
X111722656Y-96308717D01*
X111722656Y-96308717D01*
G37*
X111722656Y-96308717D02*
X111722276Y-96603548D01*
X111721696Y-96932788D01*
X111720797Y-97302780D01*
X111719586Y-97631455D01*
X111718052Y-97919829D01*
X111716178Y-98168919D01*
X111713953Y-98379740D01*
X111711362Y-98553308D01*
X111708391Y-98690638D01*
X111705027Y-98792747D01*
X111701255Y-98860650D01*
X111697063Y-98895364D01*
X111695110Y-98900357D01*
X111668281Y-98907208D01*
X111606574Y-98913810D01*
X111517443Y-98919956D01*
X111408344Y-98925434D01*
X111286732Y-98930037D01*
X111160061Y-98933555D01*
X111035787Y-98935778D01*
X110921365Y-98936497D01*
X110824250Y-98935503D01*
X110751896Y-98932586D01*
X110713207Y-98927926D01*
X110689934Y-98920912D01*
X110670373Y-98910272D01*
X110654279Y-98892626D01*
X110641403Y-98864592D01*
X110631501Y-98822792D01*
X110624324Y-98763843D01*
X110619628Y-98684365D01*
X110617165Y-98580979D01*
X110616688Y-98450304D01*
X110617952Y-98288959D01*
X110620710Y-98093563D01*
X110624715Y-97860737D01*
X110626846Y-97743526D01*
X110633016Y-97370023D01*
X110637459Y-97019140D01*
X110640189Y-96693080D01*
X110641217Y-96394044D01*
X110640557Y-96124234D01*
X110638221Y-95885852D01*
X110634221Y-95681100D01*
X110628570Y-95512180D01*
X110621281Y-95381293D01*
X110612958Y-95295000D01*
X110564086Y-95050407D01*
X110484142Y-94830065D01*
X110369877Y-94627551D01*
X110218045Y-94436442D01*
X110136257Y-94352118D01*
X110051756Y-94270929D01*
X109985929Y-94212766D01*
X109927930Y-94170311D01*
X109866915Y-94136247D01*
X109792038Y-94103257D01*
X109732112Y-94079435D01*
X109485115Y-94005606D01*
X109226261Y-93971909D01*
X108958047Y-93978648D01*
X108931797Y-93981445D01*
X108732614Y-94020853D01*
X108534213Y-94090950D01*
X108349686Y-94186089D01*
X108192378Y-94300401D01*
X108065712Y-94419413D01*
X107965543Y-94534791D01*
X107880323Y-94661469D01*
X107804954Y-94801314D01*
X107703750Y-95005081D01*
X107690208Y-95705666D01*
X107686270Y-95879629D01*
X107681444Y-96045052D01*
X107675988Y-96195857D01*
X107670161Y-96325968D01*
X107664223Y-96429307D01*
X107658433Y-96499798D01*
X107655350Y-96522667D01*
X107592767Y-96750414D01*
X107491146Y-96962261D01*
X107350067Y-97159065D01*
X107336726Y-97174574D01*
X107206762Y-97300169D01*
X107052619Y-97404012D01*
X106867015Y-97490756D01*
X106806429Y-97513319D01*
X106722093Y-97540833D01*
X106647896Y-97557789D01*
X106568255Y-97566450D01*
X106467583Y-97569081D01*
X106423167Y-97568988D01*
X106267829Y-97560235D01*
X106119020Y-97537523D01*
X105986572Y-97503174D01*
X105880315Y-97459509D01*
X105832938Y-97429585D01*
X105788843Y-97401426D01*
X105757390Y-97390500D01*
X105733204Y-97376238D01*
X105686761Y-97337562D01*
X105625081Y-97280633D01*
X105565267Y-97221840D01*
X105415066Y-97044283D01*
X105305754Y-96856075D01*
X105237165Y-96656882D01*
X105214528Y-96523166D01*
X105212228Y-96479855D01*
X105210134Y-96398308D01*
X105208248Y-96282623D01*
X105206574Y-96136897D01*
X105205117Y-95965226D01*
X105203879Y-95771709D01*
X105202865Y-95560441D01*
X105202079Y-95335521D01*
X105201524Y-95101045D01*
X105201204Y-94861111D01*
X105201123Y-94619816D01*
X105201285Y-94381257D01*
X105201694Y-94149531D01*
X105202353Y-93928736D01*
X105203266Y-93722968D01*
X105204437Y-93536325D01*
X105205871Y-93372903D01*
X105207570Y-93236801D01*
X105209538Y-93132115D01*
X105211317Y-93073555D01*
X105217210Y-92988121D01*
X105226581Y-92917535D01*
X105237707Y-92873644D01*
X105241350Y-92867180D01*
X105259126Y-92857860D01*
X105297861Y-92850736D01*
X105361795Y-92845583D01*
X105455167Y-92842172D01*
X105582218Y-92840276D01*
X105747187Y-92839668D01*
X105754299Y-92839667D01*
X105916238Y-92840083D01*
X106041151Y-92841549D01*
X106134337Y-92844387D01*
X106201096Y-92848922D01*
X106246730Y-92855478D01*
X106276538Y-92864378D01*
X106291272Y-92872487D01*
X106338129Y-92905307D01*
X106337863Y-94629868D01*
X106338060Y-94988376D01*
X106338772Y-95305055D01*
X106340006Y-95580404D01*
X106341768Y-95814924D01*
X106344064Y-96009116D01*
X106346901Y-96163481D01*
X106350284Y-96278518D01*
X106354220Y-96354728D01*
X106358716Y-96392611D01*
X106359960Y-96396214D01*
X106398718Y-96430665D01*
X106452261Y-96434058D01*
X106506859Y-96406625D01*
X106520428Y-96393493D01*
X106531648Y-96378582D01*
X106540741Y-96358154D01*
X106548038Y-96327628D01*
X106553871Y-96282420D01*
X106558570Y-96217951D01*
X106562466Y-96129639D01*
X106565890Y-96012901D01*
X106569172Y-95863157D01*
X106572643Y-95675824D01*
X106572772Y-95668534D01*
X106576233Y-95479572D01*
X106579517Y-95327302D01*
X106583065Y-95206088D01*
X106587316Y-95110293D01*
X106592713Y-95034282D01*
X106599695Y-94972418D01*
X106608704Y-94919065D01*
X106620178Y-94868586D01*
X106634559Y-94815345D01*
X106641300Y-94791752D01*
X106669582Y-94698592D01*
X106697782Y-94614286D01*
X106721464Y-94551775D01*
X106729820Y-94533511D01*
X106752108Y-94483707D01*
X106761819Y-94448729D01*
X106761834Y-94447989D01*
X106772175Y-94411885D01*
X106800143Y-94348297D01*
X106841154Y-94265778D01*
X106890626Y-94172885D01*
X106943975Y-94078171D01*
X106996619Y-93990190D01*
X107043973Y-93917499D01*
X107052569Y-93905321D01*
X107133982Y-93802176D01*
X107238394Y-93684669D01*
X107354977Y-93563890D01*
X107472902Y-93450928D01*
X107581341Y-93356876D01*
X107610230Y-93334138D01*
X107695798Y-93275528D01*
X107808337Y-93207949D01*
X107935471Y-93138045D01*
X108064822Y-93072459D01*
X108184011Y-93017832D01*
X108246396Y-92992744D01*
X108389418Y-92942529D01*
X108518122Y-92905247D01*
X108643422Y-92879173D01*
X108776233Y-92862579D01*
X108927469Y-92853741D01*
X109108045Y-92850932D01*
X109143084Y-92850931D01*
X109287564Y-92851595D01*
X109398964Y-92853629D01*
X109486536Y-92857928D01*
X109559531Y-92865387D01*
X109627200Y-92876901D01*
X109698794Y-92893365D01*
X109767500Y-92911343D01*
X109870614Y-92939853D01*
X109969249Y-92968509D01*
X110049579Y-92993228D01*
X110085000Y-93005097D01*
X110175986Y-93042750D01*
X110289636Y-93097310D01*
X110413473Y-93162074D01*
X110535021Y-93230341D01*
X110641805Y-93295407D01*
X110704298Y-93337784D01*
X110947175Y-93540279D01*
X111163241Y-93773776D01*
X111350187Y-94034758D01*
X111505710Y-94319706D01*
X111627501Y-94625104D01*
X111689206Y-94839917D01*
X111695413Y-94868080D01*
X111700860Y-94900361D01*
X111705587Y-94939492D01*
X111709638Y-94988205D01*
X111713055Y-95049234D01*
X111715881Y-95125310D01*
X111718157Y-95219167D01*
X111719926Y-95333537D01*
X111721231Y-95471152D01*
X111722114Y-95634745D01*
X111722618Y-95827048D01*
X111722784Y-96050795D01*
X111722656Y-96308717D01*
G36*
X110392649Y-108667601D02*
G01*
X110391848Y-108877831D01*
X110390593Y-109121789D01*
X110388921Y-109402294D01*
X110386868Y-109722165D01*
X110386750Y-109740103D01*
X110384390Y-110078966D01*
X110381999Y-110377530D01*
X110379536Y-110637828D01*
X110376961Y-110861895D01*
X110374231Y-111051764D01*
X110371306Y-111209470D01*
X110368144Y-111337046D01*
X110364704Y-111436527D01*
X110360943Y-111509946D01*
X110356822Y-111559338D01*
X110352298Y-111586736D01*
X110349027Y-111593795D01*
X110316372Y-111604679D01*
X110248702Y-111615845D01*
X110153326Y-111626710D01*
X110037553Y-111636693D01*
X109908694Y-111645214D01*
X109774058Y-111651690D01*
X109640954Y-111655540D01*
X109562637Y-111656353D01*
X109452250Y-111655303D01*
X109376565Y-111651011D01*
X109328017Y-111642559D01*
X109299040Y-111629027D01*
X109292762Y-111623572D01*
X109286383Y-111613754D01*
X109280863Y-111596050D01*
X109276143Y-111567592D01*
X109272161Y-111525513D01*
X109268856Y-111466944D01*
X109266168Y-111389020D01*
X109264035Y-111288871D01*
X109262397Y-111163632D01*
X109261194Y-111010435D01*
X109260363Y-110826412D01*
X109259844Y-110608695D01*
X109259577Y-110354418D01*
X109259501Y-110060714D01*
X109259500Y-110056558D01*
X109259542Y-109753894D01*
X109259498Y-109490686D01*
X109259115Y-109264057D01*
X109258141Y-109071132D01*
X109256322Y-108909033D01*
X109253406Y-108774883D01*
X109249140Y-108665807D01*
X109243271Y-108578928D01*
X109235545Y-108511368D01*
X109225711Y-108460251D01*
X109213514Y-108422701D01*
X109198703Y-108395840D01*
X109181023Y-108376793D01*
X109160224Y-108362682D01*
X109136050Y-108350631D01*
X109108385Y-108337829D01*
X109088026Y-108328588D01*
X109066279Y-108320716D01*
X109039728Y-108314088D01*
X109004956Y-108308580D01*
X108958546Y-108304068D01*
X108897080Y-108300428D01*
X108817143Y-108297536D01*
X108715316Y-108295268D01*
X108588183Y-108293499D01*
X108432327Y-108292105D01*
X108244332Y-108290962D01*
X108020779Y-108289947D01*
X107763029Y-108288952D01*
X106509975Y-108284291D01*
X106423762Y-108341344D01*
X106337550Y-108398396D01*
X106349084Y-109169750D01*
X106406245Y-109176347D01*
X106461772Y-109178090D01*
X106501250Y-109164231D01*
X106528678Y-109128602D01*
X106548055Y-109065035D01*
X106563380Y-108967363D01*
X106568242Y-108926485D01*
X106578743Y-108826572D01*
X106586954Y-108734047D01*
X106591740Y-108662475D01*
X106592500Y-108636867D01*
X106594065Y-108596401D01*
X106601979Y-108565134D01*
X106621072Y-108541876D01*
X106656177Y-108525439D01*
X106712122Y-108514634D01*
X106793740Y-108508270D01*
X106905861Y-108505159D01*
X107053315Y-108504112D01*
X107132250Y-108503997D01*
X107270840Y-108504777D01*
X107395697Y-108507159D01*
X107500306Y-108510885D01*
X107578152Y-108515696D01*
X107622720Y-108521336D01*
X107629667Y-108523700D01*
X107637926Y-108534001D01*
X107644847Y-108556089D01*
X107650622Y-108593773D01*
X107655443Y-108650864D01*
X107659502Y-108731171D01*
X107662990Y-108838505D01*
X107666099Y-108976677D01*
X107669022Y-109149495D01*
X107671949Y-109360771D01*
X107672000Y-109364751D01*
X107673974Y-109548159D01*
X107675063Y-109719051D01*
X107675292Y-109872622D01*
X107674689Y-110004064D01*
X107673277Y-110108573D01*
X107671083Y-110181343D01*
X107668133Y-110217567D01*
X107667443Y-110220028D01*
X107633358Y-110246713D01*
X107559533Y-110264704D01*
X107540443Y-110267167D01*
X107447048Y-110275127D01*
X107317785Y-110282085D01*
X107159110Y-110287950D01*
X106977478Y-110292626D01*
X106779346Y-110296019D01*
X106571169Y-110298037D01*
X106359403Y-110298584D01*
X106150503Y-110297568D01*
X105950926Y-110294894D01*
X105825004Y-110292112D01*
X105648754Y-110287408D01*
X105510195Y-110283300D01*
X105404698Y-110279330D01*
X105327632Y-110275040D01*
X105274369Y-110269973D01*
X105240278Y-110263671D01*
X105220732Y-110255676D01*
X105211100Y-110245531D01*
X105206752Y-110232778D01*
X105206345Y-110230953D01*
X105202532Y-110192024D01*
X105199265Y-110115964D01*
X105196541Y-110007971D01*
X105194359Y-109873244D01*
X105192717Y-109716981D01*
X105191612Y-109544381D01*
X105191044Y-109360643D01*
X105191010Y-109170964D01*
X105191509Y-108980544D01*
X105192538Y-108794582D01*
X105194096Y-108618275D01*
X105196182Y-108456822D01*
X105198792Y-108315423D01*
X105201926Y-108199274D01*
X105205582Y-108113575D01*
X105207094Y-108090250D01*
X105217118Y-107967055D01*
X105227265Y-107875803D01*
X105239662Y-107806154D01*
X105256439Y-107747764D01*
X105279726Y-107690294D01*
X105297040Y-107653333D01*
X105395182Y-107496012D01*
X105522578Y-107367344D01*
X105675178Y-107270945D01*
X105768347Y-107233000D01*
X105925750Y-107180084D01*
X107876613Y-107180084D01*
X108207975Y-107180100D01*
X108499628Y-107180186D01*
X108754197Y-107180399D01*
X108974309Y-107180792D01*
X109162588Y-107181422D01*
X109321658Y-107182345D01*
X109454146Y-107183617D01*
X109562675Y-107185292D01*
X109649872Y-107187427D01*
X109718361Y-107190078D01*
X109770768Y-107193299D01*
X109809716Y-107197147D01*
X109837833Y-107201677D01*
X109857741Y-107206945D01*
X109872067Y-107213007D01*
X109883436Y-107219918D01*
X109887447Y-107222721D01*
X109950472Y-107263551D01*
X110009469Y-107296804D01*
X110112459Y-107369132D01*
X110208461Y-107474162D01*
X110290400Y-107602263D01*
X110351199Y-107743803D01*
X110360814Y-107775012D01*
X110367469Y-107800259D01*
X110373260Y-107828230D01*
X110378225Y-107861743D01*
X110382400Y-107903617D01*
X110385823Y-107956671D01*
X110388531Y-108023722D01*
X110390561Y-108107590D01*
X110391951Y-108211093D01*
X110392737Y-108337051D01*
X110392958Y-108488280D01*
X110392649Y-108667601D01*
X110392649Y-108667601D01*
G37*
X110392649Y-108667601D02*
X110391848Y-108877831D01*
X110390593Y-109121789D01*
X110388921Y-109402294D01*
X110386868Y-109722165D01*
X110386750Y-109740103D01*
X110384390Y-110078966D01*
X110381999Y-110377530D01*
X110379536Y-110637828D01*
X110376961Y-110861895D01*
X110374231Y-111051764D01*
X110371306Y-111209470D01*
X110368144Y-111337046D01*
X110364704Y-111436527D01*
X110360943Y-111509946D01*
X110356822Y-111559338D01*
X110352298Y-111586736D01*
X110349027Y-111593795D01*
X110316372Y-111604679D01*
X110248702Y-111615845D01*
X110153326Y-111626710D01*
X110037553Y-111636693D01*
X109908694Y-111645214D01*
X109774058Y-111651690D01*
X109640954Y-111655540D01*
X109562637Y-111656353D01*
X109452250Y-111655303D01*
X109376565Y-111651011D01*
X109328017Y-111642559D01*
X109299040Y-111629027D01*
X109292762Y-111623572D01*
X109286383Y-111613754D01*
X109280863Y-111596050D01*
X109276143Y-111567592D01*
X109272161Y-111525513D01*
X109268856Y-111466944D01*
X109266168Y-111389020D01*
X109264035Y-111288871D01*
X109262397Y-111163632D01*
X109261194Y-111010435D01*
X109260363Y-110826412D01*
X109259844Y-110608695D01*
X109259577Y-110354418D01*
X109259501Y-110060714D01*
X109259500Y-110056558D01*
X109259542Y-109753894D01*
X109259498Y-109490686D01*
X109259115Y-109264057D01*
X109258141Y-109071132D01*
X109256322Y-108909033D01*
X109253406Y-108774883D01*
X109249140Y-108665807D01*
X109243271Y-108578928D01*
X109235545Y-108511368D01*
X109225711Y-108460251D01*
X109213514Y-108422701D01*
X109198703Y-108395840D01*
X109181023Y-108376793D01*
X109160224Y-108362682D01*
X109136050Y-108350631D01*
X109108385Y-108337829D01*
X109088026Y-108328588D01*
X109066279Y-108320716D01*
X109039728Y-108314088D01*
X109004956Y-108308580D01*
X108958546Y-108304068D01*
X108897080Y-108300428D01*
X108817143Y-108297536D01*
X108715316Y-108295268D01*
X108588183Y-108293499D01*
X108432327Y-108292105D01*
X108244332Y-108290962D01*
X108020779Y-108289947D01*
X107763029Y-108288952D01*
X106509975Y-108284291D01*
X106423762Y-108341344D01*
X106337550Y-108398396D01*
X106349084Y-109169750D01*
X106406245Y-109176347D01*
X106461772Y-109178090D01*
X106501250Y-109164231D01*
X106528678Y-109128602D01*
X106548055Y-109065035D01*
X106563380Y-108967363D01*
X106568242Y-108926485D01*
X106578743Y-108826572D01*
X106586954Y-108734047D01*
X106591740Y-108662475D01*
X106592500Y-108636867D01*
X106594065Y-108596401D01*
X106601979Y-108565134D01*
X106621072Y-108541876D01*
X106656177Y-108525439D01*
X106712122Y-108514634D01*
X106793740Y-108508270D01*
X106905861Y-108505159D01*
X107053315Y-108504112D01*
X107132250Y-108503997D01*
X107270840Y-108504777D01*
X107395697Y-108507159D01*
X107500306Y-108510885D01*
X107578152Y-108515696D01*
X107622720Y-108521336D01*
X107629667Y-108523700D01*
X107637926Y-108534001D01*
X107644847Y-108556089D01*
X107650622Y-108593773D01*
X107655443Y-108650864D01*
X107659502Y-108731171D01*
X107662990Y-108838505D01*
X107666099Y-108976677D01*
X107669022Y-109149495D01*
X107671949Y-109360771D01*
X107672000Y-109364751D01*
X107673974Y-109548159D01*
X107675063Y-109719051D01*
X107675292Y-109872622D01*
X107674689Y-110004064D01*
X107673277Y-110108573D01*
X107671083Y-110181343D01*
X107668133Y-110217567D01*
X107667443Y-110220028D01*
X107633358Y-110246713D01*
X107559533Y-110264704D01*
X107540443Y-110267167D01*
X107447048Y-110275127D01*
X107317785Y-110282085D01*
X107159110Y-110287950D01*
X106977478Y-110292626D01*
X106779346Y-110296019D01*
X106571169Y-110298037D01*
X106359403Y-110298584D01*
X106150503Y-110297568D01*
X105950926Y-110294894D01*
X105825004Y-110292112D01*
X105648754Y-110287408D01*
X105510195Y-110283300D01*
X105404698Y-110279330D01*
X105327632Y-110275040D01*
X105274369Y-110269973D01*
X105240278Y-110263671D01*
X105220732Y-110255676D01*
X105211100Y-110245531D01*
X105206752Y-110232778D01*
X105206345Y-110230953D01*
X105202532Y-110192024D01*
X105199265Y-110115964D01*
X105196541Y-110007971D01*
X105194359Y-109873244D01*
X105192717Y-109716981D01*
X105191612Y-109544381D01*
X105191044Y-109360643D01*
X105191010Y-109170964D01*
X105191509Y-108980544D01*
X105192538Y-108794582D01*
X105194096Y-108618275D01*
X105196182Y-108456822D01*
X105198792Y-108315423D01*
X105201926Y-108199274D01*
X105205582Y-108113575D01*
X105207094Y-108090250D01*
X105217118Y-107967055D01*
X105227265Y-107875803D01*
X105239662Y-107806154D01*
X105256439Y-107747764D01*
X105279726Y-107690294D01*
X105297040Y-107653333D01*
X105395182Y-107496012D01*
X105522578Y-107367344D01*
X105675178Y-107270945D01*
X105768347Y-107233000D01*
X105925750Y-107180084D01*
X107876613Y-107180084D01*
X108207975Y-107180100D01*
X108499628Y-107180186D01*
X108754197Y-107180399D01*
X108974309Y-107180792D01*
X109162588Y-107181422D01*
X109321658Y-107182345D01*
X109454146Y-107183617D01*
X109562675Y-107185292D01*
X109649872Y-107187427D01*
X109718361Y-107190078D01*
X109770768Y-107193299D01*
X109809716Y-107197147D01*
X109837833Y-107201677D01*
X109857741Y-107206945D01*
X109872067Y-107213007D01*
X109883436Y-107219918D01*
X109887447Y-107222721D01*
X109950472Y-107263551D01*
X110009469Y-107296804D01*
X110112459Y-107369132D01*
X110208461Y-107474162D01*
X110290400Y-107602263D01*
X110351199Y-107743803D01*
X110360814Y-107775012D01*
X110367469Y-107800259D01*
X110373260Y-107828230D01*
X110378225Y-107861743D01*
X110382400Y-107903617D01*
X110385823Y-107956671D01*
X110388531Y-108023722D01*
X110390561Y-108107590D01*
X110391951Y-108211093D01*
X110392737Y-108337051D01*
X110392958Y-108488280D01*
X110392649Y-108667601D01*
G36*
X110669431Y-115379401D02*
G01*
X110647488Y-115451179D01*
X110633928Y-115488000D01*
X110606920Y-115553838D01*
X110577712Y-115604369D01*
X110539182Y-115645043D01*
X110484206Y-115681312D01*
X110405662Y-115718626D01*
X110296430Y-115762436D01*
X110254334Y-115778526D01*
X110149161Y-115818284D01*
X110053946Y-115853695D01*
X109960079Y-115887823D01*
X109858951Y-115923730D01*
X109741951Y-115964480D01*
X109600469Y-116013136D01*
X109460584Y-116060934D01*
X109330234Y-116105436D01*
X109209940Y-116146581D01*
X109106762Y-116181947D01*
X109027762Y-116209113D01*
X108980001Y-116225658D01*
X108973750Y-116227858D01*
X108903361Y-116252388D01*
X108804851Y-116286120D01*
X108686560Y-116326257D01*
X108556827Y-116370003D01*
X108423991Y-116414563D01*
X108296393Y-116457139D01*
X108182370Y-116494937D01*
X108090262Y-116525159D01*
X108028409Y-116545010D01*
X108021250Y-116547230D01*
X107950799Y-116569523D01*
X107851572Y-116601846D01*
X107729097Y-116642322D01*
X107588902Y-116689073D01*
X107436515Y-116740225D01*
X107277464Y-116793898D01*
X107117277Y-116848219D01*
X106961482Y-116901308D01*
X106815607Y-116951290D01*
X106685180Y-116996289D01*
X106575728Y-117034427D01*
X106492780Y-117063828D01*
X106441864Y-117082614D01*
X106430552Y-117087253D01*
X106376391Y-117108265D01*
X106335400Y-117117784D01*
X106333566Y-117117834D01*
X106302709Y-117124715D01*
X106241098Y-117143451D01*
X106157673Y-117171178D01*
X106061598Y-117204952D01*
X105956874Y-117242096D01*
X105856863Y-117276505D01*
X105773761Y-117304042D01*
X105724667Y-117319203D01*
X105587192Y-117361887D01*
X105439267Y-117413492D01*
X105335774Y-117453258D01*
X105282726Y-117472747D01*
X105251968Y-117473325D01*
X105226908Y-117452825D01*
X105214065Y-117437377D01*
X105204649Y-117423855D01*
X105196855Y-117406121D01*
X105190533Y-117380353D01*
X105185538Y-117342729D01*
X105181721Y-117289426D01*
X105178934Y-117216622D01*
X105177032Y-117120495D01*
X105175865Y-116997223D01*
X105175286Y-116842983D01*
X105175149Y-116653954D01*
X105175298Y-116432864D01*
X105176531Y-116153001D01*
X105179572Y-115894630D01*
X105184306Y-115660340D01*
X105190618Y-115452724D01*
X105198397Y-115274371D01*
X105207527Y-115127874D01*
X105217895Y-115015823D01*
X105229386Y-114940810D01*
X105241888Y-114905425D01*
X105242411Y-114904867D01*
X105267222Y-114898595D01*
X105325717Y-114890665D01*
X105409328Y-114882065D01*
X105509489Y-114873783D01*
X105516295Y-114873284D01*
X105616347Y-114865994D01*
X105699579Y-114859891D01*
X105757740Y-114855583D01*
X105782579Y-114853678D01*
X105782875Y-114853648D01*
X105788120Y-114836785D01*
X105788167Y-114834292D01*
X105768147Y-114815162D01*
X105710179Y-114787064D01*
X105617399Y-114751232D01*
X105492947Y-114708900D01*
X105375417Y-114672013D01*
X105274151Y-114639792D01*
X105172423Y-114605140D01*
X105088076Y-114574196D01*
X105068500Y-114566419D01*
X105019519Y-114546799D01*
X104968251Y-114527313D01*
X104908369Y-114505784D01*
X104833544Y-114480034D01*
X104737450Y-114447886D01*
X104613759Y-114407164D01*
X104456144Y-114355690D01*
X104454667Y-114355208D01*
X104270815Y-114294275D01*
X104125107Y-114243638D01*
X104014890Y-114202305D01*
X103937506Y-114169283D01*
X103892477Y-114145029D01*
X103840834Y-114111191D01*
X103844749Y-113598387D01*
X103846183Y-113448120D01*
X103848074Y-113305642D01*
X103850281Y-113178495D01*
X103852664Y-113074224D01*
X103855079Y-113000370D01*
X103856439Y-112974459D01*
X103864296Y-112905383D01*
X103882504Y-112869621D01*
X103921645Y-112858155D01*
X103988791Y-112861639D01*
X104038765Y-112872354D01*
X104107699Y-112894249D01*
X104147541Y-112909314D01*
X104212954Y-112935501D01*
X104272583Y-112958691D01*
X104332595Y-112980995D01*
X104399157Y-113004524D01*
X104478437Y-113031387D01*
X104576602Y-113063695D01*
X104699820Y-113103558D01*
X104854257Y-113153086D01*
X104941500Y-113180981D01*
X105087780Y-113227905D01*
X105223012Y-113271623D01*
X105341268Y-113310192D01*
X105436623Y-113341669D01*
X105503151Y-113364113D01*
X105534167Y-113375261D01*
X105583802Y-113393884D01*
X105655088Y-113418560D01*
X105706492Y-113435496D01*
X105778563Y-113459837D01*
X105838706Y-113482137D01*
X105865242Y-113493495D01*
X105892732Y-113504017D01*
X105954928Y-113526081D01*
X106046376Y-113557845D01*
X106161623Y-113597463D01*
X106295214Y-113643093D01*
X106441695Y-113692889D01*
X106504072Y-113714011D01*
X106504072Y-115072403D01*
X106485312Y-115078722D01*
X106465408Y-115119026D01*
X106447929Y-115191380D01*
X106433633Y-115285529D01*
X106423278Y-115391224D01*
X106417624Y-115498212D01*
X106417427Y-115596242D01*
X106423449Y-115675061D01*
X106436445Y-115724417D01*
X106437408Y-115726125D01*
X106467213Y-115738780D01*
X106530821Y-115731997D01*
X106629232Y-115705543D01*
X106763444Y-115659186D01*
X106825334Y-115635805D01*
X106904973Y-115606540D01*
X106985877Y-115578867D01*
X107005250Y-115572663D01*
X107072430Y-115547224D01*
X107148011Y-115511887D01*
X107222735Y-115471945D01*
X107287346Y-115432691D01*
X107332587Y-115399418D01*
X107349200Y-115377420D01*
X107348962Y-115376136D01*
X107325041Y-115357745D01*
X107263391Y-115328113D01*
X107166779Y-115288336D01*
X107037971Y-115239511D01*
X106879734Y-115182735D01*
X106735683Y-115132962D01*
X106625662Y-115097345D01*
X106549974Y-115077487D01*
X106504072Y-115072403D01*
X106504072Y-113714011D01*
X106595611Y-113745009D01*
X106751509Y-113797608D01*
X106903935Y-113848842D01*
X107047433Y-113896867D01*
X107176551Y-113939839D01*
X107285833Y-113975914D01*
X107369826Y-114003248D01*
X107418000Y-114018459D01*
X107470326Y-114035382D01*
X107553398Y-114063343D01*
X107658067Y-114099215D01*
X107775186Y-114139871D01*
X107851917Y-114166769D01*
X107975436Y-114209889D01*
X108095454Y-114251153D01*
X108201821Y-114287117D01*
X108284389Y-114314335D01*
X108317584Y-114324822D01*
X108398599Y-114349920D01*
X108480656Y-114376096D01*
X108570237Y-114405530D01*
X108673820Y-114440405D01*
X108797888Y-114482903D01*
X108948919Y-114535204D01*
X109132500Y-114599179D01*
X109287067Y-114652630D01*
X109453172Y-114709186D01*
X109617814Y-114764480D01*
X109767994Y-114814144D01*
X109886066Y-114852335D01*
X109998889Y-114888801D01*
X110100084Y-114922604D01*
X110181539Y-114950952D01*
X110235141Y-114971052D01*
X110249799Y-114977573D01*
X110300588Y-114996675D01*
X110330275Y-115001167D01*
X110368918Y-115009870D01*
X110429428Y-115032245D01*
X110474748Y-115052298D01*
X110547860Y-115093567D01*
X110596020Y-115141690D01*
X110630249Y-115201031D01*
X110661013Y-115270094D01*
X110674006Y-115324295D01*
X110669431Y-115379401D01*
X110669431Y-115379401D01*
G37*
X110669431Y-115379401D02*
X110647488Y-115451179D01*
X110633928Y-115488000D01*
X110606920Y-115553838D01*
X110577712Y-115604369D01*
X110539182Y-115645043D01*
X110484206Y-115681312D01*
X110405662Y-115718626D01*
X110296430Y-115762436D01*
X110254334Y-115778526D01*
X110149161Y-115818284D01*
X110053946Y-115853695D01*
X109960079Y-115887823D01*
X109858951Y-115923730D01*
X109741951Y-115964480D01*
X109600469Y-116013136D01*
X109460584Y-116060934D01*
X109330234Y-116105436D01*
X109209940Y-116146581D01*
X109106762Y-116181947D01*
X109027762Y-116209113D01*
X108980001Y-116225658D01*
X108973750Y-116227858D01*
X108903361Y-116252388D01*
X108804851Y-116286120D01*
X108686560Y-116326257D01*
X108556827Y-116370003D01*
X108423991Y-116414563D01*
X108296393Y-116457139D01*
X108182370Y-116494937D01*
X108090262Y-116525159D01*
X108028409Y-116545010D01*
X108021250Y-116547230D01*
X107950799Y-116569523D01*
X107851572Y-116601846D01*
X107729097Y-116642322D01*
X107588902Y-116689073D01*
X107436515Y-116740225D01*
X107277464Y-116793898D01*
X107117277Y-116848219D01*
X106961482Y-116901308D01*
X106815607Y-116951290D01*
X106685180Y-116996289D01*
X106575728Y-117034427D01*
X106492780Y-117063828D01*
X106441864Y-117082614D01*
X106430552Y-117087253D01*
X106376391Y-117108265D01*
X106335400Y-117117784D01*
X106333566Y-117117834D01*
X106302709Y-117124715D01*
X106241098Y-117143451D01*
X106157673Y-117171178D01*
X106061598Y-117204952D01*
X105956874Y-117242096D01*
X105856863Y-117276505D01*
X105773761Y-117304042D01*
X105724667Y-117319203D01*
X105587192Y-117361887D01*
X105439267Y-117413492D01*
X105335774Y-117453258D01*
X105282726Y-117472747D01*
X105251968Y-117473325D01*
X105226908Y-117452825D01*
X105214065Y-117437377D01*
X105204649Y-117423855D01*
X105196855Y-117406121D01*
X105190533Y-117380353D01*
X105185538Y-117342729D01*
X105181721Y-117289426D01*
X105178934Y-117216622D01*
X105177032Y-117120495D01*
X105175865Y-116997223D01*
X105175286Y-116842983D01*
X105175149Y-116653954D01*
X105175298Y-116432864D01*
X105176531Y-116153001D01*
X105179572Y-115894630D01*
X105184306Y-115660340D01*
X105190618Y-115452724D01*
X105198397Y-115274371D01*
X105207527Y-115127874D01*
X105217895Y-115015823D01*
X105229386Y-114940810D01*
X105241888Y-114905425D01*
X105242411Y-114904867D01*
X105267222Y-114898595D01*
X105325717Y-114890665D01*
X105409328Y-114882065D01*
X105509489Y-114873783D01*
X105516295Y-114873284D01*
X105616347Y-114865994D01*
X105699579Y-114859891D01*
X105757740Y-114855583D01*
X105782579Y-114853678D01*
X105782875Y-114853648D01*
X105788120Y-114836785D01*
X105788167Y-114834292D01*
X105768147Y-114815162D01*
X105710179Y-114787064D01*
X105617399Y-114751232D01*
X105492947Y-114708900D01*
X105375417Y-114672013D01*
X105274151Y-114639792D01*
X105172423Y-114605140D01*
X105088076Y-114574196D01*
X105068500Y-114566419D01*
X105019519Y-114546799D01*
X104968251Y-114527313D01*
X104908369Y-114505784D01*
X104833544Y-114480034D01*
X104737450Y-114447886D01*
X104613759Y-114407164D01*
X104456144Y-114355690D01*
X104454667Y-114355208D01*
X104270815Y-114294275D01*
X104125107Y-114243638D01*
X104014890Y-114202305D01*
X103937506Y-114169283D01*
X103892477Y-114145029D01*
X103840834Y-114111191D01*
X103844749Y-113598387D01*
X103846183Y-113448120D01*
X103848074Y-113305642D01*
X103850281Y-113178495D01*
X103852664Y-113074224D01*
X103855079Y-113000370D01*
X103856439Y-112974459D01*
X103864296Y-112905383D01*
X103882504Y-112869621D01*
X103921645Y-112858155D01*
X103988791Y-112861639D01*
X104038765Y-112872354D01*
X104107699Y-112894249D01*
X104147541Y-112909314D01*
X104212954Y-112935501D01*
X104272583Y-112958691D01*
X104332595Y-112980995D01*
X104399157Y-113004524D01*
X104478437Y-113031387D01*
X104576602Y-113063695D01*
X104699820Y-113103558D01*
X104854257Y-113153086D01*
X104941500Y-113180981D01*
X105087780Y-113227905D01*
X105223012Y-113271623D01*
X105341268Y-113310192D01*
X105436623Y-113341669D01*
X105503151Y-113364113D01*
X105534167Y-113375261D01*
X105583802Y-113393884D01*
X105655088Y-113418560D01*
X105706492Y-113435496D01*
X105778563Y-113459837D01*
X105838706Y-113482137D01*
X105865242Y-113493495D01*
X105892732Y-113504017D01*
X105954928Y-113526081D01*
X106046376Y-113557845D01*
X106161623Y-113597463D01*
X106295214Y-113643093D01*
X106441695Y-113692889D01*
X106504072Y-113714011D01*
X106504072Y-115072403D01*
X106485312Y-115078722D01*
X106465408Y-115119026D01*
X106447929Y-115191380D01*
X106433633Y-115285529D01*
X106423278Y-115391224D01*
X106417624Y-115498212D01*
X106417427Y-115596242D01*
X106423449Y-115675061D01*
X106436445Y-115724417D01*
X106437408Y-115726125D01*
X106467213Y-115738780D01*
X106530821Y-115731997D01*
X106629232Y-115705543D01*
X106763444Y-115659186D01*
X106825334Y-115635805D01*
X106904973Y-115606540D01*
X106985877Y-115578867D01*
X107005250Y-115572663D01*
X107072430Y-115547224D01*
X107148011Y-115511887D01*
X107222735Y-115471945D01*
X107287346Y-115432691D01*
X107332587Y-115399418D01*
X107349200Y-115377420D01*
X107348962Y-115376136D01*
X107325041Y-115357745D01*
X107263391Y-115328113D01*
X107166779Y-115288336D01*
X107037971Y-115239511D01*
X106879734Y-115182735D01*
X106735683Y-115132962D01*
X106625662Y-115097345D01*
X106549974Y-115077487D01*
X106504072Y-115072403D01*
X106504072Y-113714011D01*
X106595611Y-113745009D01*
X106751509Y-113797608D01*
X106903935Y-113848842D01*
X107047433Y-113896867D01*
X107176551Y-113939839D01*
X107285833Y-113975914D01*
X107369826Y-114003248D01*
X107418000Y-114018459D01*
X107470326Y-114035382D01*
X107553398Y-114063343D01*
X107658067Y-114099215D01*
X107775186Y-114139871D01*
X107851917Y-114166769D01*
X107975436Y-114209889D01*
X108095454Y-114251153D01*
X108201821Y-114287117D01*
X108284389Y-114314335D01*
X108317584Y-114324822D01*
X108398599Y-114349920D01*
X108480656Y-114376096D01*
X108570237Y-114405530D01*
X108673820Y-114440405D01*
X108797888Y-114482903D01*
X108948919Y-114535204D01*
X109132500Y-114599179D01*
X109287067Y-114652630D01*
X109453172Y-114709186D01*
X109617814Y-114764480D01*
X109767994Y-114814144D01*
X109886066Y-114852335D01*
X109998889Y-114888801D01*
X110100084Y-114922604D01*
X110181539Y-114950952D01*
X110235141Y-114971052D01*
X110249799Y-114977573D01*
X110300588Y-114996675D01*
X110330275Y-115001167D01*
X110368918Y-115009870D01*
X110429428Y-115032245D01*
X110474748Y-115052298D01*
X110547860Y-115093567D01*
X110596020Y-115141690D01*
X110630249Y-115201031D01*
X110661013Y-115270094D01*
X110674006Y-115324295D01*
X110669431Y-115379401D01*
G36*
X111729780Y-104463945D02*
G01*
X111729315Y-104668150D01*
X111728382Y-104840621D01*
X111726961Y-104983480D01*
X111725034Y-105098845D01*
X111722580Y-105188837D01*
X111719581Y-105255575D01*
X111716017Y-105301179D01*
X111711868Y-105327770D01*
X111708661Y-105336131D01*
X111672482Y-105356896D01*
X111601658Y-105374412D01*
X111503763Y-105388513D01*
X111386374Y-105399034D01*
X111257066Y-105405808D01*
X111123415Y-105408670D01*
X110992995Y-105407455D01*
X110873382Y-105401996D01*
X110772152Y-105392128D01*
X110696881Y-105377685D01*
X110655855Y-105359166D01*
X110649536Y-105351189D01*
X110644043Y-105337678D01*
X110639336Y-105315950D01*
X110635377Y-105283325D01*
X110632128Y-105237121D01*
X110629550Y-105174657D01*
X110627604Y-105093252D01*
X110626253Y-104990224D01*
X110625459Y-104862892D01*
X110625181Y-104708575D01*
X110625383Y-104524592D01*
X110626025Y-104308260D01*
X110627070Y-104056900D01*
X110628479Y-103767830D01*
X110629704Y-103533555D01*
X110631454Y-103151009D01*
X110632405Y-102810481D01*
X110632554Y-102511663D01*
X110631900Y-102254248D01*
X110630440Y-102037927D01*
X110628173Y-101862392D01*
X110625096Y-101727337D01*
X110621208Y-101632452D01*
X110616661Y-101578524D01*
X110576148Y-101371469D01*
X110515421Y-101196122D01*
X110431300Y-101045438D01*
X110320607Y-100912372D01*
X110312418Y-100904167D01*
X110222879Y-100818194D01*
X110148310Y-100755396D01*
X110075869Y-100707035D01*
X109992709Y-100664373D01*
X109903020Y-100625658D01*
X109735750Y-100556689D01*
X107820167Y-100559823D01*
X107479764Y-100560367D01*
X107178916Y-100560930D01*
X106914845Y-100561683D01*
X106684773Y-100562796D01*
X106485922Y-100564441D01*
X106315514Y-100566788D01*
X106170772Y-100570007D01*
X106048916Y-100574268D01*
X105947170Y-100579744D01*
X105862754Y-100586603D01*
X105792892Y-100595017D01*
X105734805Y-100605156D01*
X105685715Y-100617190D01*
X105642844Y-100631291D01*
X105603414Y-100647629D01*
X105564648Y-100666375D01*
X105523766Y-100687698D01*
X105495632Y-100702555D01*
X105334389Y-100808337D01*
X105199800Y-100943209D01*
X105089869Y-101109715D01*
X105002599Y-101310397D01*
X104990668Y-101345655D01*
X104985078Y-101367462D01*
X104980099Y-101398391D01*
X104975681Y-101441012D01*
X104971771Y-101497894D01*
X104968317Y-101571605D01*
X104965267Y-101664715D01*
X104962569Y-101779792D01*
X104960171Y-101919405D01*
X104958022Y-102086124D01*
X104956069Y-102282516D01*
X104954260Y-102511152D01*
X104952543Y-102774599D01*
X104950867Y-103075427D01*
X104949302Y-103390217D01*
X104947831Y-103673564D01*
X104946183Y-103944765D01*
X104944392Y-104200842D01*
X104942488Y-104438815D01*
X104940503Y-104655707D01*
X104938469Y-104848537D01*
X104936418Y-105014329D01*
X104934382Y-105150102D01*
X104932391Y-105252877D01*
X104930479Y-105319678D01*
X104928676Y-105347523D01*
X104928444Y-105348134D01*
X104898609Y-105357603D01*
X104833801Y-105366074D01*
X104741371Y-105373396D01*
X104628673Y-105379420D01*
X104503056Y-105383994D01*
X104371874Y-105386968D01*
X104242479Y-105388190D01*
X104122221Y-105387511D01*
X104018453Y-105384779D01*
X103938527Y-105379844D01*
X103889794Y-105372555D01*
X103881776Y-105369589D01*
X103874789Y-105364939D01*
X103868650Y-105357214D01*
X103863309Y-105343828D01*
X103858714Y-105322192D01*
X103854815Y-105289721D01*
X103851560Y-105243826D01*
X103848899Y-105181922D01*
X103846780Y-105101419D01*
X103845152Y-104999732D01*
X103843966Y-104874273D01*
X103843168Y-104722456D01*
X103842710Y-104541692D01*
X103842540Y-104329394D01*
X103842606Y-104082977D01*
X103842859Y-103799852D01*
X103843246Y-103477432D01*
X103843323Y-103416964D01*
X103843869Y-103132525D01*
X103844742Y-102858652D01*
X103845911Y-102598510D01*
X103847348Y-102355264D01*
X103849022Y-102132080D01*
X103850903Y-101932123D01*
X103852961Y-101758559D01*
X103855168Y-101614553D01*
X103857491Y-101503271D01*
X103859903Y-101427877D01*
X103862372Y-101391538D01*
X103862461Y-101391000D01*
X103878248Y-101317259D01*
X103897108Y-101250665D01*
X103902305Y-101236164D01*
X103919918Y-101169744D01*
X103925500Y-101116264D01*
X103932653Y-101071417D01*
X103951423Y-101003192D01*
X103977780Y-100922725D01*
X104007694Y-100841151D01*
X104037132Y-100769605D01*
X104062066Y-100719222D01*
X104075468Y-100701971D01*
X104092809Y-100672674D01*
X104094834Y-100656598D01*
X104109755Y-100607293D01*
X104151214Y-100535330D01*
X104214256Y-100446339D01*
X104293926Y-100345950D01*
X104385269Y-100239795D01*
X104483328Y-100133504D01*
X104583149Y-100032707D01*
X104679777Y-99943034D01*
X104768255Y-99870117D01*
X104817689Y-99835248D01*
X105039979Y-99704086D01*
X105248595Y-99607307D01*
X105450297Y-99542218D01*
X105640000Y-99507477D01*
X105722304Y-99495175D01*
X105796014Y-99479777D01*
X105837170Y-99467443D01*
X105863233Y-99462910D01*
X105918282Y-99458903D01*
X106003707Y-99455404D01*
X106120897Y-99452397D01*
X106271243Y-99449865D01*
X106456134Y-99447790D01*
X106676959Y-99446157D01*
X106935109Y-99444948D01*
X107231972Y-99444145D01*
X107568939Y-99443734D01*
X107792297Y-99443667D01*
X108132785Y-99443713D01*
X108433824Y-99443931D01*
X108698298Y-99444440D01*
X108929091Y-99445356D01*
X109129086Y-99446800D01*
X109301169Y-99448889D01*
X109448223Y-99451741D01*
X109573132Y-99455475D01*
X109678780Y-99460209D01*
X109768052Y-99466062D01*
X109843831Y-99473152D01*
X109909001Y-99481597D01*
X109966448Y-99491515D01*
X110019054Y-99503026D01*
X110069703Y-99516247D01*
X110121280Y-99531297D01*
X110151341Y-99540474D01*
X110214754Y-99558361D01*
X110263369Y-99569188D01*
X110276531Y-99570667D01*
X110317780Y-99581205D01*
X110386123Y-99609817D01*
X110472843Y-99652002D01*
X110569220Y-99703259D01*
X110666539Y-99759087D01*
X110756081Y-99814983D01*
X110777760Y-99829481D01*
X110867472Y-99895771D01*
X110966481Y-99977425D01*
X111065946Y-100066268D01*
X111157026Y-100154124D01*
X111230881Y-100232820D01*
X111276168Y-100290334D01*
X111309648Y-100339601D01*
X111354006Y-100403441D01*
X111374677Y-100432789D01*
X111474662Y-100596194D01*
X111566328Y-100788971D01*
X111644012Y-100998243D01*
X111684323Y-101137000D01*
X111690338Y-101163615D01*
X111695675Y-101195764D01*
X111700387Y-101236095D01*
X111704528Y-101287253D01*
X111708149Y-101351884D01*
X111711305Y-101432634D01*
X111714047Y-101532149D01*
X111716430Y-101653076D01*
X111718505Y-101798061D01*
X111720326Y-101969750D01*
X111721946Y-102170788D01*
X111723417Y-102403822D01*
X111724793Y-102671498D01*
X111726127Y-102976462D01*
X111727343Y-103287405D01*
X111728558Y-103639738D01*
X111729382Y-103951859D01*
X111729795Y-104225889D01*
X111729780Y-104463945D01*
X111729780Y-104463945D01*
G37*
X111729780Y-104463945D02*
X111729315Y-104668150D01*
X111728382Y-104840621D01*
X111726961Y-104983480D01*
X111725034Y-105098845D01*
X111722580Y-105188837D01*
X111719581Y-105255575D01*
X111716017Y-105301179D01*
X111711868Y-105327770D01*
X111708661Y-105336131D01*
X111672482Y-105356896D01*
X111601658Y-105374412D01*
X111503763Y-105388513D01*
X111386374Y-105399034D01*
X111257066Y-105405808D01*
X111123415Y-105408670D01*
X110992995Y-105407455D01*
X110873382Y-105401996D01*
X110772152Y-105392128D01*
X110696881Y-105377685D01*
X110655855Y-105359166D01*
X110649536Y-105351189D01*
X110644043Y-105337678D01*
X110639336Y-105315950D01*
X110635377Y-105283325D01*
X110632128Y-105237121D01*
X110629550Y-105174657D01*
X110627604Y-105093252D01*
X110626253Y-104990224D01*
X110625459Y-104862892D01*
X110625181Y-104708575D01*
X110625383Y-104524592D01*
X110626025Y-104308260D01*
X110627070Y-104056900D01*
X110628479Y-103767830D01*
X110629704Y-103533555D01*
X110631454Y-103151009D01*
X110632405Y-102810481D01*
X110632554Y-102511663D01*
X110631900Y-102254248D01*
X110630440Y-102037927D01*
X110628173Y-101862392D01*
X110625096Y-101727337D01*
X110621208Y-101632452D01*
X110616661Y-101578524D01*
X110576148Y-101371469D01*
X110515421Y-101196122D01*
X110431300Y-101045438D01*
X110320607Y-100912372D01*
X110312418Y-100904167D01*
X110222879Y-100818194D01*
X110148310Y-100755396D01*
X110075869Y-100707035D01*
X109992709Y-100664373D01*
X109903020Y-100625658D01*
X109735750Y-100556689D01*
X107820167Y-100559823D01*
X107479764Y-100560367D01*
X107178916Y-100560930D01*
X106914845Y-100561683D01*
X106684773Y-100562796D01*
X106485922Y-100564441D01*
X106315514Y-100566788D01*
X106170772Y-100570007D01*
X106048916Y-100574268D01*
X105947170Y-100579744D01*
X105862754Y-100586603D01*
X105792892Y-100595017D01*
X105734805Y-100605156D01*
X105685715Y-100617190D01*
X105642844Y-100631291D01*
X105603414Y-100647629D01*
X105564648Y-100666375D01*
X105523766Y-100687698D01*
X105495632Y-100702555D01*
X105334389Y-100808337D01*
X105199800Y-100943209D01*
X105089869Y-101109715D01*
X105002599Y-101310397D01*
X104990668Y-101345655D01*
X104985078Y-101367462D01*
X104980099Y-101398391D01*
X104975681Y-101441012D01*
X104971771Y-101497894D01*
X104968317Y-101571605D01*
X104965267Y-101664715D01*
X104962569Y-101779792D01*
X104960171Y-101919405D01*
X104958022Y-102086124D01*
X104956069Y-102282516D01*
X104954260Y-102511152D01*
X104952543Y-102774599D01*
X104950867Y-103075427D01*
X104949302Y-103390217D01*
X104947831Y-103673564D01*
X104946183Y-103944765D01*
X104944392Y-104200842D01*
X104942488Y-104438815D01*
X104940503Y-104655707D01*
X104938469Y-104848537D01*
X104936418Y-105014329D01*
X104934382Y-105150102D01*
X104932391Y-105252877D01*
X104930479Y-105319678D01*
X104928676Y-105347523D01*
X104928444Y-105348134D01*
X104898609Y-105357603D01*
X104833801Y-105366074D01*
X104741371Y-105373396D01*
X104628673Y-105379420D01*
X104503056Y-105383994D01*
X104371874Y-105386968D01*
X104242479Y-105388190D01*
X104122221Y-105387511D01*
X104018453Y-105384779D01*
X103938527Y-105379844D01*
X103889794Y-105372555D01*
X103881776Y-105369589D01*
X103874789Y-105364939D01*
X103868650Y-105357214D01*
X103863309Y-105343828D01*
X103858714Y-105322192D01*
X103854815Y-105289721D01*
X103851560Y-105243826D01*
X103848899Y-105181922D01*
X103846780Y-105101419D01*
X103845152Y-104999732D01*
X103843966Y-104874273D01*
X103843168Y-104722456D01*
X103842710Y-104541692D01*
X103842540Y-104329394D01*
X103842606Y-104082977D01*
X103842859Y-103799852D01*
X103843246Y-103477432D01*
X103843323Y-103416964D01*
X103843869Y-103132525D01*
X103844742Y-102858652D01*
X103845911Y-102598510D01*
X103847348Y-102355264D01*
X103849022Y-102132080D01*
X103850903Y-101932123D01*
X103852961Y-101758559D01*
X103855168Y-101614553D01*
X103857491Y-101503271D01*
X103859903Y-101427877D01*
X103862372Y-101391538D01*
X103862461Y-101391000D01*
X103878248Y-101317259D01*
X103897108Y-101250665D01*
X103902305Y-101236164D01*
X103919918Y-101169744D01*
X103925500Y-101116264D01*
X103932653Y-101071417D01*
X103951423Y-101003192D01*
X103977780Y-100922725D01*
X104007694Y-100841151D01*
X104037132Y-100769605D01*
X104062066Y-100719222D01*
X104075468Y-100701971D01*
X104092809Y-100672674D01*
X104094834Y-100656598D01*
X104109755Y-100607293D01*
X104151214Y-100535330D01*
X104214256Y-100446339D01*
X104293926Y-100345950D01*
X104385269Y-100239795D01*
X104483328Y-100133504D01*
X104583149Y-100032707D01*
X104679777Y-99943034D01*
X104768255Y-99870117D01*
X104817689Y-99835248D01*
X105039979Y-99704086D01*
X105248595Y-99607307D01*
X105450297Y-99542218D01*
X105640000Y-99507477D01*
X105722304Y-99495175D01*
X105796014Y-99479777D01*
X105837170Y-99467443D01*
X105863233Y-99462910D01*
X105918282Y-99458903D01*
X106003707Y-99455404D01*
X106120897Y-99452397D01*
X106271243Y-99449865D01*
X106456134Y-99447790D01*
X106676959Y-99446157D01*
X106935109Y-99444948D01*
X107231972Y-99444145D01*
X107568939Y-99443734D01*
X107792297Y-99443667D01*
X108132785Y-99443713D01*
X108433824Y-99443931D01*
X108698298Y-99444440D01*
X108929091Y-99445356D01*
X109129086Y-99446800D01*
X109301169Y-99448889D01*
X109448223Y-99451741D01*
X109573132Y-99455475D01*
X109678780Y-99460209D01*
X109768052Y-99466062D01*
X109843831Y-99473152D01*
X109909001Y-99481597D01*
X109966448Y-99491515D01*
X110019054Y-99503026D01*
X110069703Y-99516247D01*
X110121280Y-99531297D01*
X110151341Y-99540474D01*
X110214754Y-99558361D01*
X110263369Y-99569188D01*
X110276531Y-99570667D01*
X110317780Y-99581205D01*
X110386123Y-99609817D01*
X110472843Y-99652002D01*
X110569220Y-99703259D01*
X110666539Y-99759087D01*
X110756081Y-99814983D01*
X110777760Y-99829481D01*
X110867472Y-99895771D01*
X110966481Y-99977425D01*
X111065946Y-100066268D01*
X111157026Y-100154124D01*
X111230881Y-100232820D01*
X111276168Y-100290334D01*
X111309648Y-100339601D01*
X111354006Y-100403441D01*
X111374677Y-100432789D01*
X111474662Y-100596194D01*
X111566328Y-100788971D01*
X111644012Y-100998243D01*
X111684323Y-101137000D01*
X111690338Y-101163615D01*
X111695675Y-101195764D01*
X111700387Y-101236095D01*
X111704528Y-101287253D01*
X111708149Y-101351884D01*
X111711305Y-101432634D01*
X111714047Y-101532149D01*
X111716430Y-101653076D01*
X111718505Y-101798061D01*
X111720326Y-101969750D01*
X111721946Y-102170788D01*
X111723417Y-102403822D01*
X111724793Y-102671498D01*
X111726127Y-102976462D01*
X111727343Y-103287405D01*
X111728558Y-103639738D01*
X111729382Y-103951859D01*
X111729795Y-104225889D01*
X111729780Y-104463945D01*
G36*
X110392564Y-95651183D02*
G01*
X110389832Y-95718055D01*
X110386853Y-95823013D01*
X110383696Y-95961809D01*
X110380431Y-96130197D01*
X110377130Y-96323929D01*
X110373861Y-96538758D01*
X110370695Y-96770439D01*
X110367703Y-97014723D01*
X110364953Y-97267364D01*
X110363605Y-97404633D01*
X110361079Y-97651603D01*
X110358302Y-97886123D01*
X110355338Y-98104769D01*
X110352253Y-98304113D01*
X110349110Y-98480729D01*
X110345973Y-98631193D01*
X110342908Y-98752078D01*
X110339978Y-98839957D01*
X110337248Y-98891406D01*
X110335436Y-98903975D01*
X110310315Y-98909202D01*
X110250278Y-98914392D01*
X110162740Y-98919362D01*
X110055119Y-98923924D01*
X109934830Y-98927892D01*
X109809291Y-98931082D01*
X109685917Y-98933307D01*
X109572125Y-98934381D01*
X109475332Y-98934118D01*
X109402955Y-98932333D01*
X109362408Y-98928841D01*
X109360439Y-98928403D01*
X109312148Y-98899111D01*
X109294686Y-98867059D01*
X109292408Y-98837329D01*
X109290180Y-98769319D01*
X109288050Y-98667082D01*
X109286067Y-98534673D01*
X109284280Y-98376145D01*
X109282737Y-98195552D01*
X109281487Y-97996946D01*
X109280579Y-97784382D01*
X109280249Y-97665667D01*
X109279492Y-97425673D01*
X109278319Y-97180008D01*
X109276790Y-96935429D01*
X109274961Y-96698695D01*
X109272891Y-96476564D01*
X109270638Y-96275796D01*
X109268260Y-96103148D01*
X109265815Y-95965379D01*
X109265561Y-95953448D01*
X109261630Y-95783132D01*
X109257804Y-95650131D01*
X109253663Y-95549432D01*
X109248788Y-95476022D01*
X109242761Y-95424886D01*
X109235163Y-95391010D01*
X109225574Y-95369381D01*
X109215728Y-95357061D01*
X109164741Y-95330456D01*
X109112532Y-95340165D01*
X109072553Y-95382792D01*
X109067377Y-95394521D01*
X109061025Y-95431751D01*
X109055430Y-95503431D01*
X109050962Y-95601682D01*
X109047989Y-95718623D01*
X109046904Y-95830836D01*
X109045471Y-95967951D01*
X109042093Y-96103089D01*
X109037181Y-96225409D01*
X109031145Y-96324069D01*
X109026319Y-96374500D01*
X109014251Y-96474523D01*
X109000372Y-96593388D01*
X108987389Y-96707845D01*
X108985560Y-96724344D01*
X108966143Y-96849767D01*
X108935419Y-96990044D01*
X108897018Y-97132206D01*
X108854571Y-97263284D01*
X108811707Y-97370309D01*
X108795661Y-97402730D01*
X108768737Y-97456206D01*
X108753097Y-97493541D01*
X108751500Y-97500652D01*
X108740490Y-97524216D01*
X108711126Y-97573653D01*
X108668907Y-97639859D01*
X108650959Y-97667039D01*
X108598602Y-97746089D01*
X108550081Y-97820195D01*
X108514244Y-97875823D01*
X108508678Y-97884657D01*
X108461092Y-97948707D01*
X108388544Y-98031699D01*
X108298868Y-98125807D01*
X108199898Y-98223204D01*
X108099468Y-98316066D01*
X108005412Y-98396565D01*
X107962419Y-98430341D01*
X107890833Y-98483421D01*
X107832043Y-98525203D01*
X107794013Y-98550123D01*
X107784431Y-98554667D01*
X107761343Y-98563455D01*
X107708089Y-98587422D01*
X107632446Y-98622973D01*
X107542191Y-98666512D01*
X107536346Y-98669366D01*
X107377879Y-98743822D01*
X107242025Y-98799960D01*
X107115675Y-98842176D01*
X106985719Y-98874866D01*
X106843879Y-98901624D01*
X106573593Y-98930158D01*
X106293553Y-98928988D01*
X106012081Y-98899630D01*
X105737500Y-98843603D01*
X105478133Y-98762421D01*
X105242302Y-98657602D01*
X105121417Y-98587744D01*
X105004839Y-98512924D01*
X104914647Y-98452814D01*
X104841238Y-98399832D01*
X104775012Y-98346391D01*
X104706369Y-98284908D01*
X104625707Y-98207797D01*
X104564017Y-98147406D01*
X104490398Y-98066624D01*
X104404969Y-97959656D01*
X104315691Y-97837745D01*
X104230526Y-97712137D01*
X104157437Y-97594077D01*
X104109493Y-97505484D01*
X104034988Y-97332000D01*
X103962254Y-97122024D01*
X103893286Y-96881395D01*
X103884711Y-96848204D01*
X103877151Y-96817602D01*
X103870513Y-96786913D01*
X103864736Y-96753312D01*
X103859762Y-96713978D01*
X103855530Y-96666085D01*
X103851980Y-96606812D01*
X103849053Y-96533334D01*
X103846688Y-96442829D01*
X103844826Y-96332472D01*
X103843407Y-96199441D01*
X103842370Y-96040912D01*
X103841657Y-95854062D01*
X103841206Y-95636067D01*
X103840959Y-95384104D01*
X103840855Y-95095350D01*
X103840834Y-94779907D01*
X103840854Y-94453477D01*
X103840952Y-94166770D01*
X103841183Y-93917174D01*
X103841603Y-93702079D01*
X103842267Y-93518874D01*
X103843232Y-93364948D01*
X103844553Y-93237690D01*
X103846286Y-93134489D01*
X103848487Y-93052734D01*
X103851210Y-92989815D01*
X103854513Y-92943121D01*
X103858451Y-92910040D01*
X103863079Y-92887963D01*
X103868453Y-92874277D01*
X103874629Y-92866373D01*
X103881663Y-92861639D01*
X103881776Y-92861578D01*
X103916998Y-92853871D01*
X103985995Y-92847770D01*
X104081504Y-92843249D01*
X104196262Y-92840285D01*
X104323007Y-92838855D01*
X104454475Y-92838934D01*
X104583406Y-92840497D01*
X104702536Y-92843522D01*
X104804602Y-92847984D01*
X104882343Y-92853859D01*
X104928496Y-92861123D01*
X104937267Y-92865067D01*
X104942030Y-92879848D01*
X104946216Y-92915438D01*
X104949852Y-92973892D01*
X104952968Y-93057267D01*
X104955592Y-93167618D01*
X104957754Y-93307001D01*
X104959482Y-93477471D01*
X104960806Y-93681084D01*
X104961753Y-93919896D01*
X104962354Y-94195962D01*
X104962636Y-94511339D01*
X104962667Y-94673775D01*
X104962951Y-95047421D01*
X104963802Y-95380976D01*
X104965215Y-95674158D01*
X104967188Y-95926686D01*
X104969717Y-96138282D01*
X104972799Y-96308663D01*
X104976430Y-96437551D01*
X104980608Y-96524663D01*
X104985232Y-96569250D01*
X105055160Y-96821433D01*
X105157338Y-97050846D01*
X105288950Y-97255152D01*
X105447181Y-97432012D01*
X105629214Y-97579088D01*
X105832235Y-97694043D01*
X106053428Y-97774537D01*
X106289977Y-97818234D01*
X106497250Y-97824835D01*
X106629042Y-97816235D01*
X106747198Y-97798444D01*
X106861534Y-97768351D01*
X106981863Y-97722845D01*
X107118000Y-97658815D01*
X107263847Y-97581854D01*
X107327974Y-97536110D01*
X107407013Y-97463744D01*
X107492912Y-97373698D01*
X107577619Y-97274916D01*
X107653084Y-97176340D01*
X107711255Y-97086913D01*
X107714286Y-97081557D01*
X107770110Y-96973908D01*
X107815658Y-96866092D01*
X107851866Y-96752428D01*
X107879668Y-96627234D01*
X107899998Y-96484828D01*
X107913793Y-96319529D01*
X107921986Y-96125655D01*
X107925513Y-95897524D01*
X107925827Y-95795943D01*
X107926341Y-95632528D01*
X107928079Y-95504129D01*
X107931529Y-95403439D01*
X107937182Y-95323148D01*
X107945528Y-95255945D01*
X107957055Y-95194522D01*
X107969667Y-95141612D01*
X108043511Y-94922574D01*
X108146931Y-94731591D01*
X108281812Y-94566555D01*
X108450043Y-94425358D01*
X108653512Y-94305891D01*
X108762084Y-94256551D01*
X108846135Y-94231802D01*
X108958282Y-94212940D01*
X109084575Y-94200904D01*
X109211069Y-94196635D01*
X109323813Y-94201074D01*
X109402376Y-94213388D01*
X109483851Y-94234303D01*
X109566722Y-94255333D01*
X109577847Y-94258130D01*
X109694336Y-94301502D01*
X109821510Y-94372119D01*
X109947449Y-94461434D01*
X110060235Y-94560899D01*
X110147946Y-94661968D01*
X110154972Y-94671969D01*
X110254031Y-94835213D01*
X110325526Y-94999556D01*
X110371554Y-95173642D01*
X110394212Y-95366113D01*
X110395596Y-95585614D01*
X110392564Y-95651183D01*
X110392564Y-95651183D01*
G37*
X110392564Y-95651183D02*
X110389832Y-95718055D01*
X110386853Y-95823013D01*
X110383696Y-95961809D01*
X110380431Y-96130197D01*
X110377130Y-96323929D01*
X110373861Y-96538758D01*
X110370695Y-96770439D01*
X110367703Y-97014723D01*
X110364953Y-97267364D01*
X110363605Y-97404633D01*
X110361079Y-97651603D01*
X110358302Y-97886123D01*
X110355338Y-98104769D01*
X110352253Y-98304113D01*
X110349110Y-98480729D01*
X110345973Y-98631193D01*
X110342908Y-98752078D01*
X110339978Y-98839957D01*
X110337248Y-98891406D01*
X110335436Y-98903975D01*
X110310315Y-98909202D01*
X110250278Y-98914392D01*
X110162740Y-98919362D01*
X110055119Y-98923924D01*
X109934830Y-98927892D01*
X109809291Y-98931082D01*
X109685917Y-98933307D01*
X109572125Y-98934381D01*
X109475332Y-98934118D01*
X109402955Y-98932333D01*
X109362408Y-98928841D01*
X109360439Y-98928403D01*
X109312148Y-98899111D01*
X109294686Y-98867059D01*
X109292408Y-98837329D01*
X109290180Y-98769319D01*
X109288050Y-98667082D01*
X109286067Y-98534673D01*
X109284280Y-98376145D01*
X109282737Y-98195552D01*
X109281487Y-97996946D01*
X109280579Y-97784382D01*
X109280249Y-97665667D01*
X109279492Y-97425673D01*
X109278319Y-97180008D01*
X109276790Y-96935429D01*
X109274961Y-96698695D01*
X109272891Y-96476564D01*
X109270638Y-96275796D01*
X109268260Y-96103148D01*
X109265815Y-95965379D01*
X109265561Y-95953448D01*
X109261630Y-95783132D01*
X109257804Y-95650131D01*
X109253663Y-95549432D01*
X109248788Y-95476022D01*
X109242761Y-95424886D01*
X109235163Y-95391010D01*
X109225574Y-95369381D01*
X109215728Y-95357061D01*
X109164741Y-95330456D01*
X109112532Y-95340165D01*
X109072553Y-95382792D01*
X109067377Y-95394521D01*
X109061025Y-95431751D01*
X109055430Y-95503431D01*
X109050962Y-95601682D01*
X109047989Y-95718623D01*
X109046904Y-95830836D01*
X109045471Y-95967951D01*
X109042093Y-96103089D01*
X109037181Y-96225409D01*
X109031145Y-96324069D01*
X109026319Y-96374500D01*
X109014251Y-96474523D01*
X109000372Y-96593388D01*
X108987389Y-96707845D01*
X108985560Y-96724344D01*
X108966143Y-96849767D01*
X108935419Y-96990044D01*
X108897018Y-97132206D01*
X108854571Y-97263284D01*
X108811707Y-97370309D01*
X108795661Y-97402730D01*
X108768737Y-97456206D01*
X108753097Y-97493541D01*
X108751500Y-97500652D01*
X108740490Y-97524216D01*
X108711126Y-97573653D01*
X108668907Y-97639859D01*
X108650959Y-97667039D01*
X108598602Y-97746089D01*
X108550081Y-97820195D01*
X108514244Y-97875823D01*
X108508678Y-97884657D01*
X108461092Y-97948707D01*
X108388544Y-98031699D01*
X108298868Y-98125807D01*
X108199898Y-98223204D01*
X108099468Y-98316066D01*
X108005412Y-98396565D01*
X107962419Y-98430341D01*
X107890833Y-98483421D01*
X107832043Y-98525203D01*
X107794013Y-98550123D01*
X107784431Y-98554667D01*
X107761343Y-98563455D01*
X107708089Y-98587422D01*
X107632446Y-98622973D01*
X107542191Y-98666512D01*
X107536346Y-98669366D01*
X107377879Y-98743822D01*
X107242025Y-98799960D01*
X107115675Y-98842176D01*
X106985719Y-98874866D01*
X106843879Y-98901624D01*
X106573593Y-98930158D01*
X106293553Y-98928988D01*
X106012081Y-98899630D01*
X105737500Y-98843603D01*
X105478133Y-98762421D01*
X105242302Y-98657602D01*
X105121417Y-98587744D01*
X105004839Y-98512924D01*
X104914647Y-98452814D01*
X104841238Y-98399832D01*
X104775012Y-98346391D01*
X104706369Y-98284908D01*
X104625707Y-98207797D01*
X104564017Y-98147406D01*
X104490398Y-98066624D01*
X104404969Y-97959656D01*
X104315691Y-97837745D01*
X104230526Y-97712137D01*
X104157437Y-97594077D01*
X104109493Y-97505484D01*
X104034988Y-97332000D01*
X103962254Y-97122024D01*
X103893286Y-96881395D01*
X103884711Y-96848204D01*
X103877151Y-96817602D01*
X103870513Y-96786913D01*
X103864736Y-96753312D01*
X103859762Y-96713978D01*
X103855530Y-96666085D01*
X103851980Y-96606812D01*
X103849053Y-96533334D01*
X103846688Y-96442829D01*
X103844826Y-96332472D01*
X103843407Y-96199441D01*
X103842370Y-96040912D01*
X103841657Y-95854062D01*
X103841206Y-95636067D01*
X103840959Y-95384104D01*
X103840855Y-95095350D01*
X103840834Y-94779907D01*
X103840854Y-94453477D01*
X103840952Y-94166770D01*
X103841183Y-93917174D01*
X103841603Y-93702079D01*
X103842267Y-93518874D01*
X103843232Y-93364948D01*
X103844553Y-93237690D01*
X103846286Y-93134489D01*
X103848487Y-93052734D01*
X103851210Y-92989815D01*
X103854513Y-92943121D01*
X103858451Y-92910040D01*
X103863079Y-92887963D01*
X103868453Y-92874277D01*
X103874629Y-92866373D01*
X103881663Y-92861639D01*
X103881776Y-92861578D01*
X103916998Y-92853871D01*
X103985995Y-92847770D01*
X104081504Y-92843249D01*
X104196262Y-92840285D01*
X104323007Y-92838855D01*
X104454475Y-92838934D01*
X104583406Y-92840497D01*
X104702536Y-92843522D01*
X104804602Y-92847984D01*
X104882343Y-92853859D01*
X104928496Y-92861123D01*
X104937267Y-92865067D01*
X104942030Y-92879848D01*
X104946216Y-92915438D01*
X104949852Y-92973892D01*
X104952968Y-93057267D01*
X104955592Y-93167618D01*
X104957754Y-93307001D01*
X104959482Y-93477471D01*
X104960806Y-93681084D01*
X104961753Y-93919896D01*
X104962354Y-94195962D01*
X104962636Y-94511339D01*
X104962667Y-94673775D01*
X104962951Y-95047421D01*
X104963802Y-95380976D01*
X104965215Y-95674158D01*
X104967188Y-95926686D01*
X104969717Y-96138282D01*
X104972799Y-96308663D01*
X104976430Y-96437551D01*
X104980608Y-96524663D01*
X104985232Y-96569250D01*
X105055160Y-96821433D01*
X105157338Y-97050846D01*
X105288950Y-97255152D01*
X105447181Y-97432012D01*
X105629214Y-97579088D01*
X105832235Y-97694043D01*
X106053428Y-97774537D01*
X106289977Y-97818234D01*
X106497250Y-97824835D01*
X106629042Y-97816235D01*
X106747198Y-97798444D01*
X106861534Y-97768351D01*
X106981863Y-97722845D01*
X107118000Y-97658815D01*
X107263847Y-97581854D01*
X107327974Y-97536110D01*
X107407013Y-97463744D01*
X107492912Y-97373698D01*
X107577619Y-97274916D01*
X107653084Y-97176340D01*
X107711255Y-97086913D01*
X107714286Y-97081557D01*
X107770110Y-96973908D01*
X107815658Y-96866092D01*
X107851866Y-96752428D01*
X107879668Y-96627234D01*
X107899998Y-96484828D01*
X107913793Y-96319529D01*
X107921986Y-96125655D01*
X107925513Y-95897524D01*
X107925827Y-95795943D01*
X107926341Y-95632528D01*
X107928079Y-95504129D01*
X107931529Y-95403439D01*
X107937182Y-95323148D01*
X107945528Y-95255945D01*
X107957055Y-95194522D01*
X107969667Y-95141612D01*
X108043511Y-94922574D01*
X108146931Y-94731591D01*
X108281812Y-94566555D01*
X108450043Y-94425358D01*
X108653512Y-94305891D01*
X108762084Y-94256551D01*
X108846135Y-94231802D01*
X108958282Y-94212940D01*
X109084575Y-94200904D01*
X109211069Y-94196635D01*
X109323813Y-94201074D01*
X109402376Y-94213388D01*
X109483851Y-94234303D01*
X109566722Y-94255333D01*
X109577847Y-94258130D01*
X109694336Y-94301502D01*
X109821510Y-94372119D01*
X109947449Y-94461434D01*
X110060235Y-94560899D01*
X110147946Y-94661968D01*
X110154972Y-94671969D01*
X110254031Y-94835213D01*
X110325526Y-94999556D01*
X110371554Y-95173642D01*
X110394212Y-95366113D01*
X110395596Y-95585614D01*
X110392564Y-95651183D01*
G36*
X111851814Y-115392750D02*
G01*
X111850989Y-115540428D01*
X111848675Y-115652468D01*
X111844360Y-115735554D01*
X111837534Y-115796372D01*
X111827684Y-115841604D01*
X111814773Y-115876877D01*
X111791694Y-115936539D01*
X111779027Y-115984346D01*
X111778203Y-115993293D01*
X111768394Y-116035089D01*
X111744839Y-116088885D01*
X111743566Y-116091250D01*
X111707565Y-116158518D01*
X111676261Y-116218250D01*
X111540582Y-116436877D01*
X111372753Y-116633257D01*
X111178385Y-116801966D01*
X110963089Y-116937580D01*
X110899737Y-116968921D01*
X110790109Y-117019155D01*
X110688060Y-117063669D01*
X110586497Y-117105069D01*
X110478323Y-117145962D01*
X110356441Y-117188953D01*
X110213757Y-117236650D01*
X110043175Y-117291658D01*
X109883917Y-117342031D01*
X109784179Y-117373688D01*
X109693411Y-117403009D01*
X109622757Y-117426366D01*
X109587584Y-117438544D01*
X109512614Y-117465423D01*
X109413677Y-117500045D01*
X109299746Y-117539362D01*
X109179794Y-117580326D01*
X109062793Y-117619891D01*
X108957717Y-117655007D01*
X108873539Y-117682629D01*
X108819231Y-117699708D01*
X108815000Y-117700946D01*
X108748962Y-117722035D01*
X108660737Y-117752890D01*
X108567423Y-117787497D01*
X108550417Y-117794044D01*
X108442495Y-117833845D01*
X108321404Y-117875457D01*
X108213105Y-117909962D01*
X108211750Y-117910368D01*
X108124672Y-117937630D01*
X108012229Y-117974542D01*
X107888846Y-118016294D01*
X107768945Y-118058072D01*
X107767250Y-118058673D01*
X107672609Y-118091800D01*
X107546324Y-118135340D01*
X107396934Y-118186387D01*
X107232976Y-118242032D01*
X107062991Y-118299369D01*
X106899417Y-118354186D01*
X106740486Y-118407498D01*
X106587118Y-118459393D01*
X106446061Y-118507556D01*
X106324060Y-118549669D01*
X106227861Y-118583415D01*
X106164211Y-118606478D01*
X106158584Y-118608607D01*
X106074009Y-118639439D01*
X105994307Y-118666091D01*
X105936636Y-118682828D01*
X105936334Y-118682901D01*
X105890295Y-118696013D01*
X105813500Y-118720124D01*
X105715151Y-118752255D01*
X105604451Y-118789428D01*
X105555334Y-118806224D01*
X105384681Y-118864845D01*
X105248644Y-118911388D01*
X105141841Y-118947642D01*
X105058892Y-118975398D01*
X104994416Y-118996448D01*
X104943032Y-119012582D01*
X104899359Y-119025591D01*
X104877024Y-119031965D01*
X104806391Y-119054669D01*
X104744762Y-119079081D01*
X104729316Y-119086611D01*
X104684858Y-119105291D01*
X104613232Y-119130070D01*
X104528204Y-119156257D01*
X104508042Y-119162029D01*
X104409799Y-119191535D01*
X104291810Y-119229635D01*
X104173889Y-119269855D01*
X104128506Y-119286055D01*
X104017102Y-119324090D01*
X103938000Y-119344194D01*
X103885207Y-119346488D01*
X103852735Y-119331093D01*
X103834592Y-119298128D01*
X103832825Y-119292007D01*
X103830217Y-119260672D01*
X103828086Y-119189735D01*
X103826426Y-119081924D01*
X103825232Y-118939970D01*
X103824496Y-118766599D01*
X103824214Y-118564541D01*
X103824380Y-118336525D01*
X103824986Y-118085280D01*
X103826029Y-117813533D01*
X103827501Y-117524014D01*
X103829396Y-117219452D01*
X103831710Y-116902575D01*
X103834435Y-116576112D01*
X103837566Y-116242792D01*
X103839951Y-116011090D01*
X103842699Y-115766388D01*
X103845370Y-115560686D01*
X103848096Y-115390650D01*
X103851009Y-115252947D01*
X103854240Y-115144244D01*
X103857921Y-115061207D01*
X103862183Y-115000504D01*
X103867158Y-114958800D01*
X103872977Y-114932763D01*
X103879772Y-114919060D01*
X103883167Y-114916039D01*
X103912844Y-114910242D01*
X103978579Y-114905089D01*
X104074097Y-114900825D01*
X104193127Y-114897695D01*
X104329393Y-114895943D01*
X104405530Y-114895658D01*
X104565736Y-114895913D01*
X104688826Y-114897135D01*
X104780015Y-114899652D01*
X104844516Y-114903792D01*
X104887543Y-114909883D01*
X104914308Y-114918252D01*
X104929405Y-114928595D01*
X104936243Y-114939058D01*
X104942108Y-114957802D01*
X104947082Y-114987914D01*
X104951244Y-115032482D01*
X104954678Y-115094593D01*
X104957462Y-115177334D01*
X104959679Y-115283794D01*
X104961410Y-115417059D01*
X104962735Y-115580216D01*
X104963736Y-115776354D01*
X104964493Y-116008559D01*
X104965089Y-116279918D01*
X104965105Y-116288554D01*
X104965469Y-116522591D01*
X104965686Y-116744701D01*
X104965763Y-116951159D01*
X104965702Y-117138244D01*
X104965509Y-117302234D01*
X104965189Y-117439407D01*
X104964746Y-117546039D01*
X104964185Y-117618410D01*
X104963510Y-117652796D01*
X104963386Y-117654585D01*
X104965251Y-117706130D01*
X104972502Y-117746804D01*
X104979113Y-117768058D01*
X104989929Y-117782319D01*
X105009814Y-117788615D01*
X105043636Y-117785973D01*
X105096258Y-117773422D01*
X105172548Y-117749989D01*
X105277370Y-117714702D01*
X105415591Y-117666590D01*
X105470667Y-117647274D01*
X105592806Y-117604700D01*
X105705141Y-117566074D01*
X105799973Y-117534003D01*
X105869605Y-117511092D01*
X105904584Y-117500400D01*
X105966984Y-117482347D01*
X106057645Y-117454268D01*
X106167126Y-117419279D01*
X106285987Y-117380496D01*
X106404786Y-117341033D01*
X106514084Y-117304008D01*
X106604440Y-117272535D01*
X106666413Y-117249731D01*
X106677167Y-117245418D01*
X106759117Y-117213302D01*
X106858436Y-117178223D01*
X106984088Y-117137099D01*
X107079334Y-117107158D01*
X107122452Y-117093170D01*
X107199998Y-117067408D01*
X107306336Y-117031768D01*
X107435828Y-116988149D01*
X107582837Y-116938446D01*
X107741726Y-116884557D01*
X107830750Y-116854293D01*
X107992470Y-116799451D01*
X108144284Y-116748312D01*
X108280776Y-116702675D01*
X108396532Y-116664336D01*
X108486137Y-116635094D01*
X108544176Y-116616746D01*
X108561000Y-116611866D01*
X108625299Y-116592072D01*
X108704032Y-116563694D01*
X108740917Y-116549062D01*
X108809648Y-116522748D01*
X108906899Y-116488129D01*
X109020698Y-116449248D01*
X109139073Y-116410150D01*
X109250052Y-116374882D01*
X109312417Y-116355966D01*
X109351736Y-116343517D01*
X109423824Y-116319893D01*
X109521362Y-116287526D01*
X109637033Y-116248844D01*
X109763517Y-116206277D01*
X109778084Y-116201358D01*
X109909914Y-116156952D01*
X110036089Y-116114683D01*
X110148075Y-116077393D01*
X110237336Y-116047924D01*
X110295336Y-116029117D01*
X110296667Y-116028695D01*
X110484523Y-115955427D01*
X110634411Y-115866597D01*
X110745685Y-115762680D01*
X110817307Y-115645092D01*
X110835124Y-115574609D01*
X110844737Y-115476762D01*
X110845629Y-115365821D01*
X110837285Y-115256051D01*
X110832566Y-115223417D01*
X110799799Y-115138567D01*
X110733182Y-115050849D01*
X110640081Y-114967063D01*
X110527862Y-114894012D01*
X110423459Y-114845633D01*
X110325555Y-114808327D01*
X110222402Y-114768897D01*
X110137917Y-114736488D01*
X109971111Y-114672773D01*
X109834730Y-114621907D01*
X109719969Y-114580835D01*
X109618020Y-114546504D01*
X109520078Y-114515857D01*
X109417337Y-114485842D01*
X109406248Y-114482697D01*
X109291367Y-114448082D01*
X109173862Y-114409126D01*
X109069696Y-114371293D01*
X109011117Y-114347465D01*
X108936903Y-114316026D01*
X108876980Y-114292725D01*
X108842417Y-114281820D01*
X108839600Y-114281500D01*
X108810541Y-114274709D01*
X108750003Y-114256225D01*
X108666274Y-114228884D01*
X108567638Y-114195519D01*
X108462380Y-114158966D01*
X108358786Y-114122058D01*
X108265140Y-114087631D01*
X108201167Y-114063074D01*
X108129984Y-114036542D01*
X108030186Y-114001491D01*
X107913585Y-113961971D01*
X107791991Y-113922033D01*
X107757700Y-113911021D01*
X107641652Y-113873499D01*
X107531769Y-113837132D01*
X107438234Y-113805348D01*
X107371230Y-113781576D01*
X107355533Y-113775627D01*
X107290681Y-113751751D01*
X107201265Y-113720801D01*
X107103158Y-113688226D01*
X107068750Y-113677146D01*
X106982988Y-113648797D01*
X106911540Y-113623341D01*
X106864808Y-113604573D01*
X106853798Y-113598765D01*
X106825697Y-113586318D01*
X106765087Y-113564086D01*
X106679887Y-113534833D01*
X106578019Y-113501323D01*
X106536298Y-113487957D01*
X106407596Y-113446297D01*
X106270727Y-113400772D01*
X106141613Y-113356748D01*
X106036180Y-113319590D01*
X106031584Y-113317924D01*
X105846938Y-113251390D01*
X105687548Y-113195201D01*
X105539176Y-113144457D01*
X105387584Y-113094255D01*
X105290750Y-113062868D01*
X105189857Y-113029629D01*
X105096769Y-112997638D01*
X105023099Y-112970959D01*
X104985741Y-112956083D01*
X104914775Y-112929925D01*
X104836286Y-112907836D01*
X104826991Y-112905760D01*
X104746961Y-112884918D01*
X104637879Y-112851339D01*
X104509786Y-112808527D01*
X104372722Y-112759989D01*
X104236729Y-112709228D01*
X104111846Y-112659752D01*
X104059885Y-112637955D01*
X104004112Y-112618106D01*
X103960684Y-112609354D01*
X103959343Y-112609334D01*
X103920112Y-112595252D01*
X103883167Y-112567000D01*
X103876554Y-112559736D01*
X103870669Y-112550344D01*
X103865468Y-112536450D01*
X103860909Y-112515684D01*
X103856951Y-112485672D01*
X103853550Y-112444042D01*
X103850665Y-112388423D01*
X103848253Y-112316441D01*
X103846271Y-112225724D01*
X103844678Y-112113901D01*
X103843431Y-111978598D01*
X103842487Y-111817444D01*
X103841805Y-111628066D01*
X103841342Y-111408093D01*
X103841056Y-111155150D01*
X103840904Y-110866867D01*
X103840844Y-110540872D01*
X103840834Y-110194987D01*
X103840834Y-107865307D01*
X103892649Y-107617945D01*
X103917168Y-107511374D01*
X103943997Y-107411721D01*
X103969633Y-107331160D01*
X103987899Y-107286733D01*
X104015099Y-107225068D01*
X104030668Y-107172107D01*
X104032030Y-107159733D01*
X104043853Y-107118881D01*
X104075818Y-107050573D01*
X104123865Y-106962084D01*
X104183934Y-106860692D01*
X104251965Y-106753671D01*
X104291454Y-106694829D01*
X104431963Y-106520318D01*
X104605686Y-106354103D01*
X104803535Y-106202799D01*
X105016425Y-106073019D01*
X105235268Y-105971377D01*
X105333084Y-105936640D01*
X105443585Y-105902714D01*
X105540879Y-105876752D01*
X105634939Y-105857166D01*
X105735737Y-105842366D01*
X105853246Y-105830763D01*
X105997438Y-105820767D01*
X106095084Y-105815195D01*
X106180736Y-105811814D01*
X106301540Y-105808917D01*
X106453386Y-105806494D01*
X106632167Y-105804532D01*
X106833776Y-105803020D01*
X107054104Y-105801946D01*
X107289043Y-105801299D01*
X107534487Y-105801066D01*
X107786325Y-105801235D01*
X108040452Y-105801796D01*
X108292759Y-105802736D01*
X108539139Y-105804044D01*
X108775482Y-105805707D01*
X108997682Y-105807715D01*
X109201631Y-105810055D01*
X109383221Y-105812715D01*
X109538344Y-105815685D01*
X109662892Y-105818951D01*
X109752757Y-105822503D01*
X109799250Y-105825785D01*
X109900444Y-105840592D01*
X110019821Y-105863847D01*
X110143040Y-105892204D01*
X110255761Y-105922315D01*
X110343644Y-105950831D01*
X110356608Y-105955898D01*
X110454824Y-105998203D01*
X110549702Y-106043089D01*
X110632025Y-106085797D01*
X110692570Y-106121571D01*
X110720698Y-106143757D01*
X110751739Y-106169932D01*
X110766187Y-106174667D01*
X110791103Y-106187872D01*
X110839595Y-106223191D01*
X110903991Y-106274183D01*
X110976616Y-106334406D01*
X111049795Y-106397418D01*
X111115855Y-106456778D01*
X111167122Y-106506042D01*
X111188569Y-106529231D01*
X111268114Y-106632990D01*
X111354068Y-106760264D01*
X111437655Y-106896791D01*
X111510098Y-107028310D01*
X111558134Y-107129707D01*
X111630480Y-107324771D01*
X111678975Y-107515408D01*
X111708449Y-107721683D01*
X111712990Y-107772750D01*
X111716161Y-107834357D01*
X111718781Y-107930987D01*
X111720872Y-108058989D01*
X111722457Y-108214712D01*
X111723558Y-108394502D01*
X111724199Y-108594710D01*
X111724401Y-108811682D01*
X111724186Y-109041767D01*
X111723579Y-109281313D01*
X111722600Y-109526669D01*
X111721272Y-109774183D01*
X111719619Y-110020202D01*
X111717662Y-110261076D01*
X111715424Y-110493151D01*
X111712928Y-110712778D01*
X111710195Y-110916303D01*
X111707249Y-111100075D01*
X111704112Y-111260442D01*
X111700807Y-111393752D01*
X111697356Y-111496354D01*
X111693781Y-111564596D01*
X111690105Y-111594826D01*
X111689422Y-111595957D01*
X111647297Y-111609568D01*
X111570954Y-111622399D01*
X111468510Y-111633815D01*
X111348079Y-111643182D01*
X111217779Y-111649863D01*
X111085725Y-111653224D01*
X110964010Y-111652720D01*
X110846846Y-111649906D01*
X110764868Y-111646589D01*
X110710935Y-111641453D01*
X110677906Y-111633184D01*
X110658642Y-111620466D01*
X110646003Y-111601984D01*
X110641530Y-111593334D01*
X110636609Y-111574977D01*
X110632282Y-111539100D01*
X110628517Y-111483447D01*
X110625281Y-111405763D01*
X110622542Y-111303791D01*
X110620267Y-111175278D01*
X110618424Y-111017967D01*
X110616980Y-110829603D01*
X110615903Y-110607931D01*
X110615160Y-110350695D01*
X110614718Y-110055640D01*
X110614546Y-109720510D01*
X110614546Y-109720084D01*
X110614480Y-109400332D01*
X110614331Y-109120042D01*
X110614034Y-108876342D01*
X110613525Y-108666358D01*
X110612740Y-108487220D01*
X110611615Y-108336056D01*
X110610085Y-108209993D01*
X110608087Y-108106159D01*
X110605555Y-108021682D01*
X110602426Y-107953691D01*
X110598635Y-107899313D01*
X110594118Y-107855677D01*
X110588811Y-107819910D01*
X110582649Y-107789140D01*
X110575569Y-107760496D01*
X110570262Y-107741000D01*
X110527305Y-107604224D01*
X110478820Y-107494402D01*
X110416245Y-107396789D01*
X110331019Y-107296641D01*
X110283816Y-107247648D01*
X110202114Y-107168745D01*
X110132705Y-107112874D01*
X110061291Y-107070126D01*
X109973574Y-107030594D01*
X109966316Y-107027636D01*
X109784644Y-106970003D01*
X109567614Y-106929482D01*
X109318761Y-106906465D01*
X109041620Y-106901348D01*
X108878500Y-106906302D01*
X108794032Y-106909254D01*
X108672128Y-106912118D01*
X108517688Y-106914839D01*
X108335609Y-106917364D01*
X108130791Y-106919637D01*
X107908130Y-106921604D01*
X107672526Y-106923211D01*
X107428877Y-106924404D01*
X107185167Y-106925122D01*
X106913305Y-106925678D01*
X106680386Y-106926290D01*
X106483023Y-106927069D01*
X106317827Y-106928127D01*
X106181409Y-106929573D01*
X106070379Y-106931521D01*
X105981349Y-106934081D01*
X105910930Y-106937364D01*
X105855734Y-106941482D01*
X105812370Y-106946545D01*
X105777451Y-106952666D01*
X105747587Y-106959956D01*
X105719390Y-106968525D01*
X105703500Y-106973778D01*
X105620516Y-107007268D01*
X105526101Y-107054139D01*
X105431352Y-107107883D01*
X105347363Y-107161990D01*
X105285229Y-107209950D01*
X105264303Y-107231460D01*
X105184549Y-107341589D01*
X105109985Y-107462140D01*
X105048035Y-107579974D01*
X105006126Y-107681949D01*
X105001699Y-107696176D01*
X104993312Y-107726822D01*
X104986126Y-107759459D01*
X104980036Y-107797506D01*
X104974935Y-107844387D01*
X104970719Y-107903522D01*
X104967282Y-107978334D01*
X104964518Y-108072243D01*
X104962322Y-108188672D01*
X104960589Y-108331043D01*
X104959213Y-108502775D01*
X104958088Y-108707293D01*
X104957109Y-108948016D01*
X104956369Y-109166260D01*
X104955678Y-109470664D01*
X104955713Y-109733836D01*
X104956487Y-109956869D01*
X104958016Y-110140858D01*
X104960315Y-110286897D01*
X104963399Y-110396081D01*
X104967282Y-110469505D01*
X104971980Y-110508262D01*
X104974730Y-110515063D01*
X104999359Y-110518349D01*
X105062952Y-110521495D01*
X105162136Y-110524453D01*
X105293541Y-110527175D01*
X105453796Y-110529613D01*
X105639531Y-110531718D01*
X105847374Y-110533443D01*
X106073956Y-110534738D01*
X106315905Y-110535557D01*
X106422570Y-110535748D01*
X106708321Y-110536020D01*
X106954611Y-110535983D01*
X107164313Y-110535581D01*
X107340297Y-110534759D01*
X107485436Y-110533460D01*
X107602601Y-110531629D01*
X107694665Y-110529209D01*
X107764498Y-110526144D01*
X107814973Y-110522379D01*
X107848963Y-110517858D01*
X107869337Y-110512524D01*
X107878035Y-110507370D01*
X107886021Y-110493038D01*
X107892677Y-110464946D01*
X107898168Y-110419333D01*
X107902660Y-110352438D01*
X107906319Y-110260501D01*
X107909310Y-110139759D01*
X107911800Y-109986453D01*
X107913952Y-109796821D01*
X107915146Y-109664675D01*
X107917794Y-109411486D01*
X107921256Y-109197561D01*
X107925724Y-109019834D01*
X107931390Y-108875238D01*
X107938446Y-108760710D01*
X107947085Y-108673184D01*
X107957499Y-108609593D01*
X107969880Y-108566872D01*
X107984421Y-108541957D01*
X107985652Y-108540672D01*
X108014237Y-108532341D01*
X108077714Y-108524799D01*
X108168646Y-108518200D01*
X108279597Y-108512697D01*
X108403130Y-108508444D01*
X108531809Y-108505597D01*
X108658197Y-108504308D01*
X108774858Y-108504732D01*
X108874354Y-108507023D01*
X108949250Y-108511335D01*
X108992109Y-108517822D01*
X108996814Y-108519726D01*
X109003318Y-108526361D01*
X109008925Y-108540372D01*
X109013693Y-108564628D01*
X109017678Y-108601996D01*
X109020938Y-108655345D01*
X109023532Y-108727542D01*
X109025516Y-108821455D01*
X109026948Y-108939952D01*
X109027886Y-109085901D01*
X109028387Y-109262169D01*
X109028509Y-109471625D01*
X109028309Y-109717136D01*
X109027845Y-110001570D01*
X109027733Y-110059924D01*
X109027113Y-110309785D01*
X109026274Y-110547121D01*
X109025243Y-110768560D01*
X109024048Y-110970732D01*
X109022716Y-111150266D01*
X109021275Y-111303792D01*
X109019753Y-111427938D01*
X109018177Y-111519334D01*
X109016574Y-111574610D01*
X109015223Y-111590667D01*
X108991371Y-111597864D01*
X108935693Y-111609016D01*
X108858285Y-111622186D01*
X108820393Y-111628054D01*
X108775711Y-111633269D01*
X108713751Y-111637859D01*
X108632141Y-111641858D01*
X108528514Y-111645300D01*
X108400500Y-111648217D01*
X108245730Y-111650642D01*
X108061835Y-111652609D01*
X107846445Y-111654152D01*
X107597192Y-111655303D01*
X107311706Y-111656097D01*
X106987618Y-111656565D01*
X106783000Y-111656700D01*
X106506279Y-111657013D01*
X106241453Y-111657693D01*
X105991613Y-111658710D01*
X105759849Y-111660034D01*
X105549250Y-111661636D01*
X105362907Y-111663484D01*
X105203909Y-111665550D01*
X105075347Y-111667802D01*
X104980310Y-111670212D01*
X104921888Y-111672748D01*
X104903324Y-111674983D01*
X104903938Y-111691656D01*
X104942911Y-111719038D01*
X105021286Y-111757844D01*
X105030324Y-111761928D01*
X105085337Y-111786101D01*
X105144445Y-111810772D01*
X105213010Y-111837958D01*
X105296394Y-111869675D01*
X105399958Y-111907941D01*
X105529065Y-111954772D01*
X105689078Y-112012184D01*
X105819917Y-112058882D01*
X105917281Y-112093949D01*
X106016711Y-112130350D01*
X106098347Y-112160808D01*
X106105667Y-112163589D01*
X106156353Y-112182035D01*
X106240673Y-112211718D01*
X106352134Y-112250397D01*
X106484240Y-112295829D01*
X106630497Y-112345772D01*
X106784410Y-112397985D01*
X106793584Y-112401086D01*
X106951306Y-112454557D01*
X107104984Y-112506966D01*
X107247391Y-112555826D01*
X107371301Y-112598650D01*
X107469488Y-112632949D01*
X107534417Y-112656123D01*
X107633572Y-112691422D01*
X107736954Y-112726723D01*
X107823700Y-112754915D01*
X107830750Y-112757099D01*
X107889069Y-112775485D01*
X107977740Y-112803998D01*
X108089792Y-112840345D01*
X108218254Y-112882237D01*
X108356156Y-112927384D01*
X108496526Y-112973494D01*
X108632392Y-113018278D01*
X108756785Y-113059444D01*
X108862732Y-113094703D01*
X108943263Y-113121764D01*
X108991407Y-113138337D01*
X108994917Y-113139600D01*
X109033759Y-113153252D01*
X109106585Y-113178416D01*
X109207286Y-113213006D01*
X109329757Y-113254935D01*
X109467891Y-113302115D01*
X109615582Y-113352460D01*
X109766722Y-113403883D01*
X109915206Y-113454297D01*
X109979167Y-113475974D01*
X110206324Y-113553196D01*
X110396568Y-113618531D01*
X110553240Y-113673197D01*
X110679680Y-113718412D01*
X110779230Y-113755393D01*
X110855230Y-113785358D01*
X110911021Y-113809522D01*
X110949945Y-113829105D01*
X110952834Y-113830741D01*
X111024385Y-113870803D01*
X111093732Y-113908199D01*
X111116933Y-113920218D01*
X111211439Y-113981098D01*
X111316448Y-114070112D01*
X111422735Y-114177941D01*
X111521071Y-114295265D01*
X111598417Y-114406534D01*
X111622953Y-114446097D01*
X111657622Y-114501768D01*
X111667216Y-114517142D01*
X111695249Y-114571126D01*
X111730438Y-114651817D01*
X111767020Y-114745610D01*
X111783632Y-114792010D01*
X111807536Y-114862099D01*
X111825131Y-114919911D01*
X111837372Y-114973861D01*
X111845214Y-115032364D01*
X111849613Y-115103836D01*
X111851523Y-115196694D01*
X111851900Y-115319352D01*
X111851814Y-115392750D01*
X111851814Y-115392750D01*
G37*
X111851814Y-115392750D02*
X111850989Y-115540428D01*
X111848675Y-115652468D01*
X111844360Y-115735554D01*
X111837534Y-115796372D01*
X111827684Y-115841604D01*
X111814773Y-115876877D01*
X111791694Y-115936539D01*
X111779027Y-115984346D01*
X111778203Y-115993293D01*
X111768394Y-116035089D01*
X111744839Y-116088885D01*
X111743566Y-116091250D01*
X111707565Y-116158518D01*
X111676261Y-116218250D01*
X111540582Y-116436877D01*
X111372753Y-116633257D01*
X111178385Y-116801966D01*
X110963089Y-116937580D01*
X110899737Y-116968921D01*
X110790109Y-117019155D01*
X110688060Y-117063669D01*
X110586497Y-117105069D01*
X110478323Y-117145962D01*
X110356441Y-117188953D01*
X110213757Y-117236650D01*
X110043175Y-117291658D01*
X109883917Y-117342031D01*
X109784179Y-117373688D01*
X109693411Y-117403009D01*
X109622757Y-117426366D01*
X109587584Y-117438544D01*
X109512614Y-117465423D01*
X109413677Y-117500045D01*
X109299746Y-117539362D01*
X109179794Y-117580326D01*
X109062793Y-117619891D01*
X108957717Y-117655007D01*
X108873539Y-117682629D01*
X108819231Y-117699708D01*
X108815000Y-117700946D01*
X108748962Y-117722035D01*
X108660737Y-117752890D01*
X108567423Y-117787497D01*
X108550417Y-117794044D01*
X108442495Y-117833845D01*
X108321404Y-117875457D01*
X108213105Y-117909962D01*
X108211750Y-117910368D01*
X108124672Y-117937630D01*
X108012229Y-117974542D01*
X107888846Y-118016294D01*
X107768945Y-118058072D01*
X107767250Y-118058673D01*
X107672609Y-118091800D01*
X107546324Y-118135340D01*
X107396934Y-118186387D01*
X107232976Y-118242032D01*
X107062991Y-118299369D01*
X106899417Y-118354186D01*
X106740486Y-118407498D01*
X106587118Y-118459393D01*
X106446061Y-118507556D01*
X106324060Y-118549669D01*
X106227861Y-118583415D01*
X106164211Y-118606478D01*
X106158584Y-118608607D01*
X106074009Y-118639439D01*
X105994307Y-118666091D01*
X105936636Y-118682828D01*
X105936334Y-118682901D01*
X105890295Y-118696013D01*
X105813500Y-118720124D01*
X105715151Y-118752255D01*
X105604451Y-118789428D01*
X105555334Y-118806224D01*
X105384681Y-118864845D01*
X105248644Y-118911388D01*
X105141841Y-118947642D01*
X105058892Y-118975398D01*
X104994416Y-118996448D01*
X104943032Y-119012582D01*
X104899359Y-119025591D01*
X104877024Y-119031965D01*
X104806391Y-119054669D01*
X104744762Y-119079081D01*
X104729316Y-119086611D01*
X104684858Y-119105291D01*
X104613232Y-119130070D01*
X104528204Y-119156257D01*
X104508042Y-119162029D01*
X104409799Y-119191535D01*
X104291810Y-119229635D01*
X104173889Y-119269855D01*
X104128506Y-119286055D01*
X104017102Y-119324090D01*
X103938000Y-119344194D01*
X103885207Y-119346488D01*
X103852735Y-119331093D01*
X103834592Y-119298128D01*
X103832825Y-119292007D01*
X103830217Y-119260672D01*
X103828086Y-119189735D01*
X103826426Y-119081924D01*
X103825232Y-118939970D01*
X103824496Y-118766599D01*
X103824214Y-118564541D01*
X103824380Y-118336525D01*
X103824986Y-118085280D01*
X103826029Y-117813533D01*
X103827501Y-117524014D01*
X103829396Y-117219452D01*
X103831710Y-116902575D01*
X103834435Y-116576112D01*
X103837566Y-116242792D01*
X103839951Y-116011090D01*
X103842699Y-115766388D01*
X103845370Y-115560686D01*
X103848096Y-115390650D01*
X103851009Y-115252947D01*
X103854240Y-115144244D01*
X103857921Y-115061207D01*
X103862183Y-115000504D01*
X103867158Y-114958800D01*
X103872977Y-114932763D01*
X103879772Y-114919060D01*
X103883167Y-114916039D01*
X103912844Y-114910242D01*
X103978579Y-114905089D01*
X104074097Y-114900825D01*
X104193127Y-114897695D01*
X104329393Y-114895943D01*
X104405530Y-114895658D01*
X104565736Y-114895913D01*
X104688826Y-114897135D01*
X104780015Y-114899652D01*
X104844516Y-114903792D01*
X104887543Y-114909883D01*
X104914308Y-114918252D01*
X104929405Y-114928595D01*
X104936243Y-114939058D01*
X104942108Y-114957802D01*
X104947082Y-114987914D01*
X104951244Y-115032482D01*
X104954678Y-115094593D01*
X104957462Y-115177334D01*
X104959679Y-115283794D01*
X104961410Y-115417059D01*
X104962735Y-115580216D01*
X104963736Y-115776354D01*
X104964493Y-116008559D01*
X104965089Y-116279918D01*
X104965105Y-116288554D01*
X104965469Y-116522591D01*
X104965686Y-116744701D01*
X104965763Y-116951159D01*
X104965702Y-117138244D01*
X104965509Y-117302234D01*
X104965189Y-117439407D01*
X104964746Y-117546039D01*
X104964185Y-117618410D01*
X104963510Y-117652796D01*
X104963386Y-117654585D01*
X104965251Y-117706130D01*
X104972502Y-117746804D01*
X104979113Y-117768058D01*
X104989929Y-117782319D01*
X105009814Y-117788615D01*
X105043636Y-117785973D01*
X105096258Y-117773422D01*
X105172548Y-117749989D01*
X105277370Y-117714702D01*
X105415591Y-117666590D01*
X105470667Y-117647274D01*
X105592806Y-117604700D01*
X105705141Y-117566074D01*
X105799973Y-117534003D01*
X105869605Y-117511092D01*
X105904584Y-117500400D01*
X105966984Y-117482347D01*
X106057645Y-117454268D01*
X106167126Y-117419279D01*
X106285987Y-117380496D01*
X106404786Y-117341033D01*
X106514084Y-117304008D01*
X106604440Y-117272535D01*
X106666413Y-117249731D01*
X106677167Y-117245418D01*
X106759117Y-117213302D01*
X106858436Y-117178223D01*
X106984088Y-117137099D01*
X107079334Y-117107158D01*
X107122452Y-117093170D01*
X107199998Y-117067408D01*
X107306336Y-117031768D01*
X107435828Y-116988149D01*
X107582837Y-116938446D01*
X107741726Y-116884557D01*
X107830750Y-116854293D01*
X107992470Y-116799451D01*
X108144284Y-116748312D01*
X108280776Y-116702675D01*
X108396532Y-116664336D01*
X108486137Y-116635094D01*
X108544176Y-116616746D01*
X108561000Y-116611866D01*
X108625299Y-116592072D01*
X108704032Y-116563694D01*
X108740917Y-116549062D01*
X108809648Y-116522748D01*
X108906899Y-116488129D01*
X109020698Y-116449248D01*
X109139073Y-116410150D01*
X109250052Y-116374882D01*
X109312417Y-116355966D01*
X109351736Y-116343517D01*
X109423824Y-116319893D01*
X109521362Y-116287526D01*
X109637033Y-116248844D01*
X109763517Y-116206277D01*
X109778084Y-116201358D01*
X109909914Y-116156952D01*
X110036089Y-116114683D01*
X110148075Y-116077393D01*
X110237336Y-116047924D01*
X110295336Y-116029117D01*
X110296667Y-116028695D01*
X110484523Y-115955427D01*
X110634411Y-115866597D01*
X110745685Y-115762680D01*
X110817307Y-115645092D01*
X110835124Y-115574609D01*
X110844737Y-115476762D01*
X110845629Y-115365821D01*
X110837285Y-115256051D01*
X110832566Y-115223417D01*
X110799799Y-115138567D01*
X110733182Y-115050849D01*
X110640081Y-114967063D01*
X110527862Y-114894012D01*
X110423459Y-114845633D01*
X110325555Y-114808327D01*
X110222402Y-114768897D01*
X110137917Y-114736488D01*
X109971111Y-114672773D01*
X109834730Y-114621907D01*
X109719969Y-114580835D01*
X109618020Y-114546504D01*
X109520078Y-114515857D01*
X109417337Y-114485842D01*
X109406248Y-114482697D01*
X109291367Y-114448082D01*
X109173862Y-114409126D01*
X109069696Y-114371293D01*
X109011117Y-114347465D01*
X108936903Y-114316026D01*
X108876980Y-114292725D01*
X108842417Y-114281820D01*
X108839600Y-114281500D01*
X108810541Y-114274709D01*
X108750003Y-114256225D01*
X108666274Y-114228884D01*
X108567638Y-114195519D01*
X108462380Y-114158966D01*
X108358786Y-114122058D01*
X108265140Y-114087631D01*
X108201167Y-114063074D01*
X108129984Y-114036542D01*
X108030186Y-114001491D01*
X107913585Y-113961971D01*
X107791991Y-113922033D01*
X107757700Y-113911021D01*
X107641652Y-113873499D01*
X107531769Y-113837132D01*
X107438234Y-113805348D01*
X107371230Y-113781576D01*
X107355533Y-113775627D01*
X107290681Y-113751751D01*
X107201265Y-113720801D01*
X107103158Y-113688226D01*
X107068750Y-113677146D01*
X106982988Y-113648797D01*
X106911540Y-113623341D01*
X106864808Y-113604573D01*
X106853798Y-113598765D01*
X106825697Y-113586318D01*
X106765087Y-113564086D01*
X106679887Y-113534833D01*
X106578019Y-113501323D01*
X106536298Y-113487957D01*
X106407596Y-113446297D01*
X106270727Y-113400772D01*
X106141613Y-113356748D01*
X106036180Y-113319590D01*
X106031584Y-113317924D01*
X105846938Y-113251390D01*
X105687548Y-113195201D01*
X105539176Y-113144457D01*
X105387584Y-113094255D01*
X105290750Y-113062868D01*
X105189857Y-113029629D01*
X105096769Y-112997638D01*
X105023099Y-112970959D01*
X104985741Y-112956083D01*
X104914775Y-112929925D01*
X104836286Y-112907836D01*
X104826991Y-112905760D01*
X104746961Y-112884918D01*
X104637879Y-112851339D01*
X104509786Y-112808527D01*
X104372722Y-112759989D01*
X104236729Y-112709228D01*
X104111846Y-112659752D01*
X104059885Y-112637955D01*
X104004112Y-112618106D01*
X103960684Y-112609354D01*
X103959343Y-112609334D01*
X103920112Y-112595252D01*
X103883167Y-112567000D01*
X103876554Y-112559736D01*
X103870669Y-112550344D01*
X103865468Y-112536450D01*
X103860909Y-112515684D01*
X103856951Y-112485672D01*
X103853550Y-112444042D01*
X103850665Y-112388423D01*
X103848253Y-112316441D01*
X103846271Y-112225724D01*
X103844678Y-112113901D01*
X103843431Y-111978598D01*
X103842487Y-111817444D01*
X103841805Y-111628066D01*
X103841342Y-111408093D01*
X103841056Y-111155150D01*
X103840904Y-110866867D01*
X103840844Y-110540872D01*
X103840834Y-110194987D01*
X103840834Y-107865307D01*
X103892649Y-107617945D01*
X103917168Y-107511374D01*
X103943997Y-107411721D01*
X103969633Y-107331160D01*
X103987899Y-107286733D01*
X104015099Y-107225068D01*
X104030668Y-107172107D01*
X104032030Y-107159733D01*
X104043853Y-107118881D01*
X104075818Y-107050573D01*
X104123865Y-106962084D01*
X104183934Y-106860692D01*
X104251965Y-106753671D01*
X104291454Y-106694829D01*
X104431963Y-106520318D01*
X104605686Y-106354103D01*
X104803535Y-106202799D01*
X105016425Y-106073019D01*
X105235268Y-105971377D01*
X105333084Y-105936640D01*
X105443585Y-105902714D01*
X105540879Y-105876752D01*
X105634939Y-105857166D01*
X105735737Y-105842366D01*
X105853246Y-105830763D01*
X105997438Y-105820767D01*
X106095084Y-105815195D01*
X106180736Y-105811814D01*
X106301540Y-105808917D01*
X106453386Y-105806494D01*
X106632167Y-105804532D01*
X106833776Y-105803020D01*
X107054104Y-105801946D01*
X107289043Y-105801299D01*
X107534487Y-105801066D01*
X107786325Y-105801235D01*
X108040452Y-105801796D01*
X108292759Y-105802736D01*
X108539139Y-105804044D01*
X108775482Y-105805707D01*
X108997682Y-105807715D01*
X109201631Y-105810055D01*
X109383221Y-105812715D01*
X109538344Y-105815685D01*
X109662892Y-105818951D01*
X109752757Y-105822503D01*
X109799250Y-105825785D01*
X109900444Y-105840592D01*
X110019821Y-105863847D01*
X110143040Y-105892204D01*
X110255761Y-105922315D01*
X110343644Y-105950831D01*
X110356608Y-105955898D01*
X110454824Y-105998203D01*
X110549702Y-106043089D01*
X110632025Y-106085797D01*
X110692570Y-106121571D01*
X110720698Y-106143757D01*
X110751739Y-106169932D01*
X110766187Y-106174667D01*
X110791103Y-106187872D01*
X110839595Y-106223191D01*
X110903991Y-106274183D01*
X110976616Y-106334406D01*
X111049795Y-106397418D01*
X111115855Y-106456778D01*
X111167122Y-106506042D01*
X111188569Y-106529231D01*
X111268114Y-106632990D01*
X111354068Y-106760264D01*
X111437655Y-106896791D01*
X111510098Y-107028310D01*
X111558134Y-107129707D01*
X111630480Y-107324771D01*
X111678975Y-107515408D01*
X111708449Y-107721683D01*
X111712990Y-107772750D01*
X111716161Y-107834357D01*
X111718781Y-107930987D01*
X111720872Y-108058989D01*
X111722457Y-108214712D01*
X111723558Y-108394502D01*
X111724199Y-108594710D01*
X111724401Y-108811682D01*
X111724186Y-109041767D01*
X111723579Y-109281313D01*
X111722600Y-109526669D01*
X111721272Y-109774183D01*
X111719619Y-110020202D01*
X111717662Y-110261076D01*
X111715424Y-110493151D01*
X111712928Y-110712778D01*
X111710195Y-110916303D01*
X111707249Y-111100075D01*
X111704112Y-111260442D01*
X111700807Y-111393752D01*
X111697356Y-111496354D01*
X111693781Y-111564596D01*
X111690105Y-111594826D01*
X111689422Y-111595957D01*
X111647297Y-111609568D01*
X111570954Y-111622399D01*
X111468510Y-111633815D01*
X111348079Y-111643182D01*
X111217779Y-111649863D01*
X111085725Y-111653224D01*
X110964010Y-111652720D01*
X110846846Y-111649906D01*
X110764868Y-111646589D01*
X110710935Y-111641453D01*
X110677906Y-111633184D01*
X110658642Y-111620466D01*
X110646003Y-111601984D01*
X110641530Y-111593334D01*
X110636609Y-111574977D01*
X110632282Y-111539100D01*
X110628517Y-111483447D01*
X110625281Y-111405763D01*
X110622542Y-111303791D01*
X110620267Y-111175278D01*
X110618424Y-111017967D01*
X110616980Y-110829603D01*
X110615903Y-110607931D01*
X110615160Y-110350695D01*
X110614718Y-110055640D01*
X110614546Y-109720510D01*
X110614546Y-109720084D01*
X110614480Y-109400332D01*
X110614331Y-109120042D01*
X110614034Y-108876342D01*
X110613525Y-108666358D01*
X110612740Y-108487220D01*
X110611615Y-108336056D01*
X110610085Y-108209993D01*
X110608087Y-108106159D01*
X110605555Y-108021682D01*
X110602426Y-107953691D01*
X110598635Y-107899313D01*
X110594118Y-107855677D01*
X110588811Y-107819910D01*
X110582649Y-107789140D01*
X110575569Y-107760496D01*
X110570262Y-107741000D01*
X110527305Y-107604224D01*
X110478820Y-107494402D01*
X110416245Y-107396789D01*
X110331019Y-107296641D01*
X110283816Y-107247648D01*
X110202114Y-107168745D01*
X110132705Y-107112874D01*
X110061291Y-107070126D01*
X109973574Y-107030594D01*
X109966316Y-107027636D01*
X109784644Y-106970003D01*
X109567614Y-106929482D01*
X109318761Y-106906465D01*
X109041620Y-106901348D01*
X108878500Y-106906302D01*
X108794032Y-106909254D01*
X108672128Y-106912118D01*
X108517688Y-106914839D01*
X108335609Y-106917364D01*
X108130791Y-106919637D01*
X107908130Y-106921604D01*
X107672526Y-106923211D01*
X107428877Y-106924404D01*
X107185167Y-106925122D01*
X106913305Y-106925678D01*
X106680386Y-106926290D01*
X106483023Y-106927069D01*
X106317827Y-106928127D01*
X106181409Y-106929573D01*
X106070379Y-106931521D01*
X105981349Y-106934081D01*
X105910930Y-106937364D01*
X105855734Y-106941482D01*
X105812370Y-106946545D01*
X105777451Y-106952666D01*
X105747587Y-106959956D01*
X105719390Y-106968525D01*
X105703500Y-106973778D01*
X105620516Y-107007268D01*
X105526101Y-107054139D01*
X105431352Y-107107883D01*
X105347363Y-107161990D01*
X105285229Y-107209950D01*
X105264303Y-107231460D01*
X105184549Y-107341589D01*
X105109985Y-107462140D01*
X105048035Y-107579974D01*
X105006126Y-107681949D01*
X105001699Y-107696176D01*
X104993312Y-107726822D01*
X104986126Y-107759459D01*
X104980036Y-107797506D01*
X104974935Y-107844387D01*
X104970719Y-107903522D01*
X104967282Y-107978334D01*
X104964518Y-108072243D01*
X104962322Y-108188672D01*
X104960589Y-108331043D01*
X104959213Y-108502775D01*
X104958088Y-108707293D01*
X104957109Y-108948016D01*
X104956369Y-109166260D01*
X104955678Y-109470664D01*
X104955713Y-109733836D01*
X104956487Y-109956869D01*
X104958016Y-110140858D01*
X104960315Y-110286897D01*
X104963399Y-110396081D01*
X104967282Y-110469505D01*
X104971980Y-110508262D01*
X104974730Y-110515063D01*
X104999359Y-110518349D01*
X105062952Y-110521495D01*
X105162136Y-110524453D01*
X105293541Y-110527175D01*
X105453796Y-110529613D01*
X105639531Y-110531718D01*
X105847374Y-110533443D01*
X106073956Y-110534738D01*
X106315905Y-110535557D01*
X106422570Y-110535748D01*
X106708321Y-110536020D01*
X106954611Y-110535983D01*
X107164313Y-110535581D01*
X107340297Y-110534759D01*
X107485436Y-110533460D01*
X107602601Y-110531629D01*
X107694665Y-110529209D01*
X107764498Y-110526144D01*
X107814973Y-110522379D01*
X107848963Y-110517858D01*
X107869337Y-110512524D01*
X107878035Y-110507370D01*
X107886021Y-110493038D01*
X107892677Y-110464946D01*
X107898168Y-110419333D01*
X107902660Y-110352438D01*
X107906319Y-110260501D01*
X107909310Y-110139759D01*
X107911800Y-109986453D01*
X107913952Y-109796821D01*
X107915146Y-109664675D01*
X107917794Y-109411486D01*
X107921256Y-109197561D01*
X107925724Y-109019834D01*
X107931390Y-108875238D01*
X107938446Y-108760710D01*
X107947085Y-108673184D01*
X107957499Y-108609593D01*
X107969880Y-108566872D01*
X107984421Y-108541957D01*
X107985652Y-108540672D01*
X108014237Y-108532341D01*
X108077714Y-108524799D01*
X108168646Y-108518200D01*
X108279597Y-108512697D01*
X108403130Y-108508444D01*
X108531809Y-108505597D01*
X108658197Y-108504308D01*
X108774858Y-108504732D01*
X108874354Y-108507023D01*
X108949250Y-108511335D01*
X108992109Y-108517822D01*
X108996814Y-108519726D01*
X109003318Y-108526361D01*
X109008925Y-108540372D01*
X109013693Y-108564628D01*
X109017678Y-108601996D01*
X109020938Y-108655345D01*
X109023532Y-108727542D01*
X109025516Y-108821455D01*
X109026948Y-108939952D01*
X109027886Y-109085901D01*
X109028387Y-109262169D01*
X109028509Y-109471625D01*
X109028309Y-109717136D01*
X109027845Y-110001570D01*
X109027733Y-110059924D01*
X109027113Y-110309785D01*
X109026274Y-110547121D01*
X109025243Y-110768560D01*
X109024048Y-110970732D01*
X109022716Y-111150266D01*
X109021275Y-111303792D01*
X109019753Y-111427938D01*
X109018177Y-111519334D01*
X109016574Y-111574610D01*
X109015223Y-111590667D01*
X108991371Y-111597864D01*
X108935693Y-111609016D01*
X108858285Y-111622186D01*
X108820393Y-111628054D01*
X108775711Y-111633269D01*
X108713751Y-111637859D01*
X108632141Y-111641858D01*
X108528514Y-111645300D01*
X108400500Y-111648217D01*
X108245730Y-111650642D01*
X108061835Y-111652609D01*
X107846445Y-111654152D01*
X107597192Y-111655303D01*
X107311706Y-111656097D01*
X106987618Y-111656565D01*
X106783000Y-111656700D01*
X106506279Y-111657013D01*
X106241453Y-111657693D01*
X105991613Y-111658710D01*
X105759849Y-111660034D01*
X105549250Y-111661636D01*
X105362907Y-111663484D01*
X105203909Y-111665550D01*
X105075347Y-111667802D01*
X104980310Y-111670212D01*
X104921888Y-111672748D01*
X104903324Y-111674983D01*
X104903938Y-111691656D01*
X104942911Y-111719038D01*
X105021286Y-111757844D01*
X105030324Y-111761928D01*
X105085337Y-111786101D01*
X105144445Y-111810772D01*
X105213010Y-111837958D01*
X105296394Y-111869675D01*
X105399958Y-111907941D01*
X105529065Y-111954772D01*
X105689078Y-112012184D01*
X105819917Y-112058882D01*
X105917281Y-112093949D01*
X106016711Y-112130350D01*
X106098347Y-112160808D01*
X106105667Y-112163589D01*
X106156353Y-112182035D01*
X106240673Y-112211718D01*
X106352134Y-112250397D01*
X106484240Y-112295829D01*
X106630497Y-112345772D01*
X106784410Y-112397985D01*
X106793584Y-112401086D01*
X106951306Y-112454557D01*
X107104984Y-112506966D01*
X107247391Y-112555826D01*
X107371301Y-112598650D01*
X107469488Y-112632949D01*
X107534417Y-112656123D01*
X107633572Y-112691422D01*
X107736954Y-112726723D01*
X107823700Y-112754915D01*
X107830750Y-112757099D01*
X107889069Y-112775485D01*
X107977740Y-112803998D01*
X108089792Y-112840345D01*
X108218254Y-112882237D01*
X108356156Y-112927384D01*
X108496526Y-112973494D01*
X108632392Y-113018278D01*
X108756785Y-113059444D01*
X108862732Y-113094703D01*
X108943263Y-113121764D01*
X108991407Y-113138337D01*
X108994917Y-113139600D01*
X109033759Y-113153252D01*
X109106585Y-113178416D01*
X109207286Y-113213006D01*
X109329757Y-113254935D01*
X109467891Y-113302115D01*
X109615582Y-113352460D01*
X109766722Y-113403883D01*
X109915206Y-113454297D01*
X109979167Y-113475974D01*
X110206324Y-113553196D01*
X110396568Y-113618531D01*
X110553240Y-113673197D01*
X110679680Y-113718412D01*
X110779230Y-113755393D01*
X110855230Y-113785358D01*
X110911021Y-113809522D01*
X110949945Y-113829105D01*
X110952834Y-113830741D01*
X111024385Y-113870803D01*
X111093732Y-113908199D01*
X111116933Y-113920218D01*
X111211439Y-113981098D01*
X111316448Y-114070112D01*
X111422735Y-114177941D01*
X111521071Y-114295265D01*
X111598417Y-114406534D01*
X111622953Y-114446097D01*
X111657622Y-114501768D01*
X111667216Y-114517142D01*
X111695249Y-114571126D01*
X111730438Y-114651817D01*
X111767020Y-114745610D01*
X111783632Y-114792010D01*
X111807536Y-114862099D01*
X111825131Y-114919911D01*
X111837372Y-114973861D01*
X111845214Y-115032364D01*
X111849613Y-115103836D01*
X111851523Y-115196694D01*
X111851900Y-115319352D01*
X111851814Y-115392750D01*
D13*
X111770000Y-82490000D02*
X113100000Y-82490000D01*
X113100000Y-82490000D02*
X113100000Y-83820000D01*
X113100000Y-85030000D02*
X113100000Y-85150000D01*
X110440000Y-85030000D02*
X110440000Y-85150000D01*
X110440000Y-85150000D02*
X113100000Y-85150000D01*
X112970000Y-85150000D02*
X115630000Y-85150000D01*
X112970000Y-85030000D02*
X112970000Y-85150000D01*
X115630000Y-85030000D02*
X115630000Y-85150000D01*
X115630000Y-82490000D02*
X115630000Y-83820000D01*
X114300000Y-82490000D02*
X115630000Y-82490000D01*
D14*
X110565001Y-76275001D02*
X141045001Y-76275001D01*
X110565001Y-76275001D02*
X110565001Y-71195001D01*
X110565001Y-71195001D02*
X108025001Y-71195001D01*
X108025001Y-71195001D02*
X108025001Y-63575001D01*
X108025001Y-63575001D02*
X110565001Y-63575001D01*
X110565001Y-63575001D02*
X110565001Y-58495001D01*
X110565001Y-58495001D02*
X141045001Y-58495001D01*
X141045001Y-58495001D02*
X141045001Y-76275001D01*
D13*
X137160000Y-100390000D02*
X137160000Y-97730000D01*
X137160000Y-100390000D02*
X139760000Y-100390000D01*
X139760000Y-100390000D02*
X139760000Y-97730000D01*
X137160000Y-97730000D02*
X139760000Y-97730000D01*
X134560000Y-97730000D02*
X135890000Y-97730000D01*
X134560000Y-99060000D02*
X134560000Y-97730000D01*
X120670000Y-114300000D02*
X120670000Y-112970000D01*
X120670000Y-112970000D02*
X122000000Y-112970000D01*
X123270000Y-112970000D02*
X128410000Y-112970000D01*
X128410000Y-115630000D02*
X128410000Y-112970000D01*
X123270000Y-115630000D02*
X128410000Y-115630000D01*
X123270000Y-115630000D02*
X123270000Y-112970000D01*
X123190000Y-108010000D02*
X123190000Y-105350000D01*
X123190000Y-108010000D02*
X128330000Y-108010000D01*
X128330000Y-108010000D02*
X128330000Y-105350000D01*
X123190000Y-105350000D02*
X128330000Y-105350000D01*
X120590000Y-105350000D02*
X121920000Y-105350000D01*
X120590000Y-106680000D02*
X120590000Y-105350000D01*
X120590000Y-99060000D02*
X120590000Y-97730000D01*
X120590000Y-97730000D02*
X121920000Y-97730000D01*
X123190000Y-97730000D02*
X128330000Y-97730000D01*
X128330000Y-100390000D02*
X128330000Y-97730000D01*
X123190000Y-100390000D02*
X128330000Y-100390000D01*
X123190000Y-100390000D02*
X123190000Y-97730000D01*
X137160000Y-92770000D02*
X137160000Y-90110000D01*
X137160000Y-92770000D02*
X139760000Y-92770000D01*
X139760000Y-92770000D02*
X139760000Y-90110000D01*
X137160000Y-90110000D02*
X139760000Y-90110000D01*
X134560000Y-90110000D02*
X135890000Y-90110000D01*
X134560000Y-91440000D02*
X134560000Y-90110000D01*
X123190000Y-92770000D02*
X123190000Y-90110000D01*
X123190000Y-92770000D02*
X128330000Y-92770000D01*
X128330000Y-92770000D02*
X128330000Y-90110000D01*
X123190000Y-90110000D02*
X128330000Y-90110000D01*
X120590000Y-90110000D02*
X121920000Y-90110000D01*
X120590000Y-91440000D02*
X120590000Y-90110000D01*
X134560000Y-83820000D02*
X134560000Y-82490000D01*
X134560000Y-82490000D02*
X135890000Y-82490000D01*
X137160000Y-82490000D02*
X139760000Y-82490000D01*
X139760000Y-85150000D02*
X139760000Y-82490000D01*
X137160000Y-85150000D02*
X139760000Y-85150000D01*
X137160000Y-85150000D02*
X137160000Y-82490000D01*
X120590000Y-83820000D02*
X120590000Y-82490000D01*
X120590000Y-82490000D02*
X121920000Y-82490000D01*
X123190000Y-82490000D02*
X125790000Y-82490000D01*
X125790000Y-85150000D02*
X125790000Y-82490000D01*
X123190000Y-85150000D02*
X125790000Y-85150000D01*
X123190000Y-85150000D02*
X123190000Y-82490000D01*
X113030000Y-53400000D02*
X113030000Y-50740000D01*
X113030000Y-53400000D02*
X115630000Y-53400000D01*
X115630000Y-53400000D02*
X115630000Y-50740000D01*
X113030000Y-50740000D02*
X115630000Y-50740000D01*
X110430000Y-50740000D02*
X111760000Y-50740000D01*
X110430000Y-52070000D02*
X110430000Y-50740000D01*
X111760000Y-41970000D02*
X110430000Y-41970000D01*
X110430000Y-41970000D02*
X110430000Y-40640000D01*
X110430000Y-39370000D02*
X110430000Y-36770000D01*
X113090000Y-36770000D02*
X110430000Y-36770000D01*
X113090000Y-39370000D02*
X113090000Y-36770000D01*
X113090000Y-39370000D02*
X110430000Y-39370000D01*
X120710000Y-39370000D02*
X118050000Y-39370000D01*
X120710000Y-39370000D02*
X120710000Y-36770000D01*
X120710000Y-36770000D02*
X118050000Y-36770000D01*
X118050000Y-39370000D02*
X118050000Y-36770000D01*
X118050000Y-41970000D02*
X118050000Y-40640000D01*
X119380000Y-41970000D02*
X118050000Y-41970000D01*
X127000000Y-41970000D02*
X125670000Y-41970000D01*
X125670000Y-41970000D02*
X125670000Y-40640000D01*
X125670000Y-39370000D02*
X125670000Y-36770000D01*
X128330000Y-36770000D02*
X125670000Y-36770000D01*
X128330000Y-39370000D02*
X128330000Y-36770000D01*
X128330000Y-39370000D02*
X125670000Y-39370000D01*
X135950000Y-39370000D02*
X133290000Y-39370000D01*
X135950000Y-39370000D02*
X135950000Y-36770000D01*
X135950000Y-36770000D02*
X133290000Y-36770000D01*
X133290000Y-39370000D02*
X133290000Y-36770000D01*
X133290000Y-41970000D02*
X133290000Y-40640000D01*
X134620000Y-41970000D02*
X133290000Y-41970000D01*
X148530000Y-39370000D02*
X151190000Y-39370000D01*
X148530000Y-39370000D02*
X148530000Y-41970000D01*
X148530000Y-41970000D02*
X151190000Y-41970000D01*
X151190000Y-39370000D02*
X151190000Y-41970000D01*
X151190000Y-36770000D02*
X151190000Y-38100000D01*
X149860000Y-36770000D02*
X151190000Y-36770000D01*
X149860000Y-52130000D02*
X148530000Y-52130000D01*
X148530000Y-52130000D02*
X148530000Y-50800000D01*
X148530000Y-49530000D02*
X148530000Y-46930000D01*
X151190000Y-46930000D02*
X148530000Y-46930000D01*
X151190000Y-49530000D02*
X151190000Y-46930000D01*
X151190000Y-49530000D02*
X148530000Y-49530000D01*
X120590000Y-48530000D02*
G75*
G02X120590000Y-50530000I0J-1000000D01*
G01*
X120590000Y-50530000D02*
X120590000Y-52180000D01*
X120590000Y-52180000D02*
X141030000Y-52180000D01*
X141030000Y-52180000D02*
X141030000Y-46880000D01*
X141030000Y-46880000D02*
X120590000Y-46880000D01*
X120590000Y-46880000D02*
X120590000Y-48530000D01*
D14*
X113757142Y-89452380D02*
X113280952Y-89452380D01*
X113280952Y-88452380D01*
X114090476Y-88928571D02*
X114423809Y-88928571D01*
X114566666Y-89452380D02*
X114090476Y-89452380D01*
X114090476Y-88452380D01*
X114566666Y-88452380D01*
X114995238Y-89452380D02*
X114995238Y-88452380D01*
X115233333Y-88452380D01*
X115376190Y-88500000D01*
X115471428Y-88595238D01*
X115519047Y-88690476D01*
X115566666Y-88880952D01*
X115566666Y-89023809D01*
X115519047Y-89214285D01*
X115471428Y-89309523D01*
X115376190Y-89404761D01*
X115233333Y-89452380D01*
X114995238Y-89452380D01*
X115040000Y-67536666D02*
X115516190Y-67536666D01*
X114944761Y-67822380D02*
X115278095Y-66822380D01*
X115611428Y-67822380D01*
X115944761Y-67822380D02*
X115944761Y-67155714D01*
X115944761Y-67346190D02*
X115992380Y-67250952D01*
X116040000Y-67203333D01*
X116135238Y-67155714D01*
X116230476Y-67155714D01*
X116992380Y-67822380D02*
X116992380Y-66822380D01*
X116992380Y-67774761D02*
X116897142Y-67822380D01*
X116706666Y-67822380D01*
X116611428Y-67774761D01*
X116563809Y-67727142D01*
X116516190Y-67631904D01*
X116516190Y-67346190D01*
X116563809Y-67250952D01*
X116611428Y-67203333D01*
X116706666Y-67155714D01*
X116897142Y-67155714D01*
X116992380Y-67203333D01*
X117897142Y-67155714D02*
X117897142Y-67822380D01*
X117468571Y-67155714D02*
X117468571Y-67679523D01*
X117516190Y-67774761D01*
X117611428Y-67822380D01*
X117754285Y-67822380D01*
X117849523Y-67774761D01*
X117897142Y-67727142D01*
X118373333Y-67822380D02*
X118373333Y-67155714D01*
X118373333Y-66822380D02*
X118325714Y-66870000D01*
X118373333Y-66917619D01*
X118420952Y-66870000D01*
X118373333Y-66822380D01*
X118373333Y-66917619D01*
X118849523Y-67155714D02*
X118849523Y-67822380D01*
X118849523Y-67250952D02*
X118897142Y-67203333D01*
X118992380Y-67155714D01*
X119135238Y-67155714D01*
X119230476Y-67203333D01*
X119278095Y-67298571D01*
X119278095Y-67822380D01*
X119897142Y-67822380D02*
X119801904Y-67774761D01*
X119754285Y-67727142D01*
X119706666Y-67631904D01*
X119706666Y-67346190D01*
X119754285Y-67250952D01*
X119801904Y-67203333D01*
X119897142Y-67155714D01*
X120040000Y-67155714D01*
X120135238Y-67203333D01*
X120182857Y-67250952D01*
X120230476Y-67346190D01*
X120230476Y-67631904D01*
X120182857Y-67727142D01*
X120135238Y-67774761D01*
X120040000Y-67822380D01*
X119897142Y-67822380D01*
X121420952Y-67822380D02*
X121420952Y-66822380D01*
X121801904Y-66822380D01*
X121897142Y-66870000D01*
X121944761Y-66917619D01*
X121992380Y-67012857D01*
X121992380Y-67155714D01*
X121944761Y-67250952D01*
X121897142Y-67298571D01*
X121801904Y-67346190D01*
X121420952Y-67346190D01*
X122420952Y-67822380D02*
X122420952Y-67155714D01*
X122420952Y-67346190D02*
X122468571Y-67250952D01*
X122516190Y-67203333D01*
X122611428Y-67155714D01*
X122706666Y-67155714D01*
X123182857Y-67822380D02*
X123087619Y-67774761D01*
X123040000Y-67727142D01*
X122992380Y-67631904D01*
X122992380Y-67346190D01*
X123040000Y-67250952D01*
X123087619Y-67203333D01*
X123182857Y-67155714D01*
X123325714Y-67155714D01*
X123420952Y-67203333D01*
X123468571Y-67250952D01*
X123516190Y-67346190D01*
X123516190Y-67631904D01*
X123468571Y-67727142D01*
X123420952Y-67774761D01*
X123325714Y-67822380D01*
X123182857Y-67822380D01*
X123944761Y-67822380D02*
X123944761Y-66822380D01*
X124278095Y-67536666D01*
X124611428Y-66822380D01*
X124611428Y-67822380D01*
X125087619Y-67822380D02*
X125087619Y-67155714D01*
X125087619Y-66822380D02*
X125040000Y-66870000D01*
X125087619Y-66917619D01*
X125135238Y-66870000D01*
X125087619Y-66822380D01*
X125087619Y-66917619D01*
X125992380Y-67774761D02*
X125897142Y-67822380D01*
X125706666Y-67822380D01*
X125611428Y-67774761D01*
X125563809Y-67727142D01*
X125516190Y-67631904D01*
X125516190Y-67346190D01*
X125563809Y-67250952D01*
X125611428Y-67203333D01*
X125706666Y-67155714D01*
X125897142Y-67155714D01*
X125992380Y-67203333D01*
X126420952Y-67822380D02*
X126420952Y-67155714D01*
X126420952Y-67346190D02*
X126468571Y-67250952D01*
X126516190Y-67203333D01*
X126611428Y-67155714D01*
X126706666Y-67155714D01*
X127182857Y-67822380D02*
X127087619Y-67774761D01*
X127040000Y-67727142D01*
X126992380Y-67631904D01*
X126992380Y-67346190D01*
X127040000Y-67250952D01*
X127087619Y-67203333D01*
X127182857Y-67155714D01*
X127325714Y-67155714D01*
X127420952Y-67203333D01*
X127468571Y-67250952D01*
X127516190Y-67346190D01*
X127516190Y-67631904D01*
X127468571Y-67727142D01*
X127420952Y-67774761D01*
X127325714Y-67822380D01*
X127182857Y-67822380D01*
X129182857Y-66822380D02*
X128706666Y-66822380D01*
X128659047Y-67298571D01*
X128706666Y-67250952D01*
X128801904Y-67203333D01*
X129040000Y-67203333D01*
X129135238Y-67250952D01*
X129182857Y-67298571D01*
X129230476Y-67393809D01*
X129230476Y-67631904D01*
X129182857Y-67727142D01*
X129135238Y-67774761D01*
X129040000Y-67822380D01*
X128801904Y-67822380D01*
X128706666Y-67774761D01*
X128659047Y-67727142D01*
X129516190Y-66822380D02*
X129849523Y-67822380D01*
X130182857Y-66822380D01*
X131230476Y-66774761D02*
X130373333Y-68060476D01*
X132087619Y-67822380D02*
X131516190Y-67822380D01*
X131801904Y-67822380D02*
X131801904Y-66822380D01*
X131706666Y-66965238D01*
X131611428Y-67060476D01*
X131516190Y-67108095D01*
X132944761Y-66822380D02*
X132754285Y-66822380D01*
X132659047Y-66870000D01*
X132611428Y-66917619D01*
X132516190Y-67060476D01*
X132468571Y-67250952D01*
X132468571Y-67631904D01*
X132516190Y-67727142D01*
X132563809Y-67774761D01*
X132659047Y-67822380D01*
X132849523Y-67822380D01*
X132944761Y-67774761D01*
X132992380Y-67727142D01*
X133040000Y-67631904D01*
X133040000Y-67393809D01*
X132992380Y-67298571D01*
X132944761Y-67250952D01*
X132849523Y-67203333D01*
X132659047Y-67203333D01*
X132563809Y-67250952D01*
X132516190Y-67298571D01*
X132468571Y-67393809D01*
X133468571Y-67822380D02*
X133468571Y-66822380D01*
X133801904Y-67536666D01*
X134135238Y-66822380D01*
X134135238Y-67822380D01*
X134611428Y-67822380D02*
X134611428Y-66822380D01*
X134611428Y-67298571D02*
X135182857Y-67298571D01*
X135182857Y-67822380D02*
X135182857Y-66822380D01*
X135563809Y-67155714D02*
X136087619Y-67155714D01*
X135563809Y-67822380D01*
X136087619Y-67822380D01*
X143280952Y-99304761D02*
X143423809Y-99352380D01*
X143661904Y-99352380D01*
X143757142Y-99304761D01*
X143804761Y-99257142D01*
X143852380Y-99161904D01*
X143852380Y-99066666D01*
X143804761Y-98971428D01*
X143757142Y-98923809D01*
X143661904Y-98876190D01*
X143471428Y-98828571D01*
X143376190Y-98780952D01*
X143328571Y-98733333D01*
X143280952Y-98638095D01*
X143280952Y-98542857D01*
X143328571Y-98447619D01*
X143376190Y-98400000D01*
X143471428Y-98352380D01*
X143709523Y-98352380D01*
X143852380Y-98400000D01*
X144138095Y-98685714D02*
X144519047Y-98685714D01*
X144280952Y-98352380D02*
X144280952Y-99209523D01*
X144328571Y-99304761D01*
X144423809Y-99352380D01*
X144519047Y-99352380D01*
X145280952Y-99352380D02*
X145280952Y-98828571D01*
X145233333Y-98733333D01*
X145138095Y-98685714D01*
X144947619Y-98685714D01*
X144852380Y-98733333D01*
X145280952Y-99304761D02*
X145185714Y-99352380D01*
X144947619Y-99352380D01*
X144852380Y-99304761D01*
X144804761Y-99209523D01*
X144804761Y-99114285D01*
X144852380Y-99019047D01*
X144947619Y-98971428D01*
X145185714Y-98971428D01*
X145280952Y-98923809D01*
X145757142Y-99352380D02*
X145757142Y-98685714D01*
X145757142Y-98876190D02*
X145804761Y-98780952D01*
X145852380Y-98733333D01*
X145947619Y-98685714D01*
X146042857Y-98685714D01*
X146233333Y-98685714D02*
X146614285Y-98685714D01*
X146376190Y-98352380D02*
X146376190Y-99209523D01*
X146423809Y-99304761D01*
X146519047Y-99352380D01*
X146614285Y-99352380D01*
X112519047Y-113752380D02*
X113090476Y-113752380D01*
X112804761Y-114752380D02*
X112804761Y-113752380D01*
X113423809Y-114752380D02*
X113423809Y-114085714D01*
X113423809Y-114276190D02*
X113471428Y-114180952D01*
X113519047Y-114133333D01*
X113614285Y-114085714D01*
X113709523Y-114085714D01*
X114042857Y-114752380D02*
X114042857Y-114085714D01*
X114042857Y-113752380D02*
X113995238Y-113800000D01*
X114042857Y-113847619D01*
X114090476Y-113800000D01*
X114042857Y-113752380D01*
X114042857Y-113847619D01*
X114947619Y-114752380D02*
X114947619Y-114228571D01*
X114900000Y-114133333D01*
X114804761Y-114085714D01*
X114614285Y-114085714D01*
X114519047Y-114133333D01*
X114947619Y-114704761D02*
X114852380Y-114752380D01*
X114614285Y-114752380D01*
X114519047Y-114704761D01*
X114471428Y-114609523D01*
X114471428Y-114514285D01*
X114519047Y-114419047D01*
X114614285Y-114371428D01*
X114852380Y-114371428D01*
X114947619Y-114323809D01*
X115423809Y-114085714D02*
X115423809Y-114752380D01*
X115423809Y-114180952D02*
X115471428Y-114133333D01*
X115566666Y-114085714D01*
X115709523Y-114085714D01*
X115804761Y-114133333D01*
X115852380Y-114228571D01*
X115852380Y-114752380D01*
X116757142Y-114085714D02*
X116757142Y-114895238D01*
X116709523Y-114990476D01*
X116661904Y-115038095D01*
X116566666Y-115085714D01*
X116423809Y-115085714D01*
X116328571Y-115038095D01*
X116757142Y-114704761D02*
X116661904Y-114752380D01*
X116471428Y-114752380D01*
X116376190Y-114704761D01*
X116328571Y-114657142D01*
X116280952Y-114561904D01*
X116280952Y-114276190D01*
X116328571Y-114180952D01*
X116376190Y-114133333D01*
X116471428Y-114085714D01*
X116661904Y-114085714D01*
X116757142Y-114133333D01*
X117376190Y-114752380D02*
X117280952Y-114704761D01*
X117233333Y-114609523D01*
X117233333Y-113752380D01*
X118138095Y-114704761D02*
X118042857Y-114752380D01*
X117852380Y-114752380D01*
X117757142Y-114704761D01*
X117709523Y-114609523D01*
X117709523Y-114228571D01*
X117757142Y-114133333D01*
X117852380Y-114085714D01*
X118042857Y-114085714D01*
X118138095Y-114133333D01*
X118185714Y-114228571D01*
X118185714Y-114323809D01*
X117709523Y-114419047D01*
X114342857Y-107057142D02*
X114295238Y-107104761D01*
X114152380Y-107152380D01*
X114057142Y-107152380D01*
X113914285Y-107104761D01*
X113819047Y-107009523D01*
X113771428Y-106914285D01*
X113723809Y-106723809D01*
X113723809Y-106580952D01*
X113771428Y-106390476D01*
X113819047Y-106295238D01*
X113914285Y-106200000D01*
X114057142Y-106152380D01*
X114152380Y-106152380D01*
X114295238Y-106200000D01*
X114342857Y-106247619D01*
X114771428Y-107152380D02*
X114771428Y-106485714D01*
X114771428Y-106152380D02*
X114723809Y-106200000D01*
X114771428Y-106247619D01*
X114819047Y-106200000D01*
X114771428Y-106152380D01*
X114771428Y-106247619D01*
X115247619Y-107152380D02*
X115247619Y-106485714D01*
X115247619Y-106676190D02*
X115295238Y-106580952D01*
X115342857Y-106533333D01*
X115438095Y-106485714D01*
X115533333Y-106485714D01*
X116295238Y-107104761D02*
X116200000Y-107152380D01*
X116009523Y-107152380D01*
X115914285Y-107104761D01*
X115866666Y-107057142D01*
X115819047Y-106961904D01*
X115819047Y-106676190D01*
X115866666Y-106580952D01*
X115914285Y-106533333D01*
X116009523Y-106485714D01*
X116200000Y-106485714D01*
X116295238Y-106533333D01*
X116866666Y-107152380D02*
X116771428Y-107104761D01*
X116723809Y-107009523D01*
X116723809Y-106152380D01*
X117628571Y-107104761D02*
X117533333Y-107152380D01*
X117342857Y-107152380D01*
X117247619Y-107104761D01*
X117200000Y-107009523D01*
X117200000Y-106628571D01*
X117247619Y-106533333D01*
X117342857Y-106485714D01*
X117533333Y-106485714D01*
X117628571Y-106533333D01*
X117676190Y-106628571D01*
X117676190Y-106723809D01*
X117200000Y-106819047D01*
X114438095Y-99357142D02*
X114390476Y-99404761D01*
X114247619Y-99452380D01*
X114152380Y-99452380D01*
X114009523Y-99404761D01*
X113914285Y-99309523D01*
X113866666Y-99214285D01*
X113819047Y-99023809D01*
X113819047Y-98880952D01*
X113866666Y-98690476D01*
X113914285Y-98595238D01*
X114009523Y-98500000D01*
X114152380Y-98452380D01*
X114247619Y-98452380D01*
X114390476Y-98500000D01*
X114438095Y-98547619D01*
X114866666Y-99452380D02*
X114866666Y-98785714D01*
X114866666Y-98976190D02*
X114914285Y-98880952D01*
X114961904Y-98833333D01*
X115057142Y-98785714D01*
X115152380Y-98785714D01*
X115628571Y-99452380D02*
X115533333Y-99404761D01*
X115485714Y-99357142D01*
X115438095Y-99261904D01*
X115438095Y-98976190D01*
X115485714Y-98880952D01*
X115533333Y-98833333D01*
X115628571Y-98785714D01*
X115771428Y-98785714D01*
X115866666Y-98833333D01*
X115914285Y-98880952D01*
X115961904Y-98976190D01*
X115961904Y-99261904D01*
X115914285Y-99357142D01*
X115866666Y-99404761D01*
X115771428Y-99452380D01*
X115628571Y-99452380D01*
X116342857Y-99404761D02*
X116438095Y-99452380D01*
X116628571Y-99452380D01*
X116723809Y-99404761D01*
X116771428Y-99309523D01*
X116771428Y-99261904D01*
X116723809Y-99166666D01*
X116628571Y-99119047D01*
X116485714Y-99119047D01*
X116390476Y-99071428D01*
X116342857Y-98976190D01*
X116342857Y-98928571D01*
X116390476Y-98833333D01*
X116485714Y-98785714D01*
X116628571Y-98785714D01*
X116723809Y-98833333D01*
X117152380Y-99404761D02*
X117247619Y-99452380D01*
X117438095Y-99452380D01*
X117533333Y-99404761D01*
X117580952Y-99309523D01*
X117580952Y-99261904D01*
X117533333Y-99166666D01*
X117438095Y-99119047D01*
X117295238Y-99119047D01*
X117200000Y-99071428D01*
X117152380Y-98976190D01*
X117152380Y-98928571D01*
X117200000Y-98833333D01*
X117295238Y-98785714D01*
X117438095Y-98785714D01*
X117533333Y-98833333D01*
X144209523Y-91852380D02*
X143876190Y-91376190D01*
X143638095Y-91852380D02*
X143638095Y-90852380D01*
X144019047Y-90852380D01*
X144114285Y-90900000D01*
X144161904Y-90947619D01*
X144209523Y-91042857D01*
X144209523Y-91185714D01*
X144161904Y-91280952D01*
X144114285Y-91328571D01*
X144019047Y-91376190D01*
X143638095Y-91376190D01*
X113619047Y-91844761D02*
X113761904Y-91892380D01*
X114000000Y-91892380D01*
X114095238Y-91844761D01*
X114142857Y-91797142D01*
X114190476Y-91701904D01*
X114190476Y-91606666D01*
X114142857Y-91511428D01*
X114095238Y-91463809D01*
X114000000Y-91416190D01*
X113809523Y-91368571D01*
X113714285Y-91320952D01*
X113666666Y-91273333D01*
X113619047Y-91178095D01*
X113619047Y-91082857D01*
X113666666Y-90987619D01*
X113714285Y-90940000D01*
X113809523Y-90892380D01*
X114047619Y-90892380D01*
X114190476Y-90940000D01*
X115047619Y-91225714D02*
X115047619Y-92225714D01*
X115047619Y-91844761D02*
X114952380Y-91892380D01*
X114761904Y-91892380D01*
X114666666Y-91844761D01*
X114619047Y-91797142D01*
X114571428Y-91701904D01*
X114571428Y-91416190D01*
X114619047Y-91320952D01*
X114666666Y-91273333D01*
X114761904Y-91225714D01*
X114952380Y-91225714D01*
X115047619Y-91273333D01*
X115952380Y-91225714D02*
X115952380Y-91892380D01*
X115523809Y-91225714D02*
X115523809Y-91749523D01*
X115571428Y-91844761D01*
X115666666Y-91892380D01*
X115809523Y-91892380D01*
X115904761Y-91844761D01*
X115952380Y-91797142D01*
X116857142Y-91892380D02*
X116857142Y-91368571D01*
X116809523Y-91273333D01*
X116714285Y-91225714D01*
X116523809Y-91225714D01*
X116428571Y-91273333D01*
X116857142Y-91844761D02*
X116761904Y-91892380D01*
X116523809Y-91892380D01*
X116428571Y-91844761D01*
X116380952Y-91749523D01*
X116380952Y-91654285D01*
X116428571Y-91559047D01*
X116523809Y-91511428D01*
X116761904Y-91511428D01*
X116857142Y-91463809D01*
X117333333Y-91892380D02*
X117333333Y-91225714D01*
X117333333Y-91416190D02*
X117380952Y-91320952D01*
X117428571Y-91273333D01*
X117523809Y-91225714D01*
X117619047Y-91225714D01*
X118333333Y-91844761D02*
X118238095Y-91892380D01*
X118047619Y-91892380D01*
X117952380Y-91844761D01*
X117904761Y-91749523D01*
X117904761Y-91368571D01*
X117952380Y-91273333D01*
X118047619Y-91225714D01*
X118238095Y-91225714D01*
X118333333Y-91273333D01*
X118380952Y-91368571D01*
X118380952Y-91463809D01*
X117904761Y-91559047D01*
X144009523Y-84352380D02*
X143533333Y-84352380D01*
X143533333Y-83352380D01*
X120128571Y-78004761D02*
X120271428Y-78052380D01*
X120509523Y-78052380D01*
X120604761Y-78004761D01*
X120652380Y-77957142D01*
X120700000Y-77861904D01*
X120700000Y-77766666D01*
X120652380Y-77671428D01*
X120604761Y-77623809D01*
X120509523Y-77576190D01*
X120319047Y-77528571D01*
X120223809Y-77480952D01*
X120176190Y-77433333D01*
X120128571Y-77338095D01*
X120128571Y-77242857D01*
X120176190Y-77147619D01*
X120223809Y-77100000D01*
X120319047Y-77052380D01*
X120557142Y-77052380D01*
X120700000Y-77100000D01*
X121700000Y-77957142D02*
X121652380Y-78004761D01*
X121509523Y-78052380D01*
X121414285Y-78052380D01*
X121271428Y-78004761D01*
X121176190Y-77909523D01*
X121128571Y-77814285D01*
X121080952Y-77623809D01*
X121080952Y-77480952D01*
X121128571Y-77290476D01*
X121176190Y-77195238D01*
X121271428Y-77100000D01*
X121414285Y-77052380D01*
X121509523Y-77052380D01*
X121652380Y-77100000D01*
X121700000Y-77147619D01*
X122604761Y-78052380D02*
X122128571Y-78052380D01*
X122128571Y-77052380D01*
X123176190Y-78385714D02*
X123176190Y-76957142D01*
X123842857Y-78004761D02*
X123985714Y-78052380D01*
X124223809Y-78052380D01*
X124319047Y-78004761D01*
X124366666Y-77957142D01*
X124414285Y-77861904D01*
X124414285Y-77766666D01*
X124366666Y-77671428D01*
X124319047Y-77623809D01*
X124223809Y-77576190D01*
X124033333Y-77528571D01*
X123938095Y-77480952D01*
X123890476Y-77433333D01*
X123842857Y-77338095D01*
X123842857Y-77242857D01*
X123890476Y-77147619D01*
X123938095Y-77100000D01*
X124033333Y-77052380D01*
X124271428Y-77052380D01*
X124414285Y-77100000D01*
X124842857Y-78052380D02*
X124842857Y-77052380D01*
X125080952Y-77052380D01*
X125223809Y-77100000D01*
X125319047Y-77195238D01*
X125366666Y-77290476D01*
X125414285Y-77480952D01*
X125414285Y-77623809D01*
X125366666Y-77814285D01*
X125319047Y-77909523D01*
X125223809Y-78004761D01*
X125080952Y-78052380D01*
X124842857Y-78052380D01*
X125795238Y-77766666D02*
X126271428Y-77766666D01*
X125700000Y-78052380D02*
X126033333Y-77052380D01*
X126366666Y-78052380D01*
X159057142Y-49978571D02*
X158200000Y-49978571D01*
X158628571Y-49978571D02*
X158628571Y-48478571D01*
X158485714Y-48692857D01*
X158342857Y-48835714D01*
X158200000Y-48907142D01*
X159628571Y-48621428D02*
X159700000Y-48550000D01*
X159842857Y-48478571D01*
X160200000Y-48478571D01*
X160342857Y-48550000D01*
X160414285Y-48621428D01*
X160485714Y-48764285D01*
X160485714Y-48907142D01*
X160414285Y-49121428D01*
X159557142Y-49978571D01*
X160485714Y-49978571D01*
X160914285Y-48478571D02*
X161414285Y-49978571D01*
X161914285Y-48478571D01*
X163557142Y-49978571D02*
X163557142Y-48478571D01*
X164271428Y-49978571D02*
X164271428Y-48478571D01*
X165128571Y-49978571D01*
X165128571Y-48478571D01*
X126728571Y-49012380D02*
X126728571Y-49821904D01*
X126776190Y-49917142D01*
X126823809Y-49964761D01*
X126919047Y-50012380D01*
X127109523Y-50012380D01*
X127204761Y-49964761D01*
X127252380Y-49917142D01*
X127300000Y-49821904D01*
X127300000Y-49012380D01*
X128252380Y-50012380D02*
X127776190Y-50012380D01*
X127776190Y-49012380D01*
X128585714Y-50012380D02*
X128585714Y-49012380D01*
X129157142Y-50012380D01*
X129157142Y-49012380D01*
X129585714Y-49107619D02*
X129633333Y-49060000D01*
X129728571Y-49012380D01*
X129966666Y-49012380D01*
X130061904Y-49060000D01*
X130109523Y-49107619D01*
X130157142Y-49202857D01*
X130157142Y-49298095D01*
X130109523Y-49440952D01*
X129538095Y-50012380D01*
X130157142Y-50012380D01*
X130776190Y-49012380D02*
X130871428Y-49012380D01*
X130966666Y-49060000D01*
X131014285Y-49107619D01*
X131061904Y-49202857D01*
X131109523Y-49393333D01*
X131109523Y-49631428D01*
X131061904Y-49821904D01*
X131014285Y-49917142D01*
X130966666Y-49964761D01*
X130871428Y-50012380D01*
X130776190Y-50012380D01*
X130680952Y-49964761D01*
X130633333Y-49917142D01*
X130585714Y-49821904D01*
X130538095Y-49631428D01*
X130538095Y-49393333D01*
X130585714Y-49202857D01*
X130633333Y-49107619D01*
X130680952Y-49060000D01*
X130776190Y-49012380D01*
X131728571Y-49012380D02*
X131823809Y-49012380D01*
X131919047Y-49060000D01*
X131966666Y-49107619D01*
X132014285Y-49202857D01*
X132061904Y-49393333D01*
X132061904Y-49631428D01*
X132014285Y-49821904D01*
X131966666Y-49917142D01*
X131919047Y-49964761D01*
X131823809Y-50012380D01*
X131728571Y-50012380D01*
X131633333Y-49964761D01*
X131585714Y-49917142D01*
X131538095Y-49821904D01*
X131490476Y-49631428D01*
X131490476Y-49393333D01*
X131538095Y-49202857D01*
X131585714Y-49107619D01*
X131633333Y-49060000D01*
X131728571Y-49012380D01*
X132395238Y-49012380D02*
X133014285Y-49012380D01*
X132680952Y-49393333D01*
X132823809Y-49393333D01*
X132919047Y-49440952D01*
X132966666Y-49488571D01*
X133014285Y-49583809D01*
X133014285Y-49821904D01*
X132966666Y-49917142D01*
X132919047Y-49964761D01*
X132823809Y-50012380D01*
X132538095Y-50012380D01*
X132442857Y-49964761D01*
X132395238Y-49917142D01*
X133395238Y-49726666D02*
X133871428Y-49726666D01*
X133300000Y-50012380D02*
X133633333Y-49012380D01*
X133966666Y-50012380D01*
X134300000Y-50012380D02*
X134300000Y-49012380D01*
X134871428Y-50012380D01*
X134871428Y-49012380D01*
M02*
