%TF.GenerationSoftware,KiCad,Pcbnew,(5.1.4)-1*%
%TF.CreationDate,2019-11-27T14:19:05+02:00*%
%TF.ProjectId,DIVA_promicro,44495641-5f70-4726-9f6d-6963726f2e6b,rev?*%
%TF.SameCoordinates,Original*%
%TF.FileFunction,Copper,L2,Bot*%
%TF.FilePolarity,Positive*%
%FSLAX46Y46*%
G04 Gerber Fmt 4.6, Leading zero omitted, Abs format (unit mm)*
G04 Created by KiCad (PCBNEW (5.1.4)-1) date 2019-11-27 14:19:05*
%MOMM*%
%LPD*%
G04 APERTURE LIST*
%ADD10R,2.000000X2.000000*%
%ADD11C,2.000000*%
%ADD12O,2.000000X2.000000*%
%ADD13C,0.850000*%
%ADD14C,1.000000*%
%ADD15C,0.750000*%
%ADD16C,0.254000*%
G04 APERTURE END LIST*
D10*
X111770000Y-83820000D03*
X114300000Y-83820000D03*
X111835001Y-75005001D03*
D11*
X114375001Y-75005001D03*
X116915001Y-75005001D03*
X119455001Y-75005001D03*
X121995001Y-75005001D03*
X124535001Y-75005001D03*
X127075001Y-75005001D03*
X129615001Y-75005001D03*
X132155001Y-75005001D03*
X134695001Y-75005001D03*
X137235001Y-75005001D03*
X139775001Y-75005001D03*
X139775001Y-59765001D03*
X137235001Y-59765001D03*
X134695001Y-59765001D03*
X132155001Y-59765001D03*
X129615001Y-59765001D03*
X127075001Y-59765001D03*
X124535001Y-59765001D03*
X121995001Y-59765001D03*
X119455001Y-59765001D03*
X116915001Y-59765001D03*
X114375001Y-59765001D03*
X111835001Y-59765001D03*
D10*
X135890000Y-99060000D03*
D12*
X138430000Y-99060000D03*
X127080000Y-114300000D03*
X124540000Y-114300000D03*
D10*
X122000000Y-114300000D03*
X121920000Y-106680000D03*
D12*
X124460000Y-106680000D03*
X127000000Y-106680000D03*
X127000000Y-99060000D03*
X124460000Y-99060000D03*
D10*
X121920000Y-99060000D03*
X135890000Y-91440000D03*
D12*
X138430000Y-91440000D03*
D10*
X121920000Y-91440000D03*
D12*
X124460000Y-91440000D03*
X127000000Y-91440000D03*
X138430000Y-83820000D03*
D10*
X135890000Y-83820000D03*
D12*
X124460000Y-83820000D03*
D10*
X121920000Y-83820000D03*
X111760000Y-52070000D03*
D11*
X114300000Y-52070000D03*
D12*
X111760000Y-38100000D03*
D10*
X111760000Y-40640000D03*
X119380000Y-40640000D03*
D12*
X119380000Y-38100000D03*
X127000000Y-38100000D03*
D10*
X127000000Y-40640000D03*
X134620000Y-40640000D03*
D12*
X134620000Y-38100000D03*
D10*
X149860000Y-38100000D03*
D12*
X149860000Y-40640000D03*
X149860000Y-48260000D03*
D10*
X149860000Y-50800000D03*
X121920000Y-53340000D03*
D11*
X139700000Y-45720000D03*
X124460000Y-53340000D03*
X137160000Y-45720000D03*
X127000000Y-53340000D03*
X134620000Y-45720000D03*
X129540000Y-53340000D03*
X132080000Y-45720000D03*
X132080000Y-53340000D03*
X129540000Y-45720000D03*
X134620000Y-53340000D03*
X127000000Y-45720000D03*
X137160000Y-53340000D03*
X124460000Y-45720000D03*
X139700000Y-53340000D03*
X121920000Y-45720000D03*
D13*
X134695001Y-78664999D02*
X134695001Y-75005001D01*
X133205011Y-80154989D02*
X134695001Y-78664999D01*
X127080000Y-114300000D02*
X133205011Y-108174989D01*
X133205011Y-108174989D02*
X133205011Y-80154989D01*
X114300000Y-52520000D02*
X114300000Y-52070000D01*
X124460000Y-118110000D02*
X124460000Y-116840000D01*
X118110000Y-118110000D02*
X124460000Y-118110000D01*
X124460000Y-116840000D02*
X124460000Y-91440000D01*
X109220000Y-85090000D02*
X113030000Y-88900000D01*
X113030000Y-88900000D02*
X115570000Y-88900000D01*
X115570000Y-88900000D02*
X118110000Y-91440000D01*
X118110000Y-91440000D02*
X118110000Y-118110000D01*
X109220000Y-72390000D02*
X109220000Y-85090000D01*
X109280002Y-72390000D02*
X109220000Y-72390000D01*
X119455001Y-62215001D02*
X109280002Y-72390000D01*
X119455001Y-59765001D02*
X119455001Y-62215001D01*
D14*
X119455001Y-57225001D02*
X114300000Y-52070000D01*
X119455001Y-59765001D02*
X119455001Y-57225001D01*
D13*
X116915001Y-75005001D02*
X119455001Y-75005001D01*
D14*
X121920000Y-90990000D02*
X121920000Y-91440000D01*
X116915001Y-85985001D02*
X121920000Y-90990000D01*
X116915001Y-75005001D02*
X116915001Y-85985001D01*
X121920000Y-114220000D02*
X122000000Y-114300000D01*
X121920000Y-91440000D02*
X121920000Y-114220000D01*
X139700000Y-53340000D02*
X142240000Y-50800000D01*
X142240000Y-50800000D02*
X149860000Y-50800000D01*
X143510000Y-57150000D02*
X139700000Y-53340000D01*
X143510000Y-101600000D02*
X143510000Y-57150000D01*
X140970000Y-104140000D02*
X143510000Y-101600000D01*
X137160000Y-104140000D02*
X140970000Y-104140000D01*
X135890000Y-83820000D02*
X135890000Y-102870000D01*
X135890000Y-102870000D02*
X137160000Y-104140000D01*
X111760000Y-50070000D02*
X111760000Y-52070000D01*
X112300000Y-49530000D02*
X111760000Y-50070000D01*
X139700000Y-49530000D02*
X112300000Y-49530000D01*
X139700000Y-53340000D02*
X139700000Y-49530000D01*
X111760000Y-52070000D02*
X111760000Y-55510000D01*
X114375001Y-58125001D02*
X114375001Y-59765001D01*
X111760000Y-55510000D02*
X114375001Y-58125001D01*
D15*
X139775001Y-75005001D02*
X139775001Y-76136371D01*
D13*
X139775001Y-76136371D02*
X140970000Y-77331370D01*
X140970000Y-88900000D02*
X138430000Y-91440000D01*
X140970000Y-77331370D02*
X140970000Y-88900000D01*
X137235001Y-75005001D02*
X137235001Y-77545001D01*
X138430000Y-78740000D02*
X138430000Y-81280000D01*
X137235001Y-77545001D02*
X138430000Y-78740000D01*
X138430000Y-81280000D02*
X138430000Y-83820000D01*
X114375001Y-75005001D02*
X114375001Y-83744999D01*
X114375001Y-83744999D02*
X114300000Y-83820000D01*
X124535001Y-83744999D02*
X124460000Y-83820000D01*
X124535001Y-75005001D02*
X124535001Y-83744999D01*
X121995001Y-83744999D02*
X121920000Y-83820000D01*
X121995001Y-75005001D02*
X121995001Y-83744999D01*
D14*
X149860000Y-48260000D02*
X142240000Y-48260000D01*
X142240000Y-48260000D02*
X139700000Y-45720000D01*
X149860000Y-48260000D02*
X149860000Y-38100000D01*
X149410000Y-48260000D02*
X139250000Y-38100000D01*
X149860000Y-48260000D02*
X149410000Y-48260000D01*
X139250000Y-38100000D02*
X111760000Y-38100000D01*
D13*
X111760000Y-40640000D02*
X114300000Y-40640000D01*
X119380000Y-45720000D02*
X121920000Y-45720000D01*
X114300000Y-40640000D02*
X119380000Y-45720000D01*
X129540000Y-59690000D02*
X129615001Y-59765001D01*
X129540000Y-53340000D02*
X129540000Y-59690000D01*
X127000000Y-59690000D02*
X127075001Y-59765001D01*
X127000000Y-53340000D02*
X127000000Y-59690000D01*
X124460000Y-59690000D02*
X124535001Y-59765001D01*
X124460000Y-53340000D02*
X124460000Y-59690000D01*
X121920000Y-59690000D02*
X121995001Y-59765001D01*
X121920000Y-53340000D02*
X121920000Y-59690000D01*
X142020010Y-95469990D02*
X138430000Y-99060000D01*
X142020010Y-71044223D02*
X142020010Y-95469990D01*
X132155001Y-61179214D02*
X142020010Y-71044223D01*
X132155001Y-59765001D02*
X132155001Y-61179214D01*
X132155001Y-101524999D02*
X127000000Y-106680000D01*
X132155001Y-75005001D02*
X132155001Y-101524999D01*
D15*
X129615001Y-76136371D02*
X129540000Y-76211372D01*
X129615001Y-75005001D02*
X129615001Y-76136371D01*
D13*
X129615001Y-96444999D02*
X127000000Y-99060000D01*
X129615001Y-76136371D02*
X129615001Y-96444999D01*
X127075001Y-91364999D02*
X127000000Y-91440000D01*
X127075001Y-75005001D02*
X127075001Y-91364999D01*
X119380000Y-40640000D02*
X121920000Y-40640000D01*
X124460000Y-43180000D02*
X124460000Y-45720000D01*
X121920000Y-40640000D02*
X124460000Y-43180000D01*
X127000000Y-40640000D02*
X127000000Y-45720000D01*
X134620000Y-40640000D02*
X132080000Y-40640000D01*
X129540000Y-43180000D02*
X129540000Y-45720000D01*
X132080000Y-40640000D02*
X129540000Y-43180000D01*
D16*
G36*
X166690001Y-121264950D02*
G01*
X102260000Y-121260051D01*
X102260000Y-72390000D01*
X108154872Y-72390000D01*
X108160000Y-72442066D01*
X108160001Y-85037934D01*
X108154873Y-85090000D01*
X108175339Y-85297796D01*
X108235950Y-85497606D01*
X108235951Y-85497607D01*
X108334379Y-85681753D01*
X108466842Y-85843159D01*
X108507284Y-85876349D01*
X112243650Y-89612716D01*
X112276841Y-89653159D01*
X112438247Y-89785622D01*
X112518760Y-89828657D01*
X112622393Y-89884050D01*
X112822203Y-89944662D01*
X112840319Y-89946446D01*
X112977934Y-89960000D01*
X112977942Y-89960000D01*
X113030000Y-89965127D01*
X113082058Y-89960000D01*
X115130935Y-89960000D01*
X117050000Y-91879067D01*
X117050001Y-118057924D01*
X117044872Y-118110000D01*
X117065338Y-118317796D01*
X117125950Y-118517607D01*
X117224378Y-118701753D01*
X117356841Y-118863159D01*
X117518247Y-118995622D01*
X117702393Y-119094050D01*
X117902204Y-119154662D01*
X118057934Y-119170000D01*
X118110000Y-119175128D01*
X118162066Y-119170000D01*
X124407934Y-119170000D01*
X124460000Y-119175128D01*
X124512066Y-119170000D01*
X124667796Y-119154662D01*
X124867607Y-119094050D01*
X125051753Y-118995622D01*
X125213159Y-118863159D01*
X125345622Y-118701753D01*
X125444050Y-118517607D01*
X125504662Y-118317796D01*
X125525128Y-118110000D01*
X125520000Y-118057934D01*
X125520000Y-115610842D01*
X125701714Y-115461714D01*
X125810000Y-115329767D01*
X125918286Y-115461714D01*
X126167248Y-115666031D01*
X126451285Y-115817852D01*
X126759484Y-115911343D01*
X126999678Y-115935000D01*
X127160322Y-115935000D01*
X127400516Y-115911343D01*
X127708715Y-115817852D01*
X127992752Y-115666031D01*
X128241714Y-115461714D01*
X128446031Y-115212752D01*
X128597852Y-114928715D01*
X128691343Y-114620516D01*
X128722911Y-114300000D01*
X128710014Y-114169051D01*
X133917728Y-108961338D01*
X133958170Y-108928148D01*
X134090633Y-108766742D01*
X134189061Y-108582596D01*
X134249673Y-108382785D01*
X134265011Y-108227055D01*
X134265011Y-108227047D01*
X134270138Y-108174989D01*
X134265011Y-108122931D01*
X134265011Y-100187195D01*
X134300498Y-100304180D01*
X134359463Y-100414494D01*
X134438815Y-100511185D01*
X134535506Y-100590537D01*
X134645820Y-100649502D01*
X134765518Y-100685812D01*
X134890000Y-100698072D01*
X135604250Y-100695000D01*
X135763000Y-100536250D01*
X135763000Y-99187000D01*
X135743000Y-99187000D01*
X135743000Y-98933000D01*
X135763000Y-98933000D01*
X135763000Y-97583750D01*
X135604250Y-97425000D01*
X134890000Y-97421928D01*
X134765518Y-97434188D01*
X134645820Y-97470498D01*
X134535506Y-97529463D01*
X134438815Y-97608815D01*
X134359463Y-97705506D01*
X134300498Y-97815820D01*
X134265011Y-97932805D01*
X134265011Y-92567195D01*
X134300498Y-92684180D01*
X134359463Y-92794494D01*
X134438815Y-92891185D01*
X134535506Y-92970537D01*
X134645820Y-93029502D01*
X134765518Y-93065812D01*
X134890000Y-93078072D01*
X135604250Y-93075000D01*
X135763000Y-92916250D01*
X135763000Y-91567000D01*
X135743000Y-91567000D01*
X135743000Y-91313000D01*
X135763000Y-91313000D01*
X135763000Y-89963750D01*
X135604250Y-89805000D01*
X134890000Y-89801928D01*
X134765518Y-89814188D01*
X134645820Y-89850498D01*
X134535506Y-89909463D01*
X134438815Y-89988815D01*
X134359463Y-90085506D01*
X134300498Y-90195820D01*
X134265011Y-90312805D01*
X134265011Y-84947195D01*
X134300498Y-85064180D01*
X134359463Y-85174494D01*
X134438815Y-85271185D01*
X134535506Y-85350537D01*
X134645820Y-85409502D01*
X134765518Y-85445812D01*
X134890000Y-85458072D01*
X135604250Y-85455000D01*
X135763000Y-85296250D01*
X135763000Y-83947000D01*
X135743000Y-83947000D01*
X135743000Y-83693000D01*
X135763000Y-83693000D01*
X135763000Y-82343750D01*
X135604250Y-82185000D01*
X134890000Y-82181928D01*
X134765518Y-82194188D01*
X134645820Y-82230498D01*
X134535506Y-82289463D01*
X134438815Y-82368815D01*
X134359463Y-82465506D01*
X134300498Y-82575820D01*
X134265011Y-82692805D01*
X134265011Y-80594054D01*
X135407723Y-79451344D01*
X135448160Y-79418158D01*
X135481346Y-79377721D01*
X135481350Y-79377717D01*
X135580622Y-79256753D01*
X135679051Y-79072606D01*
X135679051Y-79072605D01*
X135739663Y-78872795D01*
X135755001Y-78717065D01*
X135755001Y-78717056D01*
X135760128Y-78665000D01*
X135755001Y-78612944D01*
X135755001Y-76257240D01*
X135964988Y-76047253D01*
X135965001Y-76047234D01*
X135965014Y-76047253D01*
X136175001Y-76257240D01*
X136175002Y-77492936D01*
X136169874Y-77545001D01*
X136190340Y-77752797D01*
X136250951Y-77952607D01*
X136315434Y-78073246D01*
X136349380Y-78136754D01*
X136481843Y-78298160D01*
X136522285Y-78331350D01*
X137370000Y-79179066D01*
X137370001Y-81227925D01*
X137370000Y-81227935D01*
X137370000Y-82403927D01*
X137341185Y-82368815D01*
X137244494Y-82289463D01*
X137134180Y-82230498D01*
X137014482Y-82194188D01*
X136890000Y-82181928D01*
X136175750Y-82185000D01*
X136017000Y-82343750D01*
X136017000Y-83693000D01*
X136037000Y-83693000D01*
X136037000Y-83947000D01*
X136017000Y-83947000D01*
X136017000Y-85296250D01*
X136175750Y-85455000D01*
X136890000Y-85458072D01*
X137014482Y-85445812D01*
X137134180Y-85409502D01*
X137244494Y-85350537D01*
X137341185Y-85271185D01*
X137420537Y-85174494D01*
X137445739Y-85127345D01*
X137517248Y-85186031D01*
X137801285Y-85337852D01*
X138109484Y-85431343D01*
X138349678Y-85455000D01*
X138510322Y-85455000D01*
X138750516Y-85431343D01*
X139058715Y-85337852D01*
X139342752Y-85186031D01*
X139591714Y-84981714D01*
X139796031Y-84732752D01*
X139910001Y-84519530D01*
X139910001Y-88460932D01*
X138560948Y-89809986D01*
X138510322Y-89805000D01*
X138349678Y-89805000D01*
X138109484Y-89828657D01*
X137801285Y-89922148D01*
X137517248Y-90073969D01*
X137445739Y-90132655D01*
X137420537Y-90085506D01*
X137341185Y-89988815D01*
X137244494Y-89909463D01*
X137134180Y-89850498D01*
X137014482Y-89814188D01*
X136890000Y-89801928D01*
X136175750Y-89805000D01*
X136017000Y-89963750D01*
X136017000Y-91313000D01*
X136037000Y-91313000D01*
X136037000Y-91567000D01*
X136017000Y-91567000D01*
X136017000Y-92916250D01*
X136175750Y-93075000D01*
X136890000Y-93078072D01*
X137014482Y-93065812D01*
X137134180Y-93029502D01*
X137244494Y-92970537D01*
X137341185Y-92891185D01*
X137420537Y-92794494D01*
X137445739Y-92747345D01*
X137517248Y-92806031D01*
X137801285Y-92957852D01*
X138109484Y-93051343D01*
X138349678Y-93075000D01*
X138510322Y-93075000D01*
X138750516Y-93051343D01*
X139058715Y-92957852D01*
X139342752Y-92806031D01*
X139591714Y-92601714D01*
X139796031Y-92352752D01*
X139947852Y-92068715D01*
X140041343Y-91760516D01*
X140072911Y-91440000D01*
X140060014Y-91309052D01*
X140960011Y-90409056D01*
X140960011Y-95030923D01*
X138560948Y-97429986D01*
X138510322Y-97425000D01*
X138349678Y-97425000D01*
X138109484Y-97448657D01*
X137801285Y-97542148D01*
X137517248Y-97693969D01*
X137445739Y-97752655D01*
X137420537Y-97705506D01*
X137341185Y-97608815D01*
X137244494Y-97529463D01*
X137134180Y-97470498D01*
X137014482Y-97434188D01*
X136890000Y-97421928D01*
X136175750Y-97425000D01*
X136017000Y-97583750D01*
X136017000Y-98933000D01*
X136037000Y-98933000D01*
X136037000Y-99187000D01*
X136017000Y-99187000D01*
X136017000Y-100536250D01*
X136175750Y-100695000D01*
X136890000Y-100698072D01*
X137014482Y-100685812D01*
X137134180Y-100649502D01*
X137244494Y-100590537D01*
X137341185Y-100511185D01*
X137420537Y-100414494D01*
X137445739Y-100367345D01*
X137517248Y-100426031D01*
X137801285Y-100577852D01*
X138109484Y-100671343D01*
X138349678Y-100695000D01*
X138510322Y-100695000D01*
X138750516Y-100671343D01*
X139058715Y-100577852D01*
X139342752Y-100426031D01*
X139591714Y-100221714D01*
X139796031Y-99972752D01*
X139947852Y-99688715D01*
X140041343Y-99380516D01*
X140072911Y-99060000D01*
X140060014Y-98929052D01*
X142732727Y-96256339D01*
X142773169Y-96223149D01*
X142905632Y-96061743D01*
X143004060Y-95877597D01*
X143064672Y-95677786D01*
X143080010Y-95522056D01*
X143080010Y-95522048D01*
X143085137Y-95469990D01*
X143080010Y-95417932D01*
X143080010Y-71096289D01*
X143085138Y-71044223D01*
X143064672Y-70836426D01*
X143004060Y-70636616D01*
X142905631Y-70452469D01*
X142806359Y-70331506D01*
X142773169Y-70291064D01*
X142732727Y-70257874D01*
X133353547Y-60878694D01*
X133424988Y-60807253D01*
X133425001Y-60807234D01*
X133425014Y-60807253D01*
X133652749Y-61034988D01*
X133920538Y-61213919D01*
X134218089Y-61337169D01*
X134533968Y-61400001D01*
X134856034Y-61400001D01*
X135171913Y-61337169D01*
X135469464Y-61213919D01*
X135737253Y-61034988D01*
X135964988Y-60807253D01*
X135965001Y-60807234D01*
X135965014Y-60807253D01*
X136192749Y-61034988D01*
X136460538Y-61213919D01*
X136758089Y-61337169D01*
X137073968Y-61400001D01*
X137396034Y-61400001D01*
X137711913Y-61337169D01*
X138009464Y-61213919D01*
X138277253Y-61034988D01*
X138504988Y-60807253D01*
X138505001Y-60807234D01*
X138505014Y-60807253D01*
X138732749Y-61034988D01*
X139000538Y-61213919D01*
X139298089Y-61337169D01*
X139613968Y-61400001D01*
X139936034Y-61400001D01*
X140251913Y-61337169D01*
X140549464Y-61213919D01*
X140817253Y-61034988D01*
X141044988Y-60807253D01*
X141223919Y-60539464D01*
X141347169Y-60241913D01*
X141410001Y-59926034D01*
X141410001Y-59603968D01*
X141347169Y-59288089D01*
X141223919Y-58990538D01*
X141044988Y-58722749D01*
X140817253Y-58495014D01*
X140549464Y-58316083D01*
X140251913Y-58192833D01*
X139936034Y-58130001D01*
X139613968Y-58130001D01*
X139298089Y-58192833D01*
X139000538Y-58316083D01*
X138732749Y-58495014D01*
X138505014Y-58722749D01*
X138505001Y-58722768D01*
X138504988Y-58722749D01*
X138277253Y-58495014D01*
X138009464Y-58316083D01*
X137711913Y-58192833D01*
X137396034Y-58130001D01*
X137073968Y-58130001D01*
X136758089Y-58192833D01*
X136460538Y-58316083D01*
X136192749Y-58495014D01*
X135965014Y-58722749D01*
X135965001Y-58722768D01*
X135964988Y-58722749D01*
X135737253Y-58495014D01*
X135469464Y-58316083D01*
X135171913Y-58192833D01*
X134856034Y-58130001D01*
X134533968Y-58130001D01*
X134218089Y-58192833D01*
X133920538Y-58316083D01*
X133652749Y-58495014D01*
X133425014Y-58722749D01*
X133425001Y-58722768D01*
X133424988Y-58722749D01*
X133197253Y-58495014D01*
X132929464Y-58316083D01*
X132631913Y-58192833D01*
X132316034Y-58130001D01*
X131993968Y-58130001D01*
X131678089Y-58192833D01*
X131380538Y-58316083D01*
X131112749Y-58495014D01*
X130885014Y-58722749D01*
X130885001Y-58722768D01*
X130884988Y-58722749D01*
X130657253Y-58495014D01*
X130600000Y-58456759D01*
X130600000Y-54592239D01*
X130809987Y-54382252D01*
X130810000Y-54382233D01*
X130810013Y-54382252D01*
X131037748Y-54609987D01*
X131305537Y-54788918D01*
X131603088Y-54912168D01*
X131918967Y-54975000D01*
X132241033Y-54975000D01*
X132556912Y-54912168D01*
X132854463Y-54788918D01*
X133122252Y-54609987D01*
X133349987Y-54382252D01*
X133350000Y-54382233D01*
X133350013Y-54382252D01*
X133577748Y-54609987D01*
X133845537Y-54788918D01*
X134143088Y-54912168D01*
X134458967Y-54975000D01*
X134781033Y-54975000D01*
X135096912Y-54912168D01*
X135394463Y-54788918D01*
X135662252Y-54609987D01*
X135889987Y-54382252D01*
X135890000Y-54382233D01*
X135890013Y-54382252D01*
X136117748Y-54609987D01*
X136385537Y-54788918D01*
X136683088Y-54912168D01*
X136998967Y-54975000D01*
X137321033Y-54975000D01*
X137636912Y-54912168D01*
X137934463Y-54788918D01*
X138202252Y-54609987D01*
X138336826Y-54475413D01*
X138744192Y-54475413D01*
X138839956Y-54739814D01*
X139129571Y-54880704D01*
X139441108Y-54962384D01*
X139762595Y-54981718D01*
X140081675Y-54937961D01*
X140386088Y-54832795D01*
X140560044Y-54739814D01*
X140655808Y-54475413D01*
X139700000Y-53519605D01*
X138744192Y-54475413D01*
X138336826Y-54475413D01*
X138429987Y-54382252D01*
X138502720Y-54273400D01*
X138564587Y-54295808D01*
X139520395Y-53340000D01*
X139879605Y-53340000D01*
X140835413Y-54295808D01*
X141099814Y-54200044D01*
X141240704Y-53910429D01*
X141322384Y-53598892D01*
X141341718Y-53277405D01*
X141297961Y-52958325D01*
X141192795Y-52653912D01*
X141099814Y-52479956D01*
X140835413Y-52384192D01*
X139879605Y-53340000D01*
X139520395Y-53340000D01*
X138564587Y-52384192D01*
X138502720Y-52406600D01*
X138429987Y-52297748D01*
X138336826Y-52204587D01*
X138744192Y-52204587D01*
X139700000Y-53160395D01*
X140655808Y-52204587D01*
X140560044Y-51940186D01*
X140271877Y-51800000D01*
X148221928Y-51800000D01*
X148234188Y-51924482D01*
X148270498Y-52044180D01*
X148329463Y-52154494D01*
X148408815Y-52251185D01*
X148505506Y-52330537D01*
X148615820Y-52389502D01*
X148735518Y-52425812D01*
X148860000Y-52438072D01*
X149574250Y-52435000D01*
X149733000Y-52276250D01*
X149733000Y-50927000D01*
X149987000Y-50927000D01*
X149987000Y-52276250D01*
X150145750Y-52435000D01*
X150860000Y-52438072D01*
X150984482Y-52425812D01*
X151104180Y-52389502D01*
X151214494Y-52330537D01*
X151311185Y-52251185D01*
X151390537Y-52154494D01*
X151449502Y-52044180D01*
X151485812Y-51924482D01*
X151498072Y-51800000D01*
X151495000Y-51085750D01*
X151336250Y-50927000D01*
X149987000Y-50927000D01*
X149733000Y-50927000D01*
X148383750Y-50927000D01*
X148225000Y-51085750D01*
X148221928Y-51800000D01*
X140271877Y-51800000D01*
X140270429Y-51799296D01*
X139958892Y-51717616D01*
X139637405Y-51698282D01*
X139318325Y-51742039D01*
X139013912Y-51847205D01*
X138839956Y-51940186D01*
X138744192Y-52204587D01*
X138336826Y-52204587D01*
X138202252Y-52070013D01*
X137934463Y-51891082D01*
X137636912Y-51767832D01*
X137321033Y-51705000D01*
X136998967Y-51705000D01*
X136683088Y-51767832D01*
X136385537Y-51891082D01*
X136117748Y-52070013D01*
X135890013Y-52297748D01*
X135890000Y-52297767D01*
X135889987Y-52297748D01*
X135662252Y-52070013D01*
X135394463Y-51891082D01*
X135096912Y-51767832D01*
X134781033Y-51705000D01*
X134458967Y-51705000D01*
X134143088Y-51767832D01*
X133845537Y-51891082D01*
X133577748Y-52070013D01*
X133350013Y-52297748D01*
X133350000Y-52297767D01*
X133349987Y-52297748D01*
X133122252Y-52070013D01*
X132854463Y-51891082D01*
X132556912Y-51767832D01*
X132241033Y-51705000D01*
X131918967Y-51705000D01*
X131603088Y-51767832D01*
X131305537Y-51891082D01*
X131037748Y-52070013D01*
X130810013Y-52297748D01*
X130810000Y-52297767D01*
X130809987Y-52297748D01*
X130582252Y-52070013D01*
X130314463Y-51891082D01*
X130016912Y-51767832D01*
X129701033Y-51705000D01*
X129378967Y-51705000D01*
X129063088Y-51767832D01*
X128765537Y-51891082D01*
X128497748Y-52070013D01*
X128270013Y-52297748D01*
X128270000Y-52297767D01*
X128269987Y-52297748D01*
X128042252Y-52070013D01*
X127774463Y-51891082D01*
X127476912Y-51767832D01*
X127161033Y-51705000D01*
X126838967Y-51705000D01*
X126523088Y-51767832D01*
X126225537Y-51891082D01*
X125957748Y-52070013D01*
X125730013Y-52297748D01*
X125730000Y-52297767D01*
X125729987Y-52297748D01*
X125502252Y-52070013D01*
X125234463Y-51891082D01*
X124936912Y-51767832D01*
X124621033Y-51705000D01*
X124298967Y-51705000D01*
X123983088Y-51767832D01*
X123685537Y-51891082D01*
X123475191Y-52031630D01*
X123450537Y-51985506D01*
X123371185Y-51888815D01*
X123274494Y-51809463D01*
X123164180Y-51750498D01*
X123044482Y-51714188D01*
X122920000Y-51701928D01*
X120920000Y-51701928D01*
X120795518Y-51714188D01*
X120675820Y-51750498D01*
X120565506Y-51809463D01*
X120468815Y-51888815D01*
X120389463Y-51985506D01*
X120330498Y-52095820D01*
X120294188Y-52215518D01*
X120281928Y-52340000D01*
X120281928Y-54340000D01*
X120294188Y-54464482D01*
X120330498Y-54584180D01*
X120389463Y-54694494D01*
X120468815Y-54791185D01*
X120565506Y-54870537D01*
X120675820Y-54929502D01*
X120795518Y-54965812D01*
X120860000Y-54972163D01*
X120860001Y-58587762D01*
X120725014Y-58722749D01*
X120725001Y-58722768D01*
X120724988Y-58722749D01*
X120590001Y-58587762D01*
X120590001Y-57280742D01*
X120595491Y-57225000D01*
X120590001Y-57169258D01*
X120590001Y-57169249D01*
X120573578Y-57002502D01*
X120508677Y-56788554D01*
X120403285Y-56591378D01*
X120261450Y-56418552D01*
X120218142Y-56383010D01*
X115935000Y-52099869D01*
X115935000Y-51908967D01*
X115872168Y-51593088D01*
X115748918Y-51295537D01*
X115569987Y-51027748D01*
X115342252Y-50800013D01*
X115074463Y-50621082D01*
X114776912Y-50497832D01*
X114461033Y-50435000D01*
X114138967Y-50435000D01*
X113823088Y-50497832D01*
X113525537Y-50621082D01*
X113315191Y-50761630D01*
X113290537Y-50715506D01*
X113211185Y-50618815D01*
X113114494Y-50539463D01*
X113004180Y-50480498D01*
X112884482Y-50444188D01*
X112760000Y-50431928D01*
X112045750Y-50435000D01*
X111887000Y-50593750D01*
X111887000Y-51943000D01*
X111907000Y-51943000D01*
X111907000Y-52197000D01*
X111887000Y-52197000D01*
X111887000Y-53546250D01*
X112045750Y-53705000D01*
X112760000Y-53708072D01*
X112884482Y-53695812D01*
X113004180Y-53659502D01*
X113114494Y-53600537D01*
X113211185Y-53521185D01*
X113290537Y-53424494D01*
X113315191Y-53378370D01*
X113525537Y-53518918D01*
X113823088Y-53642168D01*
X114138967Y-53705000D01*
X114329869Y-53705000D01*
X118320002Y-57695134D01*
X118320001Y-58587762D01*
X118185014Y-58722749D01*
X118185001Y-58722768D01*
X118184988Y-58722749D01*
X117957253Y-58495014D01*
X117689464Y-58316083D01*
X117391913Y-58192833D01*
X117076034Y-58130001D01*
X116753968Y-58130001D01*
X116438089Y-58192833D01*
X116140538Y-58316083D01*
X115872749Y-58495014D01*
X115645014Y-58722749D01*
X115645001Y-58722768D01*
X115644988Y-58722749D01*
X115417253Y-58495014D01*
X115149464Y-58316083D01*
X114851913Y-58192833D01*
X114536034Y-58130001D01*
X114213968Y-58130001D01*
X113898089Y-58192833D01*
X113600538Y-58316083D01*
X113332749Y-58495014D01*
X113105014Y-58722749D01*
X113105001Y-58722768D01*
X113104988Y-58722749D01*
X112877253Y-58495014D01*
X112609464Y-58316083D01*
X112311913Y-58192833D01*
X111996034Y-58130001D01*
X111673968Y-58130001D01*
X111358089Y-58192833D01*
X111060538Y-58316083D01*
X110792749Y-58495014D01*
X110565014Y-58722749D01*
X110386083Y-58990538D01*
X110262833Y-59288089D01*
X110200001Y-59603968D01*
X110200001Y-59926034D01*
X110262833Y-60241913D01*
X110386083Y-60539464D01*
X110565014Y-60807253D01*
X110792749Y-61034988D01*
X111060538Y-61213919D01*
X111358089Y-61337169D01*
X111673968Y-61400001D01*
X111996034Y-61400001D01*
X112311913Y-61337169D01*
X112609464Y-61213919D01*
X112877253Y-61034988D01*
X113104988Y-60807253D01*
X113105001Y-60807234D01*
X113105014Y-60807253D01*
X113332749Y-61034988D01*
X113600538Y-61213919D01*
X113898089Y-61337169D01*
X114213968Y-61400001D01*
X114536034Y-61400001D01*
X114851913Y-61337169D01*
X115149464Y-61213919D01*
X115417253Y-61034988D01*
X115644988Y-60807253D01*
X115645001Y-60807234D01*
X115645014Y-60807253D01*
X115872749Y-61034988D01*
X116140538Y-61213919D01*
X116438089Y-61337169D01*
X116753968Y-61400001D01*
X117076034Y-61400001D01*
X117391913Y-61337169D01*
X117689464Y-61213919D01*
X117957253Y-61034988D01*
X118184988Y-60807253D01*
X118185001Y-60807234D01*
X118185014Y-60807253D01*
X118395002Y-61017241D01*
X118395002Y-61775934D01*
X108710552Y-71460385D01*
X108628247Y-71504378D01*
X108466841Y-71636841D01*
X108334378Y-71798247D01*
X108235950Y-71982393D01*
X108175338Y-72182204D01*
X108154872Y-72390000D01*
X102260000Y-72390000D01*
X102260000Y-53070000D01*
X110121928Y-53070000D01*
X110134188Y-53194482D01*
X110170498Y-53314180D01*
X110229463Y-53424494D01*
X110308815Y-53521185D01*
X110405506Y-53600537D01*
X110515820Y-53659502D01*
X110635518Y-53695812D01*
X110760000Y-53708072D01*
X111474250Y-53705000D01*
X111633000Y-53546250D01*
X111633000Y-52197000D01*
X110283750Y-52197000D01*
X110125000Y-52355750D01*
X110121928Y-53070000D01*
X102260000Y-53070000D01*
X102260000Y-51070000D01*
X110121928Y-51070000D01*
X110125000Y-51784250D01*
X110283750Y-51943000D01*
X111633000Y-51943000D01*
X111633000Y-50593750D01*
X111474250Y-50435000D01*
X110760000Y-50431928D01*
X110635518Y-50444188D01*
X110515820Y-50480498D01*
X110405506Y-50539463D01*
X110308815Y-50618815D01*
X110229463Y-50715506D01*
X110170498Y-50825820D01*
X110134188Y-50945518D01*
X110121928Y-51070000D01*
X102260000Y-51070000D01*
X102260000Y-38100000D01*
X110117089Y-38100000D01*
X110148657Y-38420516D01*
X110242148Y-38728715D01*
X110393969Y-39012752D01*
X110452655Y-39084261D01*
X110405506Y-39109463D01*
X110308815Y-39188815D01*
X110229463Y-39285506D01*
X110170498Y-39395820D01*
X110134188Y-39515518D01*
X110121928Y-39640000D01*
X110121928Y-41640000D01*
X110134188Y-41764482D01*
X110170498Y-41884180D01*
X110229463Y-41994494D01*
X110308815Y-42091185D01*
X110405506Y-42170537D01*
X110515820Y-42229502D01*
X110635518Y-42265812D01*
X110760000Y-42278072D01*
X112760000Y-42278072D01*
X112884482Y-42265812D01*
X113004180Y-42229502D01*
X113114494Y-42170537D01*
X113211185Y-42091185D01*
X113290537Y-41994494D01*
X113349502Y-41884180D01*
X113385812Y-41764482D01*
X113392163Y-41700000D01*
X113860935Y-41700000D01*
X118593651Y-46432717D01*
X118626841Y-46473159D01*
X118788247Y-46605622D01*
X118972393Y-46704050D01*
X119172204Y-46764662D01*
X119327934Y-46780000D01*
X119327944Y-46780000D01*
X119380000Y-46785127D01*
X119432056Y-46780000D01*
X120667761Y-46780000D01*
X120877748Y-46989987D01*
X121145537Y-47168918D01*
X121443088Y-47292168D01*
X121758967Y-47355000D01*
X122081033Y-47355000D01*
X122396912Y-47292168D01*
X122694463Y-47168918D01*
X122962252Y-46989987D01*
X123189987Y-46762252D01*
X123190000Y-46762233D01*
X123190013Y-46762252D01*
X123417748Y-46989987D01*
X123685537Y-47168918D01*
X123983088Y-47292168D01*
X124298967Y-47355000D01*
X124621033Y-47355000D01*
X124936912Y-47292168D01*
X125234463Y-47168918D01*
X125502252Y-46989987D01*
X125729987Y-46762252D01*
X125730000Y-46762233D01*
X125730013Y-46762252D01*
X125957748Y-46989987D01*
X126225537Y-47168918D01*
X126523088Y-47292168D01*
X126838967Y-47355000D01*
X127161033Y-47355000D01*
X127476912Y-47292168D01*
X127774463Y-47168918D01*
X128042252Y-46989987D01*
X128269987Y-46762252D01*
X128270000Y-46762233D01*
X128270013Y-46762252D01*
X128497748Y-46989987D01*
X128765537Y-47168918D01*
X129063088Y-47292168D01*
X129378967Y-47355000D01*
X129701033Y-47355000D01*
X130016912Y-47292168D01*
X130314463Y-47168918D01*
X130582252Y-46989987D01*
X130809987Y-46762252D01*
X130810000Y-46762233D01*
X130810013Y-46762252D01*
X131037748Y-46989987D01*
X131305537Y-47168918D01*
X131603088Y-47292168D01*
X131918967Y-47355000D01*
X132241033Y-47355000D01*
X132556912Y-47292168D01*
X132854463Y-47168918D01*
X133122252Y-46989987D01*
X133349987Y-46762252D01*
X133350000Y-46762233D01*
X133350013Y-46762252D01*
X133577748Y-46989987D01*
X133845537Y-47168918D01*
X134143088Y-47292168D01*
X134458967Y-47355000D01*
X134781033Y-47355000D01*
X135096912Y-47292168D01*
X135394463Y-47168918D01*
X135662252Y-46989987D01*
X135889987Y-46762252D01*
X135890000Y-46762233D01*
X135890013Y-46762252D01*
X136117748Y-46989987D01*
X136385537Y-47168918D01*
X136683088Y-47292168D01*
X136998967Y-47355000D01*
X137321033Y-47355000D01*
X137636912Y-47292168D01*
X137934463Y-47168918D01*
X138202252Y-46989987D01*
X138429987Y-46762252D01*
X138430000Y-46762233D01*
X138430013Y-46762252D01*
X138657748Y-46989987D01*
X138925537Y-47168918D01*
X139223088Y-47292168D01*
X139538967Y-47355000D01*
X139729869Y-47355000D01*
X141398009Y-49023141D01*
X141433551Y-49066449D01*
X141606377Y-49208284D01*
X141803553Y-49313676D01*
X142017501Y-49378577D01*
X142184248Y-49395000D01*
X142184257Y-49395000D01*
X142239999Y-49400490D01*
X142295741Y-49395000D01*
X148370912Y-49395000D01*
X148329463Y-49445506D01*
X148270498Y-49555820D01*
X148234188Y-49675518D01*
X148221928Y-49800000D01*
X148225000Y-50514250D01*
X148383750Y-50673000D01*
X149733000Y-50673000D01*
X149733000Y-50653000D01*
X149987000Y-50653000D01*
X149987000Y-50673000D01*
X151336250Y-50673000D01*
X151495000Y-50514250D01*
X151498072Y-49800000D01*
X151485812Y-49675518D01*
X151449502Y-49555820D01*
X151390537Y-49445506D01*
X151311185Y-49348815D01*
X151214494Y-49269463D01*
X151167345Y-49244261D01*
X151226031Y-49172752D01*
X151377852Y-48888715D01*
X151471343Y-48580516D01*
X151502911Y-48260000D01*
X151471343Y-47939484D01*
X151377852Y-47631285D01*
X151226031Y-47347248D01*
X151021714Y-47098286D01*
X150995000Y-47076362D01*
X150995000Y-41823638D01*
X151021714Y-41801714D01*
X151226031Y-41552752D01*
X151377852Y-41268715D01*
X151471343Y-40960516D01*
X151502911Y-40640000D01*
X151471343Y-40319484D01*
X151377852Y-40011285D01*
X151226031Y-39727248D01*
X151167345Y-39655739D01*
X151214494Y-39630537D01*
X151311185Y-39551185D01*
X151390537Y-39454494D01*
X151449502Y-39344180D01*
X151485812Y-39224482D01*
X151498072Y-39100000D01*
X151498072Y-37100000D01*
X151485812Y-36975518D01*
X151449502Y-36855820D01*
X151390537Y-36745506D01*
X151311185Y-36648815D01*
X151214494Y-36569463D01*
X151104180Y-36510498D01*
X150984482Y-36474188D01*
X150860000Y-36461928D01*
X148860000Y-36461928D01*
X148735518Y-36474188D01*
X148615820Y-36510498D01*
X148505506Y-36569463D01*
X148408815Y-36648815D01*
X148329463Y-36745506D01*
X148270498Y-36855820D01*
X148234188Y-36975518D01*
X148221928Y-37100000D01*
X148221928Y-39100000D01*
X148234188Y-39224482D01*
X148270498Y-39344180D01*
X148329463Y-39454494D01*
X148408815Y-39551185D01*
X148505506Y-39630537D01*
X148552655Y-39655739D01*
X148493969Y-39727248D01*
X148342148Y-40011285D01*
X148248657Y-40319484D01*
X148217089Y-40640000D01*
X148248657Y-40960516D01*
X148342148Y-41268715D01*
X148493969Y-41552752D01*
X148698286Y-41801714D01*
X148725001Y-41823638D01*
X148725000Y-45969868D01*
X140091996Y-37336865D01*
X140056449Y-37293551D01*
X139883623Y-37151716D01*
X139686447Y-37046324D01*
X139472499Y-36981423D01*
X139305752Y-36965000D01*
X139305751Y-36965000D01*
X139250000Y-36959509D01*
X139194249Y-36965000D01*
X135803638Y-36965000D01*
X135781714Y-36938286D01*
X135532752Y-36733969D01*
X135248715Y-36582148D01*
X134940516Y-36488657D01*
X134700322Y-36465000D01*
X134539678Y-36465000D01*
X134299484Y-36488657D01*
X133991285Y-36582148D01*
X133707248Y-36733969D01*
X133458286Y-36938286D01*
X133436362Y-36965000D01*
X128183638Y-36965000D01*
X128161714Y-36938286D01*
X127912752Y-36733969D01*
X127628715Y-36582148D01*
X127320516Y-36488657D01*
X127080322Y-36465000D01*
X126919678Y-36465000D01*
X126679484Y-36488657D01*
X126371285Y-36582148D01*
X126087248Y-36733969D01*
X125838286Y-36938286D01*
X125816362Y-36965000D01*
X120563638Y-36965000D01*
X120541714Y-36938286D01*
X120292752Y-36733969D01*
X120008715Y-36582148D01*
X119700516Y-36488657D01*
X119460322Y-36465000D01*
X119299678Y-36465000D01*
X119059484Y-36488657D01*
X118751285Y-36582148D01*
X118467248Y-36733969D01*
X118218286Y-36938286D01*
X118196362Y-36965000D01*
X112943638Y-36965000D01*
X112921714Y-36938286D01*
X112672752Y-36733969D01*
X112388715Y-36582148D01*
X112080516Y-36488657D01*
X111840322Y-36465000D01*
X111679678Y-36465000D01*
X111439484Y-36488657D01*
X111131285Y-36582148D01*
X110847248Y-36733969D01*
X110598286Y-36938286D01*
X110393969Y-37187248D01*
X110242148Y-37471285D01*
X110148657Y-37779484D01*
X110117089Y-38100000D01*
X102260000Y-38100000D01*
X102260000Y-31140000D01*
X166690000Y-31140000D01*
X166690001Y-121264950D01*
X166690001Y-121264950D01*
G37*
X166690001Y-121264950D02*
X102260000Y-121260051D01*
X102260000Y-72390000D01*
X108154872Y-72390000D01*
X108160000Y-72442066D01*
X108160001Y-85037934D01*
X108154873Y-85090000D01*
X108175339Y-85297796D01*
X108235950Y-85497606D01*
X108235951Y-85497607D01*
X108334379Y-85681753D01*
X108466842Y-85843159D01*
X108507284Y-85876349D01*
X112243650Y-89612716D01*
X112276841Y-89653159D01*
X112438247Y-89785622D01*
X112518760Y-89828657D01*
X112622393Y-89884050D01*
X112822203Y-89944662D01*
X112840319Y-89946446D01*
X112977934Y-89960000D01*
X112977942Y-89960000D01*
X113030000Y-89965127D01*
X113082058Y-89960000D01*
X115130935Y-89960000D01*
X117050000Y-91879067D01*
X117050001Y-118057924D01*
X117044872Y-118110000D01*
X117065338Y-118317796D01*
X117125950Y-118517607D01*
X117224378Y-118701753D01*
X117356841Y-118863159D01*
X117518247Y-118995622D01*
X117702393Y-119094050D01*
X117902204Y-119154662D01*
X118057934Y-119170000D01*
X118110000Y-119175128D01*
X118162066Y-119170000D01*
X124407934Y-119170000D01*
X124460000Y-119175128D01*
X124512066Y-119170000D01*
X124667796Y-119154662D01*
X124867607Y-119094050D01*
X125051753Y-118995622D01*
X125213159Y-118863159D01*
X125345622Y-118701753D01*
X125444050Y-118517607D01*
X125504662Y-118317796D01*
X125525128Y-118110000D01*
X125520000Y-118057934D01*
X125520000Y-115610842D01*
X125701714Y-115461714D01*
X125810000Y-115329767D01*
X125918286Y-115461714D01*
X126167248Y-115666031D01*
X126451285Y-115817852D01*
X126759484Y-115911343D01*
X126999678Y-115935000D01*
X127160322Y-115935000D01*
X127400516Y-115911343D01*
X127708715Y-115817852D01*
X127992752Y-115666031D01*
X128241714Y-115461714D01*
X128446031Y-115212752D01*
X128597852Y-114928715D01*
X128691343Y-114620516D01*
X128722911Y-114300000D01*
X128710014Y-114169051D01*
X133917728Y-108961338D01*
X133958170Y-108928148D01*
X134090633Y-108766742D01*
X134189061Y-108582596D01*
X134249673Y-108382785D01*
X134265011Y-108227055D01*
X134265011Y-108227047D01*
X134270138Y-108174989D01*
X134265011Y-108122931D01*
X134265011Y-100187195D01*
X134300498Y-100304180D01*
X134359463Y-100414494D01*
X134438815Y-100511185D01*
X134535506Y-100590537D01*
X134645820Y-100649502D01*
X134765518Y-100685812D01*
X134890000Y-100698072D01*
X135604250Y-100695000D01*
X135763000Y-100536250D01*
X135763000Y-99187000D01*
X135743000Y-99187000D01*
X135743000Y-98933000D01*
X135763000Y-98933000D01*
X135763000Y-97583750D01*
X135604250Y-97425000D01*
X134890000Y-97421928D01*
X134765518Y-97434188D01*
X134645820Y-97470498D01*
X134535506Y-97529463D01*
X134438815Y-97608815D01*
X134359463Y-97705506D01*
X134300498Y-97815820D01*
X134265011Y-97932805D01*
X134265011Y-92567195D01*
X134300498Y-92684180D01*
X134359463Y-92794494D01*
X134438815Y-92891185D01*
X134535506Y-92970537D01*
X134645820Y-93029502D01*
X134765518Y-93065812D01*
X134890000Y-93078072D01*
X135604250Y-93075000D01*
X135763000Y-92916250D01*
X135763000Y-91567000D01*
X135743000Y-91567000D01*
X135743000Y-91313000D01*
X135763000Y-91313000D01*
X135763000Y-89963750D01*
X135604250Y-89805000D01*
X134890000Y-89801928D01*
X134765518Y-89814188D01*
X134645820Y-89850498D01*
X134535506Y-89909463D01*
X134438815Y-89988815D01*
X134359463Y-90085506D01*
X134300498Y-90195820D01*
X134265011Y-90312805D01*
X134265011Y-84947195D01*
X134300498Y-85064180D01*
X134359463Y-85174494D01*
X134438815Y-85271185D01*
X134535506Y-85350537D01*
X134645820Y-85409502D01*
X134765518Y-85445812D01*
X134890000Y-85458072D01*
X135604250Y-85455000D01*
X135763000Y-85296250D01*
X135763000Y-83947000D01*
X135743000Y-83947000D01*
X135743000Y-83693000D01*
X135763000Y-83693000D01*
X135763000Y-82343750D01*
X135604250Y-82185000D01*
X134890000Y-82181928D01*
X134765518Y-82194188D01*
X134645820Y-82230498D01*
X134535506Y-82289463D01*
X134438815Y-82368815D01*
X134359463Y-82465506D01*
X134300498Y-82575820D01*
X134265011Y-82692805D01*
X134265011Y-80594054D01*
X135407723Y-79451344D01*
X135448160Y-79418158D01*
X135481346Y-79377721D01*
X135481350Y-79377717D01*
X135580622Y-79256753D01*
X135679051Y-79072606D01*
X135679051Y-79072605D01*
X135739663Y-78872795D01*
X135755001Y-78717065D01*
X135755001Y-78717056D01*
X135760128Y-78665000D01*
X135755001Y-78612944D01*
X135755001Y-76257240D01*
X135964988Y-76047253D01*
X135965001Y-76047234D01*
X135965014Y-76047253D01*
X136175001Y-76257240D01*
X136175002Y-77492936D01*
X136169874Y-77545001D01*
X136190340Y-77752797D01*
X136250951Y-77952607D01*
X136315434Y-78073246D01*
X136349380Y-78136754D01*
X136481843Y-78298160D01*
X136522285Y-78331350D01*
X137370000Y-79179066D01*
X137370001Y-81227925D01*
X137370000Y-81227935D01*
X137370000Y-82403927D01*
X137341185Y-82368815D01*
X137244494Y-82289463D01*
X137134180Y-82230498D01*
X137014482Y-82194188D01*
X136890000Y-82181928D01*
X136175750Y-82185000D01*
X136017000Y-82343750D01*
X136017000Y-83693000D01*
X136037000Y-83693000D01*
X136037000Y-83947000D01*
X136017000Y-83947000D01*
X136017000Y-85296250D01*
X136175750Y-85455000D01*
X136890000Y-85458072D01*
X137014482Y-85445812D01*
X137134180Y-85409502D01*
X137244494Y-85350537D01*
X137341185Y-85271185D01*
X137420537Y-85174494D01*
X137445739Y-85127345D01*
X137517248Y-85186031D01*
X137801285Y-85337852D01*
X138109484Y-85431343D01*
X138349678Y-85455000D01*
X138510322Y-85455000D01*
X138750516Y-85431343D01*
X139058715Y-85337852D01*
X139342752Y-85186031D01*
X139591714Y-84981714D01*
X139796031Y-84732752D01*
X139910001Y-84519530D01*
X139910001Y-88460932D01*
X138560948Y-89809986D01*
X138510322Y-89805000D01*
X138349678Y-89805000D01*
X138109484Y-89828657D01*
X137801285Y-89922148D01*
X137517248Y-90073969D01*
X137445739Y-90132655D01*
X137420537Y-90085506D01*
X137341185Y-89988815D01*
X137244494Y-89909463D01*
X137134180Y-89850498D01*
X137014482Y-89814188D01*
X136890000Y-89801928D01*
X136175750Y-89805000D01*
X136017000Y-89963750D01*
X136017000Y-91313000D01*
X136037000Y-91313000D01*
X136037000Y-91567000D01*
X136017000Y-91567000D01*
X136017000Y-92916250D01*
X136175750Y-93075000D01*
X136890000Y-93078072D01*
X137014482Y-93065812D01*
X137134180Y-93029502D01*
X137244494Y-92970537D01*
X137341185Y-92891185D01*
X137420537Y-92794494D01*
X137445739Y-92747345D01*
X137517248Y-92806031D01*
X137801285Y-92957852D01*
X138109484Y-93051343D01*
X138349678Y-93075000D01*
X138510322Y-93075000D01*
X138750516Y-93051343D01*
X139058715Y-92957852D01*
X139342752Y-92806031D01*
X139591714Y-92601714D01*
X139796031Y-92352752D01*
X139947852Y-92068715D01*
X140041343Y-91760516D01*
X140072911Y-91440000D01*
X140060014Y-91309052D01*
X140960011Y-90409056D01*
X140960011Y-95030923D01*
X138560948Y-97429986D01*
X138510322Y-97425000D01*
X138349678Y-97425000D01*
X138109484Y-97448657D01*
X137801285Y-97542148D01*
X137517248Y-97693969D01*
X137445739Y-97752655D01*
X137420537Y-97705506D01*
X137341185Y-97608815D01*
X137244494Y-97529463D01*
X137134180Y-97470498D01*
X137014482Y-97434188D01*
X136890000Y-97421928D01*
X136175750Y-97425000D01*
X136017000Y-97583750D01*
X136017000Y-98933000D01*
X136037000Y-98933000D01*
X136037000Y-99187000D01*
X136017000Y-99187000D01*
X136017000Y-100536250D01*
X136175750Y-100695000D01*
X136890000Y-100698072D01*
X137014482Y-100685812D01*
X137134180Y-100649502D01*
X137244494Y-100590537D01*
X137341185Y-100511185D01*
X137420537Y-100414494D01*
X137445739Y-100367345D01*
X137517248Y-100426031D01*
X137801285Y-100577852D01*
X138109484Y-100671343D01*
X138349678Y-100695000D01*
X138510322Y-100695000D01*
X138750516Y-100671343D01*
X139058715Y-100577852D01*
X139342752Y-100426031D01*
X139591714Y-100221714D01*
X139796031Y-99972752D01*
X139947852Y-99688715D01*
X140041343Y-99380516D01*
X140072911Y-99060000D01*
X140060014Y-98929052D01*
X142732727Y-96256339D01*
X142773169Y-96223149D01*
X142905632Y-96061743D01*
X143004060Y-95877597D01*
X143064672Y-95677786D01*
X143080010Y-95522056D01*
X143080010Y-95522048D01*
X143085137Y-95469990D01*
X143080010Y-95417932D01*
X143080010Y-71096289D01*
X143085138Y-71044223D01*
X143064672Y-70836426D01*
X143004060Y-70636616D01*
X142905631Y-70452469D01*
X142806359Y-70331506D01*
X142773169Y-70291064D01*
X142732727Y-70257874D01*
X133353547Y-60878694D01*
X133424988Y-60807253D01*
X133425001Y-60807234D01*
X133425014Y-60807253D01*
X133652749Y-61034988D01*
X133920538Y-61213919D01*
X134218089Y-61337169D01*
X134533968Y-61400001D01*
X134856034Y-61400001D01*
X135171913Y-61337169D01*
X135469464Y-61213919D01*
X135737253Y-61034988D01*
X135964988Y-60807253D01*
X135965001Y-60807234D01*
X135965014Y-60807253D01*
X136192749Y-61034988D01*
X136460538Y-61213919D01*
X136758089Y-61337169D01*
X137073968Y-61400001D01*
X137396034Y-61400001D01*
X137711913Y-61337169D01*
X138009464Y-61213919D01*
X138277253Y-61034988D01*
X138504988Y-60807253D01*
X138505001Y-60807234D01*
X138505014Y-60807253D01*
X138732749Y-61034988D01*
X139000538Y-61213919D01*
X139298089Y-61337169D01*
X139613968Y-61400001D01*
X139936034Y-61400001D01*
X140251913Y-61337169D01*
X140549464Y-61213919D01*
X140817253Y-61034988D01*
X141044988Y-60807253D01*
X141223919Y-60539464D01*
X141347169Y-60241913D01*
X141410001Y-59926034D01*
X141410001Y-59603968D01*
X141347169Y-59288089D01*
X141223919Y-58990538D01*
X141044988Y-58722749D01*
X140817253Y-58495014D01*
X140549464Y-58316083D01*
X140251913Y-58192833D01*
X139936034Y-58130001D01*
X139613968Y-58130001D01*
X139298089Y-58192833D01*
X139000538Y-58316083D01*
X138732749Y-58495014D01*
X138505014Y-58722749D01*
X138505001Y-58722768D01*
X138504988Y-58722749D01*
X138277253Y-58495014D01*
X138009464Y-58316083D01*
X137711913Y-58192833D01*
X137396034Y-58130001D01*
X137073968Y-58130001D01*
X136758089Y-58192833D01*
X136460538Y-58316083D01*
X136192749Y-58495014D01*
X135965014Y-58722749D01*
X135965001Y-58722768D01*
X135964988Y-58722749D01*
X135737253Y-58495014D01*
X135469464Y-58316083D01*
X135171913Y-58192833D01*
X134856034Y-58130001D01*
X134533968Y-58130001D01*
X134218089Y-58192833D01*
X133920538Y-58316083D01*
X133652749Y-58495014D01*
X133425014Y-58722749D01*
X133425001Y-58722768D01*
X133424988Y-58722749D01*
X133197253Y-58495014D01*
X132929464Y-58316083D01*
X132631913Y-58192833D01*
X132316034Y-58130001D01*
X131993968Y-58130001D01*
X131678089Y-58192833D01*
X131380538Y-58316083D01*
X131112749Y-58495014D01*
X130885014Y-58722749D01*
X130885001Y-58722768D01*
X130884988Y-58722749D01*
X130657253Y-58495014D01*
X130600000Y-58456759D01*
X130600000Y-54592239D01*
X130809987Y-54382252D01*
X130810000Y-54382233D01*
X130810013Y-54382252D01*
X131037748Y-54609987D01*
X131305537Y-54788918D01*
X131603088Y-54912168D01*
X131918967Y-54975000D01*
X132241033Y-54975000D01*
X132556912Y-54912168D01*
X132854463Y-54788918D01*
X133122252Y-54609987D01*
X133349987Y-54382252D01*
X133350000Y-54382233D01*
X133350013Y-54382252D01*
X133577748Y-54609987D01*
X133845537Y-54788918D01*
X134143088Y-54912168D01*
X134458967Y-54975000D01*
X134781033Y-54975000D01*
X135096912Y-54912168D01*
X135394463Y-54788918D01*
X135662252Y-54609987D01*
X135889987Y-54382252D01*
X135890000Y-54382233D01*
X135890013Y-54382252D01*
X136117748Y-54609987D01*
X136385537Y-54788918D01*
X136683088Y-54912168D01*
X136998967Y-54975000D01*
X137321033Y-54975000D01*
X137636912Y-54912168D01*
X137934463Y-54788918D01*
X138202252Y-54609987D01*
X138336826Y-54475413D01*
X138744192Y-54475413D01*
X138839956Y-54739814D01*
X139129571Y-54880704D01*
X139441108Y-54962384D01*
X139762595Y-54981718D01*
X140081675Y-54937961D01*
X140386088Y-54832795D01*
X140560044Y-54739814D01*
X140655808Y-54475413D01*
X139700000Y-53519605D01*
X138744192Y-54475413D01*
X138336826Y-54475413D01*
X138429987Y-54382252D01*
X138502720Y-54273400D01*
X138564587Y-54295808D01*
X139520395Y-53340000D01*
X139879605Y-53340000D01*
X140835413Y-54295808D01*
X141099814Y-54200044D01*
X141240704Y-53910429D01*
X141322384Y-53598892D01*
X141341718Y-53277405D01*
X141297961Y-52958325D01*
X141192795Y-52653912D01*
X141099814Y-52479956D01*
X140835413Y-52384192D01*
X139879605Y-53340000D01*
X139520395Y-53340000D01*
X138564587Y-52384192D01*
X138502720Y-52406600D01*
X138429987Y-52297748D01*
X138336826Y-52204587D01*
X138744192Y-52204587D01*
X139700000Y-53160395D01*
X140655808Y-52204587D01*
X140560044Y-51940186D01*
X140271877Y-51800000D01*
X148221928Y-51800000D01*
X148234188Y-51924482D01*
X148270498Y-52044180D01*
X148329463Y-52154494D01*
X148408815Y-52251185D01*
X148505506Y-52330537D01*
X148615820Y-52389502D01*
X148735518Y-52425812D01*
X148860000Y-52438072D01*
X149574250Y-52435000D01*
X149733000Y-52276250D01*
X149733000Y-50927000D01*
X149987000Y-50927000D01*
X149987000Y-52276250D01*
X150145750Y-52435000D01*
X150860000Y-52438072D01*
X150984482Y-52425812D01*
X151104180Y-52389502D01*
X151214494Y-52330537D01*
X151311185Y-52251185D01*
X151390537Y-52154494D01*
X151449502Y-52044180D01*
X151485812Y-51924482D01*
X151498072Y-51800000D01*
X151495000Y-51085750D01*
X151336250Y-50927000D01*
X149987000Y-50927000D01*
X149733000Y-50927000D01*
X148383750Y-50927000D01*
X148225000Y-51085750D01*
X148221928Y-51800000D01*
X140271877Y-51800000D01*
X140270429Y-51799296D01*
X139958892Y-51717616D01*
X139637405Y-51698282D01*
X139318325Y-51742039D01*
X139013912Y-51847205D01*
X138839956Y-51940186D01*
X138744192Y-52204587D01*
X138336826Y-52204587D01*
X138202252Y-52070013D01*
X137934463Y-51891082D01*
X137636912Y-51767832D01*
X137321033Y-51705000D01*
X136998967Y-51705000D01*
X136683088Y-51767832D01*
X136385537Y-51891082D01*
X136117748Y-52070013D01*
X135890013Y-52297748D01*
X135890000Y-52297767D01*
X135889987Y-52297748D01*
X135662252Y-52070013D01*
X135394463Y-51891082D01*
X135096912Y-51767832D01*
X134781033Y-51705000D01*
X134458967Y-51705000D01*
X134143088Y-51767832D01*
X133845537Y-51891082D01*
X133577748Y-52070013D01*
X133350013Y-52297748D01*
X133350000Y-52297767D01*
X133349987Y-52297748D01*
X133122252Y-52070013D01*
X132854463Y-51891082D01*
X132556912Y-51767832D01*
X132241033Y-51705000D01*
X131918967Y-51705000D01*
X131603088Y-51767832D01*
X131305537Y-51891082D01*
X131037748Y-52070013D01*
X130810013Y-52297748D01*
X130810000Y-52297767D01*
X130809987Y-52297748D01*
X130582252Y-52070013D01*
X130314463Y-51891082D01*
X130016912Y-51767832D01*
X129701033Y-51705000D01*
X129378967Y-51705000D01*
X129063088Y-51767832D01*
X128765537Y-51891082D01*
X128497748Y-52070013D01*
X128270013Y-52297748D01*
X128270000Y-52297767D01*
X128269987Y-52297748D01*
X128042252Y-52070013D01*
X127774463Y-51891082D01*
X127476912Y-51767832D01*
X127161033Y-51705000D01*
X126838967Y-51705000D01*
X126523088Y-51767832D01*
X126225537Y-51891082D01*
X125957748Y-52070013D01*
X125730013Y-52297748D01*
X125730000Y-52297767D01*
X125729987Y-52297748D01*
X125502252Y-52070013D01*
X125234463Y-51891082D01*
X124936912Y-51767832D01*
X124621033Y-51705000D01*
X124298967Y-51705000D01*
X123983088Y-51767832D01*
X123685537Y-51891082D01*
X123475191Y-52031630D01*
X123450537Y-51985506D01*
X123371185Y-51888815D01*
X123274494Y-51809463D01*
X123164180Y-51750498D01*
X123044482Y-51714188D01*
X122920000Y-51701928D01*
X120920000Y-51701928D01*
X120795518Y-51714188D01*
X120675820Y-51750498D01*
X120565506Y-51809463D01*
X120468815Y-51888815D01*
X120389463Y-51985506D01*
X120330498Y-52095820D01*
X120294188Y-52215518D01*
X120281928Y-52340000D01*
X120281928Y-54340000D01*
X120294188Y-54464482D01*
X120330498Y-54584180D01*
X120389463Y-54694494D01*
X120468815Y-54791185D01*
X120565506Y-54870537D01*
X120675820Y-54929502D01*
X120795518Y-54965812D01*
X120860000Y-54972163D01*
X120860001Y-58587762D01*
X120725014Y-58722749D01*
X120725001Y-58722768D01*
X120724988Y-58722749D01*
X120590001Y-58587762D01*
X120590001Y-57280742D01*
X120595491Y-57225000D01*
X120590001Y-57169258D01*
X120590001Y-57169249D01*
X120573578Y-57002502D01*
X120508677Y-56788554D01*
X120403285Y-56591378D01*
X120261450Y-56418552D01*
X120218142Y-56383010D01*
X115935000Y-52099869D01*
X115935000Y-51908967D01*
X115872168Y-51593088D01*
X115748918Y-51295537D01*
X115569987Y-51027748D01*
X115342252Y-50800013D01*
X115074463Y-50621082D01*
X114776912Y-50497832D01*
X114461033Y-50435000D01*
X114138967Y-50435000D01*
X113823088Y-50497832D01*
X113525537Y-50621082D01*
X113315191Y-50761630D01*
X113290537Y-50715506D01*
X113211185Y-50618815D01*
X113114494Y-50539463D01*
X113004180Y-50480498D01*
X112884482Y-50444188D01*
X112760000Y-50431928D01*
X112045750Y-50435000D01*
X111887000Y-50593750D01*
X111887000Y-51943000D01*
X111907000Y-51943000D01*
X111907000Y-52197000D01*
X111887000Y-52197000D01*
X111887000Y-53546250D01*
X112045750Y-53705000D01*
X112760000Y-53708072D01*
X112884482Y-53695812D01*
X113004180Y-53659502D01*
X113114494Y-53600537D01*
X113211185Y-53521185D01*
X113290537Y-53424494D01*
X113315191Y-53378370D01*
X113525537Y-53518918D01*
X113823088Y-53642168D01*
X114138967Y-53705000D01*
X114329869Y-53705000D01*
X118320002Y-57695134D01*
X118320001Y-58587762D01*
X118185014Y-58722749D01*
X118185001Y-58722768D01*
X118184988Y-58722749D01*
X117957253Y-58495014D01*
X117689464Y-58316083D01*
X117391913Y-58192833D01*
X117076034Y-58130001D01*
X116753968Y-58130001D01*
X116438089Y-58192833D01*
X116140538Y-58316083D01*
X115872749Y-58495014D01*
X115645014Y-58722749D01*
X115645001Y-58722768D01*
X115644988Y-58722749D01*
X115417253Y-58495014D01*
X115149464Y-58316083D01*
X114851913Y-58192833D01*
X114536034Y-58130001D01*
X114213968Y-58130001D01*
X113898089Y-58192833D01*
X113600538Y-58316083D01*
X113332749Y-58495014D01*
X113105014Y-58722749D01*
X113105001Y-58722768D01*
X113104988Y-58722749D01*
X112877253Y-58495014D01*
X112609464Y-58316083D01*
X112311913Y-58192833D01*
X111996034Y-58130001D01*
X111673968Y-58130001D01*
X111358089Y-58192833D01*
X111060538Y-58316083D01*
X110792749Y-58495014D01*
X110565014Y-58722749D01*
X110386083Y-58990538D01*
X110262833Y-59288089D01*
X110200001Y-59603968D01*
X110200001Y-59926034D01*
X110262833Y-60241913D01*
X110386083Y-60539464D01*
X110565014Y-60807253D01*
X110792749Y-61034988D01*
X111060538Y-61213919D01*
X111358089Y-61337169D01*
X111673968Y-61400001D01*
X111996034Y-61400001D01*
X112311913Y-61337169D01*
X112609464Y-61213919D01*
X112877253Y-61034988D01*
X113104988Y-60807253D01*
X113105001Y-60807234D01*
X113105014Y-60807253D01*
X113332749Y-61034988D01*
X113600538Y-61213919D01*
X113898089Y-61337169D01*
X114213968Y-61400001D01*
X114536034Y-61400001D01*
X114851913Y-61337169D01*
X115149464Y-61213919D01*
X115417253Y-61034988D01*
X115644988Y-60807253D01*
X115645001Y-60807234D01*
X115645014Y-60807253D01*
X115872749Y-61034988D01*
X116140538Y-61213919D01*
X116438089Y-61337169D01*
X116753968Y-61400001D01*
X117076034Y-61400001D01*
X117391913Y-61337169D01*
X117689464Y-61213919D01*
X117957253Y-61034988D01*
X118184988Y-60807253D01*
X118185001Y-60807234D01*
X118185014Y-60807253D01*
X118395002Y-61017241D01*
X118395002Y-61775934D01*
X108710552Y-71460385D01*
X108628247Y-71504378D01*
X108466841Y-71636841D01*
X108334378Y-71798247D01*
X108235950Y-71982393D01*
X108175338Y-72182204D01*
X108154872Y-72390000D01*
X102260000Y-72390000D01*
X102260000Y-53070000D01*
X110121928Y-53070000D01*
X110134188Y-53194482D01*
X110170498Y-53314180D01*
X110229463Y-53424494D01*
X110308815Y-53521185D01*
X110405506Y-53600537D01*
X110515820Y-53659502D01*
X110635518Y-53695812D01*
X110760000Y-53708072D01*
X111474250Y-53705000D01*
X111633000Y-53546250D01*
X111633000Y-52197000D01*
X110283750Y-52197000D01*
X110125000Y-52355750D01*
X110121928Y-53070000D01*
X102260000Y-53070000D01*
X102260000Y-51070000D01*
X110121928Y-51070000D01*
X110125000Y-51784250D01*
X110283750Y-51943000D01*
X111633000Y-51943000D01*
X111633000Y-50593750D01*
X111474250Y-50435000D01*
X110760000Y-50431928D01*
X110635518Y-50444188D01*
X110515820Y-50480498D01*
X110405506Y-50539463D01*
X110308815Y-50618815D01*
X110229463Y-50715506D01*
X110170498Y-50825820D01*
X110134188Y-50945518D01*
X110121928Y-51070000D01*
X102260000Y-51070000D01*
X102260000Y-38100000D01*
X110117089Y-38100000D01*
X110148657Y-38420516D01*
X110242148Y-38728715D01*
X110393969Y-39012752D01*
X110452655Y-39084261D01*
X110405506Y-39109463D01*
X110308815Y-39188815D01*
X110229463Y-39285506D01*
X110170498Y-39395820D01*
X110134188Y-39515518D01*
X110121928Y-39640000D01*
X110121928Y-41640000D01*
X110134188Y-41764482D01*
X110170498Y-41884180D01*
X110229463Y-41994494D01*
X110308815Y-42091185D01*
X110405506Y-42170537D01*
X110515820Y-42229502D01*
X110635518Y-42265812D01*
X110760000Y-42278072D01*
X112760000Y-42278072D01*
X112884482Y-42265812D01*
X113004180Y-42229502D01*
X113114494Y-42170537D01*
X113211185Y-42091185D01*
X113290537Y-41994494D01*
X113349502Y-41884180D01*
X113385812Y-41764482D01*
X113392163Y-41700000D01*
X113860935Y-41700000D01*
X118593651Y-46432717D01*
X118626841Y-46473159D01*
X118788247Y-46605622D01*
X118972393Y-46704050D01*
X119172204Y-46764662D01*
X119327934Y-46780000D01*
X119327944Y-46780000D01*
X119380000Y-46785127D01*
X119432056Y-46780000D01*
X120667761Y-46780000D01*
X120877748Y-46989987D01*
X121145537Y-47168918D01*
X121443088Y-47292168D01*
X121758967Y-47355000D01*
X122081033Y-47355000D01*
X122396912Y-47292168D01*
X122694463Y-47168918D01*
X122962252Y-46989987D01*
X123189987Y-46762252D01*
X123190000Y-46762233D01*
X123190013Y-46762252D01*
X123417748Y-46989987D01*
X123685537Y-47168918D01*
X123983088Y-47292168D01*
X124298967Y-47355000D01*
X124621033Y-47355000D01*
X124936912Y-47292168D01*
X125234463Y-47168918D01*
X125502252Y-46989987D01*
X125729987Y-46762252D01*
X125730000Y-46762233D01*
X125730013Y-46762252D01*
X125957748Y-46989987D01*
X126225537Y-47168918D01*
X126523088Y-47292168D01*
X126838967Y-47355000D01*
X127161033Y-47355000D01*
X127476912Y-47292168D01*
X127774463Y-47168918D01*
X128042252Y-46989987D01*
X128269987Y-46762252D01*
X128270000Y-46762233D01*
X128270013Y-46762252D01*
X128497748Y-46989987D01*
X128765537Y-47168918D01*
X129063088Y-47292168D01*
X129378967Y-47355000D01*
X129701033Y-47355000D01*
X130016912Y-47292168D01*
X130314463Y-47168918D01*
X130582252Y-46989987D01*
X130809987Y-46762252D01*
X130810000Y-46762233D01*
X130810013Y-46762252D01*
X131037748Y-46989987D01*
X131305537Y-47168918D01*
X131603088Y-47292168D01*
X131918967Y-47355000D01*
X132241033Y-47355000D01*
X132556912Y-47292168D01*
X132854463Y-47168918D01*
X133122252Y-46989987D01*
X133349987Y-46762252D01*
X133350000Y-46762233D01*
X133350013Y-46762252D01*
X133577748Y-46989987D01*
X133845537Y-47168918D01*
X134143088Y-47292168D01*
X134458967Y-47355000D01*
X134781033Y-47355000D01*
X135096912Y-47292168D01*
X135394463Y-47168918D01*
X135662252Y-46989987D01*
X135889987Y-46762252D01*
X135890000Y-46762233D01*
X135890013Y-46762252D01*
X136117748Y-46989987D01*
X136385537Y-47168918D01*
X136683088Y-47292168D01*
X136998967Y-47355000D01*
X137321033Y-47355000D01*
X137636912Y-47292168D01*
X137934463Y-47168918D01*
X138202252Y-46989987D01*
X138429987Y-46762252D01*
X138430000Y-46762233D01*
X138430013Y-46762252D01*
X138657748Y-46989987D01*
X138925537Y-47168918D01*
X139223088Y-47292168D01*
X139538967Y-47355000D01*
X139729869Y-47355000D01*
X141398009Y-49023141D01*
X141433551Y-49066449D01*
X141606377Y-49208284D01*
X141803553Y-49313676D01*
X142017501Y-49378577D01*
X142184248Y-49395000D01*
X142184257Y-49395000D01*
X142239999Y-49400490D01*
X142295741Y-49395000D01*
X148370912Y-49395000D01*
X148329463Y-49445506D01*
X148270498Y-49555820D01*
X148234188Y-49675518D01*
X148221928Y-49800000D01*
X148225000Y-50514250D01*
X148383750Y-50673000D01*
X149733000Y-50673000D01*
X149733000Y-50653000D01*
X149987000Y-50653000D01*
X149987000Y-50673000D01*
X151336250Y-50673000D01*
X151495000Y-50514250D01*
X151498072Y-49800000D01*
X151485812Y-49675518D01*
X151449502Y-49555820D01*
X151390537Y-49445506D01*
X151311185Y-49348815D01*
X151214494Y-49269463D01*
X151167345Y-49244261D01*
X151226031Y-49172752D01*
X151377852Y-48888715D01*
X151471343Y-48580516D01*
X151502911Y-48260000D01*
X151471343Y-47939484D01*
X151377852Y-47631285D01*
X151226031Y-47347248D01*
X151021714Y-47098286D01*
X150995000Y-47076362D01*
X150995000Y-41823638D01*
X151021714Y-41801714D01*
X151226031Y-41552752D01*
X151377852Y-41268715D01*
X151471343Y-40960516D01*
X151502911Y-40640000D01*
X151471343Y-40319484D01*
X151377852Y-40011285D01*
X151226031Y-39727248D01*
X151167345Y-39655739D01*
X151214494Y-39630537D01*
X151311185Y-39551185D01*
X151390537Y-39454494D01*
X151449502Y-39344180D01*
X151485812Y-39224482D01*
X151498072Y-39100000D01*
X151498072Y-37100000D01*
X151485812Y-36975518D01*
X151449502Y-36855820D01*
X151390537Y-36745506D01*
X151311185Y-36648815D01*
X151214494Y-36569463D01*
X151104180Y-36510498D01*
X150984482Y-36474188D01*
X150860000Y-36461928D01*
X148860000Y-36461928D01*
X148735518Y-36474188D01*
X148615820Y-36510498D01*
X148505506Y-36569463D01*
X148408815Y-36648815D01*
X148329463Y-36745506D01*
X148270498Y-36855820D01*
X148234188Y-36975518D01*
X148221928Y-37100000D01*
X148221928Y-39100000D01*
X148234188Y-39224482D01*
X148270498Y-39344180D01*
X148329463Y-39454494D01*
X148408815Y-39551185D01*
X148505506Y-39630537D01*
X148552655Y-39655739D01*
X148493969Y-39727248D01*
X148342148Y-40011285D01*
X148248657Y-40319484D01*
X148217089Y-40640000D01*
X148248657Y-40960516D01*
X148342148Y-41268715D01*
X148493969Y-41552752D01*
X148698286Y-41801714D01*
X148725001Y-41823638D01*
X148725000Y-45969868D01*
X140091996Y-37336865D01*
X140056449Y-37293551D01*
X139883623Y-37151716D01*
X139686447Y-37046324D01*
X139472499Y-36981423D01*
X139305752Y-36965000D01*
X139305751Y-36965000D01*
X139250000Y-36959509D01*
X139194249Y-36965000D01*
X135803638Y-36965000D01*
X135781714Y-36938286D01*
X135532752Y-36733969D01*
X135248715Y-36582148D01*
X134940516Y-36488657D01*
X134700322Y-36465000D01*
X134539678Y-36465000D01*
X134299484Y-36488657D01*
X133991285Y-36582148D01*
X133707248Y-36733969D01*
X133458286Y-36938286D01*
X133436362Y-36965000D01*
X128183638Y-36965000D01*
X128161714Y-36938286D01*
X127912752Y-36733969D01*
X127628715Y-36582148D01*
X127320516Y-36488657D01*
X127080322Y-36465000D01*
X126919678Y-36465000D01*
X126679484Y-36488657D01*
X126371285Y-36582148D01*
X126087248Y-36733969D01*
X125838286Y-36938286D01*
X125816362Y-36965000D01*
X120563638Y-36965000D01*
X120541714Y-36938286D01*
X120292752Y-36733969D01*
X120008715Y-36582148D01*
X119700516Y-36488657D01*
X119460322Y-36465000D01*
X119299678Y-36465000D01*
X119059484Y-36488657D01*
X118751285Y-36582148D01*
X118467248Y-36733969D01*
X118218286Y-36938286D01*
X118196362Y-36965000D01*
X112943638Y-36965000D01*
X112921714Y-36938286D01*
X112672752Y-36733969D01*
X112388715Y-36582148D01*
X112080516Y-36488657D01*
X111840322Y-36465000D01*
X111679678Y-36465000D01*
X111439484Y-36488657D01*
X111131285Y-36582148D01*
X110847248Y-36733969D01*
X110598286Y-36938286D01*
X110393969Y-37187248D01*
X110242148Y-37471285D01*
X110148657Y-37779484D01*
X110117089Y-38100000D01*
X102260000Y-38100000D01*
X102260000Y-31140000D01*
X166690000Y-31140000D01*
X166690001Y-121264950D01*
G36*
X130885014Y-60807253D02*
G01*
X131095001Y-61017240D01*
X131095001Y-61127158D01*
X131089874Y-61179214D01*
X131095001Y-61231270D01*
X131095001Y-61231280D01*
X131104664Y-61329380D01*
X131110340Y-61387010D01*
X131170951Y-61586820D01*
X131269380Y-61770967D01*
X131401843Y-61932373D01*
X131442285Y-61965563D01*
X140960010Y-71483289D01*
X140960010Y-73877771D01*
X140817253Y-73735014D01*
X140549464Y-73556083D01*
X140251913Y-73432833D01*
X139936034Y-73370001D01*
X139613968Y-73370001D01*
X139298089Y-73432833D01*
X139000538Y-73556083D01*
X138732749Y-73735014D01*
X138505014Y-73962749D01*
X138505001Y-73962768D01*
X138504988Y-73962749D01*
X138277253Y-73735014D01*
X138009464Y-73556083D01*
X137711913Y-73432833D01*
X137396034Y-73370001D01*
X137073968Y-73370001D01*
X136758089Y-73432833D01*
X136460538Y-73556083D01*
X136192749Y-73735014D01*
X135965014Y-73962749D01*
X135965001Y-73962768D01*
X135964988Y-73962749D01*
X135737253Y-73735014D01*
X135469464Y-73556083D01*
X135171913Y-73432833D01*
X134856034Y-73370001D01*
X134533968Y-73370001D01*
X134218089Y-73432833D01*
X133920538Y-73556083D01*
X133652749Y-73735014D01*
X133425014Y-73962749D01*
X133425001Y-73962768D01*
X133424988Y-73962749D01*
X133197253Y-73735014D01*
X132929464Y-73556083D01*
X132631913Y-73432833D01*
X132316034Y-73370001D01*
X131993968Y-73370001D01*
X131678089Y-73432833D01*
X131380538Y-73556083D01*
X131112749Y-73735014D01*
X130885014Y-73962749D01*
X130885001Y-73962768D01*
X130884988Y-73962749D01*
X130657253Y-73735014D01*
X130389464Y-73556083D01*
X130091913Y-73432833D01*
X129776034Y-73370001D01*
X129453968Y-73370001D01*
X129138089Y-73432833D01*
X128840538Y-73556083D01*
X128572749Y-73735014D01*
X128345014Y-73962749D01*
X128345001Y-73962768D01*
X128344988Y-73962749D01*
X128117253Y-73735014D01*
X127849464Y-73556083D01*
X127551913Y-73432833D01*
X127236034Y-73370001D01*
X126913968Y-73370001D01*
X126598089Y-73432833D01*
X126300538Y-73556083D01*
X126032749Y-73735014D01*
X125805014Y-73962749D01*
X125805001Y-73962768D01*
X125804988Y-73962749D01*
X125577253Y-73735014D01*
X125309464Y-73556083D01*
X125011913Y-73432833D01*
X124696034Y-73370001D01*
X124373968Y-73370001D01*
X124058089Y-73432833D01*
X123760538Y-73556083D01*
X123492749Y-73735014D01*
X123265014Y-73962749D01*
X123265001Y-73962768D01*
X123264988Y-73962749D01*
X123037253Y-73735014D01*
X122769464Y-73556083D01*
X122471913Y-73432833D01*
X122156034Y-73370001D01*
X121833968Y-73370001D01*
X121518089Y-73432833D01*
X121220538Y-73556083D01*
X120952749Y-73735014D01*
X120725014Y-73962749D01*
X120652281Y-74071601D01*
X120590414Y-74049193D01*
X119634606Y-75005001D01*
X120590414Y-75960809D01*
X120652281Y-75938401D01*
X120725014Y-76047253D01*
X120935001Y-76257240D01*
X120935002Y-82181928D01*
X120920000Y-82181928D01*
X120795518Y-82194188D01*
X120675820Y-82230498D01*
X120565506Y-82289463D01*
X120468815Y-82368815D01*
X120389463Y-82465506D01*
X120330498Y-82575820D01*
X120294188Y-82695518D01*
X120281928Y-82820000D01*
X120281928Y-84820000D01*
X120294188Y-84944482D01*
X120330498Y-85064180D01*
X120389463Y-85174494D01*
X120468815Y-85271185D01*
X120565506Y-85350537D01*
X120675820Y-85409502D01*
X120795518Y-85445812D01*
X120920000Y-85458072D01*
X122920000Y-85458072D01*
X123044482Y-85445812D01*
X123164180Y-85409502D01*
X123274494Y-85350537D01*
X123371185Y-85271185D01*
X123450537Y-85174494D01*
X123475739Y-85127345D01*
X123547248Y-85186031D01*
X123831285Y-85337852D01*
X124139484Y-85431343D01*
X124379678Y-85455000D01*
X124540322Y-85455000D01*
X124780516Y-85431343D01*
X125088715Y-85337852D01*
X125372752Y-85186031D01*
X125621714Y-84981714D01*
X125826031Y-84732752D01*
X125977852Y-84448715D01*
X126015002Y-84326249D01*
X126015002Y-90133260D01*
X125838286Y-90278286D01*
X125730000Y-90410233D01*
X125621714Y-90278286D01*
X125372752Y-90073969D01*
X125088715Y-89922148D01*
X124780516Y-89828657D01*
X124540322Y-89805000D01*
X124379678Y-89805000D01*
X124139484Y-89828657D01*
X123831285Y-89922148D01*
X123547248Y-90073969D01*
X123475739Y-90132655D01*
X123450537Y-90085506D01*
X123371185Y-89988815D01*
X123274494Y-89909463D01*
X123164180Y-89850498D01*
X123044482Y-89814188D01*
X122920000Y-89801928D01*
X122205750Y-89805000D01*
X122047000Y-89963750D01*
X122047000Y-91313000D01*
X122067000Y-91313000D01*
X122067000Y-91567000D01*
X122047000Y-91567000D01*
X122047000Y-92916250D01*
X122205750Y-93075000D01*
X122920000Y-93078072D01*
X123044482Y-93065812D01*
X123164180Y-93029502D01*
X123274494Y-92970537D01*
X123371185Y-92891185D01*
X123400001Y-92856073D01*
X123400001Y-97643927D01*
X123371185Y-97608815D01*
X123274494Y-97529463D01*
X123164180Y-97470498D01*
X123044482Y-97434188D01*
X122920000Y-97421928D01*
X122205750Y-97425000D01*
X122047000Y-97583750D01*
X122047000Y-98933000D01*
X122067000Y-98933000D01*
X122067000Y-99187000D01*
X122047000Y-99187000D01*
X122047000Y-100536250D01*
X122205750Y-100695000D01*
X122920000Y-100698072D01*
X123044482Y-100685812D01*
X123164180Y-100649502D01*
X123274494Y-100590537D01*
X123371185Y-100511185D01*
X123400001Y-100476073D01*
X123400000Y-105263927D01*
X123371185Y-105228815D01*
X123274494Y-105149463D01*
X123164180Y-105090498D01*
X123044482Y-105054188D01*
X122920000Y-105041928D01*
X122205750Y-105045000D01*
X122047000Y-105203750D01*
X122047000Y-106553000D01*
X122067000Y-106553000D01*
X122067000Y-106807000D01*
X122047000Y-106807000D01*
X122047000Y-108156250D01*
X122205750Y-108315000D01*
X122920000Y-108318072D01*
X123044482Y-108305812D01*
X123164180Y-108269502D01*
X123274494Y-108210537D01*
X123371185Y-108131185D01*
X123400000Y-108096073D01*
X123400000Y-112806809D01*
X123354494Y-112769463D01*
X123244180Y-112710498D01*
X123124482Y-112674188D01*
X123000000Y-112661928D01*
X122285750Y-112665000D01*
X122127000Y-112823750D01*
X122127000Y-114173000D01*
X122147000Y-114173000D01*
X122147000Y-114427000D01*
X122127000Y-114427000D01*
X122127000Y-115776250D01*
X122285750Y-115935000D01*
X123000000Y-115938072D01*
X123124482Y-115925812D01*
X123244180Y-115889502D01*
X123354494Y-115830537D01*
X123400000Y-115793191D01*
X123400000Y-117050000D01*
X119170000Y-117050000D01*
X119170000Y-115300000D01*
X120361928Y-115300000D01*
X120374188Y-115424482D01*
X120410498Y-115544180D01*
X120469463Y-115654494D01*
X120548815Y-115751185D01*
X120645506Y-115830537D01*
X120755820Y-115889502D01*
X120875518Y-115925812D01*
X121000000Y-115938072D01*
X121714250Y-115935000D01*
X121873000Y-115776250D01*
X121873000Y-114427000D01*
X120523750Y-114427000D01*
X120365000Y-114585750D01*
X120361928Y-115300000D01*
X119170000Y-115300000D01*
X119170000Y-113300000D01*
X120361928Y-113300000D01*
X120365000Y-114014250D01*
X120523750Y-114173000D01*
X121873000Y-114173000D01*
X121873000Y-112823750D01*
X121714250Y-112665000D01*
X121000000Y-112661928D01*
X120875518Y-112674188D01*
X120755820Y-112710498D01*
X120645506Y-112769463D01*
X120548815Y-112848815D01*
X120469463Y-112945506D01*
X120410498Y-113055820D01*
X120374188Y-113175518D01*
X120361928Y-113300000D01*
X119170000Y-113300000D01*
X119170000Y-107680000D01*
X120281928Y-107680000D01*
X120294188Y-107804482D01*
X120330498Y-107924180D01*
X120389463Y-108034494D01*
X120468815Y-108131185D01*
X120565506Y-108210537D01*
X120675820Y-108269502D01*
X120795518Y-108305812D01*
X120920000Y-108318072D01*
X121634250Y-108315000D01*
X121793000Y-108156250D01*
X121793000Y-106807000D01*
X120443750Y-106807000D01*
X120285000Y-106965750D01*
X120281928Y-107680000D01*
X119170000Y-107680000D01*
X119170000Y-105680000D01*
X120281928Y-105680000D01*
X120285000Y-106394250D01*
X120443750Y-106553000D01*
X121793000Y-106553000D01*
X121793000Y-105203750D01*
X121634250Y-105045000D01*
X120920000Y-105041928D01*
X120795518Y-105054188D01*
X120675820Y-105090498D01*
X120565506Y-105149463D01*
X120468815Y-105228815D01*
X120389463Y-105325506D01*
X120330498Y-105435820D01*
X120294188Y-105555518D01*
X120281928Y-105680000D01*
X119170000Y-105680000D01*
X119170000Y-100060000D01*
X120281928Y-100060000D01*
X120294188Y-100184482D01*
X120330498Y-100304180D01*
X120389463Y-100414494D01*
X120468815Y-100511185D01*
X120565506Y-100590537D01*
X120675820Y-100649502D01*
X120795518Y-100685812D01*
X120920000Y-100698072D01*
X121634250Y-100695000D01*
X121793000Y-100536250D01*
X121793000Y-99187000D01*
X120443750Y-99187000D01*
X120285000Y-99345750D01*
X120281928Y-100060000D01*
X119170000Y-100060000D01*
X119170000Y-98060000D01*
X120281928Y-98060000D01*
X120285000Y-98774250D01*
X120443750Y-98933000D01*
X121793000Y-98933000D01*
X121793000Y-97583750D01*
X121634250Y-97425000D01*
X120920000Y-97421928D01*
X120795518Y-97434188D01*
X120675820Y-97470498D01*
X120565506Y-97529463D01*
X120468815Y-97608815D01*
X120389463Y-97705506D01*
X120330498Y-97815820D01*
X120294188Y-97935518D01*
X120281928Y-98060000D01*
X119170000Y-98060000D01*
X119170000Y-92440000D01*
X120281928Y-92440000D01*
X120294188Y-92564482D01*
X120330498Y-92684180D01*
X120389463Y-92794494D01*
X120468815Y-92891185D01*
X120565506Y-92970537D01*
X120675820Y-93029502D01*
X120795518Y-93065812D01*
X120920000Y-93078072D01*
X121634250Y-93075000D01*
X121793000Y-92916250D01*
X121793000Y-91567000D01*
X120443750Y-91567000D01*
X120285000Y-91725750D01*
X120281928Y-92440000D01*
X119170000Y-92440000D01*
X119170000Y-91492055D01*
X119175127Y-91439999D01*
X119170000Y-91387943D01*
X119170000Y-91387934D01*
X119154662Y-91232204D01*
X119094050Y-91032393D01*
X118995622Y-90848247D01*
X118934070Y-90773246D01*
X118896349Y-90727282D01*
X118896345Y-90727278D01*
X118863159Y-90686841D01*
X118822722Y-90653655D01*
X118609067Y-90440000D01*
X120281928Y-90440000D01*
X120285000Y-91154250D01*
X120443750Y-91313000D01*
X121793000Y-91313000D01*
X121793000Y-89963750D01*
X121634250Y-89805000D01*
X120920000Y-89801928D01*
X120795518Y-89814188D01*
X120675820Y-89850498D01*
X120565506Y-89909463D01*
X120468815Y-89988815D01*
X120389463Y-90085506D01*
X120330498Y-90195820D01*
X120294188Y-90315518D01*
X120281928Y-90440000D01*
X118609067Y-90440000D01*
X116356353Y-88187288D01*
X116323159Y-88146841D01*
X116161753Y-88014378D01*
X115977607Y-87915950D01*
X115777796Y-87855338D01*
X115622066Y-87840000D01*
X115622056Y-87840000D01*
X115570000Y-87834873D01*
X115517944Y-87840000D01*
X113469066Y-87840000D01*
X111087137Y-85458072D01*
X112770000Y-85458072D01*
X112894482Y-85445812D01*
X113014180Y-85409502D01*
X113035000Y-85398373D01*
X113055820Y-85409502D01*
X113175518Y-85445812D01*
X113300000Y-85458072D01*
X115300000Y-85458072D01*
X115424482Y-85445812D01*
X115544180Y-85409502D01*
X115654494Y-85350537D01*
X115751185Y-85271185D01*
X115830537Y-85174494D01*
X115889502Y-85064180D01*
X115925812Y-84944482D01*
X115938072Y-84820000D01*
X115938072Y-82820000D01*
X115925812Y-82695518D01*
X115889502Y-82575820D01*
X115830537Y-82465506D01*
X115751185Y-82368815D01*
X115654494Y-82289463D01*
X115544180Y-82230498D01*
X115435001Y-82197379D01*
X115435001Y-76257240D01*
X115551827Y-76140414D01*
X115959193Y-76140414D01*
X116054957Y-76404815D01*
X116344572Y-76545705D01*
X116656109Y-76627385D01*
X116977596Y-76646719D01*
X117296676Y-76602962D01*
X117601089Y-76497796D01*
X117775045Y-76404815D01*
X117870809Y-76140414D01*
X118499193Y-76140414D01*
X118594957Y-76404815D01*
X118884572Y-76545705D01*
X119196109Y-76627385D01*
X119517596Y-76646719D01*
X119836676Y-76602962D01*
X120141089Y-76497796D01*
X120315045Y-76404815D01*
X120410809Y-76140414D01*
X119455001Y-75184606D01*
X118499193Y-76140414D01*
X117870809Y-76140414D01*
X116915001Y-75184606D01*
X115959193Y-76140414D01*
X115551827Y-76140414D01*
X115644988Y-76047253D01*
X115717721Y-75938401D01*
X115779588Y-75960809D01*
X116735396Y-75005001D01*
X117094606Y-75005001D01*
X118050414Y-75960809D01*
X118185001Y-75912063D01*
X118319588Y-75960809D01*
X119275396Y-75005001D01*
X118319588Y-74049193D01*
X118185001Y-74097939D01*
X118050414Y-74049193D01*
X117094606Y-75005001D01*
X116735396Y-75005001D01*
X115779588Y-74049193D01*
X115717721Y-74071601D01*
X115644988Y-73962749D01*
X115551827Y-73869588D01*
X115959193Y-73869588D01*
X116915001Y-74825396D01*
X117870809Y-73869588D01*
X118499193Y-73869588D01*
X119455001Y-74825396D01*
X120410809Y-73869588D01*
X120315045Y-73605187D01*
X120025430Y-73464297D01*
X119713893Y-73382617D01*
X119392406Y-73363283D01*
X119073326Y-73407040D01*
X118768913Y-73512206D01*
X118594957Y-73605187D01*
X118499193Y-73869588D01*
X117870809Y-73869588D01*
X117775045Y-73605187D01*
X117485430Y-73464297D01*
X117173893Y-73382617D01*
X116852406Y-73363283D01*
X116533326Y-73407040D01*
X116228913Y-73512206D01*
X116054957Y-73605187D01*
X115959193Y-73869588D01*
X115551827Y-73869588D01*
X115417253Y-73735014D01*
X115149464Y-73556083D01*
X114851913Y-73432833D01*
X114536034Y-73370001D01*
X114213968Y-73370001D01*
X113898089Y-73432833D01*
X113600538Y-73556083D01*
X113390192Y-73696631D01*
X113365538Y-73650507D01*
X113286186Y-73553816D01*
X113189495Y-73474464D01*
X113079181Y-73415499D01*
X112959483Y-73379189D01*
X112835001Y-73366929D01*
X110835001Y-73366929D01*
X110710519Y-73379189D01*
X110590821Y-73415499D01*
X110480507Y-73474464D01*
X110383816Y-73553816D01*
X110304464Y-73650507D01*
X110280000Y-73696275D01*
X110280000Y-72889067D01*
X120167718Y-63001350D01*
X120208160Y-62968160D01*
X120340623Y-62806754D01*
X120439051Y-62622608D01*
X120499663Y-62422797D01*
X120515001Y-62267067D01*
X120515001Y-62267059D01*
X120520128Y-62215001D01*
X120515001Y-62162943D01*
X120515001Y-61017240D01*
X120724988Y-60807253D01*
X120725001Y-60807234D01*
X120725014Y-60807253D01*
X120952749Y-61034988D01*
X121220538Y-61213919D01*
X121518089Y-61337169D01*
X121833968Y-61400001D01*
X122156034Y-61400001D01*
X122471913Y-61337169D01*
X122769464Y-61213919D01*
X123037253Y-61034988D01*
X123264988Y-60807253D01*
X123265001Y-60807234D01*
X123265014Y-60807253D01*
X123492749Y-61034988D01*
X123760538Y-61213919D01*
X124058089Y-61337169D01*
X124373968Y-61400001D01*
X124696034Y-61400001D01*
X125011913Y-61337169D01*
X125309464Y-61213919D01*
X125577253Y-61034988D01*
X125804988Y-60807253D01*
X125805001Y-60807234D01*
X125805014Y-60807253D01*
X126032749Y-61034988D01*
X126300538Y-61213919D01*
X126598089Y-61337169D01*
X126913968Y-61400001D01*
X127236034Y-61400001D01*
X127551913Y-61337169D01*
X127849464Y-61213919D01*
X128117253Y-61034988D01*
X128344988Y-60807253D01*
X128345001Y-60807234D01*
X128345014Y-60807253D01*
X128572749Y-61034988D01*
X128840538Y-61213919D01*
X129138089Y-61337169D01*
X129453968Y-61400001D01*
X129776034Y-61400001D01*
X130091913Y-61337169D01*
X130389464Y-61213919D01*
X130657253Y-61034988D01*
X130884988Y-60807253D01*
X130885001Y-60807234D01*
X130885014Y-60807253D01*
X130885014Y-60807253D01*
G37*
X130885014Y-60807253D02*
X131095001Y-61017240D01*
X131095001Y-61127158D01*
X131089874Y-61179214D01*
X131095001Y-61231270D01*
X131095001Y-61231280D01*
X131104664Y-61329380D01*
X131110340Y-61387010D01*
X131170951Y-61586820D01*
X131269380Y-61770967D01*
X131401843Y-61932373D01*
X131442285Y-61965563D01*
X140960010Y-71483289D01*
X140960010Y-73877771D01*
X140817253Y-73735014D01*
X140549464Y-73556083D01*
X140251913Y-73432833D01*
X139936034Y-73370001D01*
X139613968Y-73370001D01*
X139298089Y-73432833D01*
X139000538Y-73556083D01*
X138732749Y-73735014D01*
X138505014Y-73962749D01*
X138505001Y-73962768D01*
X138504988Y-73962749D01*
X138277253Y-73735014D01*
X138009464Y-73556083D01*
X137711913Y-73432833D01*
X137396034Y-73370001D01*
X137073968Y-73370001D01*
X136758089Y-73432833D01*
X136460538Y-73556083D01*
X136192749Y-73735014D01*
X135965014Y-73962749D01*
X135965001Y-73962768D01*
X135964988Y-73962749D01*
X135737253Y-73735014D01*
X135469464Y-73556083D01*
X135171913Y-73432833D01*
X134856034Y-73370001D01*
X134533968Y-73370001D01*
X134218089Y-73432833D01*
X133920538Y-73556083D01*
X133652749Y-73735014D01*
X133425014Y-73962749D01*
X133425001Y-73962768D01*
X133424988Y-73962749D01*
X133197253Y-73735014D01*
X132929464Y-73556083D01*
X132631913Y-73432833D01*
X132316034Y-73370001D01*
X131993968Y-73370001D01*
X131678089Y-73432833D01*
X131380538Y-73556083D01*
X131112749Y-73735014D01*
X130885014Y-73962749D01*
X130885001Y-73962768D01*
X130884988Y-73962749D01*
X130657253Y-73735014D01*
X130389464Y-73556083D01*
X130091913Y-73432833D01*
X129776034Y-73370001D01*
X129453968Y-73370001D01*
X129138089Y-73432833D01*
X128840538Y-73556083D01*
X128572749Y-73735014D01*
X128345014Y-73962749D01*
X128345001Y-73962768D01*
X128344988Y-73962749D01*
X128117253Y-73735014D01*
X127849464Y-73556083D01*
X127551913Y-73432833D01*
X127236034Y-73370001D01*
X126913968Y-73370001D01*
X126598089Y-73432833D01*
X126300538Y-73556083D01*
X126032749Y-73735014D01*
X125805014Y-73962749D01*
X125805001Y-73962768D01*
X125804988Y-73962749D01*
X125577253Y-73735014D01*
X125309464Y-73556083D01*
X125011913Y-73432833D01*
X124696034Y-73370001D01*
X124373968Y-73370001D01*
X124058089Y-73432833D01*
X123760538Y-73556083D01*
X123492749Y-73735014D01*
X123265014Y-73962749D01*
X123265001Y-73962768D01*
X123264988Y-73962749D01*
X123037253Y-73735014D01*
X122769464Y-73556083D01*
X122471913Y-73432833D01*
X122156034Y-73370001D01*
X121833968Y-73370001D01*
X121518089Y-73432833D01*
X121220538Y-73556083D01*
X120952749Y-73735014D01*
X120725014Y-73962749D01*
X120652281Y-74071601D01*
X120590414Y-74049193D01*
X119634606Y-75005001D01*
X120590414Y-75960809D01*
X120652281Y-75938401D01*
X120725014Y-76047253D01*
X120935001Y-76257240D01*
X120935002Y-82181928D01*
X120920000Y-82181928D01*
X120795518Y-82194188D01*
X120675820Y-82230498D01*
X120565506Y-82289463D01*
X120468815Y-82368815D01*
X120389463Y-82465506D01*
X120330498Y-82575820D01*
X120294188Y-82695518D01*
X120281928Y-82820000D01*
X120281928Y-84820000D01*
X120294188Y-84944482D01*
X120330498Y-85064180D01*
X120389463Y-85174494D01*
X120468815Y-85271185D01*
X120565506Y-85350537D01*
X120675820Y-85409502D01*
X120795518Y-85445812D01*
X120920000Y-85458072D01*
X122920000Y-85458072D01*
X123044482Y-85445812D01*
X123164180Y-85409502D01*
X123274494Y-85350537D01*
X123371185Y-85271185D01*
X123450537Y-85174494D01*
X123475739Y-85127345D01*
X123547248Y-85186031D01*
X123831285Y-85337852D01*
X124139484Y-85431343D01*
X124379678Y-85455000D01*
X124540322Y-85455000D01*
X124780516Y-85431343D01*
X125088715Y-85337852D01*
X125372752Y-85186031D01*
X125621714Y-84981714D01*
X125826031Y-84732752D01*
X125977852Y-84448715D01*
X126015002Y-84326249D01*
X126015002Y-90133260D01*
X125838286Y-90278286D01*
X125730000Y-90410233D01*
X125621714Y-90278286D01*
X125372752Y-90073969D01*
X125088715Y-89922148D01*
X124780516Y-89828657D01*
X124540322Y-89805000D01*
X124379678Y-89805000D01*
X124139484Y-89828657D01*
X123831285Y-89922148D01*
X123547248Y-90073969D01*
X123475739Y-90132655D01*
X123450537Y-90085506D01*
X123371185Y-89988815D01*
X123274494Y-89909463D01*
X123164180Y-89850498D01*
X123044482Y-89814188D01*
X122920000Y-89801928D01*
X122205750Y-89805000D01*
X122047000Y-89963750D01*
X122047000Y-91313000D01*
X122067000Y-91313000D01*
X122067000Y-91567000D01*
X122047000Y-91567000D01*
X122047000Y-92916250D01*
X122205750Y-93075000D01*
X122920000Y-93078072D01*
X123044482Y-93065812D01*
X123164180Y-93029502D01*
X123274494Y-92970537D01*
X123371185Y-92891185D01*
X123400001Y-92856073D01*
X123400001Y-97643927D01*
X123371185Y-97608815D01*
X123274494Y-97529463D01*
X123164180Y-97470498D01*
X123044482Y-97434188D01*
X122920000Y-97421928D01*
X122205750Y-97425000D01*
X122047000Y-97583750D01*
X122047000Y-98933000D01*
X122067000Y-98933000D01*
X122067000Y-99187000D01*
X122047000Y-99187000D01*
X122047000Y-100536250D01*
X122205750Y-100695000D01*
X122920000Y-100698072D01*
X123044482Y-100685812D01*
X123164180Y-100649502D01*
X123274494Y-100590537D01*
X123371185Y-100511185D01*
X123400001Y-100476073D01*
X123400000Y-105263927D01*
X123371185Y-105228815D01*
X123274494Y-105149463D01*
X123164180Y-105090498D01*
X123044482Y-105054188D01*
X122920000Y-105041928D01*
X122205750Y-105045000D01*
X122047000Y-105203750D01*
X122047000Y-106553000D01*
X122067000Y-106553000D01*
X122067000Y-106807000D01*
X122047000Y-106807000D01*
X122047000Y-108156250D01*
X122205750Y-108315000D01*
X122920000Y-108318072D01*
X123044482Y-108305812D01*
X123164180Y-108269502D01*
X123274494Y-108210537D01*
X123371185Y-108131185D01*
X123400000Y-108096073D01*
X123400000Y-112806809D01*
X123354494Y-112769463D01*
X123244180Y-112710498D01*
X123124482Y-112674188D01*
X123000000Y-112661928D01*
X122285750Y-112665000D01*
X122127000Y-112823750D01*
X122127000Y-114173000D01*
X122147000Y-114173000D01*
X122147000Y-114427000D01*
X122127000Y-114427000D01*
X122127000Y-115776250D01*
X122285750Y-115935000D01*
X123000000Y-115938072D01*
X123124482Y-115925812D01*
X123244180Y-115889502D01*
X123354494Y-115830537D01*
X123400000Y-115793191D01*
X123400000Y-117050000D01*
X119170000Y-117050000D01*
X119170000Y-115300000D01*
X120361928Y-115300000D01*
X120374188Y-115424482D01*
X120410498Y-115544180D01*
X120469463Y-115654494D01*
X120548815Y-115751185D01*
X120645506Y-115830537D01*
X120755820Y-115889502D01*
X120875518Y-115925812D01*
X121000000Y-115938072D01*
X121714250Y-115935000D01*
X121873000Y-115776250D01*
X121873000Y-114427000D01*
X120523750Y-114427000D01*
X120365000Y-114585750D01*
X120361928Y-115300000D01*
X119170000Y-115300000D01*
X119170000Y-113300000D01*
X120361928Y-113300000D01*
X120365000Y-114014250D01*
X120523750Y-114173000D01*
X121873000Y-114173000D01*
X121873000Y-112823750D01*
X121714250Y-112665000D01*
X121000000Y-112661928D01*
X120875518Y-112674188D01*
X120755820Y-112710498D01*
X120645506Y-112769463D01*
X120548815Y-112848815D01*
X120469463Y-112945506D01*
X120410498Y-113055820D01*
X120374188Y-113175518D01*
X120361928Y-113300000D01*
X119170000Y-113300000D01*
X119170000Y-107680000D01*
X120281928Y-107680000D01*
X120294188Y-107804482D01*
X120330498Y-107924180D01*
X120389463Y-108034494D01*
X120468815Y-108131185D01*
X120565506Y-108210537D01*
X120675820Y-108269502D01*
X120795518Y-108305812D01*
X120920000Y-108318072D01*
X121634250Y-108315000D01*
X121793000Y-108156250D01*
X121793000Y-106807000D01*
X120443750Y-106807000D01*
X120285000Y-106965750D01*
X120281928Y-107680000D01*
X119170000Y-107680000D01*
X119170000Y-105680000D01*
X120281928Y-105680000D01*
X120285000Y-106394250D01*
X120443750Y-106553000D01*
X121793000Y-106553000D01*
X121793000Y-105203750D01*
X121634250Y-105045000D01*
X120920000Y-105041928D01*
X120795518Y-105054188D01*
X120675820Y-105090498D01*
X120565506Y-105149463D01*
X120468815Y-105228815D01*
X120389463Y-105325506D01*
X120330498Y-105435820D01*
X120294188Y-105555518D01*
X120281928Y-105680000D01*
X119170000Y-105680000D01*
X119170000Y-100060000D01*
X120281928Y-100060000D01*
X120294188Y-100184482D01*
X120330498Y-100304180D01*
X120389463Y-100414494D01*
X120468815Y-100511185D01*
X120565506Y-100590537D01*
X120675820Y-100649502D01*
X120795518Y-100685812D01*
X120920000Y-100698072D01*
X121634250Y-100695000D01*
X121793000Y-100536250D01*
X121793000Y-99187000D01*
X120443750Y-99187000D01*
X120285000Y-99345750D01*
X120281928Y-100060000D01*
X119170000Y-100060000D01*
X119170000Y-98060000D01*
X120281928Y-98060000D01*
X120285000Y-98774250D01*
X120443750Y-98933000D01*
X121793000Y-98933000D01*
X121793000Y-97583750D01*
X121634250Y-97425000D01*
X120920000Y-97421928D01*
X120795518Y-97434188D01*
X120675820Y-97470498D01*
X120565506Y-97529463D01*
X120468815Y-97608815D01*
X120389463Y-97705506D01*
X120330498Y-97815820D01*
X120294188Y-97935518D01*
X120281928Y-98060000D01*
X119170000Y-98060000D01*
X119170000Y-92440000D01*
X120281928Y-92440000D01*
X120294188Y-92564482D01*
X120330498Y-92684180D01*
X120389463Y-92794494D01*
X120468815Y-92891185D01*
X120565506Y-92970537D01*
X120675820Y-93029502D01*
X120795518Y-93065812D01*
X120920000Y-93078072D01*
X121634250Y-93075000D01*
X121793000Y-92916250D01*
X121793000Y-91567000D01*
X120443750Y-91567000D01*
X120285000Y-91725750D01*
X120281928Y-92440000D01*
X119170000Y-92440000D01*
X119170000Y-91492055D01*
X119175127Y-91439999D01*
X119170000Y-91387943D01*
X119170000Y-91387934D01*
X119154662Y-91232204D01*
X119094050Y-91032393D01*
X118995622Y-90848247D01*
X118934070Y-90773246D01*
X118896349Y-90727282D01*
X118896345Y-90727278D01*
X118863159Y-90686841D01*
X118822722Y-90653655D01*
X118609067Y-90440000D01*
X120281928Y-90440000D01*
X120285000Y-91154250D01*
X120443750Y-91313000D01*
X121793000Y-91313000D01*
X121793000Y-89963750D01*
X121634250Y-89805000D01*
X120920000Y-89801928D01*
X120795518Y-89814188D01*
X120675820Y-89850498D01*
X120565506Y-89909463D01*
X120468815Y-89988815D01*
X120389463Y-90085506D01*
X120330498Y-90195820D01*
X120294188Y-90315518D01*
X120281928Y-90440000D01*
X118609067Y-90440000D01*
X116356353Y-88187288D01*
X116323159Y-88146841D01*
X116161753Y-88014378D01*
X115977607Y-87915950D01*
X115777796Y-87855338D01*
X115622066Y-87840000D01*
X115622056Y-87840000D01*
X115570000Y-87834873D01*
X115517944Y-87840000D01*
X113469066Y-87840000D01*
X111087137Y-85458072D01*
X112770000Y-85458072D01*
X112894482Y-85445812D01*
X113014180Y-85409502D01*
X113035000Y-85398373D01*
X113055820Y-85409502D01*
X113175518Y-85445812D01*
X113300000Y-85458072D01*
X115300000Y-85458072D01*
X115424482Y-85445812D01*
X115544180Y-85409502D01*
X115654494Y-85350537D01*
X115751185Y-85271185D01*
X115830537Y-85174494D01*
X115889502Y-85064180D01*
X115925812Y-84944482D01*
X115938072Y-84820000D01*
X115938072Y-82820000D01*
X115925812Y-82695518D01*
X115889502Y-82575820D01*
X115830537Y-82465506D01*
X115751185Y-82368815D01*
X115654494Y-82289463D01*
X115544180Y-82230498D01*
X115435001Y-82197379D01*
X115435001Y-76257240D01*
X115551827Y-76140414D01*
X115959193Y-76140414D01*
X116054957Y-76404815D01*
X116344572Y-76545705D01*
X116656109Y-76627385D01*
X116977596Y-76646719D01*
X117296676Y-76602962D01*
X117601089Y-76497796D01*
X117775045Y-76404815D01*
X117870809Y-76140414D01*
X118499193Y-76140414D01*
X118594957Y-76404815D01*
X118884572Y-76545705D01*
X119196109Y-76627385D01*
X119517596Y-76646719D01*
X119836676Y-76602962D01*
X120141089Y-76497796D01*
X120315045Y-76404815D01*
X120410809Y-76140414D01*
X119455001Y-75184606D01*
X118499193Y-76140414D01*
X117870809Y-76140414D01*
X116915001Y-75184606D01*
X115959193Y-76140414D01*
X115551827Y-76140414D01*
X115644988Y-76047253D01*
X115717721Y-75938401D01*
X115779588Y-75960809D01*
X116735396Y-75005001D01*
X117094606Y-75005001D01*
X118050414Y-75960809D01*
X118185001Y-75912063D01*
X118319588Y-75960809D01*
X119275396Y-75005001D01*
X118319588Y-74049193D01*
X118185001Y-74097939D01*
X118050414Y-74049193D01*
X117094606Y-75005001D01*
X116735396Y-75005001D01*
X115779588Y-74049193D01*
X115717721Y-74071601D01*
X115644988Y-73962749D01*
X115551827Y-73869588D01*
X115959193Y-73869588D01*
X116915001Y-74825396D01*
X117870809Y-73869588D01*
X118499193Y-73869588D01*
X119455001Y-74825396D01*
X120410809Y-73869588D01*
X120315045Y-73605187D01*
X120025430Y-73464297D01*
X119713893Y-73382617D01*
X119392406Y-73363283D01*
X119073326Y-73407040D01*
X118768913Y-73512206D01*
X118594957Y-73605187D01*
X118499193Y-73869588D01*
X117870809Y-73869588D01*
X117775045Y-73605187D01*
X117485430Y-73464297D01*
X117173893Y-73382617D01*
X116852406Y-73363283D01*
X116533326Y-73407040D01*
X116228913Y-73512206D01*
X116054957Y-73605187D01*
X115959193Y-73869588D01*
X115551827Y-73869588D01*
X115417253Y-73735014D01*
X115149464Y-73556083D01*
X114851913Y-73432833D01*
X114536034Y-73370001D01*
X114213968Y-73370001D01*
X113898089Y-73432833D01*
X113600538Y-73556083D01*
X113390192Y-73696631D01*
X113365538Y-73650507D01*
X113286186Y-73553816D01*
X113189495Y-73474464D01*
X113079181Y-73415499D01*
X112959483Y-73379189D01*
X112835001Y-73366929D01*
X110835001Y-73366929D01*
X110710519Y-73379189D01*
X110590821Y-73415499D01*
X110480507Y-73474464D01*
X110383816Y-73553816D01*
X110304464Y-73650507D01*
X110280000Y-73696275D01*
X110280000Y-72889067D01*
X120167718Y-63001350D01*
X120208160Y-62968160D01*
X120340623Y-62806754D01*
X120439051Y-62622608D01*
X120499663Y-62422797D01*
X120515001Y-62267067D01*
X120515001Y-62267059D01*
X120520128Y-62215001D01*
X120515001Y-62162943D01*
X120515001Y-61017240D01*
X120724988Y-60807253D01*
X120725001Y-60807234D01*
X120725014Y-60807253D01*
X120952749Y-61034988D01*
X121220538Y-61213919D01*
X121518089Y-61337169D01*
X121833968Y-61400001D01*
X122156034Y-61400001D01*
X122471913Y-61337169D01*
X122769464Y-61213919D01*
X123037253Y-61034988D01*
X123264988Y-60807253D01*
X123265001Y-60807234D01*
X123265014Y-60807253D01*
X123492749Y-61034988D01*
X123760538Y-61213919D01*
X124058089Y-61337169D01*
X124373968Y-61400001D01*
X124696034Y-61400001D01*
X125011913Y-61337169D01*
X125309464Y-61213919D01*
X125577253Y-61034988D01*
X125804988Y-60807253D01*
X125805001Y-60807234D01*
X125805014Y-60807253D01*
X126032749Y-61034988D01*
X126300538Y-61213919D01*
X126598089Y-61337169D01*
X126913968Y-61400001D01*
X127236034Y-61400001D01*
X127551913Y-61337169D01*
X127849464Y-61213919D01*
X128117253Y-61034988D01*
X128344988Y-60807253D01*
X128345001Y-60807234D01*
X128345014Y-60807253D01*
X128572749Y-61034988D01*
X128840538Y-61213919D01*
X129138089Y-61337169D01*
X129453968Y-61400001D01*
X129776034Y-61400001D01*
X130091913Y-61337169D01*
X130389464Y-61213919D01*
X130657253Y-61034988D01*
X130884988Y-60807253D01*
X130885001Y-60807234D01*
X130885014Y-60807253D01*
G36*
X166690001Y-121264950D02*
G01*
X102260000Y-121260051D01*
X102260000Y-72390000D01*
X108154872Y-72390000D01*
X108160000Y-72442066D01*
X108160001Y-85037934D01*
X108154873Y-85090000D01*
X108175339Y-85297796D01*
X108235950Y-85497606D01*
X108235951Y-85497607D01*
X108334379Y-85681753D01*
X108466842Y-85843159D01*
X108507284Y-85876349D01*
X112243650Y-89612716D01*
X112276841Y-89653159D01*
X112438247Y-89785622D01*
X112559622Y-89850498D01*
X112622393Y-89884050D01*
X112822203Y-89944662D01*
X112840319Y-89946446D01*
X112977934Y-89960000D01*
X112977942Y-89960000D01*
X113030000Y-89965127D01*
X113082058Y-89960000D01*
X115130935Y-89960000D01*
X117050000Y-91879067D01*
X117050001Y-118057924D01*
X117044872Y-118110000D01*
X117065338Y-118317796D01*
X117125950Y-118517607D01*
X117224378Y-118701753D01*
X117356841Y-118863159D01*
X117518247Y-118995622D01*
X117702393Y-119094050D01*
X117902204Y-119154662D01*
X118057934Y-119170000D01*
X118110000Y-119175128D01*
X118162066Y-119170000D01*
X124407934Y-119170000D01*
X124460000Y-119175128D01*
X124512066Y-119170000D01*
X124667796Y-119154662D01*
X124867607Y-119094050D01*
X125051753Y-118995622D01*
X125213159Y-118863159D01*
X125345622Y-118701753D01*
X125444050Y-118517607D01*
X125504662Y-118317796D01*
X125525128Y-118110000D01*
X125520000Y-118057934D01*
X125520000Y-115610842D01*
X125701714Y-115461714D01*
X125810000Y-115329767D01*
X125918286Y-115461714D01*
X126167248Y-115666031D01*
X126451285Y-115817852D01*
X126759484Y-115911343D01*
X126999678Y-115935000D01*
X127160322Y-115935000D01*
X127400516Y-115911343D01*
X127708715Y-115817852D01*
X127992752Y-115666031D01*
X128241714Y-115461714D01*
X128446031Y-115212752D01*
X128597852Y-114928715D01*
X128691343Y-114620516D01*
X128722911Y-114300000D01*
X128710014Y-114169051D01*
X133917728Y-108961338D01*
X133958170Y-108928148D01*
X134090633Y-108766742D01*
X134189061Y-108582596D01*
X134249673Y-108382785D01*
X134265011Y-108227055D01*
X134265011Y-108227047D01*
X134270138Y-108174989D01*
X134265011Y-108122931D01*
X134265011Y-100187195D01*
X134300498Y-100304180D01*
X134359463Y-100414494D01*
X134438815Y-100511185D01*
X134535506Y-100590537D01*
X134645820Y-100649502D01*
X134755001Y-100682622D01*
X134755001Y-102814238D01*
X134749509Y-102870000D01*
X134771423Y-103092498D01*
X134836324Y-103306446D01*
X134836325Y-103306447D01*
X134941717Y-103503623D01*
X135083552Y-103676449D01*
X135126860Y-103711991D01*
X136318008Y-104903140D01*
X136353551Y-104946449D01*
X136526377Y-105088284D01*
X136723553Y-105193676D01*
X136887705Y-105243471D01*
X136937500Y-105258577D01*
X136958493Y-105260644D01*
X137104248Y-105275000D01*
X137104255Y-105275000D01*
X137159999Y-105280490D01*
X137215743Y-105275000D01*
X140914249Y-105275000D01*
X140970000Y-105280491D01*
X141025751Y-105275000D01*
X141025752Y-105275000D01*
X141192499Y-105258577D01*
X141406447Y-105193676D01*
X141603623Y-105088284D01*
X141776449Y-104946449D01*
X141811996Y-104903135D01*
X144273141Y-102441991D01*
X144316449Y-102406449D01*
X144458284Y-102233623D01*
X144563676Y-102036447D01*
X144628577Y-101822499D01*
X144645000Y-101655752D01*
X144645000Y-101655743D01*
X144650490Y-101600001D01*
X144645000Y-101544259D01*
X144645000Y-57205752D01*
X144650491Y-57150000D01*
X144628577Y-56927501D01*
X144563676Y-56713553D01*
X144458284Y-56516377D01*
X144351989Y-56386856D01*
X144351987Y-56386854D01*
X144316449Y-56343551D01*
X144273146Y-56308013D01*
X141335000Y-53369869D01*
X141335000Y-53310131D01*
X142710132Y-51935000D01*
X148237379Y-51935000D01*
X148270498Y-52044180D01*
X148329463Y-52154494D01*
X148408815Y-52251185D01*
X148505506Y-52330537D01*
X148615820Y-52389502D01*
X148735518Y-52425812D01*
X148860000Y-52438072D01*
X150860000Y-52438072D01*
X150984482Y-52425812D01*
X151104180Y-52389502D01*
X151214494Y-52330537D01*
X151311185Y-52251185D01*
X151390537Y-52154494D01*
X151449502Y-52044180D01*
X151485812Y-51924482D01*
X151498072Y-51800000D01*
X151498072Y-49800000D01*
X151485812Y-49675518D01*
X151449502Y-49555820D01*
X151390537Y-49445506D01*
X151311185Y-49348815D01*
X151214494Y-49269463D01*
X151167345Y-49244261D01*
X151226031Y-49172752D01*
X151377852Y-48888715D01*
X151471343Y-48580516D01*
X151502911Y-48260000D01*
X151471343Y-47939484D01*
X151377852Y-47631285D01*
X151226031Y-47347248D01*
X151021714Y-47098286D01*
X150995000Y-47076362D01*
X150995000Y-41823638D01*
X151021714Y-41801714D01*
X151226031Y-41552752D01*
X151377852Y-41268715D01*
X151471343Y-40960516D01*
X151502911Y-40640000D01*
X151471343Y-40319484D01*
X151377852Y-40011285D01*
X151226031Y-39727248D01*
X151167345Y-39655739D01*
X151214494Y-39630537D01*
X151311185Y-39551185D01*
X151390537Y-39454494D01*
X151449502Y-39344180D01*
X151485812Y-39224482D01*
X151498072Y-39100000D01*
X151498072Y-37100000D01*
X151485812Y-36975518D01*
X151449502Y-36855820D01*
X151390537Y-36745506D01*
X151311185Y-36648815D01*
X151214494Y-36569463D01*
X151104180Y-36510498D01*
X150984482Y-36474188D01*
X150860000Y-36461928D01*
X148860000Y-36461928D01*
X148735518Y-36474188D01*
X148615820Y-36510498D01*
X148505506Y-36569463D01*
X148408815Y-36648815D01*
X148329463Y-36745506D01*
X148270498Y-36855820D01*
X148234188Y-36975518D01*
X148221928Y-37100000D01*
X148221928Y-39100000D01*
X148234188Y-39224482D01*
X148270498Y-39344180D01*
X148329463Y-39454494D01*
X148408815Y-39551185D01*
X148505506Y-39630537D01*
X148552655Y-39655739D01*
X148493969Y-39727248D01*
X148342148Y-40011285D01*
X148248657Y-40319484D01*
X148217089Y-40640000D01*
X148248657Y-40960516D01*
X148342148Y-41268715D01*
X148493969Y-41552752D01*
X148698286Y-41801714D01*
X148725001Y-41823638D01*
X148725000Y-45969868D01*
X140091996Y-37336865D01*
X140056449Y-37293551D01*
X139883623Y-37151716D01*
X139686447Y-37046324D01*
X139472499Y-36981423D01*
X139305752Y-36965000D01*
X139305751Y-36965000D01*
X139250000Y-36959509D01*
X139194249Y-36965000D01*
X135803638Y-36965000D01*
X135781714Y-36938286D01*
X135532752Y-36733969D01*
X135248715Y-36582148D01*
X134940516Y-36488657D01*
X134700322Y-36465000D01*
X134539678Y-36465000D01*
X134299484Y-36488657D01*
X133991285Y-36582148D01*
X133707248Y-36733969D01*
X133458286Y-36938286D01*
X133436362Y-36965000D01*
X128183638Y-36965000D01*
X128161714Y-36938286D01*
X127912752Y-36733969D01*
X127628715Y-36582148D01*
X127320516Y-36488657D01*
X127080322Y-36465000D01*
X126919678Y-36465000D01*
X126679484Y-36488657D01*
X126371285Y-36582148D01*
X126087248Y-36733969D01*
X125838286Y-36938286D01*
X125816362Y-36965000D01*
X120563638Y-36965000D01*
X120541714Y-36938286D01*
X120292752Y-36733969D01*
X120008715Y-36582148D01*
X119700516Y-36488657D01*
X119460322Y-36465000D01*
X119299678Y-36465000D01*
X119059484Y-36488657D01*
X118751285Y-36582148D01*
X118467248Y-36733969D01*
X118218286Y-36938286D01*
X118196362Y-36965000D01*
X112943638Y-36965000D01*
X112921714Y-36938286D01*
X112672752Y-36733969D01*
X112388715Y-36582148D01*
X112080516Y-36488657D01*
X111840322Y-36465000D01*
X111679678Y-36465000D01*
X111439484Y-36488657D01*
X111131285Y-36582148D01*
X110847248Y-36733969D01*
X110598286Y-36938286D01*
X110393969Y-37187248D01*
X110242148Y-37471285D01*
X110148657Y-37779484D01*
X110117089Y-38100000D01*
X110148657Y-38420516D01*
X110242148Y-38728715D01*
X110393969Y-39012752D01*
X110452655Y-39084261D01*
X110405506Y-39109463D01*
X110308815Y-39188815D01*
X110229463Y-39285506D01*
X110170498Y-39395820D01*
X110134188Y-39515518D01*
X110121928Y-39640000D01*
X110121928Y-41640000D01*
X110134188Y-41764482D01*
X110170498Y-41884180D01*
X110229463Y-41994494D01*
X110308815Y-42091185D01*
X110405506Y-42170537D01*
X110515820Y-42229502D01*
X110635518Y-42265812D01*
X110760000Y-42278072D01*
X112760000Y-42278072D01*
X112884482Y-42265812D01*
X113004180Y-42229502D01*
X113114494Y-42170537D01*
X113211185Y-42091185D01*
X113290537Y-41994494D01*
X113349502Y-41884180D01*
X113385812Y-41764482D01*
X113392163Y-41700000D01*
X113860935Y-41700000D01*
X118593651Y-46432717D01*
X118626841Y-46473159D01*
X118788247Y-46605622D01*
X118972393Y-46704050D01*
X119172204Y-46764662D01*
X119327934Y-46780000D01*
X119327944Y-46780000D01*
X119380000Y-46785127D01*
X119432056Y-46780000D01*
X120667761Y-46780000D01*
X120877748Y-46989987D01*
X121145537Y-47168918D01*
X121443088Y-47292168D01*
X121758967Y-47355000D01*
X122081033Y-47355000D01*
X122396912Y-47292168D01*
X122694463Y-47168918D01*
X122962252Y-46989987D01*
X123189987Y-46762252D01*
X123190000Y-46762233D01*
X123190013Y-46762252D01*
X123417748Y-46989987D01*
X123685537Y-47168918D01*
X123983088Y-47292168D01*
X124298967Y-47355000D01*
X124621033Y-47355000D01*
X124936912Y-47292168D01*
X125234463Y-47168918D01*
X125502252Y-46989987D01*
X125729987Y-46762252D01*
X125730000Y-46762233D01*
X125730013Y-46762252D01*
X125957748Y-46989987D01*
X126225537Y-47168918D01*
X126523088Y-47292168D01*
X126838967Y-47355000D01*
X127161033Y-47355000D01*
X127476912Y-47292168D01*
X127774463Y-47168918D01*
X128042252Y-46989987D01*
X128269987Y-46762252D01*
X128270000Y-46762233D01*
X128270013Y-46762252D01*
X128497748Y-46989987D01*
X128765537Y-47168918D01*
X129063088Y-47292168D01*
X129378967Y-47355000D01*
X129701033Y-47355000D01*
X130016912Y-47292168D01*
X130314463Y-47168918D01*
X130582252Y-46989987D01*
X130809987Y-46762252D01*
X130810000Y-46762233D01*
X130810013Y-46762252D01*
X131037748Y-46989987D01*
X131305537Y-47168918D01*
X131603088Y-47292168D01*
X131918967Y-47355000D01*
X132241033Y-47355000D01*
X132556912Y-47292168D01*
X132854463Y-47168918D01*
X133122252Y-46989987D01*
X133349987Y-46762252D01*
X133350000Y-46762233D01*
X133350013Y-46762252D01*
X133577748Y-46989987D01*
X133845537Y-47168918D01*
X134143088Y-47292168D01*
X134458967Y-47355000D01*
X134781033Y-47355000D01*
X135096912Y-47292168D01*
X135394463Y-47168918D01*
X135662252Y-46989987D01*
X135889987Y-46762252D01*
X135890000Y-46762233D01*
X135890013Y-46762252D01*
X136117748Y-46989987D01*
X136385537Y-47168918D01*
X136683088Y-47292168D01*
X136998967Y-47355000D01*
X137321033Y-47355000D01*
X137636912Y-47292168D01*
X137934463Y-47168918D01*
X138202252Y-46989987D01*
X138429987Y-46762252D01*
X138430000Y-46762233D01*
X138430013Y-46762252D01*
X138657748Y-46989987D01*
X138925537Y-47168918D01*
X139223088Y-47292168D01*
X139538967Y-47355000D01*
X139729869Y-47355000D01*
X141398009Y-49023141D01*
X141433551Y-49066449D01*
X141606377Y-49208284D01*
X141803553Y-49313676D01*
X142017501Y-49378577D01*
X142184248Y-49395000D01*
X142184257Y-49395000D01*
X142239999Y-49400490D01*
X142295741Y-49395000D01*
X148370912Y-49395000D01*
X148329463Y-49445506D01*
X148270498Y-49555820D01*
X148237379Y-49665000D01*
X142295741Y-49665000D01*
X142239999Y-49659510D01*
X142184257Y-49665000D01*
X142184248Y-49665000D01*
X142017501Y-49681423D01*
X141803553Y-49746324D01*
X141606377Y-49851716D01*
X141433551Y-49993551D01*
X141398009Y-50036859D01*
X140835000Y-50599868D01*
X140835000Y-49585752D01*
X140840491Y-49530000D01*
X140818577Y-49307501D01*
X140753676Y-49093553D01*
X140648284Y-48896377D01*
X140506449Y-48723551D01*
X140333623Y-48581716D01*
X140136447Y-48476324D01*
X139922499Y-48411423D01*
X139755752Y-48395000D01*
X139700000Y-48389509D01*
X139644249Y-48395000D01*
X112355741Y-48395000D01*
X112299999Y-48389510D01*
X112244257Y-48395000D01*
X112244248Y-48395000D01*
X112077501Y-48411423D01*
X111863553Y-48476324D01*
X111666377Y-48581716D01*
X111493551Y-48723551D01*
X111458004Y-48766865D01*
X110996865Y-49228004D01*
X110953551Y-49263551D01*
X110811716Y-49436377D01*
X110710345Y-49626031D01*
X110706324Y-49633554D01*
X110641423Y-49847502D01*
X110619509Y-50070000D01*
X110625000Y-50125752D01*
X110625000Y-50447379D01*
X110515820Y-50480498D01*
X110405506Y-50539463D01*
X110308815Y-50618815D01*
X110229463Y-50715506D01*
X110170498Y-50825820D01*
X110134188Y-50945518D01*
X110121928Y-51070000D01*
X110121928Y-53070000D01*
X110134188Y-53194482D01*
X110170498Y-53314180D01*
X110229463Y-53424494D01*
X110308815Y-53521185D01*
X110405506Y-53600537D01*
X110515820Y-53659502D01*
X110625000Y-53692622D01*
X110625001Y-55454239D01*
X110619509Y-55510000D01*
X110641423Y-55732498D01*
X110706324Y-55946446D01*
X110706325Y-55946447D01*
X110811717Y-56143623D01*
X110953552Y-56316449D01*
X110996860Y-56351991D01*
X113236316Y-58591447D01*
X113105014Y-58722749D01*
X113105001Y-58722768D01*
X113104988Y-58722749D01*
X112877253Y-58495014D01*
X112609464Y-58316083D01*
X112311913Y-58192833D01*
X111996034Y-58130001D01*
X111673968Y-58130001D01*
X111358089Y-58192833D01*
X111060538Y-58316083D01*
X110792749Y-58495014D01*
X110565014Y-58722749D01*
X110386083Y-58990538D01*
X110262833Y-59288089D01*
X110200001Y-59603968D01*
X110200001Y-59926034D01*
X110262833Y-60241913D01*
X110386083Y-60539464D01*
X110565014Y-60807253D01*
X110792749Y-61034988D01*
X111060538Y-61213919D01*
X111358089Y-61337169D01*
X111673968Y-61400001D01*
X111996034Y-61400001D01*
X112311913Y-61337169D01*
X112609464Y-61213919D01*
X112877253Y-61034988D01*
X113104988Y-60807253D01*
X113105001Y-60807234D01*
X113105014Y-60807253D01*
X113332749Y-61034988D01*
X113600538Y-61213919D01*
X113898089Y-61337169D01*
X114213968Y-61400001D01*
X114536034Y-61400001D01*
X114851913Y-61337169D01*
X115149464Y-61213919D01*
X115417253Y-61034988D01*
X115644988Y-60807253D01*
X115645001Y-60807234D01*
X115645014Y-60807253D01*
X115872749Y-61034988D01*
X116140538Y-61213919D01*
X116438089Y-61337169D01*
X116753968Y-61400001D01*
X117076034Y-61400001D01*
X117391913Y-61337169D01*
X117689464Y-61213919D01*
X117957253Y-61034988D01*
X118184988Y-60807253D01*
X118185001Y-60807234D01*
X118185014Y-60807253D01*
X118395002Y-61017241D01*
X118395002Y-61775934D01*
X108710552Y-71460385D01*
X108628247Y-71504378D01*
X108466841Y-71636841D01*
X108334378Y-71798247D01*
X108235950Y-71982393D01*
X108175338Y-72182204D01*
X108154872Y-72390000D01*
X102260000Y-72390000D01*
X102260000Y-31140000D01*
X166690000Y-31140000D01*
X166690001Y-121264950D01*
X166690001Y-121264950D01*
G37*
X166690001Y-121264950D02*
X102260000Y-121260051D01*
X102260000Y-72390000D01*
X108154872Y-72390000D01*
X108160000Y-72442066D01*
X108160001Y-85037934D01*
X108154873Y-85090000D01*
X108175339Y-85297796D01*
X108235950Y-85497606D01*
X108235951Y-85497607D01*
X108334379Y-85681753D01*
X108466842Y-85843159D01*
X108507284Y-85876349D01*
X112243650Y-89612716D01*
X112276841Y-89653159D01*
X112438247Y-89785622D01*
X112559622Y-89850498D01*
X112622393Y-89884050D01*
X112822203Y-89944662D01*
X112840319Y-89946446D01*
X112977934Y-89960000D01*
X112977942Y-89960000D01*
X113030000Y-89965127D01*
X113082058Y-89960000D01*
X115130935Y-89960000D01*
X117050000Y-91879067D01*
X117050001Y-118057924D01*
X117044872Y-118110000D01*
X117065338Y-118317796D01*
X117125950Y-118517607D01*
X117224378Y-118701753D01*
X117356841Y-118863159D01*
X117518247Y-118995622D01*
X117702393Y-119094050D01*
X117902204Y-119154662D01*
X118057934Y-119170000D01*
X118110000Y-119175128D01*
X118162066Y-119170000D01*
X124407934Y-119170000D01*
X124460000Y-119175128D01*
X124512066Y-119170000D01*
X124667796Y-119154662D01*
X124867607Y-119094050D01*
X125051753Y-118995622D01*
X125213159Y-118863159D01*
X125345622Y-118701753D01*
X125444050Y-118517607D01*
X125504662Y-118317796D01*
X125525128Y-118110000D01*
X125520000Y-118057934D01*
X125520000Y-115610842D01*
X125701714Y-115461714D01*
X125810000Y-115329767D01*
X125918286Y-115461714D01*
X126167248Y-115666031D01*
X126451285Y-115817852D01*
X126759484Y-115911343D01*
X126999678Y-115935000D01*
X127160322Y-115935000D01*
X127400516Y-115911343D01*
X127708715Y-115817852D01*
X127992752Y-115666031D01*
X128241714Y-115461714D01*
X128446031Y-115212752D01*
X128597852Y-114928715D01*
X128691343Y-114620516D01*
X128722911Y-114300000D01*
X128710014Y-114169051D01*
X133917728Y-108961338D01*
X133958170Y-108928148D01*
X134090633Y-108766742D01*
X134189061Y-108582596D01*
X134249673Y-108382785D01*
X134265011Y-108227055D01*
X134265011Y-108227047D01*
X134270138Y-108174989D01*
X134265011Y-108122931D01*
X134265011Y-100187195D01*
X134300498Y-100304180D01*
X134359463Y-100414494D01*
X134438815Y-100511185D01*
X134535506Y-100590537D01*
X134645820Y-100649502D01*
X134755001Y-100682622D01*
X134755001Y-102814238D01*
X134749509Y-102870000D01*
X134771423Y-103092498D01*
X134836324Y-103306446D01*
X134836325Y-103306447D01*
X134941717Y-103503623D01*
X135083552Y-103676449D01*
X135126860Y-103711991D01*
X136318008Y-104903140D01*
X136353551Y-104946449D01*
X136526377Y-105088284D01*
X136723553Y-105193676D01*
X136887705Y-105243471D01*
X136937500Y-105258577D01*
X136958493Y-105260644D01*
X137104248Y-105275000D01*
X137104255Y-105275000D01*
X137159999Y-105280490D01*
X137215743Y-105275000D01*
X140914249Y-105275000D01*
X140970000Y-105280491D01*
X141025751Y-105275000D01*
X141025752Y-105275000D01*
X141192499Y-105258577D01*
X141406447Y-105193676D01*
X141603623Y-105088284D01*
X141776449Y-104946449D01*
X141811996Y-104903135D01*
X144273141Y-102441991D01*
X144316449Y-102406449D01*
X144458284Y-102233623D01*
X144563676Y-102036447D01*
X144628577Y-101822499D01*
X144645000Y-101655752D01*
X144645000Y-101655743D01*
X144650490Y-101600001D01*
X144645000Y-101544259D01*
X144645000Y-57205752D01*
X144650491Y-57150000D01*
X144628577Y-56927501D01*
X144563676Y-56713553D01*
X144458284Y-56516377D01*
X144351989Y-56386856D01*
X144351987Y-56386854D01*
X144316449Y-56343551D01*
X144273146Y-56308013D01*
X141335000Y-53369869D01*
X141335000Y-53310131D01*
X142710132Y-51935000D01*
X148237379Y-51935000D01*
X148270498Y-52044180D01*
X148329463Y-52154494D01*
X148408815Y-52251185D01*
X148505506Y-52330537D01*
X148615820Y-52389502D01*
X148735518Y-52425812D01*
X148860000Y-52438072D01*
X150860000Y-52438072D01*
X150984482Y-52425812D01*
X151104180Y-52389502D01*
X151214494Y-52330537D01*
X151311185Y-52251185D01*
X151390537Y-52154494D01*
X151449502Y-52044180D01*
X151485812Y-51924482D01*
X151498072Y-51800000D01*
X151498072Y-49800000D01*
X151485812Y-49675518D01*
X151449502Y-49555820D01*
X151390537Y-49445506D01*
X151311185Y-49348815D01*
X151214494Y-49269463D01*
X151167345Y-49244261D01*
X151226031Y-49172752D01*
X151377852Y-48888715D01*
X151471343Y-48580516D01*
X151502911Y-48260000D01*
X151471343Y-47939484D01*
X151377852Y-47631285D01*
X151226031Y-47347248D01*
X151021714Y-47098286D01*
X150995000Y-47076362D01*
X150995000Y-41823638D01*
X151021714Y-41801714D01*
X151226031Y-41552752D01*
X151377852Y-41268715D01*
X151471343Y-40960516D01*
X151502911Y-40640000D01*
X151471343Y-40319484D01*
X151377852Y-40011285D01*
X151226031Y-39727248D01*
X151167345Y-39655739D01*
X151214494Y-39630537D01*
X151311185Y-39551185D01*
X151390537Y-39454494D01*
X151449502Y-39344180D01*
X151485812Y-39224482D01*
X151498072Y-39100000D01*
X151498072Y-37100000D01*
X151485812Y-36975518D01*
X151449502Y-36855820D01*
X151390537Y-36745506D01*
X151311185Y-36648815D01*
X151214494Y-36569463D01*
X151104180Y-36510498D01*
X150984482Y-36474188D01*
X150860000Y-36461928D01*
X148860000Y-36461928D01*
X148735518Y-36474188D01*
X148615820Y-36510498D01*
X148505506Y-36569463D01*
X148408815Y-36648815D01*
X148329463Y-36745506D01*
X148270498Y-36855820D01*
X148234188Y-36975518D01*
X148221928Y-37100000D01*
X148221928Y-39100000D01*
X148234188Y-39224482D01*
X148270498Y-39344180D01*
X148329463Y-39454494D01*
X148408815Y-39551185D01*
X148505506Y-39630537D01*
X148552655Y-39655739D01*
X148493969Y-39727248D01*
X148342148Y-40011285D01*
X148248657Y-40319484D01*
X148217089Y-40640000D01*
X148248657Y-40960516D01*
X148342148Y-41268715D01*
X148493969Y-41552752D01*
X148698286Y-41801714D01*
X148725001Y-41823638D01*
X148725000Y-45969868D01*
X140091996Y-37336865D01*
X140056449Y-37293551D01*
X139883623Y-37151716D01*
X139686447Y-37046324D01*
X139472499Y-36981423D01*
X139305752Y-36965000D01*
X139305751Y-36965000D01*
X139250000Y-36959509D01*
X139194249Y-36965000D01*
X135803638Y-36965000D01*
X135781714Y-36938286D01*
X135532752Y-36733969D01*
X135248715Y-36582148D01*
X134940516Y-36488657D01*
X134700322Y-36465000D01*
X134539678Y-36465000D01*
X134299484Y-36488657D01*
X133991285Y-36582148D01*
X133707248Y-36733969D01*
X133458286Y-36938286D01*
X133436362Y-36965000D01*
X128183638Y-36965000D01*
X128161714Y-36938286D01*
X127912752Y-36733969D01*
X127628715Y-36582148D01*
X127320516Y-36488657D01*
X127080322Y-36465000D01*
X126919678Y-36465000D01*
X126679484Y-36488657D01*
X126371285Y-36582148D01*
X126087248Y-36733969D01*
X125838286Y-36938286D01*
X125816362Y-36965000D01*
X120563638Y-36965000D01*
X120541714Y-36938286D01*
X120292752Y-36733969D01*
X120008715Y-36582148D01*
X119700516Y-36488657D01*
X119460322Y-36465000D01*
X119299678Y-36465000D01*
X119059484Y-36488657D01*
X118751285Y-36582148D01*
X118467248Y-36733969D01*
X118218286Y-36938286D01*
X118196362Y-36965000D01*
X112943638Y-36965000D01*
X112921714Y-36938286D01*
X112672752Y-36733969D01*
X112388715Y-36582148D01*
X112080516Y-36488657D01*
X111840322Y-36465000D01*
X111679678Y-36465000D01*
X111439484Y-36488657D01*
X111131285Y-36582148D01*
X110847248Y-36733969D01*
X110598286Y-36938286D01*
X110393969Y-37187248D01*
X110242148Y-37471285D01*
X110148657Y-37779484D01*
X110117089Y-38100000D01*
X110148657Y-38420516D01*
X110242148Y-38728715D01*
X110393969Y-39012752D01*
X110452655Y-39084261D01*
X110405506Y-39109463D01*
X110308815Y-39188815D01*
X110229463Y-39285506D01*
X110170498Y-39395820D01*
X110134188Y-39515518D01*
X110121928Y-39640000D01*
X110121928Y-41640000D01*
X110134188Y-41764482D01*
X110170498Y-41884180D01*
X110229463Y-41994494D01*
X110308815Y-42091185D01*
X110405506Y-42170537D01*
X110515820Y-42229502D01*
X110635518Y-42265812D01*
X110760000Y-42278072D01*
X112760000Y-42278072D01*
X112884482Y-42265812D01*
X113004180Y-42229502D01*
X113114494Y-42170537D01*
X113211185Y-42091185D01*
X113290537Y-41994494D01*
X113349502Y-41884180D01*
X113385812Y-41764482D01*
X113392163Y-41700000D01*
X113860935Y-41700000D01*
X118593651Y-46432717D01*
X118626841Y-46473159D01*
X118788247Y-46605622D01*
X118972393Y-46704050D01*
X119172204Y-46764662D01*
X119327934Y-46780000D01*
X119327944Y-46780000D01*
X119380000Y-46785127D01*
X119432056Y-46780000D01*
X120667761Y-46780000D01*
X120877748Y-46989987D01*
X121145537Y-47168918D01*
X121443088Y-47292168D01*
X121758967Y-47355000D01*
X122081033Y-47355000D01*
X122396912Y-47292168D01*
X122694463Y-47168918D01*
X122962252Y-46989987D01*
X123189987Y-46762252D01*
X123190000Y-46762233D01*
X123190013Y-46762252D01*
X123417748Y-46989987D01*
X123685537Y-47168918D01*
X123983088Y-47292168D01*
X124298967Y-47355000D01*
X124621033Y-47355000D01*
X124936912Y-47292168D01*
X125234463Y-47168918D01*
X125502252Y-46989987D01*
X125729987Y-46762252D01*
X125730000Y-46762233D01*
X125730013Y-46762252D01*
X125957748Y-46989987D01*
X126225537Y-47168918D01*
X126523088Y-47292168D01*
X126838967Y-47355000D01*
X127161033Y-47355000D01*
X127476912Y-47292168D01*
X127774463Y-47168918D01*
X128042252Y-46989987D01*
X128269987Y-46762252D01*
X128270000Y-46762233D01*
X128270013Y-46762252D01*
X128497748Y-46989987D01*
X128765537Y-47168918D01*
X129063088Y-47292168D01*
X129378967Y-47355000D01*
X129701033Y-47355000D01*
X130016912Y-47292168D01*
X130314463Y-47168918D01*
X130582252Y-46989987D01*
X130809987Y-46762252D01*
X130810000Y-46762233D01*
X130810013Y-46762252D01*
X131037748Y-46989987D01*
X131305537Y-47168918D01*
X131603088Y-47292168D01*
X131918967Y-47355000D01*
X132241033Y-47355000D01*
X132556912Y-47292168D01*
X132854463Y-47168918D01*
X133122252Y-46989987D01*
X133349987Y-46762252D01*
X133350000Y-46762233D01*
X133350013Y-46762252D01*
X133577748Y-46989987D01*
X133845537Y-47168918D01*
X134143088Y-47292168D01*
X134458967Y-47355000D01*
X134781033Y-47355000D01*
X135096912Y-47292168D01*
X135394463Y-47168918D01*
X135662252Y-46989987D01*
X135889987Y-46762252D01*
X135890000Y-46762233D01*
X135890013Y-46762252D01*
X136117748Y-46989987D01*
X136385537Y-47168918D01*
X136683088Y-47292168D01*
X136998967Y-47355000D01*
X137321033Y-47355000D01*
X137636912Y-47292168D01*
X137934463Y-47168918D01*
X138202252Y-46989987D01*
X138429987Y-46762252D01*
X138430000Y-46762233D01*
X138430013Y-46762252D01*
X138657748Y-46989987D01*
X138925537Y-47168918D01*
X139223088Y-47292168D01*
X139538967Y-47355000D01*
X139729869Y-47355000D01*
X141398009Y-49023141D01*
X141433551Y-49066449D01*
X141606377Y-49208284D01*
X141803553Y-49313676D01*
X142017501Y-49378577D01*
X142184248Y-49395000D01*
X142184257Y-49395000D01*
X142239999Y-49400490D01*
X142295741Y-49395000D01*
X148370912Y-49395000D01*
X148329463Y-49445506D01*
X148270498Y-49555820D01*
X148237379Y-49665000D01*
X142295741Y-49665000D01*
X142239999Y-49659510D01*
X142184257Y-49665000D01*
X142184248Y-49665000D01*
X142017501Y-49681423D01*
X141803553Y-49746324D01*
X141606377Y-49851716D01*
X141433551Y-49993551D01*
X141398009Y-50036859D01*
X140835000Y-50599868D01*
X140835000Y-49585752D01*
X140840491Y-49530000D01*
X140818577Y-49307501D01*
X140753676Y-49093553D01*
X140648284Y-48896377D01*
X140506449Y-48723551D01*
X140333623Y-48581716D01*
X140136447Y-48476324D01*
X139922499Y-48411423D01*
X139755752Y-48395000D01*
X139700000Y-48389509D01*
X139644249Y-48395000D01*
X112355741Y-48395000D01*
X112299999Y-48389510D01*
X112244257Y-48395000D01*
X112244248Y-48395000D01*
X112077501Y-48411423D01*
X111863553Y-48476324D01*
X111666377Y-48581716D01*
X111493551Y-48723551D01*
X111458004Y-48766865D01*
X110996865Y-49228004D01*
X110953551Y-49263551D01*
X110811716Y-49436377D01*
X110710345Y-49626031D01*
X110706324Y-49633554D01*
X110641423Y-49847502D01*
X110619509Y-50070000D01*
X110625000Y-50125752D01*
X110625000Y-50447379D01*
X110515820Y-50480498D01*
X110405506Y-50539463D01*
X110308815Y-50618815D01*
X110229463Y-50715506D01*
X110170498Y-50825820D01*
X110134188Y-50945518D01*
X110121928Y-51070000D01*
X110121928Y-53070000D01*
X110134188Y-53194482D01*
X110170498Y-53314180D01*
X110229463Y-53424494D01*
X110308815Y-53521185D01*
X110405506Y-53600537D01*
X110515820Y-53659502D01*
X110625000Y-53692622D01*
X110625001Y-55454239D01*
X110619509Y-55510000D01*
X110641423Y-55732498D01*
X110706324Y-55946446D01*
X110706325Y-55946447D01*
X110811717Y-56143623D01*
X110953552Y-56316449D01*
X110996860Y-56351991D01*
X113236316Y-58591447D01*
X113105014Y-58722749D01*
X113105001Y-58722768D01*
X113104988Y-58722749D01*
X112877253Y-58495014D01*
X112609464Y-58316083D01*
X112311913Y-58192833D01*
X111996034Y-58130001D01*
X111673968Y-58130001D01*
X111358089Y-58192833D01*
X111060538Y-58316083D01*
X110792749Y-58495014D01*
X110565014Y-58722749D01*
X110386083Y-58990538D01*
X110262833Y-59288089D01*
X110200001Y-59603968D01*
X110200001Y-59926034D01*
X110262833Y-60241913D01*
X110386083Y-60539464D01*
X110565014Y-60807253D01*
X110792749Y-61034988D01*
X111060538Y-61213919D01*
X111358089Y-61337169D01*
X111673968Y-61400001D01*
X111996034Y-61400001D01*
X112311913Y-61337169D01*
X112609464Y-61213919D01*
X112877253Y-61034988D01*
X113104988Y-60807253D01*
X113105001Y-60807234D01*
X113105014Y-60807253D01*
X113332749Y-61034988D01*
X113600538Y-61213919D01*
X113898089Y-61337169D01*
X114213968Y-61400001D01*
X114536034Y-61400001D01*
X114851913Y-61337169D01*
X115149464Y-61213919D01*
X115417253Y-61034988D01*
X115644988Y-60807253D01*
X115645001Y-60807234D01*
X115645014Y-60807253D01*
X115872749Y-61034988D01*
X116140538Y-61213919D01*
X116438089Y-61337169D01*
X116753968Y-61400001D01*
X117076034Y-61400001D01*
X117391913Y-61337169D01*
X117689464Y-61213919D01*
X117957253Y-61034988D01*
X118184988Y-60807253D01*
X118185001Y-60807234D01*
X118185014Y-60807253D01*
X118395002Y-61017241D01*
X118395002Y-61775934D01*
X108710552Y-71460385D01*
X108628247Y-71504378D01*
X108466841Y-71636841D01*
X108334378Y-71798247D01*
X108235950Y-71982393D01*
X108175338Y-72182204D01*
X108154872Y-72390000D01*
X102260000Y-72390000D01*
X102260000Y-31140000D01*
X166690000Y-31140000D01*
X166690001Y-121264950D01*
G36*
X115780002Y-85929240D02*
G01*
X115774510Y-85985001D01*
X115796424Y-86207499D01*
X115861325Y-86421447D01*
X115861326Y-86421448D01*
X115966718Y-86618624D01*
X116108553Y-86791450D01*
X116151861Y-86826992D01*
X120281928Y-90957060D01*
X120281928Y-92440000D01*
X120294188Y-92564482D01*
X120330498Y-92684180D01*
X120389463Y-92794494D01*
X120468815Y-92891185D01*
X120565506Y-92970537D01*
X120675820Y-93029502D01*
X120785000Y-93062621D01*
X120785000Y-97437379D01*
X120675820Y-97470498D01*
X120565506Y-97529463D01*
X120468815Y-97608815D01*
X120389463Y-97705506D01*
X120330498Y-97815820D01*
X120294188Y-97935518D01*
X120281928Y-98060000D01*
X120281928Y-100060000D01*
X120294188Y-100184482D01*
X120330498Y-100304180D01*
X120389463Y-100414494D01*
X120468815Y-100511185D01*
X120565506Y-100590537D01*
X120675820Y-100649502D01*
X120785000Y-100682622D01*
X120785001Y-105057378D01*
X120675820Y-105090498D01*
X120565506Y-105149463D01*
X120468815Y-105228815D01*
X120389463Y-105325506D01*
X120330498Y-105435820D01*
X120294188Y-105555518D01*
X120281928Y-105680000D01*
X120281928Y-107680000D01*
X120294188Y-107804482D01*
X120330498Y-107924180D01*
X120389463Y-108034494D01*
X120468815Y-108131185D01*
X120565506Y-108210537D01*
X120675820Y-108269502D01*
X120785001Y-108302622D01*
X120785001Y-112701646D01*
X120755820Y-112710498D01*
X120645506Y-112769463D01*
X120548815Y-112848815D01*
X120469463Y-112945506D01*
X120410498Y-113055820D01*
X120374188Y-113175518D01*
X120361928Y-113300000D01*
X120361928Y-115300000D01*
X120374188Y-115424482D01*
X120410498Y-115544180D01*
X120469463Y-115654494D01*
X120548815Y-115751185D01*
X120645506Y-115830537D01*
X120755820Y-115889502D01*
X120875518Y-115925812D01*
X121000000Y-115938072D01*
X123000000Y-115938072D01*
X123124482Y-115925812D01*
X123244180Y-115889502D01*
X123354494Y-115830537D01*
X123400000Y-115793191D01*
X123400000Y-117050000D01*
X119170000Y-117050000D01*
X119170000Y-91492055D01*
X119175127Y-91439999D01*
X119170000Y-91387943D01*
X119170000Y-91387934D01*
X119154662Y-91232204D01*
X119094050Y-91032393D01*
X118995622Y-90848247D01*
X118934070Y-90773246D01*
X118896349Y-90727282D01*
X118896345Y-90727278D01*
X118863159Y-90686841D01*
X118822722Y-90653655D01*
X116356353Y-88187288D01*
X116323159Y-88146841D01*
X116161753Y-88014378D01*
X115977607Y-87915950D01*
X115777796Y-87855338D01*
X115622066Y-87840000D01*
X115622056Y-87840000D01*
X115570000Y-87834873D01*
X115517944Y-87840000D01*
X113469066Y-87840000D01*
X111087137Y-85458072D01*
X112770000Y-85458072D01*
X112894482Y-85445812D01*
X113014180Y-85409502D01*
X113035000Y-85398373D01*
X113055820Y-85409502D01*
X113175518Y-85445812D01*
X113300000Y-85458072D01*
X115300000Y-85458072D01*
X115424482Y-85445812D01*
X115544180Y-85409502D01*
X115654494Y-85350537D01*
X115751185Y-85271185D01*
X115780002Y-85236071D01*
X115780002Y-85929240D01*
X115780002Y-85929240D01*
G37*
X115780002Y-85929240D02*
X115774510Y-85985001D01*
X115796424Y-86207499D01*
X115861325Y-86421447D01*
X115861326Y-86421448D01*
X115966718Y-86618624D01*
X116108553Y-86791450D01*
X116151861Y-86826992D01*
X120281928Y-90957060D01*
X120281928Y-92440000D01*
X120294188Y-92564482D01*
X120330498Y-92684180D01*
X120389463Y-92794494D01*
X120468815Y-92891185D01*
X120565506Y-92970537D01*
X120675820Y-93029502D01*
X120785000Y-93062621D01*
X120785000Y-97437379D01*
X120675820Y-97470498D01*
X120565506Y-97529463D01*
X120468815Y-97608815D01*
X120389463Y-97705506D01*
X120330498Y-97815820D01*
X120294188Y-97935518D01*
X120281928Y-98060000D01*
X120281928Y-100060000D01*
X120294188Y-100184482D01*
X120330498Y-100304180D01*
X120389463Y-100414494D01*
X120468815Y-100511185D01*
X120565506Y-100590537D01*
X120675820Y-100649502D01*
X120785000Y-100682622D01*
X120785001Y-105057378D01*
X120675820Y-105090498D01*
X120565506Y-105149463D01*
X120468815Y-105228815D01*
X120389463Y-105325506D01*
X120330498Y-105435820D01*
X120294188Y-105555518D01*
X120281928Y-105680000D01*
X120281928Y-107680000D01*
X120294188Y-107804482D01*
X120330498Y-107924180D01*
X120389463Y-108034494D01*
X120468815Y-108131185D01*
X120565506Y-108210537D01*
X120675820Y-108269502D01*
X120785001Y-108302622D01*
X120785001Y-112701646D01*
X120755820Y-112710498D01*
X120645506Y-112769463D01*
X120548815Y-112848815D01*
X120469463Y-112945506D01*
X120410498Y-113055820D01*
X120374188Y-113175518D01*
X120361928Y-113300000D01*
X120361928Y-115300000D01*
X120374188Y-115424482D01*
X120410498Y-115544180D01*
X120469463Y-115654494D01*
X120548815Y-115751185D01*
X120645506Y-115830537D01*
X120755820Y-115889502D01*
X120875518Y-115925812D01*
X121000000Y-115938072D01*
X123000000Y-115938072D01*
X123124482Y-115925812D01*
X123244180Y-115889502D01*
X123354494Y-115830537D01*
X123400000Y-115793191D01*
X123400000Y-117050000D01*
X119170000Y-117050000D01*
X119170000Y-91492055D01*
X119175127Y-91439999D01*
X119170000Y-91387943D01*
X119170000Y-91387934D01*
X119154662Y-91232204D01*
X119094050Y-91032393D01*
X118995622Y-90848247D01*
X118934070Y-90773246D01*
X118896349Y-90727282D01*
X118896345Y-90727278D01*
X118863159Y-90686841D01*
X118822722Y-90653655D01*
X116356353Y-88187288D01*
X116323159Y-88146841D01*
X116161753Y-88014378D01*
X115977607Y-87915950D01*
X115777796Y-87855338D01*
X115622066Y-87840000D01*
X115622056Y-87840000D01*
X115570000Y-87834873D01*
X115517944Y-87840000D01*
X113469066Y-87840000D01*
X111087137Y-85458072D01*
X112770000Y-85458072D01*
X112894482Y-85445812D01*
X113014180Y-85409502D01*
X113035000Y-85398373D01*
X113055820Y-85409502D01*
X113175518Y-85445812D01*
X113300000Y-85458072D01*
X115300000Y-85458072D01*
X115424482Y-85445812D01*
X115544180Y-85409502D01*
X115654494Y-85350537D01*
X115751185Y-85271185D01*
X115780002Y-85236071D01*
X115780002Y-85929240D01*
G36*
X132145011Y-107735923D02*
G01*
X127210949Y-112669986D01*
X127160322Y-112665000D01*
X126999678Y-112665000D01*
X126759484Y-112688657D01*
X126451285Y-112782148D01*
X126167248Y-112933969D01*
X125918286Y-113138286D01*
X125810000Y-113270233D01*
X125701714Y-113138286D01*
X125520000Y-112989158D01*
X125520000Y-107925188D01*
X125621714Y-107841714D01*
X125730000Y-107709767D01*
X125838286Y-107841714D01*
X126087248Y-108046031D01*
X126371285Y-108197852D01*
X126679484Y-108291343D01*
X126919678Y-108315000D01*
X127080322Y-108315000D01*
X127320516Y-108291343D01*
X127628715Y-108197852D01*
X127912752Y-108046031D01*
X128161714Y-107841714D01*
X128366031Y-107592752D01*
X128517852Y-107308715D01*
X128611343Y-107000516D01*
X128642911Y-106680000D01*
X128630014Y-106549052D01*
X132145011Y-103034056D01*
X132145011Y-107735923D01*
X132145011Y-107735923D01*
G37*
X132145011Y-107735923D02*
X127210949Y-112669986D01*
X127160322Y-112665000D01*
X126999678Y-112665000D01*
X126759484Y-112688657D01*
X126451285Y-112782148D01*
X126167248Y-112933969D01*
X125918286Y-113138286D01*
X125810000Y-113270233D01*
X125701714Y-113138286D01*
X125520000Y-112989158D01*
X125520000Y-107925188D01*
X125621714Y-107841714D01*
X125730000Y-107709767D01*
X125838286Y-107841714D01*
X126087248Y-108046031D01*
X126371285Y-108197852D01*
X126679484Y-108291343D01*
X126919678Y-108315000D01*
X127080322Y-108315000D01*
X127320516Y-108291343D01*
X127628715Y-108197852D01*
X127912752Y-108046031D01*
X128161714Y-107841714D01*
X128366031Y-107592752D01*
X128517852Y-107308715D01*
X128611343Y-107000516D01*
X128642911Y-106680000D01*
X128630014Y-106549052D01*
X132145011Y-103034056D01*
X132145011Y-107735923D01*
G36*
X123400000Y-112806809D02*
G01*
X123354494Y-112769463D01*
X123244180Y-112710498D01*
X123124482Y-112674188D01*
X123055000Y-112667345D01*
X123055000Y-108302621D01*
X123164180Y-108269502D01*
X123274494Y-108210537D01*
X123371185Y-108131185D01*
X123400000Y-108096073D01*
X123400000Y-112806809D01*
X123400000Y-112806809D01*
G37*
X123400000Y-112806809D02*
X123354494Y-112769463D01*
X123244180Y-112710498D01*
X123124482Y-112674188D01*
X123055000Y-112667345D01*
X123055000Y-108302621D01*
X123164180Y-108269502D01*
X123274494Y-108210537D01*
X123371185Y-108131185D01*
X123400000Y-108096073D01*
X123400000Y-112806809D01*
G36*
X130885014Y-76047253D02*
G01*
X131095001Y-76257240D01*
X131095002Y-101085931D01*
X127130948Y-105049986D01*
X127080322Y-105045000D01*
X126919678Y-105045000D01*
X126679484Y-105068657D01*
X126371285Y-105162148D01*
X126087248Y-105313969D01*
X125838286Y-105518286D01*
X125730000Y-105650233D01*
X125621714Y-105518286D01*
X125520000Y-105434812D01*
X125520000Y-100305188D01*
X125621714Y-100221714D01*
X125730000Y-100089767D01*
X125838286Y-100221714D01*
X126087248Y-100426031D01*
X126371285Y-100577852D01*
X126679484Y-100671343D01*
X126919678Y-100695000D01*
X127080322Y-100695000D01*
X127320516Y-100671343D01*
X127628715Y-100577852D01*
X127912752Y-100426031D01*
X128161714Y-100221714D01*
X128366031Y-99972752D01*
X128517852Y-99688715D01*
X128611343Y-99380516D01*
X128642911Y-99060000D01*
X128630014Y-98929052D01*
X130327718Y-97231348D01*
X130368160Y-97198158D01*
X130500623Y-97036752D01*
X130599051Y-96852606D01*
X130659663Y-96652795D01*
X130675001Y-96497065D01*
X130675001Y-96497055D01*
X130680128Y-96444999D01*
X130675001Y-96392943D01*
X130675001Y-76257240D01*
X130884988Y-76047253D01*
X130885001Y-76047234D01*
X130885014Y-76047253D01*
X130885014Y-76047253D01*
G37*
X130885014Y-76047253D02*
X131095001Y-76257240D01*
X131095002Y-101085931D01*
X127130948Y-105049986D01*
X127080322Y-105045000D01*
X126919678Y-105045000D01*
X126679484Y-105068657D01*
X126371285Y-105162148D01*
X126087248Y-105313969D01*
X125838286Y-105518286D01*
X125730000Y-105650233D01*
X125621714Y-105518286D01*
X125520000Y-105434812D01*
X125520000Y-100305188D01*
X125621714Y-100221714D01*
X125730000Y-100089767D01*
X125838286Y-100221714D01*
X126087248Y-100426031D01*
X126371285Y-100577852D01*
X126679484Y-100671343D01*
X126919678Y-100695000D01*
X127080322Y-100695000D01*
X127320516Y-100671343D01*
X127628715Y-100577852D01*
X127912752Y-100426031D01*
X128161714Y-100221714D01*
X128366031Y-99972752D01*
X128517852Y-99688715D01*
X128611343Y-99380516D01*
X128642911Y-99060000D01*
X128630014Y-98929052D01*
X130327718Y-97231348D01*
X130368160Y-97198158D01*
X130500623Y-97036752D01*
X130599051Y-96852606D01*
X130659663Y-96652795D01*
X130675001Y-96497065D01*
X130675001Y-96497055D01*
X130680128Y-96444999D01*
X130675001Y-96392943D01*
X130675001Y-76257240D01*
X130884988Y-76047253D01*
X130885001Y-76047234D01*
X130885014Y-76047253D01*
G36*
X123400000Y-105263927D02*
G01*
X123371185Y-105228815D01*
X123274494Y-105149463D01*
X123164180Y-105090498D01*
X123055000Y-105057379D01*
X123055000Y-100682621D01*
X123164180Y-100649502D01*
X123274494Y-100590537D01*
X123371185Y-100511185D01*
X123400001Y-100476073D01*
X123400000Y-105263927D01*
X123400000Y-105263927D01*
G37*
X123400000Y-105263927D02*
X123371185Y-105228815D01*
X123274494Y-105149463D01*
X123164180Y-105090498D01*
X123055000Y-105057379D01*
X123055000Y-100682621D01*
X123164180Y-100649502D01*
X123274494Y-100590537D01*
X123371185Y-100511185D01*
X123400001Y-100476073D01*
X123400000Y-105263927D01*
G36*
X142375000Y-101129868D02*
G01*
X140499869Y-103005000D01*
X137630132Y-103005000D01*
X137025000Y-102399869D01*
X137025000Y-100682621D01*
X137134180Y-100649502D01*
X137244494Y-100590537D01*
X137341185Y-100511185D01*
X137420537Y-100414494D01*
X137445739Y-100367345D01*
X137517248Y-100426031D01*
X137801285Y-100577852D01*
X138109484Y-100671343D01*
X138349678Y-100695000D01*
X138510322Y-100695000D01*
X138750516Y-100671343D01*
X139058715Y-100577852D01*
X139342752Y-100426031D01*
X139591714Y-100221714D01*
X139796031Y-99972752D01*
X139947852Y-99688715D01*
X140041343Y-99380516D01*
X140072911Y-99060000D01*
X140060014Y-98929052D01*
X142375000Y-96614066D01*
X142375000Y-101129868D01*
X142375000Y-101129868D01*
G37*
X142375000Y-101129868D02*
X140499869Y-103005000D01*
X137630132Y-103005000D01*
X137025000Y-102399869D01*
X137025000Y-100682621D01*
X137134180Y-100649502D01*
X137244494Y-100590537D01*
X137341185Y-100511185D01*
X137420537Y-100414494D01*
X137445739Y-100367345D01*
X137517248Y-100426031D01*
X137801285Y-100577852D01*
X138109484Y-100671343D01*
X138349678Y-100695000D01*
X138510322Y-100695000D01*
X138750516Y-100671343D01*
X139058715Y-100577852D01*
X139342752Y-100426031D01*
X139591714Y-100221714D01*
X139796031Y-99972752D01*
X139947852Y-99688715D01*
X140041343Y-99380516D01*
X140072911Y-99060000D01*
X140060014Y-98929052D01*
X142375000Y-96614066D01*
X142375000Y-101129868D01*
G36*
X128555002Y-96005932D02*
G01*
X127130948Y-97429986D01*
X127080322Y-97425000D01*
X126919678Y-97425000D01*
X126679484Y-97448657D01*
X126371285Y-97542148D01*
X126087248Y-97693969D01*
X125838286Y-97898286D01*
X125730000Y-98030233D01*
X125621714Y-97898286D01*
X125520000Y-97814812D01*
X125520000Y-92685188D01*
X125621714Y-92601714D01*
X125730000Y-92469767D01*
X125838286Y-92601714D01*
X126087248Y-92806031D01*
X126371285Y-92957852D01*
X126679484Y-93051343D01*
X126919678Y-93075000D01*
X127080322Y-93075000D01*
X127320516Y-93051343D01*
X127628715Y-92957852D01*
X127912752Y-92806031D01*
X128161714Y-92601714D01*
X128366031Y-92352752D01*
X128517852Y-92068715D01*
X128555002Y-91946248D01*
X128555002Y-96005932D01*
X128555002Y-96005932D01*
G37*
X128555002Y-96005932D02*
X127130948Y-97429986D01*
X127080322Y-97425000D01*
X126919678Y-97425000D01*
X126679484Y-97448657D01*
X126371285Y-97542148D01*
X126087248Y-97693969D01*
X125838286Y-97898286D01*
X125730000Y-98030233D01*
X125621714Y-97898286D01*
X125520000Y-97814812D01*
X125520000Y-92685188D01*
X125621714Y-92601714D01*
X125730000Y-92469767D01*
X125838286Y-92601714D01*
X126087248Y-92806031D01*
X126371285Y-92957852D01*
X126679484Y-93051343D01*
X126919678Y-93075000D01*
X127080322Y-93075000D01*
X127320516Y-93051343D01*
X127628715Y-92957852D01*
X127912752Y-92806031D01*
X128161714Y-92601714D01*
X128366031Y-92352752D01*
X128517852Y-92068715D01*
X128555002Y-91946248D01*
X128555002Y-96005932D01*
G36*
X134300498Y-92684180D02*
G01*
X134359463Y-92794494D01*
X134438815Y-92891185D01*
X134535506Y-92970537D01*
X134645820Y-93029502D01*
X134755000Y-93062622D01*
X134755001Y-97437378D01*
X134645820Y-97470498D01*
X134535506Y-97529463D01*
X134438815Y-97608815D01*
X134359463Y-97705506D01*
X134300498Y-97815820D01*
X134265011Y-97932805D01*
X134265011Y-92567195D01*
X134300498Y-92684180D01*
X134300498Y-92684180D01*
G37*
X134300498Y-92684180D02*
X134359463Y-92794494D01*
X134438815Y-92891185D01*
X134535506Y-92970537D01*
X134645820Y-93029502D01*
X134755000Y-93062622D01*
X134755001Y-97437378D01*
X134645820Y-97470498D01*
X134535506Y-97529463D01*
X134438815Y-97608815D01*
X134359463Y-97705506D01*
X134300498Y-97815820D01*
X134265011Y-97932805D01*
X134265011Y-92567195D01*
X134300498Y-92684180D01*
G36*
X140960011Y-95030923D02*
G01*
X138560948Y-97429986D01*
X138510322Y-97425000D01*
X138349678Y-97425000D01*
X138109484Y-97448657D01*
X137801285Y-97542148D01*
X137517248Y-97693969D01*
X137445739Y-97752655D01*
X137420537Y-97705506D01*
X137341185Y-97608815D01*
X137244494Y-97529463D01*
X137134180Y-97470498D01*
X137025000Y-97437379D01*
X137025000Y-93062621D01*
X137134180Y-93029502D01*
X137244494Y-92970537D01*
X137341185Y-92891185D01*
X137420537Y-92794494D01*
X137445739Y-92747345D01*
X137517248Y-92806031D01*
X137801285Y-92957852D01*
X138109484Y-93051343D01*
X138349678Y-93075000D01*
X138510322Y-93075000D01*
X138750516Y-93051343D01*
X139058715Y-92957852D01*
X139342752Y-92806031D01*
X139591714Y-92601714D01*
X139796031Y-92352752D01*
X139947852Y-92068715D01*
X140041343Y-91760516D01*
X140072911Y-91440000D01*
X140060014Y-91309052D01*
X140960011Y-90409056D01*
X140960011Y-95030923D01*
X140960011Y-95030923D01*
G37*
X140960011Y-95030923D02*
X138560948Y-97429986D01*
X138510322Y-97425000D01*
X138349678Y-97425000D01*
X138109484Y-97448657D01*
X137801285Y-97542148D01*
X137517248Y-97693969D01*
X137445739Y-97752655D01*
X137420537Y-97705506D01*
X137341185Y-97608815D01*
X137244494Y-97529463D01*
X137134180Y-97470498D01*
X137025000Y-97437379D01*
X137025000Y-93062621D01*
X137134180Y-93029502D01*
X137244494Y-92970537D01*
X137341185Y-92891185D01*
X137420537Y-92794494D01*
X137445739Y-92747345D01*
X137517248Y-92806031D01*
X137801285Y-92957852D01*
X138109484Y-93051343D01*
X138349678Y-93075000D01*
X138510322Y-93075000D01*
X138750516Y-93051343D01*
X139058715Y-92957852D01*
X139342752Y-92806031D01*
X139591714Y-92601714D01*
X139796031Y-92352752D01*
X139947852Y-92068715D01*
X140041343Y-91760516D01*
X140072911Y-91440000D01*
X140060014Y-91309052D01*
X140960011Y-90409056D01*
X140960011Y-95030923D01*
G36*
X123400001Y-97643927D02*
G01*
X123371185Y-97608815D01*
X123274494Y-97529463D01*
X123164180Y-97470498D01*
X123055000Y-97437379D01*
X123055000Y-93062621D01*
X123164180Y-93029502D01*
X123274494Y-92970537D01*
X123371185Y-92891185D01*
X123400001Y-92856073D01*
X123400001Y-97643927D01*
X123400001Y-97643927D01*
G37*
X123400001Y-97643927D02*
X123371185Y-97608815D01*
X123274494Y-97529463D01*
X123164180Y-97470498D01*
X123055000Y-97437379D01*
X123055000Y-93062621D01*
X123164180Y-93029502D01*
X123274494Y-92970537D01*
X123371185Y-92891185D01*
X123400001Y-92856073D01*
X123400001Y-97643927D01*
G36*
X128345014Y-76047253D02*
G01*
X128526860Y-76229099D01*
X128544615Y-76409366D01*
X128555001Y-76443604D01*
X128555002Y-90933751D01*
X128517852Y-90811285D01*
X128366031Y-90527248D01*
X128161714Y-90278286D01*
X128135001Y-90256363D01*
X128135001Y-76257240D01*
X128344988Y-76047253D01*
X128345001Y-76047234D01*
X128345014Y-76047253D01*
X128345014Y-76047253D01*
G37*
X128345014Y-76047253D02*
X128526860Y-76229099D01*
X128544615Y-76409366D01*
X128555001Y-76443604D01*
X128555002Y-90933751D01*
X128517852Y-90811285D01*
X128366031Y-90527248D01*
X128161714Y-90278286D01*
X128135001Y-90256363D01*
X128135001Y-76257240D01*
X128344988Y-76047253D01*
X128345001Y-76047234D01*
X128345014Y-76047253D01*
G36*
X120725014Y-76047253D02*
G01*
X120935001Y-76257240D01*
X120935002Y-82181928D01*
X120920000Y-82181928D01*
X120795518Y-82194188D01*
X120675820Y-82230498D01*
X120565506Y-82289463D01*
X120468815Y-82368815D01*
X120389463Y-82465506D01*
X120330498Y-82575820D01*
X120294188Y-82695518D01*
X120281928Y-82820000D01*
X120281928Y-84820000D01*
X120294188Y-84944482D01*
X120330498Y-85064180D01*
X120389463Y-85174494D01*
X120468815Y-85271185D01*
X120565506Y-85350537D01*
X120675820Y-85409502D01*
X120795518Y-85445812D01*
X120920000Y-85458072D01*
X122920000Y-85458072D01*
X123044482Y-85445812D01*
X123164180Y-85409502D01*
X123274494Y-85350537D01*
X123371185Y-85271185D01*
X123450537Y-85174494D01*
X123475739Y-85127345D01*
X123547248Y-85186031D01*
X123831285Y-85337852D01*
X124139484Y-85431343D01*
X124379678Y-85455000D01*
X124540322Y-85455000D01*
X124780516Y-85431343D01*
X125088715Y-85337852D01*
X125372752Y-85186031D01*
X125621714Y-84981714D01*
X125826031Y-84732752D01*
X125977852Y-84448715D01*
X126015002Y-84326249D01*
X126015002Y-90133260D01*
X125838286Y-90278286D01*
X125730000Y-90410233D01*
X125621714Y-90278286D01*
X125372752Y-90073969D01*
X125088715Y-89922148D01*
X124780516Y-89828657D01*
X124540322Y-89805000D01*
X124379678Y-89805000D01*
X124139484Y-89828657D01*
X123831285Y-89922148D01*
X123547248Y-90073969D01*
X123475739Y-90132655D01*
X123450537Y-90085506D01*
X123371185Y-89988815D01*
X123274494Y-89909463D01*
X123164180Y-89850498D01*
X123044482Y-89814188D01*
X122920000Y-89801928D01*
X122337060Y-89801928D01*
X118050001Y-85514870D01*
X118050001Y-76182240D01*
X118167240Y-76065001D01*
X118202762Y-76065001D01*
X118412749Y-76274988D01*
X118680538Y-76453919D01*
X118978089Y-76577169D01*
X119293968Y-76640001D01*
X119616034Y-76640001D01*
X119931913Y-76577169D01*
X120229464Y-76453919D01*
X120497253Y-76274988D01*
X120724988Y-76047253D01*
X120725001Y-76047234D01*
X120725014Y-76047253D01*
X120725014Y-76047253D01*
G37*
X120725014Y-76047253D02*
X120935001Y-76257240D01*
X120935002Y-82181928D01*
X120920000Y-82181928D01*
X120795518Y-82194188D01*
X120675820Y-82230498D01*
X120565506Y-82289463D01*
X120468815Y-82368815D01*
X120389463Y-82465506D01*
X120330498Y-82575820D01*
X120294188Y-82695518D01*
X120281928Y-82820000D01*
X120281928Y-84820000D01*
X120294188Y-84944482D01*
X120330498Y-85064180D01*
X120389463Y-85174494D01*
X120468815Y-85271185D01*
X120565506Y-85350537D01*
X120675820Y-85409502D01*
X120795518Y-85445812D01*
X120920000Y-85458072D01*
X122920000Y-85458072D01*
X123044482Y-85445812D01*
X123164180Y-85409502D01*
X123274494Y-85350537D01*
X123371185Y-85271185D01*
X123450537Y-85174494D01*
X123475739Y-85127345D01*
X123547248Y-85186031D01*
X123831285Y-85337852D01*
X124139484Y-85431343D01*
X124379678Y-85455000D01*
X124540322Y-85455000D01*
X124780516Y-85431343D01*
X125088715Y-85337852D01*
X125372752Y-85186031D01*
X125621714Y-84981714D01*
X125826031Y-84732752D01*
X125977852Y-84448715D01*
X126015002Y-84326249D01*
X126015002Y-90133260D01*
X125838286Y-90278286D01*
X125730000Y-90410233D01*
X125621714Y-90278286D01*
X125372752Y-90073969D01*
X125088715Y-89922148D01*
X124780516Y-89828657D01*
X124540322Y-89805000D01*
X124379678Y-89805000D01*
X124139484Y-89828657D01*
X123831285Y-89922148D01*
X123547248Y-90073969D01*
X123475739Y-90132655D01*
X123450537Y-90085506D01*
X123371185Y-89988815D01*
X123274494Y-89909463D01*
X123164180Y-89850498D01*
X123044482Y-89814188D01*
X122920000Y-89801928D01*
X122337060Y-89801928D01*
X118050001Y-85514870D01*
X118050001Y-76182240D01*
X118167240Y-76065001D01*
X118202762Y-76065001D01*
X118412749Y-76274988D01*
X118680538Y-76453919D01*
X118978089Y-76577169D01*
X119293968Y-76640001D01*
X119616034Y-76640001D01*
X119931913Y-76577169D01*
X120229464Y-76453919D01*
X120497253Y-76274988D01*
X120724988Y-76047253D01*
X120725001Y-76047234D01*
X120725014Y-76047253D01*
G36*
X134300498Y-85064180D02*
G01*
X134359463Y-85174494D01*
X134438815Y-85271185D01*
X134535506Y-85350537D01*
X134645820Y-85409502D01*
X134755000Y-85442621D01*
X134755000Y-89817379D01*
X134645820Y-89850498D01*
X134535506Y-89909463D01*
X134438815Y-89988815D01*
X134359463Y-90085506D01*
X134300498Y-90195820D01*
X134265011Y-90312805D01*
X134265011Y-84947195D01*
X134300498Y-85064180D01*
X134300498Y-85064180D01*
G37*
X134300498Y-85064180D02*
X134359463Y-85174494D01*
X134438815Y-85271185D01*
X134535506Y-85350537D01*
X134645820Y-85409502D01*
X134755000Y-85442621D01*
X134755000Y-89817379D01*
X134645820Y-89850498D01*
X134535506Y-89909463D01*
X134438815Y-89988815D01*
X134359463Y-90085506D01*
X134300498Y-90195820D01*
X134265011Y-90312805D01*
X134265011Y-84947195D01*
X134300498Y-85064180D01*
G36*
X139910001Y-88460932D02*
G01*
X138560948Y-89809986D01*
X138510322Y-89805000D01*
X138349678Y-89805000D01*
X138109484Y-89828657D01*
X137801285Y-89922148D01*
X137517248Y-90073969D01*
X137445739Y-90132655D01*
X137420537Y-90085506D01*
X137341185Y-89988815D01*
X137244494Y-89909463D01*
X137134180Y-89850498D01*
X137025000Y-89817379D01*
X137025000Y-85442621D01*
X137134180Y-85409502D01*
X137244494Y-85350537D01*
X137341185Y-85271185D01*
X137420537Y-85174494D01*
X137445739Y-85127345D01*
X137517248Y-85186031D01*
X137801285Y-85337852D01*
X138109484Y-85431343D01*
X138349678Y-85455000D01*
X138510322Y-85455000D01*
X138750516Y-85431343D01*
X139058715Y-85337852D01*
X139342752Y-85186031D01*
X139591714Y-84981714D01*
X139796031Y-84732752D01*
X139910001Y-84519530D01*
X139910001Y-88460932D01*
X139910001Y-88460932D01*
G37*
X139910001Y-88460932D02*
X138560948Y-89809986D01*
X138510322Y-89805000D01*
X138349678Y-89805000D01*
X138109484Y-89828657D01*
X137801285Y-89922148D01*
X137517248Y-90073969D01*
X137445739Y-90132655D01*
X137420537Y-90085506D01*
X137341185Y-89988815D01*
X137244494Y-89909463D01*
X137134180Y-89850498D01*
X137025000Y-89817379D01*
X137025000Y-85442621D01*
X137134180Y-85409502D01*
X137244494Y-85350537D01*
X137341185Y-85271185D01*
X137420537Y-85174494D01*
X137445739Y-85127345D01*
X137517248Y-85186031D01*
X137801285Y-85337852D01*
X138109484Y-85431343D01*
X138349678Y-85455000D01*
X138510322Y-85455000D01*
X138750516Y-85431343D01*
X139058715Y-85337852D01*
X139342752Y-85186031D01*
X139591714Y-84981714D01*
X139796031Y-84732752D01*
X139910001Y-84519530D01*
X139910001Y-88460932D01*
G36*
X125805014Y-76047253D02*
G01*
X126015001Y-76257240D01*
X126015002Y-83313751D01*
X125977852Y-83191285D01*
X125826031Y-82907248D01*
X125621714Y-82658286D01*
X125595001Y-82636363D01*
X125595001Y-76257240D01*
X125804988Y-76047253D01*
X125805001Y-76047234D01*
X125805014Y-76047253D01*
X125805014Y-76047253D01*
G37*
X125805014Y-76047253D02*
X126015001Y-76257240D01*
X126015002Y-83313751D01*
X125977852Y-83191285D01*
X125826031Y-82907248D01*
X125621714Y-82658286D01*
X125595001Y-82636363D01*
X125595001Y-76257240D01*
X125804988Y-76047253D01*
X125805001Y-76047234D01*
X125805014Y-76047253D01*
G36*
X138505014Y-76047253D02*
G01*
X138722519Y-76264758D01*
X138730340Y-76344167D01*
X138790951Y-76543977D01*
X138889380Y-76728124D01*
X138988652Y-76849087D01*
X139910000Y-77770436D01*
X139910001Y-83120470D01*
X139796031Y-82907248D01*
X139591714Y-82658286D01*
X139490000Y-82574812D01*
X139490000Y-78792058D01*
X139495127Y-78740000D01*
X139490000Y-78687942D01*
X139490000Y-78687934D01*
X139474662Y-78532204D01*
X139414050Y-78332393D01*
X139315622Y-78148247D01*
X139183159Y-77986841D01*
X139142717Y-77953651D01*
X138295001Y-77105936D01*
X138295001Y-76257240D01*
X138504988Y-76047253D01*
X138505001Y-76047234D01*
X138505014Y-76047253D01*
X138505014Y-76047253D01*
G37*
X138505014Y-76047253D02*
X138722519Y-76264758D01*
X138730340Y-76344167D01*
X138790951Y-76543977D01*
X138889380Y-76728124D01*
X138988652Y-76849087D01*
X139910000Y-77770436D01*
X139910001Y-83120470D01*
X139796031Y-82907248D01*
X139591714Y-82658286D01*
X139490000Y-82574812D01*
X139490000Y-78792058D01*
X139495127Y-78740000D01*
X139490000Y-78687942D01*
X139490000Y-78687934D01*
X139474662Y-78532204D01*
X139414050Y-78332393D01*
X139315622Y-78148247D01*
X139183159Y-77986841D01*
X139142717Y-77953651D01*
X138295001Y-77105936D01*
X138295001Y-76257240D01*
X138504988Y-76047253D01*
X138505001Y-76047234D01*
X138505014Y-76047253D01*
G36*
X135965014Y-76047253D02*
G01*
X136175001Y-76257240D01*
X136175002Y-77492936D01*
X136169874Y-77545001D01*
X136190340Y-77752797D01*
X136250951Y-77952607D01*
X136315434Y-78073246D01*
X136349380Y-78136754D01*
X136481843Y-78298160D01*
X136522285Y-78331350D01*
X137370000Y-79179066D01*
X137370001Y-81227925D01*
X137370000Y-81227935D01*
X137370000Y-82403927D01*
X137341185Y-82368815D01*
X137244494Y-82289463D01*
X137134180Y-82230498D01*
X137014482Y-82194188D01*
X136890000Y-82181928D01*
X134890000Y-82181928D01*
X134765518Y-82194188D01*
X134645820Y-82230498D01*
X134535506Y-82289463D01*
X134438815Y-82368815D01*
X134359463Y-82465506D01*
X134300498Y-82575820D01*
X134265011Y-82692805D01*
X134265011Y-80594054D01*
X135407723Y-79451344D01*
X135448160Y-79418158D01*
X135481346Y-79377721D01*
X135481350Y-79377717D01*
X135580622Y-79256753D01*
X135679051Y-79072606D01*
X135679051Y-79072605D01*
X135739663Y-78872795D01*
X135755001Y-78717065D01*
X135755001Y-78717056D01*
X135760128Y-78665000D01*
X135755001Y-78612944D01*
X135755001Y-76257240D01*
X135964988Y-76047253D01*
X135965001Y-76047234D01*
X135965014Y-76047253D01*
X135965014Y-76047253D01*
G37*
X135965014Y-76047253D02*
X136175001Y-76257240D01*
X136175002Y-77492936D01*
X136169874Y-77545001D01*
X136190340Y-77752797D01*
X136250951Y-77952607D01*
X136315434Y-78073246D01*
X136349380Y-78136754D01*
X136481843Y-78298160D01*
X136522285Y-78331350D01*
X137370000Y-79179066D01*
X137370001Y-81227925D01*
X137370000Y-81227935D01*
X137370000Y-82403927D01*
X137341185Y-82368815D01*
X137244494Y-82289463D01*
X137134180Y-82230498D01*
X137014482Y-82194188D01*
X136890000Y-82181928D01*
X134890000Y-82181928D01*
X134765518Y-82194188D01*
X134645820Y-82230498D01*
X134535506Y-82289463D01*
X134438815Y-82368815D01*
X134359463Y-82465506D01*
X134300498Y-82575820D01*
X134265011Y-82692805D01*
X134265011Y-80594054D01*
X135407723Y-79451344D01*
X135448160Y-79418158D01*
X135481346Y-79377721D01*
X135481350Y-79377717D01*
X135580622Y-79256753D01*
X135679051Y-79072606D01*
X135679051Y-79072605D01*
X135739663Y-78872795D01*
X135755001Y-78717065D01*
X135755001Y-78717056D01*
X135760128Y-78665000D01*
X135755001Y-78612944D01*
X135755001Y-76257240D01*
X135964988Y-76047253D01*
X135965001Y-76047234D01*
X135965014Y-76047253D01*
G36*
X123265014Y-76047253D02*
G01*
X123475001Y-76257240D01*
X123475002Y-82511276D01*
X123450537Y-82465506D01*
X123371185Y-82368815D01*
X123274494Y-82289463D01*
X123164180Y-82230498D01*
X123055001Y-82197379D01*
X123055001Y-76257240D01*
X123264988Y-76047253D01*
X123265001Y-76047234D01*
X123265014Y-76047253D01*
X123265014Y-76047253D01*
G37*
X123265014Y-76047253D02*
X123475001Y-76257240D01*
X123475002Y-82511276D01*
X123450537Y-82465506D01*
X123371185Y-82368815D01*
X123274494Y-82289463D01*
X123164180Y-82230498D01*
X123055001Y-82197379D01*
X123055001Y-76257240D01*
X123264988Y-76047253D01*
X123265001Y-76047234D01*
X123265014Y-76047253D01*
G36*
X110304464Y-76359495D02*
G01*
X110383816Y-76456186D01*
X110480507Y-76535538D01*
X110590821Y-76594503D01*
X110710519Y-76630813D01*
X110835001Y-76643073D01*
X112835001Y-76643073D01*
X112959483Y-76630813D01*
X113079181Y-76594503D01*
X113189495Y-76535538D01*
X113286186Y-76456186D01*
X113315001Y-76421075D01*
X113315002Y-82181928D01*
X113300000Y-82181928D01*
X113175518Y-82194188D01*
X113055820Y-82230498D01*
X113035000Y-82241627D01*
X113014180Y-82230498D01*
X112894482Y-82194188D01*
X112770000Y-82181928D01*
X110770000Y-82181928D01*
X110645518Y-82194188D01*
X110525820Y-82230498D01*
X110415506Y-82289463D01*
X110318815Y-82368815D01*
X110280000Y-82416111D01*
X110280000Y-76313727D01*
X110304464Y-76359495D01*
X110304464Y-76359495D01*
G37*
X110304464Y-76359495D02*
X110383816Y-76456186D01*
X110480507Y-76535538D01*
X110590821Y-76594503D01*
X110710519Y-76630813D01*
X110835001Y-76643073D01*
X112835001Y-76643073D01*
X112959483Y-76630813D01*
X113079181Y-76594503D01*
X113189495Y-76535538D01*
X113286186Y-76456186D01*
X113315001Y-76421075D01*
X113315002Y-82181928D01*
X113300000Y-82181928D01*
X113175518Y-82194188D01*
X113055820Y-82230498D01*
X113035000Y-82241627D01*
X113014180Y-82230498D01*
X112894482Y-82194188D01*
X112770000Y-82181928D01*
X110770000Y-82181928D01*
X110645518Y-82194188D01*
X110525820Y-82230498D01*
X110415506Y-82289463D01*
X110318815Y-82368815D01*
X110280000Y-82416111D01*
X110280000Y-76313727D01*
X110304464Y-76359495D01*
G36*
X115645014Y-76047253D02*
G01*
X115780001Y-76182240D01*
X115780002Y-82403928D01*
X115751185Y-82368815D01*
X115654494Y-82289463D01*
X115544180Y-82230498D01*
X115435001Y-82197379D01*
X115435001Y-76257240D01*
X115644988Y-76047253D01*
X115645001Y-76047234D01*
X115645014Y-76047253D01*
X115645014Y-76047253D01*
G37*
X115645014Y-76047253D02*
X115780001Y-76182240D01*
X115780002Y-82403928D01*
X115751185Y-82368815D01*
X115654494Y-82289463D01*
X115544180Y-82230498D01*
X115435001Y-82197379D01*
X115435001Y-76257240D01*
X115644988Y-76047253D01*
X115645001Y-76047234D01*
X115645014Y-76047253D01*
G36*
X133425014Y-76047253D02*
G01*
X133635002Y-76257241D01*
X133635001Y-78225932D01*
X133215001Y-78645933D01*
X133215001Y-76257240D01*
X133424988Y-76047253D01*
X133425001Y-76047234D01*
X133425014Y-76047253D01*
X133425014Y-76047253D01*
G37*
X133425014Y-76047253D02*
X133635002Y-76257241D01*
X133635001Y-78225932D01*
X133215001Y-78645933D01*
X133215001Y-76257240D01*
X133424988Y-76047253D01*
X133425001Y-76047234D01*
X133425014Y-76047253D01*
G36*
X130885014Y-60807253D02*
G01*
X131095001Y-61017240D01*
X131095001Y-61127158D01*
X131089874Y-61179214D01*
X131095001Y-61231270D01*
X131095001Y-61231280D01*
X131104664Y-61329380D01*
X131110340Y-61387010D01*
X131170951Y-61586820D01*
X131269380Y-61770967D01*
X131401843Y-61932373D01*
X131442285Y-61965563D01*
X140960010Y-71483289D01*
X140960010Y-73877771D01*
X140817253Y-73735014D01*
X140549464Y-73556083D01*
X140251913Y-73432833D01*
X139936034Y-73370001D01*
X139613968Y-73370001D01*
X139298089Y-73432833D01*
X139000538Y-73556083D01*
X138732749Y-73735014D01*
X138505014Y-73962749D01*
X138505001Y-73962768D01*
X138504988Y-73962749D01*
X138277253Y-73735014D01*
X138009464Y-73556083D01*
X137711913Y-73432833D01*
X137396034Y-73370001D01*
X137073968Y-73370001D01*
X136758089Y-73432833D01*
X136460538Y-73556083D01*
X136192749Y-73735014D01*
X135965014Y-73962749D01*
X135965001Y-73962768D01*
X135964988Y-73962749D01*
X135737253Y-73735014D01*
X135469464Y-73556083D01*
X135171913Y-73432833D01*
X134856034Y-73370001D01*
X134533968Y-73370001D01*
X134218089Y-73432833D01*
X133920538Y-73556083D01*
X133652749Y-73735014D01*
X133425014Y-73962749D01*
X133425001Y-73962768D01*
X133424988Y-73962749D01*
X133197253Y-73735014D01*
X132929464Y-73556083D01*
X132631913Y-73432833D01*
X132316034Y-73370001D01*
X131993968Y-73370001D01*
X131678089Y-73432833D01*
X131380538Y-73556083D01*
X131112749Y-73735014D01*
X130885014Y-73962749D01*
X130885001Y-73962768D01*
X130884988Y-73962749D01*
X130657253Y-73735014D01*
X130389464Y-73556083D01*
X130091913Y-73432833D01*
X129776034Y-73370001D01*
X129453968Y-73370001D01*
X129138089Y-73432833D01*
X128840538Y-73556083D01*
X128572749Y-73735014D01*
X128345014Y-73962749D01*
X128345001Y-73962768D01*
X128344988Y-73962749D01*
X128117253Y-73735014D01*
X127849464Y-73556083D01*
X127551913Y-73432833D01*
X127236034Y-73370001D01*
X126913968Y-73370001D01*
X126598089Y-73432833D01*
X126300538Y-73556083D01*
X126032749Y-73735014D01*
X125805014Y-73962749D01*
X125805001Y-73962768D01*
X125804988Y-73962749D01*
X125577253Y-73735014D01*
X125309464Y-73556083D01*
X125011913Y-73432833D01*
X124696034Y-73370001D01*
X124373968Y-73370001D01*
X124058089Y-73432833D01*
X123760538Y-73556083D01*
X123492749Y-73735014D01*
X123265014Y-73962749D01*
X123265001Y-73962768D01*
X123264988Y-73962749D01*
X123037253Y-73735014D01*
X122769464Y-73556083D01*
X122471913Y-73432833D01*
X122156034Y-73370001D01*
X121833968Y-73370001D01*
X121518089Y-73432833D01*
X121220538Y-73556083D01*
X120952749Y-73735014D01*
X120725014Y-73962749D01*
X120725001Y-73962768D01*
X120724988Y-73962749D01*
X120497253Y-73735014D01*
X120229464Y-73556083D01*
X119931913Y-73432833D01*
X119616034Y-73370001D01*
X119293968Y-73370001D01*
X118978089Y-73432833D01*
X118680538Y-73556083D01*
X118412749Y-73735014D01*
X118202762Y-73945001D01*
X118167240Y-73945001D01*
X117957253Y-73735014D01*
X117689464Y-73556083D01*
X117391913Y-73432833D01*
X117076034Y-73370001D01*
X116753968Y-73370001D01*
X116438089Y-73432833D01*
X116140538Y-73556083D01*
X115872749Y-73735014D01*
X115645014Y-73962749D01*
X115645001Y-73962768D01*
X115644988Y-73962749D01*
X115417253Y-73735014D01*
X115149464Y-73556083D01*
X114851913Y-73432833D01*
X114536034Y-73370001D01*
X114213968Y-73370001D01*
X113898089Y-73432833D01*
X113600538Y-73556083D01*
X113390192Y-73696631D01*
X113365538Y-73650507D01*
X113286186Y-73553816D01*
X113189495Y-73474464D01*
X113079181Y-73415499D01*
X112959483Y-73379189D01*
X112835001Y-73366929D01*
X110835001Y-73366929D01*
X110710519Y-73379189D01*
X110590821Y-73415499D01*
X110480507Y-73474464D01*
X110383816Y-73553816D01*
X110304464Y-73650507D01*
X110280000Y-73696275D01*
X110280000Y-72889067D01*
X120167718Y-63001350D01*
X120208160Y-62968160D01*
X120340623Y-62806754D01*
X120439051Y-62622608D01*
X120499663Y-62422797D01*
X120515001Y-62267067D01*
X120515001Y-62267059D01*
X120520128Y-62215001D01*
X120515001Y-62162943D01*
X120515001Y-61017240D01*
X120724988Y-60807253D01*
X120725001Y-60807234D01*
X120725014Y-60807253D01*
X120952749Y-61034988D01*
X121220538Y-61213919D01*
X121518089Y-61337169D01*
X121833968Y-61400001D01*
X122156034Y-61400001D01*
X122471913Y-61337169D01*
X122769464Y-61213919D01*
X123037253Y-61034988D01*
X123264988Y-60807253D01*
X123265001Y-60807234D01*
X123265014Y-60807253D01*
X123492749Y-61034988D01*
X123760538Y-61213919D01*
X124058089Y-61337169D01*
X124373968Y-61400001D01*
X124696034Y-61400001D01*
X125011913Y-61337169D01*
X125309464Y-61213919D01*
X125577253Y-61034988D01*
X125804988Y-60807253D01*
X125805001Y-60807234D01*
X125805014Y-60807253D01*
X126032749Y-61034988D01*
X126300538Y-61213919D01*
X126598089Y-61337169D01*
X126913968Y-61400001D01*
X127236034Y-61400001D01*
X127551913Y-61337169D01*
X127849464Y-61213919D01*
X128117253Y-61034988D01*
X128344988Y-60807253D01*
X128345001Y-60807234D01*
X128345014Y-60807253D01*
X128572749Y-61034988D01*
X128840538Y-61213919D01*
X129138089Y-61337169D01*
X129453968Y-61400001D01*
X129776034Y-61400001D01*
X130091913Y-61337169D01*
X130389464Y-61213919D01*
X130657253Y-61034988D01*
X130884988Y-60807253D01*
X130885001Y-60807234D01*
X130885014Y-60807253D01*
X130885014Y-60807253D01*
G37*
X130885014Y-60807253D02*
X131095001Y-61017240D01*
X131095001Y-61127158D01*
X131089874Y-61179214D01*
X131095001Y-61231270D01*
X131095001Y-61231280D01*
X131104664Y-61329380D01*
X131110340Y-61387010D01*
X131170951Y-61586820D01*
X131269380Y-61770967D01*
X131401843Y-61932373D01*
X131442285Y-61965563D01*
X140960010Y-71483289D01*
X140960010Y-73877771D01*
X140817253Y-73735014D01*
X140549464Y-73556083D01*
X140251913Y-73432833D01*
X139936034Y-73370001D01*
X139613968Y-73370001D01*
X139298089Y-73432833D01*
X139000538Y-73556083D01*
X138732749Y-73735014D01*
X138505014Y-73962749D01*
X138505001Y-73962768D01*
X138504988Y-73962749D01*
X138277253Y-73735014D01*
X138009464Y-73556083D01*
X137711913Y-73432833D01*
X137396034Y-73370001D01*
X137073968Y-73370001D01*
X136758089Y-73432833D01*
X136460538Y-73556083D01*
X136192749Y-73735014D01*
X135965014Y-73962749D01*
X135965001Y-73962768D01*
X135964988Y-73962749D01*
X135737253Y-73735014D01*
X135469464Y-73556083D01*
X135171913Y-73432833D01*
X134856034Y-73370001D01*
X134533968Y-73370001D01*
X134218089Y-73432833D01*
X133920538Y-73556083D01*
X133652749Y-73735014D01*
X133425014Y-73962749D01*
X133425001Y-73962768D01*
X133424988Y-73962749D01*
X133197253Y-73735014D01*
X132929464Y-73556083D01*
X132631913Y-73432833D01*
X132316034Y-73370001D01*
X131993968Y-73370001D01*
X131678089Y-73432833D01*
X131380538Y-73556083D01*
X131112749Y-73735014D01*
X130885014Y-73962749D01*
X130885001Y-73962768D01*
X130884988Y-73962749D01*
X130657253Y-73735014D01*
X130389464Y-73556083D01*
X130091913Y-73432833D01*
X129776034Y-73370001D01*
X129453968Y-73370001D01*
X129138089Y-73432833D01*
X128840538Y-73556083D01*
X128572749Y-73735014D01*
X128345014Y-73962749D01*
X128345001Y-73962768D01*
X128344988Y-73962749D01*
X128117253Y-73735014D01*
X127849464Y-73556083D01*
X127551913Y-73432833D01*
X127236034Y-73370001D01*
X126913968Y-73370001D01*
X126598089Y-73432833D01*
X126300538Y-73556083D01*
X126032749Y-73735014D01*
X125805014Y-73962749D01*
X125805001Y-73962768D01*
X125804988Y-73962749D01*
X125577253Y-73735014D01*
X125309464Y-73556083D01*
X125011913Y-73432833D01*
X124696034Y-73370001D01*
X124373968Y-73370001D01*
X124058089Y-73432833D01*
X123760538Y-73556083D01*
X123492749Y-73735014D01*
X123265014Y-73962749D01*
X123265001Y-73962768D01*
X123264988Y-73962749D01*
X123037253Y-73735014D01*
X122769464Y-73556083D01*
X122471913Y-73432833D01*
X122156034Y-73370001D01*
X121833968Y-73370001D01*
X121518089Y-73432833D01*
X121220538Y-73556083D01*
X120952749Y-73735014D01*
X120725014Y-73962749D01*
X120725001Y-73962768D01*
X120724988Y-73962749D01*
X120497253Y-73735014D01*
X120229464Y-73556083D01*
X119931913Y-73432833D01*
X119616034Y-73370001D01*
X119293968Y-73370001D01*
X118978089Y-73432833D01*
X118680538Y-73556083D01*
X118412749Y-73735014D01*
X118202762Y-73945001D01*
X118167240Y-73945001D01*
X117957253Y-73735014D01*
X117689464Y-73556083D01*
X117391913Y-73432833D01*
X117076034Y-73370001D01*
X116753968Y-73370001D01*
X116438089Y-73432833D01*
X116140538Y-73556083D01*
X115872749Y-73735014D01*
X115645014Y-73962749D01*
X115645001Y-73962768D01*
X115644988Y-73962749D01*
X115417253Y-73735014D01*
X115149464Y-73556083D01*
X114851913Y-73432833D01*
X114536034Y-73370001D01*
X114213968Y-73370001D01*
X113898089Y-73432833D01*
X113600538Y-73556083D01*
X113390192Y-73696631D01*
X113365538Y-73650507D01*
X113286186Y-73553816D01*
X113189495Y-73474464D01*
X113079181Y-73415499D01*
X112959483Y-73379189D01*
X112835001Y-73366929D01*
X110835001Y-73366929D01*
X110710519Y-73379189D01*
X110590821Y-73415499D01*
X110480507Y-73474464D01*
X110383816Y-73553816D01*
X110304464Y-73650507D01*
X110280000Y-73696275D01*
X110280000Y-72889067D01*
X120167718Y-63001350D01*
X120208160Y-62968160D01*
X120340623Y-62806754D01*
X120439051Y-62622608D01*
X120499663Y-62422797D01*
X120515001Y-62267067D01*
X120515001Y-62267059D01*
X120520128Y-62215001D01*
X120515001Y-62162943D01*
X120515001Y-61017240D01*
X120724988Y-60807253D01*
X120725001Y-60807234D01*
X120725014Y-60807253D01*
X120952749Y-61034988D01*
X121220538Y-61213919D01*
X121518089Y-61337169D01*
X121833968Y-61400001D01*
X122156034Y-61400001D01*
X122471913Y-61337169D01*
X122769464Y-61213919D01*
X123037253Y-61034988D01*
X123264988Y-60807253D01*
X123265001Y-60807234D01*
X123265014Y-60807253D01*
X123492749Y-61034988D01*
X123760538Y-61213919D01*
X124058089Y-61337169D01*
X124373968Y-61400001D01*
X124696034Y-61400001D01*
X125011913Y-61337169D01*
X125309464Y-61213919D01*
X125577253Y-61034988D01*
X125804988Y-60807253D01*
X125805001Y-60807234D01*
X125805014Y-60807253D01*
X126032749Y-61034988D01*
X126300538Y-61213919D01*
X126598089Y-61337169D01*
X126913968Y-61400001D01*
X127236034Y-61400001D01*
X127551913Y-61337169D01*
X127849464Y-61213919D01*
X128117253Y-61034988D01*
X128344988Y-60807253D01*
X128345001Y-60807234D01*
X128345014Y-60807253D01*
X128572749Y-61034988D01*
X128840538Y-61213919D01*
X129138089Y-61337169D01*
X129453968Y-61400001D01*
X129776034Y-61400001D01*
X130091913Y-61337169D01*
X130389464Y-61213919D01*
X130657253Y-61034988D01*
X130884988Y-60807253D01*
X130885001Y-60807234D01*
X130885014Y-60807253D01*
G36*
X138430013Y-54382252D02*
G01*
X138657748Y-54609987D01*
X138925537Y-54788918D01*
X139223088Y-54912168D01*
X139538967Y-54975000D01*
X139729869Y-54975000D01*
X142375001Y-57620134D01*
X142375001Y-69900148D01*
X133353547Y-60878694D01*
X133424988Y-60807253D01*
X133425001Y-60807234D01*
X133425014Y-60807253D01*
X133652749Y-61034988D01*
X133920538Y-61213919D01*
X134218089Y-61337169D01*
X134533968Y-61400001D01*
X134856034Y-61400001D01*
X135171913Y-61337169D01*
X135469464Y-61213919D01*
X135737253Y-61034988D01*
X135964988Y-60807253D01*
X135965001Y-60807234D01*
X135965014Y-60807253D01*
X136192749Y-61034988D01*
X136460538Y-61213919D01*
X136758089Y-61337169D01*
X137073968Y-61400001D01*
X137396034Y-61400001D01*
X137711913Y-61337169D01*
X138009464Y-61213919D01*
X138277253Y-61034988D01*
X138504988Y-60807253D01*
X138505001Y-60807234D01*
X138505014Y-60807253D01*
X138732749Y-61034988D01*
X139000538Y-61213919D01*
X139298089Y-61337169D01*
X139613968Y-61400001D01*
X139936034Y-61400001D01*
X140251913Y-61337169D01*
X140549464Y-61213919D01*
X140817253Y-61034988D01*
X141044988Y-60807253D01*
X141223919Y-60539464D01*
X141347169Y-60241913D01*
X141410001Y-59926034D01*
X141410001Y-59603968D01*
X141347169Y-59288089D01*
X141223919Y-58990538D01*
X141044988Y-58722749D01*
X140817253Y-58495014D01*
X140549464Y-58316083D01*
X140251913Y-58192833D01*
X139936034Y-58130001D01*
X139613968Y-58130001D01*
X139298089Y-58192833D01*
X139000538Y-58316083D01*
X138732749Y-58495014D01*
X138505014Y-58722749D01*
X138505001Y-58722768D01*
X138504988Y-58722749D01*
X138277253Y-58495014D01*
X138009464Y-58316083D01*
X137711913Y-58192833D01*
X137396034Y-58130001D01*
X137073968Y-58130001D01*
X136758089Y-58192833D01*
X136460538Y-58316083D01*
X136192749Y-58495014D01*
X135965014Y-58722749D01*
X135965001Y-58722768D01*
X135964988Y-58722749D01*
X135737253Y-58495014D01*
X135469464Y-58316083D01*
X135171913Y-58192833D01*
X134856034Y-58130001D01*
X134533968Y-58130001D01*
X134218089Y-58192833D01*
X133920538Y-58316083D01*
X133652749Y-58495014D01*
X133425014Y-58722749D01*
X133425001Y-58722768D01*
X133424988Y-58722749D01*
X133197253Y-58495014D01*
X132929464Y-58316083D01*
X132631913Y-58192833D01*
X132316034Y-58130001D01*
X131993968Y-58130001D01*
X131678089Y-58192833D01*
X131380538Y-58316083D01*
X131112749Y-58495014D01*
X130885014Y-58722749D01*
X130885001Y-58722768D01*
X130884988Y-58722749D01*
X130657253Y-58495014D01*
X130600000Y-58456759D01*
X130600000Y-54592239D01*
X130809987Y-54382252D01*
X130810000Y-54382233D01*
X130810013Y-54382252D01*
X131037748Y-54609987D01*
X131305537Y-54788918D01*
X131603088Y-54912168D01*
X131918967Y-54975000D01*
X132241033Y-54975000D01*
X132556912Y-54912168D01*
X132854463Y-54788918D01*
X133122252Y-54609987D01*
X133349987Y-54382252D01*
X133350000Y-54382233D01*
X133350013Y-54382252D01*
X133577748Y-54609987D01*
X133845537Y-54788918D01*
X134143088Y-54912168D01*
X134458967Y-54975000D01*
X134781033Y-54975000D01*
X135096912Y-54912168D01*
X135394463Y-54788918D01*
X135662252Y-54609987D01*
X135889987Y-54382252D01*
X135890000Y-54382233D01*
X135890013Y-54382252D01*
X136117748Y-54609987D01*
X136385537Y-54788918D01*
X136683088Y-54912168D01*
X136998967Y-54975000D01*
X137321033Y-54975000D01*
X137636912Y-54912168D01*
X137934463Y-54788918D01*
X138202252Y-54609987D01*
X138429987Y-54382252D01*
X138430000Y-54382233D01*
X138430013Y-54382252D01*
X138430013Y-54382252D01*
G37*
X138430013Y-54382252D02*
X138657748Y-54609987D01*
X138925537Y-54788918D01*
X139223088Y-54912168D01*
X139538967Y-54975000D01*
X139729869Y-54975000D01*
X142375001Y-57620134D01*
X142375001Y-69900148D01*
X133353547Y-60878694D01*
X133424988Y-60807253D01*
X133425001Y-60807234D01*
X133425014Y-60807253D01*
X133652749Y-61034988D01*
X133920538Y-61213919D01*
X134218089Y-61337169D01*
X134533968Y-61400001D01*
X134856034Y-61400001D01*
X135171913Y-61337169D01*
X135469464Y-61213919D01*
X135737253Y-61034988D01*
X135964988Y-60807253D01*
X135965001Y-60807234D01*
X135965014Y-60807253D01*
X136192749Y-61034988D01*
X136460538Y-61213919D01*
X136758089Y-61337169D01*
X137073968Y-61400001D01*
X137396034Y-61400001D01*
X137711913Y-61337169D01*
X138009464Y-61213919D01*
X138277253Y-61034988D01*
X138504988Y-60807253D01*
X138505001Y-60807234D01*
X138505014Y-60807253D01*
X138732749Y-61034988D01*
X139000538Y-61213919D01*
X139298089Y-61337169D01*
X139613968Y-61400001D01*
X139936034Y-61400001D01*
X140251913Y-61337169D01*
X140549464Y-61213919D01*
X140817253Y-61034988D01*
X141044988Y-60807253D01*
X141223919Y-60539464D01*
X141347169Y-60241913D01*
X141410001Y-59926034D01*
X141410001Y-59603968D01*
X141347169Y-59288089D01*
X141223919Y-58990538D01*
X141044988Y-58722749D01*
X140817253Y-58495014D01*
X140549464Y-58316083D01*
X140251913Y-58192833D01*
X139936034Y-58130001D01*
X139613968Y-58130001D01*
X139298089Y-58192833D01*
X139000538Y-58316083D01*
X138732749Y-58495014D01*
X138505014Y-58722749D01*
X138505001Y-58722768D01*
X138504988Y-58722749D01*
X138277253Y-58495014D01*
X138009464Y-58316083D01*
X137711913Y-58192833D01*
X137396034Y-58130001D01*
X137073968Y-58130001D01*
X136758089Y-58192833D01*
X136460538Y-58316083D01*
X136192749Y-58495014D01*
X135965014Y-58722749D01*
X135965001Y-58722768D01*
X135964988Y-58722749D01*
X135737253Y-58495014D01*
X135469464Y-58316083D01*
X135171913Y-58192833D01*
X134856034Y-58130001D01*
X134533968Y-58130001D01*
X134218089Y-58192833D01*
X133920538Y-58316083D01*
X133652749Y-58495014D01*
X133425014Y-58722749D01*
X133425001Y-58722768D01*
X133424988Y-58722749D01*
X133197253Y-58495014D01*
X132929464Y-58316083D01*
X132631913Y-58192833D01*
X132316034Y-58130001D01*
X131993968Y-58130001D01*
X131678089Y-58192833D01*
X131380538Y-58316083D01*
X131112749Y-58495014D01*
X130885014Y-58722749D01*
X130885001Y-58722768D01*
X130884988Y-58722749D01*
X130657253Y-58495014D01*
X130600000Y-58456759D01*
X130600000Y-54592239D01*
X130809987Y-54382252D01*
X130810000Y-54382233D01*
X130810013Y-54382252D01*
X131037748Y-54609987D01*
X131305537Y-54788918D01*
X131603088Y-54912168D01*
X131918967Y-54975000D01*
X132241033Y-54975000D01*
X132556912Y-54912168D01*
X132854463Y-54788918D01*
X133122252Y-54609987D01*
X133349987Y-54382252D01*
X133350000Y-54382233D01*
X133350013Y-54382252D01*
X133577748Y-54609987D01*
X133845537Y-54788918D01*
X134143088Y-54912168D01*
X134458967Y-54975000D01*
X134781033Y-54975000D01*
X135096912Y-54912168D01*
X135394463Y-54788918D01*
X135662252Y-54609987D01*
X135889987Y-54382252D01*
X135890000Y-54382233D01*
X135890013Y-54382252D01*
X136117748Y-54609987D01*
X136385537Y-54788918D01*
X136683088Y-54912168D01*
X136998967Y-54975000D01*
X137321033Y-54975000D01*
X137636912Y-54912168D01*
X137934463Y-54788918D01*
X138202252Y-54609987D01*
X138429987Y-54382252D01*
X138430000Y-54382233D01*
X138430013Y-54382252D01*
G36*
X113525537Y-53518918D02*
G01*
X113823088Y-53642168D01*
X114138967Y-53705000D01*
X114329869Y-53705000D01*
X118320002Y-57695134D01*
X118320001Y-58587762D01*
X118185014Y-58722749D01*
X118185001Y-58722768D01*
X118184988Y-58722749D01*
X117957253Y-58495014D01*
X117689464Y-58316083D01*
X117391913Y-58192833D01*
X117076034Y-58130001D01*
X116753968Y-58130001D01*
X116438089Y-58192833D01*
X116140538Y-58316083D01*
X115872749Y-58495014D01*
X115645014Y-58722749D01*
X115645001Y-58722768D01*
X115644988Y-58722749D01*
X115510001Y-58587762D01*
X115510001Y-58180753D01*
X115515492Y-58125001D01*
X115493578Y-57902502D01*
X115428677Y-57688554D01*
X115323285Y-57491378D01*
X115225723Y-57372499D01*
X115181450Y-57318552D01*
X115138142Y-57283010D01*
X112895000Y-55039869D01*
X112895000Y-53692621D01*
X113004180Y-53659502D01*
X113114494Y-53600537D01*
X113211185Y-53521185D01*
X113290537Y-53424494D01*
X113315191Y-53378370D01*
X113525537Y-53518918D01*
X113525537Y-53518918D01*
G37*
X113525537Y-53518918D02*
X113823088Y-53642168D01*
X114138967Y-53705000D01*
X114329869Y-53705000D01*
X118320002Y-57695134D01*
X118320001Y-58587762D01*
X118185014Y-58722749D01*
X118185001Y-58722768D01*
X118184988Y-58722749D01*
X117957253Y-58495014D01*
X117689464Y-58316083D01*
X117391913Y-58192833D01*
X117076034Y-58130001D01*
X116753968Y-58130001D01*
X116438089Y-58192833D01*
X116140538Y-58316083D01*
X115872749Y-58495014D01*
X115645014Y-58722749D01*
X115645001Y-58722768D01*
X115644988Y-58722749D01*
X115510001Y-58587762D01*
X115510001Y-58180753D01*
X115515492Y-58125001D01*
X115493578Y-57902502D01*
X115428677Y-57688554D01*
X115323285Y-57491378D01*
X115225723Y-57372499D01*
X115181450Y-57318552D01*
X115138142Y-57283010D01*
X112895000Y-55039869D01*
X112895000Y-53692621D01*
X113004180Y-53659502D01*
X113114494Y-53600537D01*
X113211185Y-53521185D01*
X113290537Y-53424494D01*
X113315191Y-53378370D01*
X113525537Y-53518918D01*
G36*
X138565000Y-52162761D02*
G01*
X138430013Y-52297748D01*
X138430000Y-52297767D01*
X138429987Y-52297748D01*
X138202252Y-52070013D01*
X137934463Y-51891082D01*
X137636912Y-51767832D01*
X137321033Y-51705000D01*
X136998967Y-51705000D01*
X136683088Y-51767832D01*
X136385537Y-51891082D01*
X136117748Y-52070013D01*
X135890013Y-52297748D01*
X135890000Y-52297767D01*
X135889987Y-52297748D01*
X135662252Y-52070013D01*
X135394463Y-51891082D01*
X135096912Y-51767832D01*
X134781033Y-51705000D01*
X134458967Y-51705000D01*
X134143088Y-51767832D01*
X133845537Y-51891082D01*
X133577748Y-52070013D01*
X133350013Y-52297748D01*
X133350000Y-52297767D01*
X133349987Y-52297748D01*
X133122252Y-52070013D01*
X132854463Y-51891082D01*
X132556912Y-51767832D01*
X132241033Y-51705000D01*
X131918967Y-51705000D01*
X131603088Y-51767832D01*
X131305537Y-51891082D01*
X131037748Y-52070013D01*
X130810013Y-52297748D01*
X130810000Y-52297767D01*
X130809987Y-52297748D01*
X130582252Y-52070013D01*
X130314463Y-51891082D01*
X130016912Y-51767832D01*
X129701033Y-51705000D01*
X129378967Y-51705000D01*
X129063088Y-51767832D01*
X128765537Y-51891082D01*
X128497748Y-52070013D01*
X128270013Y-52297748D01*
X128270000Y-52297767D01*
X128269987Y-52297748D01*
X128042252Y-52070013D01*
X127774463Y-51891082D01*
X127476912Y-51767832D01*
X127161033Y-51705000D01*
X126838967Y-51705000D01*
X126523088Y-51767832D01*
X126225537Y-51891082D01*
X125957748Y-52070013D01*
X125730013Y-52297748D01*
X125730000Y-52297767D01*
X125729987Y-52297748D01*
X125502252Y-52070013D01*
X125234463Y-51891082D01*
X124936912Y-51767832D01*
X124621033Y-51705000D01*
X124298967Y-51705000D01*
X123983088Y-51767832D01*
X123685537Y-51891082D01*
X123475191Y-52031630D01*
X123450537Y-51985506D01*
X123371185Y-51888815D01*
X123274494Y-51809463D01*
X123164180Y-51750498D01*
X123044482Y-51714188D01*
X122920000Y-51701928D01*
X120920000Y-51701928D01*
X120795518Y-51714188D01*
X120675820Y-51750498D01*
X120565506Y-51809463D01*
X120468815Y-51888815D01*
X120389463Y-51985506D01*
X120330498Y-52095820D01*
X120294188Y-52215518D01*
X120281928Y-52340000D01*
X120281928Y-54340000D01*
X120294188Y-54464482D01*
X120330498Y-54584180D01*
X120389463Y-54694494D01*
X120468815Y-54791185D01*
X120565506Y-54870537D01*
X120675820Y-54929502D01*
X120795518Y-54965812D01*
X120860000Y-54972163D01*
X120860001Y-58587762D01*
X120725014Y-58722749D01*
X120725001Y-58722768D01*
X120724988Y-58722749D01*
X120590001Y-58587762D01*
X120590001Y-57280742D01*
X120595491Y-57225000D01*
X120590001Y-57169258D01*
X120590001Y-57169249D01*
X120573578Y-57002502D01*
X120508677Y-56788554D01*
X120403285Y-56591378D01*
X120261450Y-56418552D01*
X120218142Y-56383010D01*
X115935000Y-52099869D01*
X115935000Y-51908967D01*
X115872168Y-51593088D01*
X115748918Y-51295537D01*
X115569987Y-51027748D01*
X115342252Y-50800013D01*
X115140191Y-50665000D01*
X138565001Y-50665000D01*
X138565000Y-52162761D01*
X138565000Y-52162761D01*
G37*
X138565000Y-52162761D02*
X138430013Y-52297748D01*
X138430000Y-52297767D01*
X138429987Y-52297748D01*
X138202252Y-52070013D01*
X137934463Y-51891082D01*
X137636912Y-51767832D01*
X137321033Y-51705000D01*
X136998967Y-51705000D01*
X136683088Y-51767832D01*
X136385537Y-51891082D01*
X136117748Y-52070013D01*
X135890013Y-52297748D01*
X135890000Y-52297767D01*
X135889987Y-52297748D01*
X135662252Y-52070013D01*
X135394463Y-51891082D01*
X135096912Y-51767832D01*
X134781033Y-51705000D01*
X134458967Y-51705000D01*
X134143088Y-51767832D01*
X133845537Y-51891082D01*
X133577748Y-52070013D01*
X133350013Y-52297748D01*
X133350000Y-52297767D01*
X133349987Y-52297748D01*
X133122252Y-52070013D01*
X132854463Y-51891082D01*
X132556912Y-51767832D01*
X132241033Y-51705000D01*
X131918967Y-51705000D01*
X131603088Y-51767832D01*
X131305537Y-51891082D01*
X131037748Y-52070013D01*
X130810013Y-52297748D01*
X130810000Y-52297767D01*
X130809987Y-52297748D01*
X130582252Y-52070013D01*
X130314463Y-51891082D01*
X130016912Y-51767832D01*
X129701033Y-51705000D01*
X129378967Y-51705000D01*
X129063088Y-51767832D01*
X128765537Y-51891082D01*
X128497748Y-52070013D01*
X128270013Y-52297748D01*
X128270000Y-52297767D01*
X128269987Y-52297748D01*
X128042252Y-52070013D01*
X127774463Y-51891082D01*
X127476912Y-51767832D01*
X127161033Y-51705000D01*
X126838967Y-51705000D01*
X126523088Y-51767832D01*
X126225537Y-51891082D01*
X125957748Y-52070013D01*
X125730013Y-52297748D01*
X125730000Y-52297767D01*
X125729987Y-52297748D01*
X125502252Y-52070013D01*
X125234463Y-51891082D01*
X124936912Y-51767832D01*
X124621033Y-51705000D01*
X124298967Y-51705000D01*
X123983088Y-51767832D01*
X123685537Y-51891082D01*
X123475191Y-52031630D01*
X123450537Y-51985506D01*
X123371185Y-51888815D01*
X123274494Y-51809463D01*
X123164180Y-51750498D01*
X123044482Y-51714188D01*
X122920000Y-51701928D01*
X120920000Y-51701928D01*
X120795518Y-51714188D01*
X120675820Y-51750498D01*
X120565506Y-51809463D01*
X120468815Y-51888815D01*
X120389463Y-51985506D01*
X120330498Y-52095820D01*
X120294188Y-52215518D01*
X120281928Y-52340000D01*
X120281928Y-54340000D01*
X120294188Y-54464482D01*
X120330498Y-54584180D01*
X120389463Y-54694494D01*
X120468815Y-54791185D01*
X120565506Y-54870537D01*
X120675820Y-54929502D01*
X120795518Y-54965812D01*
X120860000Y-54972163D01*
X120860001Y-58587762D01*
X120725014Y-58722749D01*
X120725001Y-58722768D01*
X120724988Y-58722749D01*
X120590001Y-58587762D01*
X120590001Y-57280742D01*
X120595491Y-57225000D01*
X120590001Y-57169258D01*
X120590001Y-57169249D01*
X120573578Y-57002502D01*
X120508677Y-56788554D01*
X120403285Y-56591378D01*
X120261450Y-56418552D01*
X120218142Y-56383010D01*
X115935000Y-52099869D01*
X115935000Y-51908967D01*
X115872168Y-51593088D01*
X115748918Y-51295537D01*
X115569987Y-51027748D01*
X115342252Y-50800013D01*
X115140191Y-50665000D01*
X138565001Y-50665000D01*
X138565000Y-52162761D01*
G36*
X128270013Y-54382252D02*
G01*
X128480000Y-54592239D01*
X128480001Y-58587762D01*
X128345014Y-58722749D01*
X128345001Y-58722768D01*
X128344988Y-58722749D01*
X128117253Y-58495014D01*
X128060000Y-58456759D01*
X128060000Y-54592239D01*
X128269987Y-54382252D01*
X128270000Y-54382233D01*
X128270013Y-54382252D01*
X128270013Y-54382252D01*
G37*
X128270013Y-54382252D02*
X128480000Y-54592239D01*
X128480001Y-58587762D01*
X128345014Y-58722749D01*
X128345001Y-58722768D01*
X128344988Y-58722749D01*
X128117253Y-58495014D01*
X128060000Y-58456759D01*
X128060000Y-54592239D01*
X128269987Y-54382252D01*
X128270000Y-54382233D01*
X128270013Y-54382252D01*
G36*
X125730013Y-54382252D02*
G01*
X125940000Y-54592239D01*
X125940001Y-58587762D01*
X125805014Y-58722749D01*
X125805001Y-58722768D01*
X125804988Y-58722749D01*
X125577253Y-58495014D01*
X125520000Y-58456759D01*
X125520000Y-54592239D01*
X125729987Y-54382252D01*
X125730000Y-54382233D01*
X125730013Y-54382252D01*
X125730013Y-54382252D01*
G37*
X125730013Y-54382252D02*
X125940000Y-54592239D01*
X125940001Y-58587762D01*
X125805014Y-58722749D01*
X125805001Y-58722768D01*
X125804988Y-58722749D01*
X125577253Y-58495014D01*
X125520000Y-58456759D01*
X125520000Y-54592239D01*
X125729987Y-54382252D01*
X125730000Y-54382233D01*
X125730013Y-54382252D01*
G36*
X123400001Y-58587762D02*
G01*
X123265014Y-58722749D01*
X123265001Y-58722768D01*
X123264988Y-58722749D01*
X123037253Y-58495014D01*
X122980000Y-58456759D01*
X122980000Y-54972163D01*
X123044482Y-54965812D01*
X123164180Y-54929502D01*
X123274494Y-54870537D01*
X123371185Y-54791185D01*
X123400000Y-54756073D01*
X123400001Y-58587762D01*
X123400001Y-58587762D01*
G37*
X123400001Y-58587762D02*
X123265014Y-58722749D01*
X123265001Y-58722768D01*
X123264988Y-58722749D01*
X123037253Y-58495014D01*
X122980000Y-58456759D01*
X122980000Y-54972163D01*
X123044482Y-54965812D01*
X123164180Y-54929502D01*
X123274494Y-54870537D01*
X123371185Y-54791185D01*
X123400000Y-54756073D01*
X123400001Y-58587762D01*
G36*
X113315191Y-50761630D02*
G01*
X113290537Y-50715506D01*
X113249088Y-50665000D01*
X113459809Y-50665000D01*
X113315191Y-50761630D01*
X113315191Y-50761630D01*
G37*
X113315191Y-50761630D02*
X113290537Y-50715506D01*
X113249088Y-50665000D01*
X113459809Y-50665000D01*
X113315191Y-50761630D01*
G36*
X146669868Y-47125000D02*
G01*
X142710132Y-47125000D01*
X141335000Y-45749869D01*
X141335000Y-45558967D01*
X141272168Y-45243088D01*
X141148918Y-44945537D01*
X140969987Y-44677748D01*
X140742252Y-44450013D01*
X140474463Y-44271082D01*
X140176912Y-44147832D01*
X139861033Y-44085000D01*
X139538967Y-44085000D01*
X139223088Y-44147832D01*
X138925537Y-44271082D01*
X138657748Y-44450013D01*
X138430013Y-44677748D01*
X138430000Y-44677767D01*
X138429987Y-44677748D01*
X138202252Y-44450013D01*
X137934463Y-44271082D01*
X137636912Y-44147832D01*
X137321033Y-44085000D01*
X136998967Y-44085000D01*
X136683088Y-44147832D01*
X136385537Y-44271082D01*
X136117748Y-44450013D01*
X135890013Y-44677748D01*
X135890000Y-44677767D01*
X135889987Y-44677748D01*
X135662252Y-44450013D01*
X135394463Y-44271082D01*
X135096912Y-44147832D01*
X134781033Y-44085000D01*
X134458967Y-44085000D01*
X134143088Y-44147832D01*
X133845537Y-44271082D01*
X133577748Y-44450013D01*
X133350013Y-44677748D01*
X133350000Y-44677767D01*
X133349987Y-44677748D01*
X133122252Y-44450013D01*
X132854463Y-44271082D01*
X132556912Y-44147832D01*
X132241033Y-44085000D01*
X131918967Y-44085000D01*
X131603088Y-44147832D01*
X131305537Y-44271082D01*
X131037748Y-44450013D01*
X130810013Y-44677748D01*
X130810000Y-44677767D01*
X130809987Y-44677748D01*
X130600000Y-44467761D01*
X130600000Y-43619065D01*
X132519067Y-41700000D01*
X132987837Y-41700000D01*
X132994188Y-41764482D01*
X133030498Y-41884180D01*
X133089463Y-41994494D01*
X133168815Y-42091185D01*
X133265506Y-42170537D01*
X133375820Y-42229502D01*
X133495518Y-42265812D01*
X133620000Y-42278072D01*
X135620000Y-42278072D01*
X135744482Y-42265812D01*
X135864180Y-42229502D01*
X135974494Y-42170537D01*
X136071185Y-42091185D01*
X136150537Y-41994494D01*
X136209502Y-41884180D01*
X136245812Y-41764482D01*
X136258072Y-41640000D01*
X136258072Y-39640000D01*
X136245812Y-39515518D01*
X136209502Y-39395820D01*
X136150537Y-39285506D01*
X136109088Y-39235000D01*
X138779869Y-39235000D01*
X146669868Y-47125000D01*
X146669868Y-47125000D01*
G37*
X146669868Y-47125000D02*
X142710132Y-47125000D01*
X141335000Y-45749869D01*
X141335000Y-45558967D01*
X141272168Y-45243088D01*
X141148918Y-44945537D01*
X140969987Y-44677748D01*
X140742252Y-44450013D01*
X140474463Y-44271082D01*
X140176912Y-44147832D01*
X139861033Y-44085000D01*
X139538967Y-44085000D01*
X139223088Y-44147832D01*
X138925537Y-44271082D01*
X138657748Y-44450013D01*
X138430013Y-44677748D01*
X138430000Y-44677767D01*
X138429987Y-44677748D01*
X138202252Y-44450013D01*
X137934463Y-44271082D01*
X137636912Y-44147832D01*
X137321033Y-44085000D01*
X136998967Y-44085000D01*
X136683088Y-44147832D01*
X136385537Y-44271082D01*
X136117748Y-44450013D01*
X135890013Y-44677748D01*
X135890000Y-44677767D01*
X135889987Y-44677748D01*
X135662252Y-44450013D01*
X135394463Y-44271082D01*
X135096912Y-44147832D01*
X134781033Y-44085000D01*
X134458967Y-44085000D01*
X134143088Y-44147832D01*
X133845537Y-44271082D01*
X133577748Y-44450013D01*
X133350013Y-44677748D01*
X133350000Y-44677767D01*
X133349987Y-44677748D01*
X133122252Y-44450013D01*
X132854463Y-44271082D01*
X132556912Y-44147832D01*
X132241033Y-44085000D01*
X131918967Y-44085000D01*
X131603088Y-44147832D01*
X131305537Y-44271082D01*
X131037748Y-44450013D01*
X130810013Y-44677748D01*
X130810000Y-44677767D01*
X130809987Y-44677748D01*
X130600000Y-44467761D01*
X130600000Y-43619065D01*
X132519067Y-41700000D01*
X132987837Y-41700000D01*
X132994188Y-41764482D01*
X133030498Y-41884180D01*
X133089463Y-41994494D01*
X133168815Y-42091185D01*
X133265506Y-42170537D01*
X133375820Y-42229502D01*
X133495518Y-42265812D01*
X133620000Y-42278072D01*
X135620000Y-42278072D01*
X135744482Y-42265812D01*
X135864180Y-42229502D01*
X135974494Y-42170537D01*
X136071185Y-42091185D01*
X136150537Y-41994494D01*
X136209502Y-41884180D01*
X136245812Y-41764482D01*
X136258072Y-41640000D01*
X136258072Y-39640000D01*
X136245812Y-39515518D01*
X136209502Y-39395820D01*
X136150537Y-39285506D01*
X136109088Y-39235000D01*
X138779869Y-39235000D01*
X146669868Y-47125000D01*
G36*
X133089463Y-39285506D02*
G01*
X133030498Y-39395820D01*
X132994188Y-39515518D01*
X132987837Y-39580000D01*
X132132055Y-39580000D01*
X132079999Y-39574873D01*
X132027943Y-39580000D01*
X132027934Y-39580000D01*
X131872204Y-39595338D01*
X131672393Y-39655950D01*
X131488247Y-39754378D01*
X131488245Y-39754379D01*
X131488246Y-39754379D01*
X131367282Y-39853651D01*
X131367278Y-39853655D01*
X131326841Y-39886841D01*
X131293655Y-39927278D01*
X128827288Y-42393647D01*
X128786841Y-42426841D01*
X128654378Y-42588247D01*
X128555950Y-42772394D01*
X128495338Y-42972205D01*
X128480000Y-43127935D01*
X128480000Y-43127944D01*
X128474873Y-43180000D01*
X128480000Y-43232056D01*
X128480001Y-44467760D01*
X128270013Y-44677748D01*
X128270000Y-44677767D01*
X128269987Y-44677748D01*
X128060000Y-44467761D01*
X128060000Y-42272163D01*
X128124482Y-42265812D01*
X128244180Y-42229502D01*
X128354494Y-42170537D01*
X128451185Y-42091185D01*
X128530537Y-41994494D01*
X128589502Y-41884180D01*
X128625812Y-41764482D01*
X128638072Y-41640000D01*
X128638072Y-39640000D01*
X128625812Y-39515518D01*
X128589502Y-39395820D01*
X128530537Y-39285506D01*
X128489088Y-39235000D01*
X133130912Y-39235000D01*
X133089463Y-39285506D01*
X133089463Y-39285506D01*
G37*
X133089463Y-39285506D02*
X133030498Y-39395820D01*
X132994188Y-39515518D01*
X132987837Y-39580000D01*
X132132055Y-39580000D01*
X132079999Y-39574873D01*
X132027943Y-39580000D01*
X132027934Y-39580000D01*
X131872204Y-39595338D01*
X131672393Y-39655950D01*
X131488247Y-39754378D01*
X131488245Y-39754379D01*
X131488246Y-39754379D01*
X131367282Y-39853651D01*
X131367278Y-39853655D01*
X131326841Y-39886841D01*
X131293655Y-39927278D01*
X128827288Y-42393647D01*
X128786841Y-42426841D01*
X128654378Y-42588247D01*
X128555950Y-42772394D01*
X128495338Y-42972205D01*
X128480000Y-43127935D01*
X128480000Y-43127944D01*
X128474873Y-43180000D01*
X128480000Y-43232056D01*
X128480001Y-44467760D01*
X128270013Y-44677748D01*
X128270000Y-44677767D01*
X128269987Y-44677748D01*
X128060000Y-44467761D01*
X128060000Y-42272163D01*
X128124482Y-42265812D01*
X128244180Y-42229502D01*
X128354494Y-42170537D01*
X128451185Y-42091185D01*
X128530537Y-41994494D01*
X128589502Y-41884180D01*
X128625812Y-41764482D01*
X128638072Y-41640000D01*
X128638072Y-39640000D01*
X128625812Y-39515518D01*
X128589502Y-39395820D01*
X128530537Y-39285506D01*
X128489088Y-39235000D01*
X133130912Y-39235000D01*
X133089463Y-39285506D01*
G36*
X117849463Y-39285506D02*
G01*
X117790498Y-39395820D01*
X117754188Y-39515518D01*
X117741928Y-39640000D01*
X117741928Y-41640000D01*
X117754188Y-41764482D01*
X117790498Y-41884180D01*
X117849463Y-41994494D01*
X117928815Y-42091185D01*
X118025506Y-42170537D01*
X118135820Y-42229502D01*
X118255518Y-42265812D01*
X118380000Y-42278072D01*
X120380000Y-42278072D01*
X120504482Y-42265812D01*
X120624180Y-42229502D01*
X120734494Y-42170537D01*
X120831185Y-42091185D01*
X120910537Y-41994494D01*
X120969502Y-41884180D01*
X121005812Y-41764482D01*
X121012163Y-41700000D01*
X121480935Y-41700000D01*
X123400000Y-43619067D01*
X123400001Y-44467760D01*
X123190013Y-44677748D01*
X123190000Y-44677767D01*
X123189987Y-44677748D01*
X122962252Y-44450013D01*
X122694463Y-44271082D01*
X122396912Y-44147832D01*
X122081033Y-44085000D01*
X121758967Y-44085000D01*
X121443088Y-44147832D01*
X121145537Y-44271082D01*
X120877748Y-44450013D01*
X120667761Y-44660000D01*
X119819066Y-44660000D01*
X115086354Y-39927289D01*
X115053159Y-39886841D01*
X114891753Y-39754378D01*
X114707607Y-39655950D01*
X114507796Y-39595338D01*
X114352066Y-39580000D01*
X114352056Y-39580000D01*
X114300000Y-39574873D01*
X114247944Y-39580000D01*
X113392163Y-39580000D01*
X113385812Y-39515518D01*
X113349502Y-39395820D01*
X113290537Y-39285506D01*
X113249088Y-39235000D01*
X117890912Y-39235000D01*
X117849463Y-39285506D01*
X117849463Y-39285506D01*
G37*
X117849463Y-39285506D02*
X117790498Y-39395820D01*
X117754188Y-39515518D01*
X117741928Y-39640000D01*
X117741928Y-41640000D01*
X117754188Y-41764482D01*
X117790498Y-41884180D01*
X117849463Y-41994494D01*
X117928815Y-42091185D01*
X118025506Y-42170537D01*
X118135820Y-42229502D01*
X118255518Y-42265812D01*
X118380000Y-42278072D01*
X120380000Y-42278072D01*
X120504482Y-42265812D01*
X120624180Y-42229502D01*
X120734494Y-42170537D01*
X120831185Y-42091185D01*
X120910537Y-41994494D01*
X120969502Y-41884180D01*
X121005812Y-41764482D01*
X121012163Y-41700000D01*
X121480935Y-41700000D01*
X123400000Y-43619067D01*
X123400001Y-44467760D01*
X123190013Y-44677748D01*
X123190000Y-44677767D01*
X123189987Y-44677748D01*
X122962252Y-44450013D01*
X122694463Y-44271082D01*
X122396912Y-44147832D01*
X122081033Y-44085000D01*
X121758967Y-44085000D01*
X121443088Y-44147832D01*
X121145537Y-44271082D01*
X120877748Y-44450013D01*
X120667761Y-44660000D01*
X119819066Y-44660000D01*
X115086354Y-39927289D01*
X115053159Y-39886841D01*
X114891753Y-39754378D01*
X114707607Y-39655950D01*
X114507796Y-39595338D01*
X114352066Y-39580000D01*
X114352056Y-39580000D01*
X114300000Y-39574873D01*
X114247944Y-39580000D01*
X113392163Y-39580000D01*
X113385812Y-39515518D01*
X113349502Y-39395820D01*
X113290537Y-39285506D01*
X113249088Y-39235000D01*
X117890912Y-39235000D01*
X117849463Y-39285506D01*
G36*
X125469463Y-39285506D02*
G01*
X125410498Y-39395820D01*
X125374188Y-39515518D01*
X125361928Y-39640000D01*
X125361928Y-41640000D01*
X125374188Y-41764482D01*
X125410498Y-41884180D01*
X125469463Y-41994494D01*
X125548815Y-42091185D01*
X125645506Y-42170537D01*
X125755820Y-42229502D01*
X125875518Y-42265812D01*
X125940000Y-42272163D01*
X125940001Y-44467760D01*
X125730013Y-44677748D01*
X125730000Y-44677767D01*
X125729987Y-44677748D01*
X125520000Y-44467761D01*
X125520000Y-43232055D01*
X125525127Y-43179999D01*
X125520000Y-43127943D01*
X125520000Y-43127934D01*
X125504662Y-42972204D01*
X125444050Y-42772393D01*
X125345622Y-42588247D01*
X125327424Y-42566073D01*
X125246349Y-42467282D01*
X125246345Y-42467278D01*
X125213159Y-42426841D01*
X125172722Y-42393655D01*
X122706353Y-39927288D01*
X122673159Y-39886841D01*
X122511753Y-39754378D01*
X122327607Y-39655950D01*
X122127796Y-39595338D01*
X121972066Y-39580000D01*
X121972056Y-39580000D01*
X121920000Y-39574873D01*
X121867944Y-39580000D01*
X121012163Y-39580000D01*
X121005812Y-39515518D01*
X120969502Y-39395820D01*
X120910537Y-39285506D01*
X120869088Y-39235000D01*
X125510912Y-39235000D01*
X125469463Y-39285506D01*
X125469463Y-39285506D01*
G37*
X125469463Y-39285506D02*
X125410498Y-39395820D01*
X125374188Y-39515518D01*
X125361928Y-39640000D01*
X125361928Y-41640000D01*
X125374188Y-41764482D01*
X125410498Y-41884180D01*
X125469463Y-41994494D01*
X125548815Y-42091185D01*
X125645506Y-42170537D01*
X125755820Y-42229502D01*
X125875518Y-42265812D01*
X125940000Y-42272163D01*
X125940001Y-44467760D01*
X125730013Y-44677748D01*
X125730000Y-44677767D01*
X125729987Y-44677748D01*
X125520000Y-44467761D01*
X125520000Y-43232055D01*
X125525127Y-43179999D01*
X125520000Y-43127943D01*
X125520000Y-43127934D01*
X125504662Y-42972204D01*
X125444050Y-42772393D01*
X125345622Y-42588247D01*
X125327424Y-42566073D01*
X125246349Y-42467282D01*
X125246345Y-42467278D01*
X125213159Y-42426841D01*
X125172722Y-42393655D01*
X122706353Y-39927288D01*
X122673159Y-39886841D01*
X122511753Y-39754378D01*
X122327607Y-39655950D01*
X122127796Y-39595338D01*
X121972066Y-39580000D01*
X121972056Y-39580000D01*
X121920000Y-39574873D01*
X121867944Y-39580000D01*
X121012163Y-39580000D01*
X121005812Y-39515518D01*
X120969502Y-39395820D01*
X120910537Y-39285506D01*
X120869088Y-39235000D01*
X125510912Y-39235000D01*
X125469463Y-39285506D01*
M02*
