%FSLAX45Y45*%
G04 Gerber Fmt 4.5, Leading zero omitted, Abs format (unit mm)*
G04 Created by KiCad (PCBNEW (5.1.4)-1) date 2019-11-27 14:19:10*
%MOMM*%
%LPD*%
G04 APERTURE LIST*
%ADD10C,0.050000*%
%ADD11C,0.200000*%
%ADD12C,0.300000*%
G04 APERTURE END LIST*
D10*
X10160000Y-3048000D02*
X16735000Y-3048000D01*
X16735000Y-3048000D02*
X16735000Y-12192500D01*
X10160000Y-12192000D02*
X16735000Y-12192500D01*
X10160000Y-11049000D02*
X10160000Y-12192000D01*
X10160000Y-11049000D02*
X10160000Y-3048000D01*
D11*
X12152000Y-4532000D02*
X12232000Y-4612000D01*
X12232000Y-4532000D02*
X12152000Y-4612000D01*
X12152000Y-5294000D02*
X12232000Y-5374000D01*
X12232000Y-5294000D02*
X12152000Y-5374000D01*
X12406000Y-4532000D02*
X12486000Y-4612000D01*
X12486000Y-4532000D02*
X12406000Y-4612000D01*
X12406000Y-5294000D02*
X12486000Y-5374000D01*
X12486000Y-5294000D02*
X12406000Y-5374000D01*
X12660000Y-4532000D02*
X12740000Y-4612000D01*
X12740000Y-4532000D02*
X12660000Y-4612000D01*
X12660000Y-5294000D02*
X12740000Y-5374000D01*
X12740000Y-5294000D02*
X12660000Y-5374000D01*
X12914000Y-4532000D02*
X12994000Y-4612000D01*
X12994000Y-4532000D02*
X12914000Y-4612000D01*
X12914000Y-5294000D02*
X12994000Y-5374000D01*
X12994000Y-5294000D02*
X12914000Y-5374000D01*
X13168000Y-4532000D02*
X13248000Y-4612000D01*
X13248000Y-4532000D02*
X13168000Y-4612000D01*
X13168000Y-5294000D02*
X13248000Y-5374000D01*
X13248000Y-5294000D02*
X13168000Y-5374000D01*
X13422000Y-4532000D02*
X13502000Y-4612000D01*
X13502000Y-4532000D02*
X13422000Y-4612000D01*
X13422000Y-5294000D02*
X13502000Y-5374000D01*
X13502000Y-5294000D02*
X13422000Y-5374000D01*
X13676000Y-4532000D02*
X13756000Y-4612000D01*
X13756000Y-4532000D02*
X13676000Y-4612000D01*
X13676000Y-5294000D02*
X13756000Y-5374000D01*
X13756000Y-5294000D02*
X13676000Y-5374000D01*
X13930000Y-4532000D02*
X14010000Y-4612000D01*
X14010000Y-4532000D02*
X13930000Y-4612000D01*
X13930000Y-5294000D02*
X14010000Y-5374000D01*
X14010000Y-5294000D02*
X13930000Y-5374000D01*
X11988000Y-3810000D02*
G75*
G03X11988000Y-3810000I-50000J0D01*
G01*
X11988000Y-4064000D02*
G75*
G03X11988000Y-4064000I-50000J0D01*
G01*
X13512000Y-3810000D02*
G75*
G03X13512000Y-3810000I-50000J0D01*
G01*
X13512000Y-4064000D02*
G75*
G03X13512000Y-4064000I-50000J0D01*
G01*
X15036000Y-3810000D02*
G75*
G03X15036000Y-3810000I-50000J0D01*
G01*
X15036000Y-4064000D02*
G75*
G03X15036000Y-4064000I-50000J0D01*
G01*
X12242000Y-9906000D02*
G75*
G03X12242000Y-9906000I-50000J0D01*
G01*
X12496000Y-9906000D02*
G75*
G03X12496000Y-9906000I-50000J0D01*
G01*
X12750000Y-9906000D02*
G75*
G03X12750000Y-9906000I-50000J0D01*
G01*
X12750000Y-3810000D02*
G75*
G03X12750000Y-3810000I-50000J0D01*
G01*
X12750000Y-4064000D02*
G75*
G03X12750000Y-4064000I-50000J0D01*
G01*
X15036000Y-4826000D02*
G75*
G03X15036000Y-4826000I-50000J0D01*
G01*
X15036000Y-5080000D02*
G75*
G03X15036000Y-5080000I-50000J0D01*
G01*
X13639000Y-9144000D02*
G75*
G03X13639000Y-9144000I-50000J0D01*
G01*
X13893000Y-9144000D02*
G75*
G03X13893000Y-9144000I-50000J0D01*
G01*
X12242000Y-8382000D02*
G75*
G03X12242000Y-8382000I-50000J0D01*
G01*
X12496000Y-8382000D02*
G75*
G03X12496000Y-8382000I-50000J0D01*
G01*
X12250000Y-11430000D02*
G75*
G03X12250000Y-11430000I-50000J0D01*
G01*
X12504000Y-11430000D02*
G75*
G03X12504000Y-11430000I-50000J0D01*
G01*
X12758000Y-11430000D02*
G75*
G03X12758000Y-11430000I-50000J0D01*
G01*
X11226000Y-5207000D02*
G75*
G03X11226000Y-5207000I-50000J0D01*
G01*
X11480000Y-5207000D02*
G75*
G03X11480000Y-5207000I-50000J0D01*
G01*
X12242000Y-9144000D02*
G75*
G03X12242000Y-9144000I-50000J0D01*
G01*
X12496000Y-9144000D02*
G75*
G03X12496000Y-9144000I-50000J0D01*
G01*
X12750000Y-9144000D02*
G75*
G03X12750000Y-9144000I-50000J0D01*
G01*
X11226000Y-3810000D02*
G75*
G03X11226000Y-3810000I-50000J0D01*
G01*
X11226000Y-4064000D02*
G75*
G03X11226000Y-4064000I-50000J0D01*
G01*
X13639000Y-8382000D02*
G75*
G03X13639000Y-8382000I-50000J0D01*
G01*
X13893000Y-8382000D02*
G75*
G03X13893000Y-8382000I-50000J0D01*
G01*
X12242000Y-10668000D02*
G75*
G03X12242000Y-10668000I-50000J0D01*
G01*
X12496000Y-10668000D02*
G75*
G03X12496000Y-10668000I-50000J0D01*
G01*
X12750000Y-10668000D02*
G75*
G03X12750000Y-10668000I-50000J0D01*
G01*
X11480000Y-8382000D02*
G75*
G03X11480000Y-8382000I-50000J0D01*
G01*
X11227000Y-8382000D02*
G75*
G03X11227000Y-8382000I-50000J0D01*
G01*
X13639000Y-9906000D02*
G75*
G03X13639000Y-9906000I-50000J0D01*
G01*
X13893000Y-9906000D02*
G75*
G03X13893000Y-9906000I-50000J0D01*
G01*
X11183500Y-5921500D02*
X11183500Y-6031500D01*
X11128500Y-5976500D02*
X11238500Y-5976500D01*
X11183500Y-7445500D02*
X11183500Y-7555500D01*
X11128500Y-7500500D02*
X11238500Y-7500500D01*
X11437500Y-5921500D02*
X11437500Y-6031500D01*
X11382500Y-5976500D02*
X11492500Y-5976500D01*
X11437500Y-7445500D02*
X11437500Y-7555500D01*
X11382500Y-7500500D02*
X11492500Y-7500500D01*
X11691500Y-5921500D02*
X11691500Y-6031500D01*
X11636500Y-5976500D02*
X11746500Y-5976500D01*
X11691500Y-7445500D02*
X11691500Y-7555500D01*
X11636500Y-7500500D02*
X11746500Y-7500500D01*
X11945500Y-5921500D02*
X11945500Y-6031500D01*
X11890500Y-5976500D02*
X12000500Y-5976500D01*
X11945500Y-7445500D02*
X11945500Y-7555500D01*
X11890500Y-7500500D02*
X12000500Y-7500500D01*
X12199500Y-5921500D02*
X12199500Y-6031500D01*
X12144500Y-5976500D02*
X12254500Y-5976500D01*
X12199500Y-7445500D02*
X12199500Y-7555500D01*
X12144500Y-7500500D02*
X12254500Y-7500500D01*
X12453500Y-5921500D02*
X12453500Y-6031500D01*
X12398500Y-5976500D02*
X12508500Y-5976500D01*
X12453500Y-7445500D02*
X12453500Y-7555500D01*
X12398500Y-7500500D02*
X12508500Y-7500500D01*
X12707500Y-5921500D02*
X12707500Y-6031500D01*
X12652500Y-5976500D02*
X12762500Y-5976500D01*
X12707500Y-7445500D02*
X12707500Y-7555500D01*
X12652500Y-7500500D02*
X12762500Y-7500500D01*
X12961500Y-5921500D02*
X12961500Y-6031500D01*
X12906500Y-5976500D02*
X13016500Y-5976500D01*
X12961500Y-7445500D02*
X12961500Y-7555500D01*
X12906500Y-7500500D02*
X13016500Y-7500500D01*
X13215500Y-5921500D02*
X13215500Y-6031500D01*
X13160500Y-5976500D02*
X13270500Y-5976500D01*
X13215500Y-7445500D02*
X13215500Y-7555500D01*
X13160500Y-7500500D02*
X13270500Y-7500500D01*
X13469500Y-5921500D02*
X13469500Y-6031500D01*
X13414500Y-5976500D02*
X13524500Y-5976500D01*
X13469500Y-7445500D02*
X13469500Y-7555500D01*
X13414500Y-7500500D02*
X13524500Y-7500500D01*
X13723500Y-5921500D02*
X13723500Y-6031500D01*
X13668500Y-5976500D02*
X13778500Y-5976500D01*
X13723500Y-7445500D02*
X13723500Y-7555500D01*
X13668500Y-7500500D02*
X13778500Y-7500500D01*
X13977500Y-5921500D02*
X13977500Y-6031500D01*
X13922500Y-5976500D02*
X14032500Y-5976500D01*
X13977500Y-7445500D02*
X13977500Y-7555500D01*
X13922500Y-7500500D02*
X14032500Y-7500500D01*
D12*
X10443928Y-12660714D02*
X10443928Y-12360714D01*
X10515357Y-12360714D01*
X10558214Y-12375000D01*
X10586786Y-12403571D01*
X10601071Y-12432143D01*
X10615357Y-12489286D01*
X10615357Y-12532143D01*
X10601071Y-12589286D01*
X10586786Y-12617857D01*
X10558214Y-12646429D01*
X10515357Y-12660714D01*
X10443928Y-12660714D01*
X10743928Y-12660714D02*
X10743928Y-12460714D01*
X10743928Y-12517857D02*
X10758214Y-12489286D01*
X10772500Y-12475000D01*
X10801071Y-12460714D01*
X10829643Y-12460714D01*
X10929643Y-12660714D02*
X10929643Y-12460714D01*
X10929643Y-12360714D02*
X10915357Y-12375000D01*
X10929643Y-12389286D01*
X10943928Y-12375000D01*
X10929643Y-12360714D01*
X10929643Y-12389286D01*
X11115357Y-12660714D02*
X11086786Y-12646429D01*
X11072500Y-12617857D01*
X11072500Y-12360714D01*
X11272500Y-12660714D02*
X11243928Y-12646429D01*
X11229643Y-12617857D01*
X11229643Y-12360714D01*
X11615357Y-12660714D02*
X11615357Y-12360714D01*
X11715357Y-12575000D01*
X11815357Y-12360714D01*
X11815357Y-12660714D01*
X12086786Y-12660714D02*
X12086786Y-12503571D01*
X12072500Y-12475000D01*
X12043928Y-12460714D01*
X11986786Y-12460714D01*
X11958214Y-12475000D01*
X12086786Y-12646429D02*
X12058214Y-12660714D01*
X11986786Y-12660714D01*
X11958214Y-12646429D01*
X11943928Y-12617857D01*
X11943928Y-12589286D01*
X11958214Y-12560714D01*
X11986786Y-12546429D01*
X12058214Y-12546429D01*
X12086786Y-12532143D01*
X12229643Y-12460714D02*
X12229643Y-12760714D01*
X12229643Y-12475000D02*
X12258214Y-12460714D01*
X12315357Y-12460714D01*
X12343928Y-12475000D01*
X12358214Y-12489286D01*
X12372500Y-12517857D01*
X12372500Y-12603571D01*
X12358214Y-12632143D01*
X12343928Y-12646429D01*
X12315357Y-12660714D01*
X12258214Y-12660714D01*
X12229643Y-12646429D01*
X12501071Y-12632143D02*
X12515357Y-12646429D01*
X12501071Y-12660714D01*
X12486786Y-12646429D01*
X12501071Y-12632143D01*
X12501071Y-12660714D01*
X12501071Y-12475000D02*
X12515357Y-12489286D01*
X12501071Y-12503571D01*
X12486786Y-12489286D01*
X12501071Y-12475000D01*
X12501071Y-12503571D01*
X10077500Y-13115000D02*
X10157500Y-13195000D01*
X10157500Y-13115000D02*
X10077500Y-13195000D01*
X10501071Y-12990714D02*
X10529643Y-12990714D01*
X10558214Y-13005000D01*
X10572500Y-13019286D01*
X10586786Y-13047857D01*
X10601071Y-13105000D01*
X10601071Y-13176429D01*
X10586786Y-13233571D01*
X10572500Y-13262143D01*
X10558214Y-13276429D01*
X10529643Y-13290714D01*
X10501071Y-13290714D01*
X10472500Y-13276429D01*
X10458214Y-13262143D01*
X10443928Y-13233571D01*
X10429643Y-13176429D01*
X10429643Y-13105000D01*
X10443928Y-13047857D01*
X10458214Y-13019286D01*
X10472500Y-13005000D01*
X10501071Y-12990714D01*
X10729643Y-13262143D02*
X10743928Y-13276429D01*
X10729643Y-13290714D01*
X10715357Y-13276429D01*
X10729643Y-13262143D01*
X10729643Y-13290714D01*
X10915357Y-13119286D02*
X10886786Y-13105000D01*
X10872500Y-13090714D01*
X10858214Y-13062143D01*
X10858214Y-13047857D01*
X10872500Y-13019286D01*
X10886786Y-13005000D01*
X10915357Y-12990714D01*
X10972500Y-12990714D01*
X11001071Y-13005000D01*
X11015357Y-13019286D01*
X11029643Y-13047857D01*
X11029643Y-13062143D01*
X11015357Y-13090714D01*
X11001071Y-13105000D01*
X10972500Y-13119286D01*
X10915357Y-13119286D01*
X10886786Y-13133571D01*
X10872500Y-13147857D01*
X10858214Y-13176429D01*
X10858214Y-13233571D01*
X10872500Y-13262143D01*
X10886786Y-13276429D01*
X10915357Y-13290714D01*
X10972500Y-13290714D01*
X11001071Y-13276429D01*
X11015357Y-13262143D01*
X11029643Y-13233571D01*
X11029643Y-13176429D01*
X11015357Y-13147857D01*
X11001071Y-13133571D01*
X10972500Y-13119286D01*
X11215357Y-12990714D02*
X11243928Y-12990714D01*
X11272500Y-13005000D01*
X11286786Y-13019286D01*
X11301071Y-13047857D01*
X11315357Y-13105000D01*
X11315357Y-13176429D01*
X11301071Y-13233571D01*
X11286786Y-13262143D01*
X11272500Y-13276429D01*
X11243928Y-13290714D01*
X11215357Y-13290714D01*
X11186786Y-13276429D01*
X11172500Y-13262143D01*
X11158214Y-13233571D01*
X11143928Y-13176429D01*
X11143928Y-13105000D01*
X11158214Y-13047857D01*
X11172500Y-13019286D01*
X11186786Y-13005000D01*
X11215357Y-12990714D01*
X11443928Y-13290714D02*
X11443928Y-13090714D01*
X11443928Y-13119286D02*
X11458214Y-13105000D01*
X11486786Y-13090714D01*
X11529643Y-13090714D01*
X11558214Y-13105000D01*
X11572500Y-13133571D01*
X11572500Y-13290714D01*
X11572500Y-13133571D02*
X11586786Y-13105000D01*
X11615357Y-13090714D01*
X11658214Y-13090714D01*
X11686786Y-13105000D01*
X11701071Y-13133571D01*
X11701071Y-13290714D01*
X11843928Y-13290714D02*
X11843928Y-13090714D01*
X11843928Y-13119286D02*
X11858214Y-13105000D01*
X11886786Y-13090714D01*
X11929643Y-13090714D01*
X11958214Y-13105000D01*
X11972500Y-13133571D01*
X11972500Y-13290714D01*
X11972500Y-13133571D02*
X11986786Y-13105000D01*
X12015357Y-13090714D01*
X12058214Y-13090714D01*
X12086786Y-13105000D01*
X12101071Y-13133571D01*
X12101071Y-13290714D01*
X12686786Y-12976429D02*
X12429643Y-13362143D01*
X13072500Y-12990714D02*
X13101071Y-12990714D01*
X13129643Y-13005000D01*
X13143928Y-13019286D01*
X13158214Y-13047857D01*
X13172500Y-13105000D01*
X13172500Y-13176429D01*
X13158214Y-13233571D01*
X13143928Y-13262143D01*
X13129643Y-13276429D01*
X13101071Y-13290714D01*
X13072500Y-13290714D01*
X13043928Y-13276429D01*
X13029643Y-13262143D01*
X13015357Y-13233571D01*
X13001071Y-13176429D01*
X13001071Y-13105000D01*
X13015357Y-13047857D01*
X13029643Y-13019286D01*
X13043928Y-13005000D01*
X13072500Y-12990714D01*
X13301071Y-13262143D02*
X13315357Y-13276429D01*
X13301071Y-13290714D01*
X13286786Y-13276429D01*
X13301071Y-13262143D01*
X13301071Y-13290714D01*
X13501071Y-12990714D02*
X13529643Y-12990714D01*
X13558214Y-13005000D01*
X13572500Y-13019286D01*
X13586786Y-13047857D01*
X13601071Y-13105000D01*
X13601071Y-13176429D01*
X13586786Y-13233571D01*
X13572500Y-13262143D01*
X13558214Y-13276429D01*
X13529643Y-13290714D01*
X13501071Y-13290714D01*
X13472500Y-13276429D01*
X13458214Y-13262143D01*
X13443928Y-13233571D01*
X13429643Y-13176429D01*
X13429643Y-13105000D01*
X13443928Y-13047857D01*
X13458214Y-13019286D01*
X13472500Y-13005000D01*
X13501071Y-12990714D01*
X13701071Y-12990714D02*
X13886786Y-12990714D01*
X13786786Y-13105000D01*
X13829643Y-13105000D01*
X13858214Y-13119286D01*
X13872500Y-13133571D01*
X13886786Y-13162143D01*
X13886786Y-13233571D01*
X13872500Y-13262143D01*
X13858214Y-13276429D01*
X13829643Y-13290714D01*
X13743928Y-13290714D01*
X13715357Y-13276429D01*
X13701071Y-13262143D01*
X14172500Y-13290714D02*
X14001071Y-13290714D01*
X14086786Y-13290714D02*
X14086786Y-12990714D01*
X14058214Y-13033571D01*
X14029643Y-13062143D01*
X14001071Y-13076429D01*
X14286786Y-12990714D02*
X14286786Y-13047857D01*
X14401071Y-12990714D02*
X14401071Y-13047857D01*
X14843928Y-13405000D02*
X14829643Y-13390714D01*
X14801071Y-13347857D01*
X14786786Y-13319286D01*
X14772500Y-13276429D01*
X14758214Y-13205000D01*
X14758214Y-13147857D01*
X14772500Y-13076429D01*
X14786786Y-13033571D01*
X14801071Y-13005000D01*
X14829643Y-12962143D01*
X14843928Y-12947857D01*
X15115357Y-13290714D02*
X14943928Y-13290714D01*
X15029643Y-13290714D02*
X15029643Y-12990714D01*
X15001071Y-13033571D01*
X14972500Y-13062143D01*
X14943928Y-13076429D01*
X15372500Y-12990714D02*
X15315357Y-12990714D01*
X15286786Y-13005000D01*
X15272500Y-13019286D01*
X15243928Y-13062143D01*
X15229643Y-13119286D01*
X15229643Y-13233571D01*
X15243928Y-13262143D01*
X15258214Y-13276429D01*
X15286786Y-13290714D01*
X15343928Y-13290714D01*
X15372500Y-13276429D01*
X15386786Y-13262143D01*
X15401071Y-13233571D01*
X15401071Y-13162143D01*
X15386786Y-13133571D01*
X15372500Y-13119286D01*
X15343928Y-13105000D01*
X15286786Y-13105000D01*
X15258214Y-13119286D01*
X15243928Y-13133571D01*
X15229643Y-13162143D01*
X15758214Y-13290714D02*
X15758214Y-12990714D01*
X15886786Y-13290714D02*
X15886786Y-13133571D01*
X15872500Y-13105000D01*
X15843928Y-13090714D01*
X15801071Y-13090714D01*
X15772500Y-13105000D01*
X15758214Y-13119286D01*
X16072500Y-13290714D02*
X16043928Y-13276429D01*
X16029643Y-13262143D01*
X16015357Y-13233571D01*
X16015357Y-13147857D01*
X16029643Y-13119286D01*
X16043928Y-13105000D01*
X16072500Y-13090714D01*
X16115357Y-13090714D01*
X16143928Y-13105000D01*
X16158214Y-13119286D01*
X16172500Y-13147857D01*
X16172500Y-13233571D01*
X16158214Y-13262143D01*
X16143928Y-13276429D01*
X16115357Y-13290714D01*
X16072500Y-13290714D01*
X16343928Y-13290714D02*
X16315357Y-13276429D01*
X16301071Y-13247857D01*
X16301071Y-12990714D01*
X16572500Y-13276429D02*
X16543928Y-13290714D01*
X16486786Y-13290714D01*
X16458214Y-13276429D01*
X16443928Y-13247857D01*
X16443928Y-13133571D01*
X16458214Y-13105000D01*
X16486786Y-13090714D01*
X16543928Y-13090714D01*
X16572500Y-13105000D01*
X16586786Y-13133571D01*
X16586786Y-13162143D01*
X16443928Y-13190714D01*
X16701071Y-13276429D02*
X16729643Y-13290714D01*
X16786786Y-13290714D01*
X16815357Y-13276429D01*
X16829643Y-13247857D01*
X16829643Y-13233571D01*
X16815357Y-13205000D01*
X16786786Y-13190714D01*
X16743928Y-13190714D01*
X16715357Y-13176429D01*
X16701071Y-13147857D01*
X16701071Y-13133571D01*
X16715357Y-13105000D01*
X16743928Y-13090714D01*
X16786786Y-13090714D01*
X16815357Y-13105000D01*
X16929643Y-13405000D02*
X16943928Y-13390714D01*
X16972500Y-13347857D01*
X16986786Y-13319286D01*
X17001071Y-13276429D01*
X17015357Y-13205000D01*
X17015357Y-13147857D01*
X17001071Y-13076429D01*
X16986786Y-13033571D01*
X16972500Y-13005000D01*
X16943928Y-12962143D01*
X16929643Y-12947857D01*
X10157500Y-13551000D02*
G75*
G03X10157500Y-13551000I-50000J0D01*
G01*
X10601071Y-13686714D02*
X10429643Y-13686714D01*
X10515357Y-13686714D02*
X10515357Y-13386714D01*
X10486786Y-13429571D01*
X10458214Y-13458143D01*
X10429643Y-13472429D01*
X10729643Y-13658143D02*
X10743928Y-13672429D01*
X10729643Y-13686714D01*
X10715357Y-13672429D01*
X10729643Y-13658143D01*
X10729643Y-13686714D01*
X10929643Y-13386714D02*
X10958214Y-13386714D01*
X10986786Y-13401000D01*
X11001071Y-13415286D01*
X11015357Y-13443857D01*
X11029643Y-13501000D01*
X11029643Y-13572429D01*
X11015357Y-13629571D01*
X11001071Y-13658143D01*
X10986786Y-13672429D01*
X10958214Y-13686714D01*
X10929643Y-13686714D01*
X10901071Y-13672429D01*
X10886786Y-13658143D01*
X10872500Y-13629571D01*
X10858214Y-13572429D01*
X10858214Y-13501000D01*
X10872500Y-13443857D01*
X10886786Y-13415286D01*
X10901071Y-13401000D01*
X10929643Y-13386714D01*
X11215357Y-13386714D02*
X11243928Y-13386714D01*
X11272500Y-13401000D01*
X11286786Y-13415286D01*
X11301071Y-13443857D01*
X11315357Y-13501000D01*
X11315357Y-13572429D01*
X11301071Y-13629571D01*
X11286786Y-13658143D01*
X11272500Y-13672429D01*
X11243928Y-13686714D01*
X11215357Y-13686714D01*
X11186786Y-13672429D01*
X11172500Y-13658143D01*
X11158214Y-13629571D01*
X11143928Y-13572429D01*
X11143928Y-13501000D01*
X11158214Y-13443857D01*
X11172500Y-13415286D01*
X11186786Y-13401000D01*
X11215357Y-13386714D01*
X11443928Y-13686714D02*
X11443928Y-13486714D01*
X11443928Y-13515286D02*
X11458214Y-13501000D01*
X11486786Y-13486714D01*
X11529643Y-13486714D01*
X11558214Y-13501000D01*
X11572500Y-13529571D01*
X11572500Y-13686714D01*
X11572500Y-13529571D02*
X11586786Y-13501000D01*
X11615357Y-13486714D01*
X11658214Y-13486714D01*
X11686786Y-13501000D01*
X11701071Y-13529571D01*
X11701071Y-13686714D01*
X11843928Y-13686714D02*
X11843928Y-13486714D01*
X11843928Y-13515286D02*
X11858214Y-13501000D01*
X11886786Y-13486714D01*
X11929643Y-13486714D01*
X11958214Y-13501000D01*
X11972500Y-13529571D01*
X11972500Y-13686714D01*
X11972500Y-13529571D02*
X11986786Y-13501000D01*
X12015357Y-13486714D01*
X12058214Y-13486714D01*
X12086786Y-13501000D01*
X12101071Y-13529571D01*
X12101071Y-13686714D01*
X12686786Y-13372429D02*
X12429643Y-13758143D01*
X13072500Y-13386714D02*
X13101071Y-13386714D01*
X13129643Y-13401000D01*
X13143928Y-13415286D01*
X13158214Y-13443857D01*
X13172500Y-13501000D01*
X13172500Y-13572429D01*
X13158214Y-13629571D01*
X13143928Y-13658143D01*
X13129643Y-13672429D01*
X13101071Y-13686714D01*
X13072500Y-13686714D01*
X13043928Y-13672429D01*
X13029643Y-13658143D01*
X13015357Y-13629571D01*
X13001071Y-13572429D01*
X13001071Y-13501000D01*
X13015357Y-13443857D01*
X13029643Y-13415286D01*
X13043928Y-13401000D01*
X13072500Y-13386714D01*
X13301071Y-13658143D02*
X13315357Y-13672429D01*
X13301071Y-13686714D01*
X13286786Y-13672429D01*
X13301071Y-13658143D01*
X13301071Y-13686714D01*
X13501071Y-13386714D02*
X13529643Y-13386714D01*
X13558214Y-13401000D01*
X13572500Y-13415286D01*
X13586786Y-13443857D01*
X13601071Y-13501000D01*
X13601071Y-13572429D01*
X13586786Y-13629571D01*
X13572500Y-13658143D01*
X13558214Y-13672429D01*
X13529643Y-13686714D01*
X13501071Y-13686714D01*
X13472500Y-13672429D01*
X13458214Y-13658143D01*
X13443928Y-13629571D01*
X13429643Y-13572429D01*
X13429643Y-13501000D01*
X13443928Y-13443857D01*
X13458214Y-13415286D01*
X13472500Y-13401000D01*
X13501071Y-13386714D01*
X13701071Y-13386714D02*
X13886786Y-13386714D01*
X13786786Y-13501000D01*
X13829643Y-13501000D01*
X13858214Y-13515286D01*
X13872500Y-13529571D01*
X13886786Y-13558143D01*
X13886786Y-13629571D01*
X13872500Y-13658143D01*
X13858214Y-13672429D01*
X13829643Y-13686714D01*
X13743928Y-13686714D01*
X13715357Y-13672429D01*
X13701071Y-13658143D01*
X14029643Y-13686714D02*
X14086786Y-13686714D01*
X14115357Y-13672429D01*
X14129643Y-13658143D01*
X14158214Y-13615286D01*
X14172500Y-13558143D01*
X14172500Y-13443857D01*
X14158214Y-13415286D01*
X14143928Y-13401000D01*
X14115357Y-13386714D01*
X14058214Y-13386714D01*
X14029643Y-13401000D01*
X14015357Y-13415286D01*
X14001071Y-13443857D01*
X14001071Y-13515286D01*
X14015357Y-13543857D01*
X14029643Y-13558143D01*
X14058214Y-13572429D01*
X14115357Y-13572429D01*
X14143928Y-13558143D01*
X14158214Y-13543857D01*
X14172500Y-13515286D01*
X14286786Y-13386714D02*
X14286786Y-13443857D01*
X14401071Y-13386714D02*
X14401071Y-13443857D01*
X14843928Y-13801000D02*
X14829643Y-13786714D01*
X14801071Y-13743857D01*
X14786786Y-13715286D01*
X14772500Y-13672429D01*
X14758214Y-13601000D01*
X14758214Y-13543857D01*
X14772500Y-13472429D01*
X14786786Y-13429571D01*
X14801071Y-13401000D01*
X14829643Y-13358143D01*
X14843928Y-13343857D01*
X14929643Y-13386714D02*
X15115357Y-13386714D01*
X15015357Y-13501000D01*
X15058214Y-13501000D01*
X15086786Y-13515286D01*
X15101071Y-13529571D01*
X15115357Y-13558143D01*
X15115357Y-13629571D01*
X15101071Y-13658143D01*
X15086786Y-13672429D01*
X15058214Y-13686714D01*
X14972500Y-13686714D01*
X14943928Y-13672429D01*
X14929643Y-13658143D01*
X15372500Y-13386714D02*
X15315357Y-13386714D01*
X15286786Y-13401000D01*
X15272500Y-13415286D01*
X15243928Y-13458143D01*
X15229643Y-13515286D01*
X15229643Y-13629571D01*
X15243928Y-13658143D01*
X15258214Y-13672429D01*
X15286786Y-13686714D01*
X15343928Y-13686714D01*
X15372500Y-13672429D01*
X15386786Y-13658143D01*
X15401071Y-13629571D01*
X15401071Y-13558143D01*
X15386786Y-13529571D01*
X15372500Y-13515286D01*
X15343928Y-13501000D01*
X15286786Y-13501000D01*
X15258214Y-13515286D01*
X15243928Y-13529571D01*
X15229643Y-13558143D01*
X15758214Y-13686714D02*
X15758214Y-13386714D01*
X15886786Y-13686714D02*
X15886786Y-13529571D01*
X15872500Y-13501000D01*
X15843928Y-13486714D01*
X15801071Y-13486714D01*
X15772500Y-13501000D01*
X15758214Y-13515286D01*
X16072500Y-13686714D02*
X16043928Y-13672429D01*
X16029643Y-13658143D01*
X16015357Y-13629571D01*
X16015357Y-13543857D01*
X16029643Y-13515286D01*
X16043928Y-13501000D01*
X16072500Y-13486714D01*
X16115357Y-13486714D01*
X16143928Y-13501000D01*
X16158214Y-13515286D01*
X16172500Y-13543857D01*
X16172500Y-13629571D01*
X16158214Y-13658143D01*
X16143928Y-13672429D01*
X16115357Y-13686714D01*
X16072500Y-13686714D01*
X16343928Y-13686714D02*
X16315357Y-13672429D01*
X16301071Y-13643857D01*
X16301071Y-13386714D01*
X16572500Y-13672429D02*
X16543928Y-13686714D01*
X16486786Y-13686714D01*
X16458214Y-13672429D01*
X16443928Y-13643857D01*
X16443928Y-13529571D01*
X16458214Y-13501000D01*
X16486786Y-13486714D01*
X16543928Y-13486714D01*
X16572500Y-13501000D01*
X16586786Y-13529571D01*
X16586786Y-13558143D01*
X16443928Y-13586714D01*
X16701071Y-13672429D02*
X16729643Y-13686714D01*
X16786786Y-13686714D01*
X16815357Y-13672429D01*
X16829643Y-13643857D01*
X16829643Y-13629571D01*
X16815357Y-13601000D01*
X16786786Y-13586714D01*
X16743928Y-13586714D01*
X16715357Y-13572429D01*
X16701071Y-13543857D01*
X16701071Y-13529571D01*
X16715357Y-13501000D01*
X16743928Y-13486714D01*
X16786786Y-13486714D01*
X16815357Y-13501000D01*
X16929643Y-13801000D02*
X16943928Y-13786714D01*
X16972500Y-13743857D01*
X16986786Y-13715286D01*
X17001071Y-13672429D01*
X17015357Y-13601000D01*
X17015357Y-13543857D01*
X17001071Y-13472429D01*
X16986786Y-13429571D01*
X16972500Y-13401000D01*
X16943928Y-13358143D01*
X16929643Y-13343857D01*
X10102500Y-13892000D02*
X10102500Y-14002000D01*
X10047500Y-13947000D02*
X10157500Y-13947000D01*
X10601071Y-14082714D02*
X10429643Y-14082714D01*
X10515357Y-14082714D02*
X10515357Y-13782714D01*
X10486786Y-13825571D01*
X10458214Y-13854143D01*
X10429643Y-13868429D01*
X10729643Y-14054143D02*
X10743928Y-14068429D01*
X10729643Y-14082714D01*
X10715357Y-14068429D01*
X10729643Y-14054143D01*
X10729643Y-14082714D01*
X11029643Y-14082714D02*
X10858214Y-14082714D01*
X10943928Y-14082714D02*
X10943928Y-13782714D01*
X10915357Y-13825571D01*
X10886786Y-13854143D01*
X10858214Y-13868429D01*
X11215357Y-13782714D02*
X11243928Y-13782714D01*
X11272500Y-13797000D01*
X11286786Y-13811286D01*
X11301071Y-13839857D01*
X11315357Y-13897000D01*
X11315357Y-13968429D01*
X11301071Y-14025571D01*
X11286786Y-14054143D01*
X11272500Y-14068429D01*
X11243928Y-14082714D01*
X11215357Y-14082714D01*
X11186786Y-14068429D01*
X11172500Y-14054143D01*
X11158214Y-14025571D01*
X11143928Y-13968429D01*
X11143928Y-13897000D01*
X11158214Y-13839857D01*
X11172500Y-13811286D01*
X11186786Y-13797000D01*
X11215357Y-13782714D01*
X11443928Y-14082714D02*
X11443928Y-13882714D01*
X11443928Y-13911286D02*
X11458214Y-13897000D01*
X11486786Y-13882714D01*
X11529643Y-13882714D01*
X11558214Y-13897000D01*
X11572500Y-13925571D01*
X11572500Y-14082714D01*
X11572500Y-13925571D02*
X11586786Y-13897000D01*
X11615357Y-13882714D01*
X11658214Y-13882714D01*
X11686786Y-13897000D01*
X11701071Y-13925571D01*
X11701071Y-14082714D01*
X11843928Y-14082714D02*
X11843928Y-13882714D01*
X11843928Y-13911286D02*
X11858214Y-13897000D01*
X11886786Y-13882714D01*
X11929643Y-13882714D01*
X11958214Y-13897000D01*
X11972500Y-13925571D01*
X11972500Y-14082714D01*
X11972500Y-13925571D02*
X11986786Y-13897000D01*
X12015357Y-13882714D01*
X12058214Y-13882714D01*
X12086786Y-13897000D01*
X12101071Y-13925571D01*
X12101071Y-14082714D01*
X12686786Y-13768429D02*
X12429643Y-14154143D01*
X13072500Y-13782714D02*
X13101071Y-13782714D01*
X13129643Y-13797000D01*
X13143928Y-13811286D01*
X13158214Y-13839857D01*
X13172500Y-13897000D01*
X13172500Y-13968429D01*
X13158214Y-14025571D01*
X13143928Y-14054143D01*
X13129643Y-14068429D01*
X13101071Y-14082714D01*
X13072500Y-14082714D01*
X13043928Y-14068429D01*
X13029643Y-14054143D01*
X13015357Y-14025571D01*
X13001071Y-13968429D01*
X13001071Y-13897000D01*
X13015357Y-13839857D01*
X13029643Y-13811286D01*
X13043928Y-13797000D01*
X13072500Y-13782714D01*
X13301071Y-14054143D02*
X13315357Y-14068429D01*
X13301071Y-14082714D01*
X13286786Y-14068429D01*
X13301071Y-14054143D01*
X13301071Y-14082714D01*
X13501071Y-13782714D02*
X13529643Y-13782714D01*
X13558214Y-13797000D01*
X13572500Y-13811286D01*
X13586786Y-13839857D01*
X13601071Y-13897000D01*
X13601071Y-13968429D01*
X13586786Y-14025571D01*
X13572500Y-14054143D01*
X13558214Y-14068429D01*
X13529643Y-14082714D01*
X13501071Y-14082714D01*
X13472500Y-14068429D01*
X13458214Y-14054143D01*
X13443928Y-14025571D01*
X13429643Y-13968429D01*
X13429643Y-13897000D01*
X13443928Y-13839857D01*
X13458214Y-13811286D01*
X13472500Y-13797000D01*
X13501071Y-13782714D01*
X13858214Y-13882714D02*
X13858214Y-14082714D01*
X13786786Y-13768429D02*
X13715357Y-13982714D01*
X13901071Y-13982714D01*
X13986786Y-13782714D02*
X14172500Y-13782714D01*
X14072500Y-13897000D01*
X14115357Y-13897000D01*
X14143928Y-13911286D01*
X14158214Y-13925571D01*
X14172500Y-13954143D01*
X14172500Y-14025571D01*
X14158214Y-14054143D01*
X14143928Y-14068429D01*
X14115357Y-14082714D01*
X14029643Y-14082714D01*
X14001071Y-14068429D01*
X13986786Y-14054143D01*
X14286786Y-13782714D02*
X14286786Y-13839857D01*
X14401071Y-13782714D02*
X14401071Y-13839857D01*
X14843928Y-14197000D02*
X14829643Y-14182714D01*
X14801071Y-14139857D01*
X14786786Y-14111286D01*
X14772500Y-14068429D01*
X14758214Y-13997000D01*
X14758214Y-13939857D01*
X14772500Y-13868429D01*
X14786786Y-13825571D01*
X14801071Y-13797000D01*
X14829643Y-13754143D01*
X14843928Y-13739857D01*
X14943928Y-13811286D02*
X14958214Y-13797000D01*
X14986786Y-13782714D01*
X15058214Y-13782714D01*
X15086786Y-13797000D01*
X15101071Y-13811286D01*
X15115357Y-13839857D01*
X15115357Y-13868429D01*
X15101071Y-13911286D01*
X14929643Y-14082714D01*
X15115357Y-14082714D01*
X15372500Y-13882714D02*
X15372500Y-14082714D01*
X15301071Y-13768429D02*
X15229643Y-13982714D01*
X15415357Y-13982714D01*
X15758214Y-14082714D02*
X15758214Y-13782714D01*
X15886786Y-14082714D02*
X15886786Y-13925571D01*
X15872500Y-13897000D01*
X15843928Y-13882714D01*
X15801071Y-13882714D01*
X15772500Y-13897000D01*
X15758214Y-13911286D01*
X16072500Y-14082714D02*
X16043928Y-14068429D01*
X16029643Y-14054143D01*
X16015357Y-14025571D01*
X16015357Y-13939857D01*
X16029643Y-13911286D01*
X16043928Y-13897000D01*
X16072500Y-13882714D01*
X16115357Y-13882714D01*
X16143928Y-13897000D01*
X16158214Y-13911286D01*
X16172500Y-13939857D01*
X16172500Y-14025571D01*
X16158214Y-14054143D01*
X16143928Y-14068429D01*
X16115357Y-14082714D01*
X16072500Y-14082714D01*
X16343928Y-14082714D02*
X16315357Y-14068429D01*
X16301071Y-14039857D01*
X16301071Y-13782714D01*
X16572500Y-14068429D02*
X16543928Y-14082714D01*
X16486786Y-14082714D01*
X16458214Y-14068429D01*
X16443928Y-14039857D01*
X16443928Y-13925571D01*
X16458214Y-13897000D01*
X16486786Y-13882714D01*
X16543928Y-13882714D01*
X16572500Y-13897000D01*
X16586786Y-13925571D01*
X16586786Y-13954143D01*
X16443928Y-13982714D01*
X16701071Y-14068429D02*
X16729643Y-14082714D01*
X16786786Y-14082714D01*
X16815357Y-14068429D01*
X16829643Y-14039857D01*
X16829643Y-14025571D01*
X16815357Y-13997000D01*
X16786786Y-13982714D01*
X16743928Y-13982714D01*
X16715357Y-13968429D01*
X16701071Y-13939857D01*
X16701071Y-13925571D01*
X16715357Y-13897000D01*
X16743928Y-13882714D01*
X16786786Y-13882714D01*
X16815357Y-13897000D01*
X16929643Y-14197000D02*
X16943928Y-14182714D01*
X16972500Y-14139857D01*
X16986786Y-14111286D01*
X17001071Y-14068429D01*
X17015357Y-13997000D01*
X17015357Y-13939857D01*
X17001071Y-13868429D01*
X16986786Y-13825571D01*
X16972500Y-13797000D01*
X16943928Y-13754143D01*
X16929643Y-13739857D01*
M02*
